<?xml version="1.0" encoding="UTF-8"?>
<svg width="234px" height="130px" viewBox="0 0 234 130" version="1.1" xmlns="http://www.w3.org/2000/svg" xmlns:xlink="http://www.w3.org/1999/xlink">
    <title>649lotto</title>
    <g id="Bg" stroke="none" stroke-width="1" fill="none" fill-rule="evenodd">
        <g id="Logos" transform="translate(-974.000000, -1470.000000)" fill-rule="nonzero">
            <g id="649lotto" transform="translate(974.000000, 1470.000000)">
                <rect id="Rectangle" x="0" y="0" width="234" height="130" rx="2"></rect>
                <g id="Group-7" transform="translate(26.000000, 15.000000)">
                    <path d="M161.771904,86.7 C161.471904,88.3 161.771904,90 162.771904,91.3 C163.871904,92.5 165.471904,93.2 167.071904,93.1 C168.871904,93.2 170.571904,92.5 171.871904,91.3 C173.171904,90.1 173.971904,88.5 174.171904,86.7 C174.471904,85.1 174.171904,83.4 173.171904,82.1 C172.071904,80.9 170.471904,80.2 168.871904,80.3 C167.071904,80.2 165.371904,80.9 164.071904,82.1 C162.871904,83.4 162.071904,85 161.771904,86.7 Z M154.071904,86.7 C154.271904,84.8 154.971904,82.9 155.871904,81.3 C156.771904,79.7 157.971904,78.3 159.371904,77.1 C160.771904,75.9 162.471904,75 164.171904,74.4 C165.971904,73.8 167.871904,73.5 169.771904,73.5 C171.571904,73.5 173.371904,73.8 175.071904,74.4 C176.571904,75 177.971904,75.9 179.171904,77.1 C180.271904,78.3 181.071904,79.7 181.571904,81.3 C182.071904,83.1 182.171904,84.9 181.871904,86.7 C181.671904,88.6 180.971904,90.5 179.971904,92.1 C178.071904,95.3 175.171904,97.7 171.571904,98.9 C169.771904,99.5 167.871904,99.8 165.971904,99.8 C164.171904,99.8 162.371904,99.5 160.671904,98.9 C159.171904,98.3 157.771904,97.4 156.571904,96.2 C155.471904,95 154.671904,93.6 154.171904,92 C153.871904,90.4 153.771904,88.6 154.071904,86.7 Z M154.071904,80.4 L147.271904,80.4 L146.071904,88.8 C145.971904,89.4 145.871904,90.1 145.871904,90.7 C145.871904,91.2 145.971904,91.7 146.171904,92.2 C146.371904,92.6 146.771904,93 147.171904,93.2 C147.771904,93.5 148.471904,93.6 149.071904,93.5 C149.571904,93.5 150.171904,93.4 150.671904,93.4 C151.271904,93.3 151.771904,93.1 152.271904,92.8 L151.371904,99.3 C150.471904,99.6 149.571904,99.8 148.571904,99.9 C147.671904,100 146.771904,100 145.771904,100.1 C144.571904,100.1 143.371904,100 142.171904,99.7 C141.171904,99.5 140.271904,99 139.471904,98.4 C138.771904,97.8 138.171904,97 137.871904,96.1 C137.571904,95 137.471904,93.8 137.671904,92.6 L139.371904,80.7 L134.471904,80.7 L135.371904,74.5 L140.371904,74.5 L141.371904,67.1 L149.071904,67.1 L148.071904,74.5 L154.871904,74.5 L154.071904,80.4 Z M135.171904,80.4 L128.371904,80.4 L127.171904,88.8 C127.071904,89.4 127.071904,90.1 127.071904,90.7 C127.071904,91.2 127.171904,91.7 127.371904,92.2 C127.571904,92.6 127.971904,93 128.371904,93.2 C128.971904,93.5 129.671904,93.6 130.271904,93.5 C130.771904,93.5 131.371904,93.4 131.871904,93.4 C132.471904,93.3 132.971904,93.1 133.471904,92.8 L132.571904,99.3 C131.671904,99.6 130.771904,99.8 129.771904,99.9 C128.871904,100 127.971904,100 126.971904,100.1 C125.771904,100.1 124.571904,100 123.371904,99.7 C122.371904,99.5 121.471904,99 120.671904,98.4 C119.971904,97.8 119.371904,97 119.071904,96.1 C118.771904,95 118.671904,93.8 118.871904,92.6 L120.571904,80.7 L115.571904,80.7 L116.471904,74.5 L121.471904,74.5 L122.471904,67.1 L130.171904,67.1 L129.171904,74.5 L135.971904,74.5 L135.171904,80.4 Z M94.5719042,86.7 C94.2719042,88.3 94.5719042,90 95.5719042,91.3 C96.6719042,92.5 98.2719042,93.2 99.8719042,93.1 C101.671904,93.2 103.371904,92.5 104.671904,91.3 C105.971904,90.1 106.771904,88.5 106.971904,86.7 C107.271904,85.1 106.971904,83.4 105.971904,82.1 C104.871904,80.9 103.271904,80.2 101.671904,80.3 C99.8719042,80.2 98.1719042,80.9 96.8719042,82.1 C95.5719042,83.4 94.6719042,85 94.5719042,86.7 L94.5719042,86.7 Z M86.7719042,86.7 C86.9719042,84.8 87.6719042,82.9 88.5719042,81.3 C89.4719042,79.7 90.6719042,78.3 92.0719042,77.2 C93.4719042,76 95.1719042,75.1 96.8719042,74.5 C98.6719042,73.9 100.571904,73.6 102.471904,73.6 C104.271904,73.6 106.071904,73.9 107.771904,74.5 C109.271904,75.1 110.671904,76 111.871904,77.2 C112.971904,78.4 113.771904,79.8 114.271904,81.4 C114.771904,83.2 114.871904,85 114.571904,86.8 C114.371904,88.7 113.671904,90.6 112.671904,92.2 C110.771904,95.4 107.871904,97.8 104.271904,99 C102.471904,99.6 100.571904,99.9 98.6719042,99.9 C96.8719042,99.9 95.0719042,99.6 93.3719042,99 C91.8719042,98.4 90.4719042,97.5 89.2719042,96.3 C88.1719042,95.1 87.3719042,93.7 86.8719042,92.1 C86.5719042,90.4 86.4719042,88.6 86.7719042,86.7 L86.7719042,86.7 Z M80.1719042,60.3 L87.9719042,60.3 L82.4719042,99.3 L74.6719042,99.3 L80.1719042,60.3 Z" id="Shape" fill="#010101"></path>
                    <path d="M109.871904,19.2 C109.471904,21.4 109.971904,23.7 111.471904,25.4 C112.971904,27.1 115.171904,28 117.471904,27.8 C122.471904,27.9 126.871904,24.2 127.571904,19.2 C127.971904,17 127.371904,14.7 125.971904,13 C124.471904,11.3 122.271904,10.4 119.971904,10.6 C117.471904,10.5 115.071904,11.4 113.271904,13 C111.371904,14.6 110.171904,16.8 109.871904,19.2 Z M116.871904,36.1 C116.171904,36.3 115.571904,36.4 114.971904,36.5 C114.371904,36.6 113.671904,36.7 113.071904,36.7 C110.671904,36.7 108.371904,36.3 106.171904,35.3 C104.271904,34.4 102.571904,33.1 101.271904,31.5 C99.9719042,29.8 99.0719042,27.9 98.5719042,25.8 C98.0719042,23.5 97.9719042,21.1 98.3719042,18.8 C98.6719042,16.1 99.5719042,13.4 100.971904,11.1 C102.371904,8.8 104.071904,6.8 106.171904,5.2 C108.271904,3.5 110.671904,2.2 113.171904,1.4 C115.771904,0.5 118.571904,9.23705556e-14 121.371904,9.23705556e-14 C124.071904,9.23705556e-14 126.671904,0.4 129.171904,1.4 C131.471904,2.2 133.471904,3.5 135.171904,5.2 C136.771904,6.9 137.971904,8.9 138.671904,11.1 C139.371904,13.6 139.571904,16.2 139.171904,18.8 C138.871904,20.6 138.471904,22.4 137.771904,24.2 C137.171904,25.8 136.471904,27.3 135.671904,28.8 C134.871904,30.3 133.971904,31.7 132.971904,33 L129.971904,37.1 L115.271904,55.8 L101.071904,55.8 L116.871904,36.1 Z M82.6719042,16.1 L82.4719042,16.1 L67.6719042,34.9 L79.9719042,34.9 L82.6719042,16.1 Z M71.4719042,44.7 C68.0719042,39.5 63.1719042,35.5 57.4719042,33.2 L83.1719042,0.8 L95.8719042,0.8 L91.1719042,34.9 L98.1719042,34.9 L96.7719042,44.7 L89.7719042,44.7 L88.2719042,55.7 L77.1719042,55.7 L78.6719042,44.7 L71.4719042,44.7 Z" id="Shape" fill="#1B62AC"></path>
                    <path d="M33.4719042,53 L33.3719042,52.8 L33.3719042,53.1 L31.2719042,58.5 L26.7719042,56.6 L28.7719042,68.6 L23.2719042,61.7 L21.4719042,65.2 L17.1719042,63.2 L18.8719042,67.5 L15.6719042,69.2 L26.7719042,76 L23.2719042,80.9 L32.5719042,78.6 L32.1719042,84.4 L34.8719042,84.4 L34.3719042,78.7 L43.6719042,81 L40.1719042,76.1 L51.1719042,69.3 L47.9719042,67.6 L49.7719042,63.3 L45.4719042,65.3 L43.6719042,61.8 L38.1719042,68.7 L40.1719042,56.7 L35.5719042,58.6 L33.5719042,53.2 L33.5719042,52.9 L33.4719042,53 Z M37.7719042,39.5 C38.8719042,39.2 39.9719042,39 40.9719042,38.9 C42.0719042,38.7 43.0719042,38.6 44.1719042,38.6 C48.0719042,38.5 51.9719042,39.3 55.5719042,40.9 C58.7719042,42.3 61.5719042,44.5 63.6719042,47.2 C65.8719042,50 67.3719042,53.2 68.1719042,56.7 C69.0719042,60.5 69.2719042,64.5 68.5719042,68.4 C67.9719042,72.9 66.4719042,77.3 64.1719042,81.2 C61.9719042,85 59.0719042,88.3 55.5719042,91.1 C52.0719042,93.9 48.0719042,96.1 43.7719042,97.5 C39.3719042,99 34.7719042,99.8 30.0719042,99.8 C25.5719042,99.9 21.1719042,99.1 16.9719042,97.6 C13.2719042,96.2 9.87190415,94 7.07190415,91.2 C4.37190415,88.4 2.37190415,85 1.17190415,81.3 C-0.0280958455,77.1 -0.328095846,72.7 0.371904154,68.5 C0.771904154,65.4 1.47190415,62.4 2.47190415,59.5 C3.47190415,56.9 4.57190415,54.3 5.87190415,51.8 C7.17190415,49.4 8.67190415,47.1 10.3719042,44.9 C12.0719042,42.7 13.7719042,40.4 15.5719042,38.1 L40.1719042,6.9 L63.7719042,6.9 L37.7719042,39.5 Z" id="Shape" fill="#E73240"></path>
                </g>
            </g>
        </g>
    </g>
</svg>