<?xml version="1.0" encoding="UTF-8"?>
<svg width="234px" height="130px" viewBox="0 0 234 130" version="1.1" xmlns="http://www.w3.org/2000/svg" xmlns:xlink="http://www.w3.org/1999/xlink">
    <title>austria_lotto</title>
    <g id="Bg" stroke="none" stroke-width="1" fill="none" fill-rule="evenodd">
        <g id="Logos" transform="translate(-668.000000, -1268.000000)">
            <g id="austria_lotto" transform="translate(668.000000, 1268.000000)">
                <rect id="Rectangle" x="0" y="0" width="234" height="130" rx="2"></rect>
                <path d="M211.425,47.028 C214.6295,48.133 217.613,49.901 220.1545,52.2215 C222.5855,54.542 224.5745,57.3045 225.9005,60.3985 C227.337,63.824 228,67.4705 228,71.2275 C228,74.9845 227.337,78.631 225.9005,82.167 C224.5745,85.3715 222.5855,88.2445 220.1545,90.565 C217.613,92.8855 214.6295,94.764 211.425,95.869 C204.4635,98.4105 196.7285,98.4105 189.767,95.869 C186.5625,94.6535 183.579,92.8855 181.148,90.4545 C178.717,88.134 176.728,85.261 175.402,82.0565 C173.9655,78.7415 173.3025,74.9845 173.3025,71.2275 C173.192,67.581 173.9655,63.824 175.402,60.3985 C176.728,57.3045 178.717,54.542 181.148,52.2215 C183.6895,49.901 186.5625,48.133 189.767,47.028 C196.839,44.597 204.4635,44.597 211.425,47.028 Z M81.035,47.028 C84.2395,48.133 87.223,49.901 89.7645,52.2215 C92.1955,54.542 94.1845,57.3045 95.5105,60.3985 C96.947,63.824 97.61,67.4705 97.61,71.2275 C97.61,74.9845 96.947,78.631 95.5105,82.167 C94.1845,85.3715 92.1955,88.2445 89.7645,90.565 C87.223,92.8855 84.2395,94.764 81.035,95.869 C74.0735,98.4105 66.3385,98.4105 59.377,95.869 C56.1725,94.6535 53.189,92.8855 50.758,90.4545 C48.327,88.134 46.338,85.261 45.012,82.0565 C43.5755,78.7415 42.9125,74.9845 42.9125,71.2275 C42.802,67.581 43.5755,63.824 45.012,60.3985 C46.338,57.3045 48.327,54.542 50.758,52.2215 C53.2995,49.901 56.1725,48.133 59.377,47.028 C66.449,44.597 74.0735,44.597 81.035,47.028 Z M23.6855,46.6965 L23.6855,82.167 L40.0395,82.167 L40.0395,96.532 L7,96.532 L7,46.6965 L23.6855,46.6965 Z M170.4295,46.6965 L170.4295,60.8405 L158.385,60.8405 L158.385,96.4215 L141.81,96.4215 L141.81,46.6965 L170.4295,46.6965 Z M129.1025,46.6965 L128.992,96.4215 L112.417,96.4215 L112.417,60.8405 L100.483,60.8405 L100.483,46.6965 L129.1025,46.6965 Z M200.596,60.509 C199.27,60.509 197.944,60.73 196.7285,61.2825 C195.513,61.7245 194.5185,62.498 193.6345,63.382 C192.7505,64.3765 192.0875,65.4815 191.6455,66.8075 C191.093,68.244 190.872,69.791 190.872,71.2275 C190.872,72.7745 191.093,74.3215 191.6455,75.758 C192.0875,77.084 192.7505,78.189 193.6345,79.294 C194.5185,80.2885 195.513,81.062 196.7285,81.6145 C197.944,82.167 199.27,82.388 200.596,82.388 C201.922,82.388 203.248,82.167 204.4635,81.6145 C205.679,81.062 206.6735,80.2885 207.5575,79.294 C208.4415,78.2995 209.1045,77.084 209.657,75.758 C210.2095,74.3215 210.4305,72.7745 210.4305,71.2275 C210.4305,69.6805 210.2095,68.244 209.657,66.8075 C209.215,65.592 208.552,64.3765 207.5575,63.382 C206.6735,62.498 205.679,61.7245 204.4635,61.2825 C203.248,60.73 201.922,60.509 200.596,60.509 Z M70.206,60.509 C68.88,60.509 67.554,60.73 66.3385,61.2825 C65.123,61.7245 64.1285,62.498 63.2445,63.382 C62.3605,64.3765 61.6975,65.4815 61.2555,66.8075 C60.703,68.244 60.482,69.791 60.482,71.2275 C60.482,72.7745 60.703,74.3215 61.2555,75.758 C61.6975,77.084 62.3605,78.189 63.2445,79.294 C64.1285,80.2885 65.123,81.062 66.3385,81.6145 C67.554,82.167 68.88,82.388 70.206,82.388 C71.532,82.388 72.858,82.167 74.0735,81.6145 C75.289,81.062 76.2835,80.2885 77.1675,79.294 C78.0515,78.2995 78.7145,77.084 79.1565,75.758 C79.5985,74.3215 79.93,72.7745 79.93,71.2275 C79.93,69.6805 79.709,68.244 79.1565,66.8075 C78.7145,65.592 78.0515,64.3765 77.1675,63.382 C76.2835,62.498 75.289,61.7245 74.0735,61.2825 C72.858,60.73 71.532,60.509 70.206,60.509 Z M129.3235,32 C129.9865,32 130.539,32.1105 131.202,32.3315 C131.865,32.5525 132.4175,32.884 132.8595,33.326 L130.981,35.2045 C130.76,34.873 130.4285,34.652 130.097,34.5415 C129.7655,34.3205 129.434,34.3205 129.1025,34.3205 L128.55,34.3205 L128.55,34.3205 C128.329,34.3205 128.2185,34.431 128.108,34.5415 C127.9975,34.652 127.887,34.7625 127.7765,34.873 C127.666,34.9835 127.666,35.2045 127.666,35.4255 C127.666,35.536 127.666,35.757 127.7765,35.8675 C127.887,35.978 127.9975,36.0885 128.108,36.199 C128.2185,36.3095 128.4395,36.42 128.6605,36.42 L129.3235,36.641 L130.4285,37.083 C130.8705,37.1935 131.202,37.4145 131.5335,37.6355 C131.865,37.8565 132.086,38.188 132.307,38.5195 C132.528,38.9615 132.6385,39.4035 132.6385,39.8455 C132.6385,40.398 132.528,40.9505 132.307,41.503 C132.086,41.945 131.7545,42.2765 131.423,42.608 C130.981,42.9395 130.539,43.1605 130.097,43.271 C129.5445,43.3815 129.1025,43.492 128.55,43.492 C127.7765,43.492 127.003,43.3815 126.34,43.05 C125.677,42.829 125.014,42.4975 124.572,41.945 L126.34,40.177 C126.6715,40.5085 127.003,40.84 127.3345,40.9505 C127.7765,41.1715 128.2185,41.282 128.6605,41.282 C128.8815,41.282 128.992,41.282 129.213,41.1715 C129.397167,41.1715 129.504597,41.0947639 129.599238,41.0052384 L129.655,40.9505 C129.7655,40.84 129.876,40.7295 129.9865,40.619 C130.0749,40.4422 130.09258,40.33612 130.096116,40.187608 L130.097,40.0665 C130.097,39.8455 130.097,39.735 129.9865,39.514 C129.876,39.4035 129.7655,39.1825 129.5445,39.1825 C129.3235,39.072 129.1025,38.9615 128.8815,38.851 L127.887,38.5195 C127.5555,38.409 127.224,38.2985 126.8925,38.0775 C126.561,37.967 126.2295,37.746 126.0085,37.525 C125.7875,37.304 125.5665,36.9725 125.3455,36.641 C125.1245,36.199 125.1245,35.8675 125.1245,35.4255 C125.1245,34.873 125.235,34.3205 125.456,33.8785 C125.677,33.4365 126.0085,33.105 126.4505,32.7735 C126.8925,32.442 127.3345,32.3315 127.7765,32.221 C128.2185,32.1105 128.771,32 129.3235,32 Z M116.2845,32.442 L116.2845,38.9615 C116.2845,39.293 116.2845,39.514 116.395,39.8455 C116.5055,40.0665 116.616,40.398 116.7265,40.5085 C116.837,40.7295 117.058,40.84 117.3895,41.061 C117.721,41.1715 118.0525,41.282 118.2735,41.282 C118.605,41.282 118.9365,41.1715 119.1575,41.061 C119.3785,40.9505 119.5995,40.7295 119.8205,40.5085 C119.931,40.2875 120.152,40.0665 120.152,39.8455 C120.2625,39.6245 120.2625,39.293 120.2625,38.9615 L120.2625,32.442 L122.9145,32.442 L122.804,39.1825 C122.804,39.8455 122.6935,40.398 122.4725,40.9505 C122.2515,41.503 121.92,41.945 121.5885,42.2765 C121.1465,42.7185 120.7045,42.9395 120.152,43.1605 C119.489,43.3815 118.9365,43.492 118.2735,43.492 C117.6105,43.492 116.9475,43.3815 116.395,43.1605 C115.8425,42.9395 115.4005,42.608 114.9585,42.2765 C114.5165,41.8345 114.2955,41.3925 114.0745,40.9505 C113.8535,40.398 113.743,39.735 113.743,39.1825 L113.743,32.442 L116.2845,32.442 Z M156.838,32.442 L156.838,43.271 L154.186,43.271 L154.186,32.442 L156.838,32.442 Z M149.324,32.5525 C149.766,32.663 150.208,32.884 150.65,33.105 C151.092,33.326 151.313,33.6575 151.6445,34.0995 C151.8655,34.5415 151.976,35.094 151.976,35.6465 C151.976,36.3095 151.755,36.9725 151.4235,37.525 C150.9815,38.0775 150.429,38.409 149.766,38.63 L152.639,43.271 L149.545,43.271 L147.2245,38.9615 L146.23,38.9615 L146.23,43.271 L143.6885,43.271 L143.6885,32.442 L147.777,32.442 C148.3295,32.442 148.7715,32.442 149.324,32.5525 Z M165.1255,32.442 L169.656,43.271 L166.783,43.271 L165.899,41.1715 L161.7,41.1715 L160.9265,43.271 L158.0535,43.271 L162.584,32.442 L165.1255,32.442 Z M142.1415,32.442 L142.1415,34.652 L139.158,34.652 L139.158,43.271 L136.506,43.271 L136.506,34.652 L133.412,34.652 L133.412,32.442 L142.1415,32.442 Z M107.997,32.442 L112.5275,43.271 L109.6545,43.271 L108.7705,41.1715 L104.5715,41.1715 L103.798,43.271 L100.925,43.271 L105.4555,32.442 L107.997,32.442 Z M163.91,35.315 L162.584,39.072 L165.3465,39.072 L163.91,35.315 Z M106.7815,35.315 L105.345,38.9615 L108.1075,38.9615 L106.7815,35.315 Z M148.3295,34.5415 L146.23,34.5415 L146.23,37.083 L148.1085,37.083 L148.1085,37.083 C148.3295,37.083 148.5505,36.9725 148.7715,36.862 C148.9925,36.7515 149.103,36.641 149.2135,36.42 C149.324,36.199 149.4345,35.978 149.4345,35.757 C149.4345,35.536 149.4345,35.315 149.324,35.094 C149.2135,34.9835 149.103,34.7625 148.882,34.7625 C148.661,34.652 148.5505,34.652 148.3295,34.5415 Z" id="Combined-Shape" fill="#097C64" fill-rule="nonzero"></path>
            </g>
        </g>
    </g>
</svg>