<?xml version="1.0" encoding="UTF-8"?>
<svg width="234px" height="130px" viewBox="0 0 234 130" version="1.1" xmlns="http://www.w3.org/2000/svg" xmlns:xlink="http://www.w3.org/1999/xlink">
    <title>baloto</title>
    <g id="Bg" stroke="none" stroke-width="1" fill="none" fill-rule="evenodd">
        <g id="Logos" transform="translate(-362.000000, -662.000000)">
            <g id="baloto" transform="translate(362.000000, 662.000000)">
                <rect id="Rectangle" x="0" y="0" width="234" height="130" rx="2"></rect>
                <g id="Group" transform="translate(13.000000, 32.000000)" fill-rule="nonzero">
                    <path d="M184.095522,60.3303483 L43.4626866,60.3303483 C30.2169154,60.3303483 19.558209,49.6716418 19.558209,36.4258706 L19.558209,36.4258706 C19.558209,23.1800995 30.2169154,12.521393 43.4626866,12.521393 L184.095522,12.521393 C197.341294,12.521393 208,23.1800995 208,36.4258706 L208,36.4258706 C208,49.6716418 197.341294,60.3303483 184.095522,60.3303483 Z" id="Path" fill="#E22123"></path>
                    <g>
                        <path d="M7.45074627,8.27860697 C8.17512438,7.14029851 9.41691542,6.4159204 10.8656716,6.4159204 C13.1422886,6.4159204 15.0049751,8.27860697 15.0049751,10.5552239 C15.0049751,11.6935323 14.5910448,12.7283582 13.7631841,13.4527363 C13.1422886,14.280597 11.6935323,16.4537313 10.8656716,18.9373134 C9.72736318,22.1452736 9.72736318,25.560199 9.72736318,25.560199 C9.72736318,25.560199 10.8656716,18.9373134 17.0746269,11.4865672 C22.6626866,4.86368159 30.4238806,1.24179104 31.7691542,0.620895522 C32.3900498,0.310447761 33.1144279,0.103482587 33.838806,0.103482587 C36.1154229,0.103482587 37.9781095,1.96616915 37.9781095,4.24278607 C37.9781095,6.00199005 36.9432836,7.45074627 35.3910448,8.07164179 C34.0457711,8.89950249 27.1124378,12.9353234 22.7661692,17.6955224 C17.9024876,22.9731343 17.6955224,29.9064677 17.6955224,29.9064677 C17.6955224,29.9064677 19.558209,20.4895522 26.6985075,15.4189055 C34.0457711,10.1412935 43.4626866,8.89950249 43.4626866,8.89950249 L43.4626866,8.89950249 C43.5661692,8.89950249 43.7731343,8.89950249 43.8766169,8.89950249 C46.1532338,8.89950249 48.0159204,10.7621891 48.0159204,13.038806 C48.0159204,15.2119403 46.2567164,17.0746269 44.0835821,17.1781095 L44.0835821,17.1781095 C44.0835821,17.1781095 35.080597,18.9373134 30.5273632,23.0766169 C25.9741294,27.2159204 26.1810945,32.079602 26.1810945,32.079602 C26.1810945,32.079602 29.3890547,28.1472637 34.0457711,26.80199 C38.7024876,25.4567164 43.5661692,25.9741294 43.5661692,25.9741294 L43.5661692,25.9741294 C45.8427861,26.0776119 47.60199,27.8368159 47.60199,30.1134328 C47.60199,32.3900498 45.7393035,34.2527363 43.4626866,34.2527363 C43.359204,34.2527363 43.2557214,34.2527363 43.1522388,34.2527363 L43.1522388,34.2527363 C43.1522388,34.2527363 39.3233831,33.838806 35.7014925,35.2875622 C32.2865672,36.6328358 30.2169154,40.5651741 30.8378109,44.4975124 C31.5621891,48.6368159 36.6328358,51.6378109 41.6,49.5681592 C50.8099502,45.7393035 46.8776119,37.3572139 46.8776119,37.3572139 L46.8776119,37.3572139 C46.5671642,36.7363184 46.360199,36.1154229 46.360199,35.3910448 C46.360199,33.1144279 48.2228856,31.2517413 50.4995025,31.2517413 C52.2587065,31.2517413 53.8109453,32.3900498 54.3283582,33.9422886 C55.1562189,35.7014925 58.1572139,43.6696517 50.4995025,53.8109453 C41.0825871,66.2288557 24.7323383,67.2636816 17.3850746,64.9870647 C10.0378109,62.7104478 2.27661692,57.3293532 1.03482587,37.1502488 C4.4408921e-16,17.281592 6.20895522,9.6238806 7.45074627,8.27860697 Z" id="Path" fill="#1363A7"></path>
                        <path d="M38.9094527,33.321393 C34.1492537,33.321393 30.2169154,37.2537313 30.2169154,42.0139303 C30.2169154,46.7741294 34.1492537,50.7064677 38.9094527,50.7064677 C43.6696517,50.7064677 47.60199,46.7741294 47.60199,42.0139303 C47.60199,37.2537313 43.6696517,33.321393 38.9094527,33.321393 Z M38.9094527,47.9124378 C35.7014925,47.9124378 33.1144279,45.3253731 33.1144279,42.1174129 C33.1144279,38.9094527 35.7014925,36.3223881 38.9094527,36.3223881 C42.1174129,36.3223881 44.7044776,38.9094527 44.7044776,42.1174129 C44.600995,45.3253731 42.0139303,47.9124378 38.9094527,47.9124378 Z" id="Shape" fill="#FFFFFF"></path>
                        <circle id="Oval" fill="#E22123" cx="38.9094527" cy="42.1174129" r="6.62288557"></circle>
                    </g>
                    <g transform="translate(61.054726, 17.592040)" fill="#F0E521">
                        <path d="M0.724378109,36.9432836 L0.724378109,0.724378109 L15.8328358,0.724378109 C18.8338308,0.724378109 21.4208955,1.75920398 23.4905473,3.93233831 C25.560199,6.10547264 26.6985075,8.69253731 26.6985075,11.6935323 C26.6985075,13.7631841 26.2845771,15.4189055 25.3532338,16.8676617 C25.2497512,17.281592 25.0427861,17.5920398 24.6288557,18.0059701 C24.6288557,18.0059701 24.6288557,18.1094527 24.6288557,18.1094527 C27.1124378,20.3860697 28.3542289,23.0766169 28.3542289,26.1810945 C28.3542289,28.3542289 27.7333333,30.4238806 26.3880597,32.2865672 C25.0427861,34.1492537 23.3870647,35.4945274 21.3174129,36.2189055 C19.8686567,36.7363184 18.7303483,37.0467662 17.799005,37.0467662 L0.724378109,37.0467662 L0.724378109,36.9432836 Z M7.9681592,7.9681592 L7.9681592,15.1084577 L16.3502488,15.1084577 C16.5572139,15.1084577 16.7641791,15.0049751 17.0746269,14.9014925 C18.5233831,14.280597 19.3512438,13.1422886 19.3512438,11.5900498 C19.3512438,10.0378109 18.6268657,8.89950249 17.0746269,8.17512438 C16.6606965,8.07164179 16.4537313,7.9681592 16.2467662,7.9681592 L7.9681592,7.9681592 Z M7.9681592,29.5960199 L17.1781095,29.5960199 C18.2129353,29.5960199 19.040796,29.2855721 19.8686567,28.561194 C20.5930348,27.8368159 21.0069652,27.0089552 21.0069652,26.0776119 C21.0069652,25.1462687 20.5930348,24.4218905 19.8686567,23.6975124 C19.1442786,22.9731343 18.3164179,22.6626866 17.3850746,22.6626866 L7.9681592,22.6626866 L7.9681592,29.5960199 Z" id="Shape"></path>
                        <path d="M49.1542289,35.4945274 C47.1880597,36.4258706 45.2218905,36.9432836 43.1522388,36.9432836 C39.5303483,36.9432836 36.4258706,35.59801 33.838806,33.0109453 C31.2517413,30.4238806 30.0099502,27.319403 30.0099502,23.6975124 C30.0099502,20.0756219 31.2517413,16.8676617 33.9422886,14.3840796 C36.5293532,11.7970149 39.6338308,10.5552239 43.359204,10.5552239 C46.0497512,10.5552239 48.6368159,11.3830846 50.9134328,12.9353234 C53.1900498,14.4875622 54.8457711,16.6606965 55.7771144,19.1442786 C56.2945274,20.5930348 56.6049751,21.8348259 56.6049751,22.8696517 L56.6049751,36.9432836 L49.361194,36.9432836 L49.361194,35.4945274 L49.1542289,35.4945274 Z M37.2537313,23.6975124 C37.2537313,25.3532338 37.8746269,26.6985075 39.0129353,27.8368159 C40.1512438,28.9751244 41.6,29.5960199 43.1522388,29.5960199 C44.8079602,29.5960199 46.1532338,28.9751244 47.2915423,27.8368159 C48.4298507,26.6985075 49.0507463,25.2497512 49.0507463,23.6975124 C49.0507463,22.1452736 48.4298507,20.6965174 47.2915423,19.558209 C46.1532338,18.4199005 44.7044776,17.799005 43.1522388,17.799005 C41.4965174,17.799005 40.1512438,18.3164179 38.9094527,19.4547264 C37.8746269,20.5930348 37.2537313,22.041791 37.2537313,23.6975124 Z" id="Shape"></path>
                        <path d="M58.1572139,0.931343284 L65.400995,0.931343284 L65.400995,28.8716418 C65.400995,28.9751244 65.5044776,29.1820896 65.8149254,29.3890547 C66.0218905,29.5960199 66.2288557,29.8029851 66.4358209,29.8029851 L69.4368159,29.8029851 L69.4368159,37.0467662 L65.918408,37.0467662 C65.5044776,37.0467662 64.9870647,36.9432836 64.2626866,36.7363184 C61.3651741,35.9084577 59.5024876,34.0457711 58.5711443,31.2517413 C58.2606965,30.4238806 58.1572139,29.8029851 58.1572139,29.3890547 L58.1572139,0.931343284 Z" id="Path"></path>
                        <path d="M71.2995025,23.6975124 C71.2995025,20.0756219 72.5412935,16.9711443 75.1283582,14.3840796 C77.7154229,11.7970149 80.8199005,10.5552239 84.3383085,10.5552239 C87.960199,10.5552239 91.1681592,11.7970149 93.7552239,14.3840796 C96.3422886,16.9711443 97.6875622,20.0756219 97.6875622,23.6975124 C97.6875622,27.319403 96.3422886,30.4238806 93.7552239,33.0109453 C91.1681592,35.59801 88.0636816,36.9432836 84.441791,36.9432836 C80.8199005,36.9432836 77.7154229,35.7014925 75.1283582,33.0109453 C72.5412935,30.4238806 71.2995025,27.319403 71.2995025,23.6975124 Z M78.5432836,23.6975124 C78.5432836,25.3532338 79.1641791,26.6985075 80.3024876,27.8368159 C81.440796,28.9751244 82.8895522,29.5960199 84.5452736,29.5960199 C86.200995,29.5960199 87.5462687,28.9751244 88.6845771,27.8368159 C89.8228856,26.6985075 90.4437811,25.2497512 90.4437811,23.6975124 C90.4437811,22.041791 89.8228856,20.6965174 88.6845771,19.558209 C87.5462687,18.4199005 86.0975124,17.799005 84.441791,17.799005 C82.7860697,17.799005 81.440796,18.4199005 80.3024876,19.558209 C79.0606965,20.6965174 78.5432836,22.1452736 78.5432836,23.6975124 Z" id="Shape"></path>
                        <path d="M99.4467662,0.931343284 L106.690547,0.931343284 L106.690547,10.1412935 L110.208955,10.1412935 L110.208955,17.4885572 L106.690547,17.4885572 L106.690547,28.4577114 C106.690547,28.6646766 106.79403,28.9751244 107.000995,29.1820896 C107.20796,29.4925373 107.414925,29.5960199 107.725373,29.5960199 L110.726368,29.5960199 L110.726368,36.9432836 L107.311443,36.9432836 C106.897512,36.9432836 106.276617,36.839801 105.655721,36.6328358 C102.654726,35.7014925 100.688557,33.7353234 99.8606965,30.7343284 C99.6537313,30.0099502 99.5502488,29.3890547 99.5502488,28.8716418 L99.5502488,0.931343284 L99.4467662,0.931343284 Z" id="Path"></path>
                        <path d="M112.485572,23.6975124 C112.485572,20.0756219 113.727363,16.9711443 116.314428,14.3840796 C118.901493,11.7970149 122.00597,10.5552239 125.524378,10.5552239 C129.146269,10.5552239 132.354229,11.7970149 134.941294,14.3840796 C137.528358,16.9711443 138.873632,20.0756219 138.873632,23.6975124 C138.873632,27.319403 137.528358,30.4238806 134.941294,33.0109453 C132.354229,35.59801 129.249751,36.9432836 125.627861,36.9432836 C122.00597,36.9432836 118.901493,35.7014925 116.314428,33.0109453 C113.727363,30.4238806 112.485572,27.319403 112.485572,23.6975124 Z M119.729353,23.6975124 C119.729353,25.3532338 120.350249,26.6985075 121.488557,27.8368159 C122.626866,28.9751244 124.075622,29.5960199 125.731343,29.5960199 C127.387065,29.5960199 128.732338,28.9751244 129.870647,27.8368159 C131.008955,26.6985075 131.629851,25.2497512 131.629851,23.6975124 C131.629851,22.041791 131.008955,20.6965174 129.870647,19.558209 C128.732338,18.4199005 127.283582,17.799005 125.627861,17.799005 C123.972139,17.799005 122.626866,18.4199005 121.488557,19.558209 C120.350249,20.6965174 119.729353,22.1452736 119.729353,23.6975124 Z" id="Shape"></path>
                    </g>
                </g>
            </g>
        </g>
    </g>
</svg>