<?xml version="1.0" encoding="UTF-8"?>
<svg width="234px" height="130px" viewBox="0 0 234 130" version="1.1" xmlns="http://www.w3.org/2000/svg" xmlns:xlink="http://www.w3.org/1999/xlink">
    <title>cash4life</title>
    <g id="Bg" stroke="none" stroke-width="1" fill="none" fill-rule="evenodd">
        <g id="Logos" transform="translate(-668.000000, -662.000000)">
            <g id="cash4life" transform="translate(668.000000, 662.000000)">
                <rect id="Rectangle" x="0" y="0" width="234" height="130" rx="2"></rect>
                <g id="Group" transform="translate(24.000000, 20.000000)" fill-rule="nonzero">
                    <g fill="#3D8263">
                        <path d="M39.3575,36.96875 C39.13,39.3575 39.01625,40.83625 39.01625,41.29125 C38.9025,41.29125 38.675,41.29125 38.4475,41.29125 C38.22,41.29125 37.9925,41.29125 37.65125,41.29125 C31.73625,41.1775 26.04875,40.60875 20.7025,39.47125 C15.35625,38.33375 11.1475,36.51375 7.9625,34.125 C5.57375,32.305 3.75375,30.37125 2.5025,28.21 C1.25125,26.04875 0.6825,23.54625 0.6825,20.7025 C0.6825,18.08625 1.365,15.6975 2.61625,13.4225 C3.8675,11.1475 5.57375,9.21375 7.62125,7.735 C11.03375,5.2325 15.12875,3.29875 20.02,2.16125 C24.91125,0.91 30.2575,0.34125 36.05875,0.2275 C36.4,0.2275 37.0825,0.2275 38.22,0.2275 C38.4475,2.16125 38.56125,3.75375 38.56125,4.7775 C38.22,4.7775 37.9925,4.7775 37.65125,4.7775 C37.42375,4.7775 37.0825,4.7775 36.855,4.7775 C32.87375,4.7775 29.23375,5.11875 25.82125,5.57375 C22.5225,6.02875 19.565,6.825 16.94875,7.9625 C13.53625,9.3275 10.92,11.03375 9.1,13.195 C7.16625,15.2425 6.25625,17.85875 6.25625,20.7025 C6.25625,23.54625 7.16625,26.04875 8.8725,28.21 C10.57875,30.37125 13.195,32.0775 16.6075,33.55625 C19.3375,34.69375 22.5225,35.60375 26.04875,36.1725 C29.68875,36.74125 33.4425,37.0825 37.5375,37.0825 C37.87875,37.0825 38.22,37.0825 38.56125,37.0825 C38.78875,37.0825 39.01625,36.96875 39.3575,36.96875 Z" id="Path"></path>
                        <path d="M94.185,38.9025 L89.52125,41.51875 C89.29375,41.1775 88.27,39.3575 86.33625,36.28625 C84.4025,33.10125 82.46875,29.91625 80.3075,26.6175 L54.6,26.6175 C51.98375,30.94 50.05,34.01125 48.685,36.1725 C47.32,38.22 46.1825,40.04 45.38625,41.6325 L41.6325,39.47125 C42.315,38.33375 45.2725,33.67 50.61875,25.13875 C55.965,16.72125 61.1975,8.30375 66.31625,-6.4659389e-14 L70.07,-6.4659389e-14 C74.96125,7.9625 80.19375,16.26625 85.7675,25.13875 C91.2275,34.01125 94.07125,38.56125 94.185,38.9025 Z M77.805,22.5225 C76.44,20.13375 74.73375,17.40375 72.8,14.21875 C70.86625,11.03375 69.04625,8.19 67.5675,5.6875 L67.45375,5.6875 C66.2025,7.735 64.49625,10.57875 62.22125,14.21875 C59.94625,17.85875 58.24,20.58875 57.1025,22.5225 L57.1025,22.5225 L77.805,22.5225 L77.805,22.5225 Z" id="Shape"></path>
                        <path d="M128.5375,29.46125 C128.5375,31.50875 127.96875,33.32875 126.7175,34.8075 C125.46625,36.4 123.76,37.65125 121.59875,38.675 C119.55125,39.585 117.1625,40.2675 114.54625,40.7225 C111.93,41.06375 109.31375,41.29125 106.47,41.29125 C104.195,41.29125 101.35125,41.1775 98.16625,41.06375 L97.93875,36.74125 C101.35125,36.96875 104.53625,37.0825 107.26625,37.0825 C109.08625,37.0825 111.02,36.96875 113.0675,36.6275 C115.115,36.28625 116.7075,35.945 117.95875,35.49 C119.4375,34.92125 120.575,34.23875 121.485,33.4425 C122.395,32.64625 122.85,31.6225 122.96375,30.37125 C123.0775,29.12 122.6225,27.9825 121.7125,26.95875 C120.8025,25.935 119.32375,25.025 117.39,24.22875 C115.91125,23.66 114.205,22.9775 112.385,22.295 C110.565,21.6125 108.745,20.93 107.03875,20.13375 C104.76375,19.22375 102.94375,17.9725 101.465,16.49375 C99.98625,15.015 99.30375,13.30875 99.30375,11.26125 C99.30375,9.555 99.75875,7.9625 100.7825,6.48375 C101.80625,5.005 103.17125,3.8675 104.76375,2.84375 C106.47,1.93375 108.40375,1.1375 110.7925,0.6825 C113.0675,0.2275 115.7975,6.4659389e-14 118.86875,6.4659389e-14 C121.03,6.4659389e-14 123.64625,0.11375 126.7175,0.2275 L127.28625,4.3225 C123.87375,4.095 120.8025,4.095 118.18625,4.095 C116.7075,4.095 115.115,4.20875 113.40875,4.43625 C111.7025,4.66375 110.22375,5.11875 108.85875,5.6875 C107.835,6.1425 106.925,6.825 106.12875,7.735 C105.3325,8.645 104.99125,9.555 104.99125,10.57875 C104.99125,11.71625 105.44625,12.74 106.35625,13.65 C107.26625,14.56 108.63125,15.35625 110.565,16.1525 C112.6125,17.0625 114.54625,17.745 116.36625,18.4275 C118.0725,19.11 119.4375,19.565 120.575,20.02 C123.41875,21.1575 125.58,22.5225 126.83125,24.115 C127.855,25.7075 128.5375,27.5275 128.5375,29.46125 Z" id="Path"></path>
                        <path d="M180.4075,40.83625 C180.52125,31.1675 180.52125,24.91125 180.52125,22.18125 C173.01375,22.18125 167.44,22.0675 163.8,22.0675 C161.07,22.0675 155.155,22.0675 146.16875,22.18125 C146.16875,26.04875 146.16875,32.19125 146.2825,40.83625 L140.93625,40.83625 C141.05,31.50875 141.05,24.115 141.05,18.76875 C141.05,16.49375 141.05,13.76375 140.93625,10.465 C140.93625,7.16625 140.8225,3.8675 140.8225,0.56875 L146.16875,0.56875 C146.16875,2.61625 146.16875,5.2325 146.16875,8.30375 C146.16875,11.375 146.16875,14.56 146.16875,17.745 C154.9275,17.745 160.8425,17.85875 163.91375,17.85875 C167.09875,17.85875 172.6725,17.85875 180.635,17.745 C180.635,14.67375 180.635,11.48875 180.635,8.19 C180.635,4.89125 180.635,2.275 180.635,0.56875 L185.98125,0.56875 C185.98125,5.2325 185.8675,9.1 185.8675,12.285 C185.8675,15.35625 185.8675,17.9725 185.8675,20.13375 C185.8675,24.22875 185.8675,31.05375 185.98125,40.83625 L180.4075,40.83625 Z" id="Path"></path>
                    </g>
                    <g transform="translate(45.500000, 48.912500)" fill="#3D8263" id="Path">
                        <path d="M33.8975,41.97375 C25.935,41.97375 20.36125,41.86 17.0625,41.86 C14.3325,41.86 11.375,41.86 8.19,41.86 C5.005,41.86 2.61625,41.86 1.02375,41.86 C1.02375,38.4475 1.02375,35.035 1.1375,31.6225 C1.1375,28.21 1.25125,24.68375 1.25125,21.04375 C1.25125,15.6975 1.25125,8.8725 1.1375,0.34125 L6.71125,0.34125 C6.71125,3.8675 6.71125,7.28 6.71125,10.80625 C6.71125,14.3325 6.71125,16.835 6.71125,18.31375 C6.71125,26.27625 6.71125,32.76 6.825,37.42375 C8.30375,37.42375 9.89625,37.42375 11.6025,37.42375 C13.30875,37.42375 14.56,37.42375 15.35625,37.42375 C19.22375,37.42375 25.48,37.42375 34.01125,37.31 L34.01125,41.97375 L33.8975,41.97375 Z"></path>
                        <path d="M42.77,42.0875 C42.88375,34.46625 42.88375,27.64125 42.88375,21.72625 C42.88375,19.3375 42.88375,16.26625 42.88375,12.39875 C42.88375,8.53125 42.77,4.55 42.77,0.455 L47.88875,0.455 C47.88875,3.4125 47.775,6.825 47.775,10.80625 C47.775,14.67375 47.775,17.9725 47.775,20.36125 C47.775,26.6175 47.775,33.8975 47.88875,41.97375 L42.77,41.97375 L42.77,42.0875 Z"></path>
                        <path d="M96.005,5.005 C85.995,5.005 80.3075,5.005 78.82875,5.005 C76.2125,5.005 74.165,5.005 72.91375,5.005 C71.54875,5.005 70.18375,5.005 68.81875,5.005 C68.81875,6.48375 68.81875,8.645 68.81875,11.375 C68.81875,14.21875 68.81875,16.94875 68.81875,19.565 C72.00375,19.565 74.50625,19.565 76.09875,19.565 C79.17,19.565 85.65375,19.565 95.7775,19.45125 L95.7775,24.00125 C85.19875,23.8875 78.4875,23.8875 75.53,23.8875 C74.165,23.8875 72.00375,23.8875 68.81875,23.77375 C68.81875,28.665 68.81875,32.5325 68.81875,35.37625 C68.81875,38.22 68.81875,40.38125 68.81875,41.97375 L63.245,41.97375 C63.35875,33.32875 63.35875,26.50375 63.35875,21.49875 C63.35875,18.8825 63.35875,15.6975 63.245,11.94375 C63.245,8.19 63.13125,4.3225 63.13125,0.455 C64.72375,0.455 66.99875,0.455 69.95625,0.455 C72.91375,0.455 75.985,0.455 79.28375,0.455 C81.445,0.455 87.01875,0.455 96.005,0.34125 L96.005,5.005 Z"></path>
                        <path d="M140.3675,41.97375 C130.585,41.97375 124.78375,41.86 122.6225,41.86 C119.665,41.86 116.48,41.86 113.295,41.86 C110.11,41.86 107.72125,41.86 106.12875,41.86 C106.2425,35.49 106.2425,28.77875 106.2425,21.49875 C106.2425,18.8825 106.2425,15.6975 106.12875,11.94375 C106.12875,8.19 106.015,4.3225 106.015,0.34125 C107.94875,0.34125 110.22375,0.34125 112.72625,0.34125 C115.3425,0.34125 118.41375,0.34125 121.94,0.34125 C124.78375,0.34125 130.585,0.34125 139.685,0.2275 L139.685,4.66375 C130.01625,4.55 124.32875,4.55 122.28125,4.55 C119.665,4.55 117.50375,4.55 115.68375,4.55 C113.86375,4.55 112.49875,4.55 111.475,4.55 C111.475,6.1425 111.475,8.07625 111.475,10.465 C111.475,12.85375 111.475,15.2425 111.475,17.85875 C113.295,17.85875 115.57,17.85875 118.3,17.85875 C121.03,17.85875 122.85,17.85875 123.87375,17.85875 C126.49,17.85875 131.7225,17.85875 139.685,17.745 L139.685,22.18125 C131.60875,22.18125 126.60375,22.0675 124.4425,22.0675 C123.64625,22.0675 121.94,22.0675 119.21,22.0675 C116.48,22.0675 113.86375,22.0675 111.475,22.0675 C111.475,31.1675 111.475,36.1725 111.475,36.855 C112.84,36.855 114.77375,36.855 117.1625,36.855 C119.665,36.855 122.1675,36.855 124.78375,36.855 C127.4,36.855 132.51875,36.855 140.02625,36.74125 L140.02625,41.97375 L140.3675,41.97375 Z"></path>
                    </g>
                    <path d="M2.16125,75.985 C2.16125,75.53 2.16125,74.96125 2.16125,74.165 C2.16125,73.36875 2.16125,72.345 2.16125,71.09375 C2.9575,71.09375 3.64,71.09375 3.98125,71.09375 C4.7775,71.09375 6.5975,71.09375 9.44125,71.09375 L9.44125,69.8425 C6.71125,69.8425 5.005,69.8425 4.20875,69.8425 C3.75375,69.8425 3.07125,69.8425 2.275,69.8425 C2.275,69.16 2.275,68.36375 2.275,67.68125 C2.275,66.885 2.275,66.31625 2.275,65.975 C2.61625,65.975 3.07125,65.975 3.4125,65.975 C3.75375,65.975 4.3225,65.975 5.005,65.975 C5.34625,65.975 6.93875,65.975 9.555,65.975 L9.555,64.8375 C7.16625,64.8375 5.6875,64.8375 5.11875,64.8375 C4.20875,64.8375 3.4125,64.8375 2.61625,64.8375 C1.82,64.8375 1.25125,64.8375 0.79625,64.8375 C0.79625,65.86125 0.79625,66.885 0.79625,67.90875 C0.79625,68.9325 0.79625,69.72875 0.79625,70.41125 C0.79625,71.77625 0.79625,73.59625 0.79625,75.87125 L2.16125,75.87125 L2.16125,75.985 Z" id="Path" fill="#3C4577"></path>
                    <path d="M13.65,74.96125 C14.3325,75.41625 15.015,75.7575 15.81125,75.985 C16.6075,76.2125 17.40375,76.32625 18.4275,76.32625 C19.45125,76.32625 20.36125,76.2125 21.1575,75.985 C21.95375,75.7575 22.63625,75.3025 23.31875,74.8475 C24.00125,74.27875 24.57,73.71 24.91125,72.91375 C25.2525,72.23125 25.48,71.435 25.48,70.525 C25.48,69.615 25.2525,68.81875 24.91125,68.13625 C24.57,67.45375 24.00125,66.77125 23.205,66.2025 C22.5225,65.7475 21.84,65.2925 21.04375,65.065 C20.2475,64.8375 19.3375,64.72375 18.31375,64.72375 C17.29,64.72375 16.38,64.8375 15.58375,65.17875 C14.7875,65.40625 13.99125,65.86125 13.30875,66.43 C12.62625,66.99875 12.0575,67.68125 11.71625,68.36375 C11.375,69.04625 11.1475,69.8425 11.1475,70.7525 C11.1475,71.6625 11.375,72.45875 11.83,73.255 C12.285,73.71 12.85375,74.3925 13.65,74.96125 Z M13.195,68.4775 C13.53625,67.90875 13.99125,67.34 14.67375,66.885 C15.12875,66.54375 15.6975,66.31625 16.26625,66.08875 C16.835,65.86125 17.5175,65.86125 18.2,65.86125 C18.8825,65.86125 19.565,65.975 20.13375,66.08875 C20.7025,66.2025 21.27125,66.54375 21.72625,66.885 C22.40875,67.34 22.9775,67.90875 23.31875,68.4775 C23.66,69.04625 23.77375,69.8425 23.77375,70.63875 C23.77375,71.435 23.66,72.00375 23.31875,72.68625 C22.9775,73.255 22.5225,73.82375 21.84,74.27875 C21.27125,74.62 20.7025,74.8475 20.13375,75.075 C19.565,75.18875 18.8825,75.3025 18.2,75.3025 C17.5175,75.3025 16.94875,75.18875 16.26625,75.075 C15.6975,74.96125 15.12875,74.62 14.67375,74.27875 C13.99125,73.82375 13.4225,73.255 13.08125,72.68625 C12.74,72.1175 12.5125,71.435 12.5125,70.63875 C12.74,69.72875 12.85375,69.04625 13.195,68.4775 Z" id="Shape" fill="#3C4577"></path>
                    <path d="M34.8075,70.98 C35.60375,70.63875 36.28625,70.18375 36.6275,69.615 C36.96875,69.04625 37.19625,68.4775 37.19625,67.90875 C37.19625,67.22625 36.96875,66.77125 36.6275,66.31625 C36.1725,65.86125 35.60375,65.52 34.92125,65.2925 C34.3525,65.17875 33.78375,65.065 33.215,64.95125 C32.64625,64.8375 31.96375,64.8375 31.28125,64.8375 C31.05375,64.8375 30.14375,64.8375 28.55125,64.8375 C28.55125,65.40625 28.55125,66.2025 28.55125,67.22625 C28.55125,68.25 28.55125,69.27375 28.55125,70.41125 C28.55125,71.435 28.55125,73.36875 28.55125,75.985 L30.03,75.985 C30.03,73.0275 30.03,71.09375 30.03,70.41125 C30.03,70.07 30.03,69.50125 30.03,68.9325 C30.03,68.36375 30.03,67.34 30.03,65.975 C30.485,65.975 30.82625,65.975 30.94,65.975 C31.395,65.975 31.96375,65.975 32.41875,65.975 C32.9875,65.975 33.4425,66.08875 33.78375,66.2025 C34.3525,66.31625 34.8075,66.6575 35.14875,66.885 C35.49,67.22625 35.60375,67.5675 35.60375,67.90875 C35.60375,68.36375 35.49,68.705 35.37625,68.9325 C35.2625,69.16 34.92125,69.50125 34.58,69.72875 C34.23875,69.95625 33.8975,70.18375 33.4425,70.2975 C33.10125,70.41125 32.64625,70.525 32.305,70.63875 L32.305,70.7525 C33.78375,72.00375 35.945,73.71 38.56125,75.985 L39.585,74.96125 C37.0825,72.91375 35.49,71.54875 34.8075,70.98 L34.8075,70.98 Z" id="Path" fill="#3C4577"></path>
                    <rect id="Rectangle" fill="#3C4577" x="0.6825" y="49.3675" width="39.01625" height="2.16125"></rect>
                    <rect id="Rectangle" fill="#3C4577" x="0.6825" y="88.83875" width="39.01625" height="2.16125"></rect>
                </g>
            </g>
        </g>
    </g>
</svg>