<?xml version="1.0" encoding="UTF-8"?>
<svg width="234px" height="130px" viewBox="0 0 234 130" version="1.1" xmlns="http://www.w3.org/2000/svg" xmlns:xlink="http://www.w3.org/1999/xlink">
    <title>clasico_loto</title>
    <g id="Bg" stroke="none" stroke-width="1" fill="none" fill-rule="evenodd">
        <g id="Logos" transform="translate(-56.000000, -460.000000)">
            <g id="clasico_loto" transform="translate(56.000000, 460.000000)">
                <rect id="Rectangle" x="0" y="0" width="234" height="130" rx="2"></rect>
                <g id="Group" transform="translate(13.000000, 23.000000)" fill-rule="nonzero">
                    <g fill="#D94128">
                        <path d="M0,12.688 C0,9.36 1.144,6.448 3.432,4.16 C5.72,1.768 8.632,0.624 12.064,0.624 C13.728,0.624 15.288,0.936 16.744,1.56 C18.2,2.184 19.552,3.016 20.592,4.16 C21.632,5.2 22.568,6.552 23.192,8.008 C23.816,9.464 24.128,11.128 24.128,12.688 L24.128,70.616 C24.128,74.048 22.984,76.96 20.592,79.248 C18.2,81.536 15.392,82.68 12.064,82.68 C8.632,82.68 5.72,81.536 3.432,79.248 C1.144,76.96 0,74.048 0,70.616 L0,12.688 Z" id="Path"></path>
                        <path d="M89.544,39.416 C87.88,35.672 85.696,32.344 82.888,29.536 C80.08,26.728 76.752,24.44 73.008,22.88 C69.264,21.216 65.208,20.384 60.84,20.384 C56.576,20.384 52.52,21.216 48.672,22.88 C44.928,24.544 41.6,26.728 38.792,29.536 C35.984,32.344 33.696,35.672 32.136,39.416 C30.472,43.16 29.64,47.216 29.64,51.584 C29.64,55.848 30.472,59.904 32.136,63.752 C33.8,67.496 35.984,70.824 38.792,73.632 C41.6,76.44 44.928,78.728 48.672,80.288 C52.416,81.952 56.472,82.784 60.84,82.784 C65.104,82.784 69.16,81.952 73.008,80.288 C76.752,78.624 80.08,76.44 82.888,73.632 C85.696,70.824 87.984,67.496 89.544,63.752 C91.208,60.008 92.04,55.952 92.04,51.584 C91.936,47.216 91.104,43.16 89.544,39.416 Z M74.36,49.4 L69.472,54.184 C69.056,54.6 68.848,55.224 68.952,55.744 L70.096,62.504 C70.304,63.96 68.848,65.104 67.496,64.376 L61.36,61.152 C60.84,60.84 60.216,60.84 59.696,61.152 L53.56,64.376 C52.208,65.104 50.752,63.96 50.96,62.504 L52.104,55.744 C52.208,55.12 52,54.6 51.584,54.184 L46.696,49.4 C45.656,48.36 46.176,46.592 47.736,46.384 L54.6,45.344 C55.224,45.24 55.64,44.928 55.952,44.408 L58.968,38.272 C59.592,36.92 61.464,36.92 62.192,38.272 L65.208,44.408 C65.416,44.928 65.936,45.344 66.56,45.344 L73.424,46.384 C74.776,46.592 75.4,48.36 74.36,49.4 Z" id="Shape"></path>
                        <path d="M91.832,32.032 C91.832,28.6 92.976,25.792 95.264,23.504 C97.552,21.32 100.464,20.176 103.896,20.176 C104.624,20.176 105.144,20.176 105.456,20.28 L105.456,12.688 C105.456,9.36 106.6,6.448 108.888,4.16 C111.176,1.768 114.088,0.624 117.52,0.624 C119.184,0.624 120.744,0.936 122.2,1.56 C123.656,2.184 125.008,3.016 126.048,4.16 C127.088,5.2 128.024,6.552 128.648,8.008 C129.272,9.464 129.584,11.128 129.584,12.688 L129.584,20.28 C129.896,20.176 130.52,20.176 131.248,20.176 C134.576,20.176 137.488,21.32 139.776,23.504 C142.168,25.792 143.312,28.6 143.312,32.032 C143.312,35.36 142.168,38.168 139.776,40.456 C137.384,42.744 134.576,43.888 131.248,43.888 L129.584,43.888 L129.584,70.616 C129.584,74.048 128.44,76.96 126.048,79.248 C123.656,81.536 120.848,82.68 117.52,82.68 C114.088,82.68 111.176,81.536 108.888,79.248 C106.6,76.96 105.456,74.048 105.456,70.616 L105.456,43.888 L103.896,43.888 C100.464,43.888 97.552,42.744 95.264,40.456 C92.976,38.272 91.832,35.464 91.832,32.032 Z" id="Path"></path>
                        <path d="M145.6,51.584 C145.6,47.32 146.432,43.264 148.096,39.416 C149.76,35.672 151.944,32.344 154.752,29.536 C157.56,26.728 160.888,24.44 164.632,22.88 C168.376,21.216 172.432,20.384 176.8,20.384 C181.064,20.384 185.12,21.216 188.968,22.88 C192.712,24.544 196.04,26.728 198.848,29.536 C201.656,32.344 203.944,35.672 205.504,39.416 C207.168,43.16 208,47.216 208,51.584 C208,55.848 207.168,59.904 205.504,63.752 C203.84,67.496 201.656,70.824 198.848,73.632 C196.04,76.44 192.712,78.728 188.968,80.288 C185.224,81.952 181.168,82.784 176.8,82.784 C172.536,82.784 168.48,81.952 164.632,80.288 C160.888,78.624 157.56,76.44 154.752,73.632 C151.944,70.824 149.656,67.496 148.096,63.752 C146.432,59.904 145.6,55.848 145.6,51.584 Z M169.832,51.584 C169.832,53.56 170.456,55.328 171.808,56.784 C173.16,58.24 174.824,59.072 176.8,59.072 C178.776,59.072 180.44,58.344 181.792,56.784 C183.144,55.328 183.768,53.56 183.768,51.584 C183.768,49.608 183.144,47.84 181.792,46.384 C180.44,44.928 178.776,44.096 176.8,44.096 C174.824,44.096 173.16,44.824 171.808,46.384 C170.456,47.84 169.832,49.608 169.832,51.584 Z" id="Shape"></path>
                    </g>
                    <g transform="translate(34.320000, 0.000000)" fill="#0E4E9D">
                        <path d="M3.016,12.48 C1.248,11.336 0.416,9.464 0.416,6.76 C0.416,5.512 0.624,4.472 1.144,3.432 C1.768,2.288 2.808,1.456 4.056,0.832 C4.784,0.52 5.616,0.416 6.448,0.416 C7.592,0.416 8.528,0.728 9.256,1.456 C9.776,1.976 9.984,2.6 9.984,3.328 C9.984,3.744 9.776,4.16 9.464,4.472 C9.152,4.68 8.84,4.784 8.528,4.784 C8.112,4.784 7.8,4.68 7.488,4.368 C7.176,4.056 7.072,3.744 7.072,3.328 C7.072,2.912 7.176,2.6 7.488,2.288 C7.696,2.184 7.8,2.08 7.904,1.976 C8.112,1.872 8.112,1.872 8.216,1.872 C7.904,1.768 7.592,1.768 7.28,1.768 C6.656,1.768 6.032,1.976 5.408,2.288 C4.68,2.704 4.16,3.328 3.848,4.056 C3.64,4.472 3.536,4.992 3.536,5.512 L3.536,8.216 C3.536,9.048 3.744,9.88 4.368,10.608 C4.68,11.024 4.992,11.336 5.304,11.544 C5.824,11.856 6.344,12.064 6.968,12.064 C7.488,12.064 7.904,11.96 8.32,11.648 C8.632,11.336 8.84,11.024 9.048,10.608 L9.88,10.608 C9.672,11.336 9.256,11.96 8.736,12.376 C7.904,13 6.864,13.416 5.72,13.416 C4.888,13.312 3.952,13 3.016,12.48 Z" id="Path"></path>
                        <path d="M11.232,12.584 C10.712,12.064 10.4,11.44 10.4,10.712 L10.4,0.416 L11.96,0.416 C12.272,0.416 12.584,0.52 12.896,0.728 C13.312,1.04 13.52,1.456 13.52,2.08 L13.52,10.816 C13.52,11.232 13.624,11.544 13.728,11.752 C13.832,11.856 14.04,11.96 14.248,11.96 C14.768,11.96 15.184,11.44 15.6,10.296 L16.224,10.296 C15.912,11.232 15.496,11.856 14.976,12.376 C14.352,13 13.624,13.312 12.896,13.312 C12.272,13.312 11.752,13.104 11.232,12.584 Z" id="Path"></path>
                        <path d="M16.224,12.792 C15.6,12.272 15.392,11.544 15.392,10.712 C15.392,10.296 15.496,9.88 15.808,9.464 C16.328,8.632 17.264,8.112 18.408,7.904 C19.24,7.696 19.656,7.28 19.864,6.76 C19.864,6.656 19.864,6.552 19.864,6.24 C19.864,5.928 19.76,5.616 19.552,5.408 C19.344,5.2 19.032,5.096 18.616,5.096 C18.304,5.096 18.096,5.096 17.68,5.2 C17.888,5.304 18.096,5.512 18.304,5.824 C18.408,6.032 18.512,6.24 18.512,6.448 C18.512,6.76 18.408,7.072 18.096,7.384 C17.784,7.696 17.472,7.904 17.056,7.904 C16.744,7.904 16.432,7.8 16.224,7.592 C15.912,7.28 15.704,6.968 15.704,6.552 C15.704,6.24 15.808,5.824 16.016,5.512 C16.328,5.096 16.744,4.784 17.264,4.576 C17.68,4.368 18.304,4.368 19.136,4.368 C20.696,4.368 21.736,4.784 22.256,5.512 C22.672,6.032 22.88,6.864 22.88,7.8 L22.88,13.312 L21.32,13.312 C20.904,13.312 20.592,13.208 20.28,12.896 C20.072,12.688 19.968,12.48 19.864,12.272 C19.136,13 18.408,13.312 17.68,13.312 C17.16,13.312 16.64,13.104 16.224,12.792 Z M19.344,12.064 C19.656,11.544 19.864,10.92 19.864,10.296 L19.864,7.904 C19.76,8.112 19.448,8.424 18.928,8.736 C18.72,8.84 18.616,8.944 18.512,9.048 C18.096,9.36 17.888,9.88 17.888,10.608 L17.888,11.44 C17.888,11.856 17.992,12.168 18.096,12.376 C18.2,12.584 18.304,12.584 18.512,12.584 C18.824,12.584 19.032,12.376 19.344,12.064 Z" id="Shape"></path>
                        <path d="M25.272,13 C24.44,12.688 24.128,12.064 24.128,11.336 C24.128,10.92 24.232,10.504 24.544,10.296 C24.752,10.088 25.064,9.984 25.376,9.984 C25.688,9.984 25.896,10.088 26.208,10.296 C26.416,10.504 26.624,10.816 26.624,11.128 C26.624,11.44 26.52,11.752 26.312,11.96 C26.104,12.168 25.792,12.272 25.376,12.272 C25.584,12.48 25.792,12.584 26.104,12.584 C26.416,12.584 26.624,12.48 26.936,12.272 C27.248,11.96 27.456,11.648 27.456,11.232 C27.456,10.92 27.352,10.504 27.144,10.192 C26.936,9.88 26.624,9.568 26.208,9.048 C25.584,8.424 25.168,8.112 25.064,7.8 C24.752,7.384 24.544,6.864 24.544,6.344 C24.544,5.72 24.856,5.304 25.376,4.888 C26.104,4.472 26.832,4.16 27.768,4.16 C28.392,4.16 28.912,4.264 29.432,4.472 C29.848,4.68 30.056,4.888 30.264,5.096 C30.472,5.408 30.576,5.616 30.576,5.824 L29.952,5.824 C29.952,5.824 29.952,5.824 29.952,5.72 C29.848,5.408 29.536,5.2 29.224,5.096 C29.016,4.992 28.808,4.992 28.6,4.992 C28.288,4.992 28.08,5.096 27.872,5.2 C27.664,5.408 27.56,5.616 27.56,6.032 C27.56,6.344 27.664,6.656 27.872,7.072 C28.08,7.384 28.392,7.8 28.912,8.216 C29.536,8.84 29.952,9.256 30.16,9.464 C30.472,9.88 30.576,10.4 30.576,10.92 C30.576,11.336 30.472,11.648 30.264,11.96 C30.16,12.168 29.952,12.376 29.64,12.48 C29.016,12.896 28.184,13.104 27.248,13.104 C26.312,13.312 25.792,13.208 25.272,13 Z" id="Path"></path>
                        <path d="M31.304,3.224 C30.992,2.912 30.784,2.496 30.784,2.08 C30.784,1.664 30.888,1.352 31.2,1.04 C31.512,0.624 31.928,0.52 32.344,0.52 C32.656,0.52 32.968,0.624 33.28,0.832 C33.696,1.144 33.904,1.56 33.904,2.08 C33.904,2.496 33.8,2.808 33.488,3.12 C33.176,3.536 32.76,3.64 32.24,3.64 C32.032,3.64 31.616,3.432 31.304,3.224 Z M31.512,12.48 C31.096,11.96 30.784,11.44 30.784,10.712 L30.784,4.264 L32.344,4.264 C32.76,4.264 33.176,4.472 33.488,4.784 C33.592,4.888 33.696,4.992 33.696,5.096 C33.8,5.304 33.904,5.616 33.904,5.928 L33.904,10.712 C33.904,11.544 34.112,11.856 34.632,11.856 C34.84,11.856 35.048,11.752 35.256,11.544 C35.568,11.232 35.776,10.816 35.984,10.192 C36.4,10.192 36.608,10.192 36.608,10.192 C36.4,10.92 35.984,11.544 35.568,12.064 C34.944,12.896 34.112,13.208 33.28,13.208 C32.656,13.312 32.032,13 31.512,12.48 Z" id="Shape"></path>
                        <path d="M38.168,12.792 C37.752,12.584 37.44,12.376 37.024,11.96 C36.088,11.024 35.672,9.984 35.672,8.84 C35.672,8.112 35.776,7.488 36.088,6.864 C36.504,5.928 37.232,5.096 38.272,4.68 C38.896,4.368 39.624,4.264 40.352,4.264 C41.288,4.264 42.016,4.472 42.64,4.888 C43.16,5.304 43.472,5.72 43.472,6.344 C43.472,6.76 43.368,7.072 43.056,7.384 C42.744,7.696 42.432,7.8 42.016,7.8 C41.6,7.8 41.288,7.696 41.08,7.384 C40.768,7.072 40.664,6.76 40.664,6.448 C40.664,6.24 40.768,5.928 40.976,5.616 C41.08,5.408 41.288,5.304 41.496,5.2 C39.832,5.408 39,6.24 39,7.8 L39,8.632 C39,9.568 39.104,10.296 39.208,10.816 C39.52,11.752 40.352,12.272 41.392,12.272 C42.016,12.272 42.64,12.064 43.264,11.544 C43.68,11.128 44.096,10.712 44.304,10.192 C44.72,10.192 44.824,10.192 44.824,10.192 C44.304,11.44 43.472,12.376 42.12,12.896 C41.496,13.104 40.976,13.208 40.352,13.208 C39.624,13.312 38.896,13.104 38.168,12.792 Z" id="Path"></path>
                        <path d="M45.552,12.168 C44.512,11.232 43.992,10.088 43.992,8.84 C43.992,8.008 44.2,7.176 44.72,6.448 C45.136,5.72 45.76,5.2 46.488,4.784 C47.112,4.472 47.736,4.368 48.464,4.368 C48.984,4.368 49.504,4.472 50.128,4.68 C51.064,5.096 51.792,5.616 52.312,6.448 C52.728,7.176 53.04,8.008 53.04,8.84 C53.04,9.672 52.832,10.504 52.312,11.232 C51.792,12.064 51.064,12.688 50.128,13 C49.608,13.208 49.088,13.312 48.568,13.312 C47.32,13.312 46.384,12.896 45.552,12.168 Z M49.296,11.544 C49.608,10.816 49.816,9.984 49.816,8.84 C49.816,7.904 49.712,7.072 49.504,6.344 C49.192,5.616 48.88,5.2 48.568,5.2 C48.152,5.2 47.736,5.72 47.424,6.76 C47.32,7.384 47.216,8.008 47.216,8.736 C47.216,9.568 47.32,10.4 47.528,11.024 C47.84,11.856 48.152,12.168 48.568,12.168 C48.776,12.376 49.088,12.064 49.296,11.544 Z" id="Shape"></path>
                    </g>
                </g>
            </g>
        </g>
    </g>
</svg>