<?xml version="1.0" encoding="UTF-8"?>
<svg width="234px" height="130px" viewBox="0 0 234 130" version="1.1" xmlns="http://www.w3.org/2000/svg" xmlns:xlink="http://www.w3.org/1999/xlink">
    <title>el_gordo</title>
    <g id="Bg" stroke="none" stroke-width="1" fill="none" fill-rule="evenodd">
        <g id="Logos" transform="translate(-362.000000, -1470.000000)" fill-rule="nonzero">
            <g id="el_gordo" transform="translate(362.000000, 1470.000000)">
                <rect id="Rectangle" x="0" y="0" width="234" height="130" rx="2"></rect>
                <path d="M114.10199,30 L114.10199,100.69801 L104.756219,100.69801 L104.756219,95.9701493 L109.48408,95.9701493 L109.48408,34.6179104 L48.1318408,34.6179104 L48.1318408,95.9701493 L52.8597015,95.9701493 L52.8597015,100.69801 L43.4039801,100.69801 L43.4039801,30 L114.10199,30 Z M91.8920398,93.3313433 C88.1537313,96.1900498 83.5358209,97.7293532 78.8079602,97.7293532 C74.0800995,97.7293532 69.4621891,96.1900498 65.7238806,93.3313433 L65.7238806,93.3313433 Z M99.5885572,82.8860697 C98.8189055,85.0850746 97.6094527,87.2840796 96.1800995,89.1532338 L96.1800995,89.1532338 L61.4358209,89.1532338 C60.0064677,87.2840796 58.9069652,85.1950249 58.0273632,82.8860697 L58.0273632,82.8860697 Z M156.652736,66.3935323 C158.41194,66.2835821 160.171144,66.7233831 161.710448,67.6029851 C163.139801,68.3726368 164.239303,69.6920398 165.008955,71.121393 C165.778607,72.7706468 166.218408,74.639801 166.328358,76.7288557 C166.548259,79.4776119 165.668657,82.3363184 163.799502,84.4253731 C161.930348,86.2945274 159.291542,87.2840796 156.652736,87.1741294 C154.893532,87.1741294 153.134328,86.7343284 151.595025,85.8547264 C150.055721,84.9751244 148.956219,83.7656716 148.186567,82.2263682 C147.306965,80.4671642 146.977114,78.59801 146.977114,76.7288557 C146.757214,73.9800995 147.746766,71.2313433 149.50597,69.1422886 C151.375124,67.2731343 154.01393,66.2835821 156.652736,66.3935323 Z M218.224876,66.2835821 C219.98408,66.1736318 221.743284,66.6134328 223.282587,67.4930348 C224.71194,68.3726368 225.921393,69.5820896 226.691045,71.121393 C227.570647,72.7706468 227.900498,74.639801 227.900498,76.5089552 C228.120398,79.3676617 227.130846,82.1164179 225.371642,84.3154229 C223.502488,86.1845771 220.863682,87.1741294 218.224876,87.0641791 C216.465672,87.0641791 214.706468,86.6243781 213.167164,85.7447761 C211.627861,84.8651741 210.528358,83.6557214 209.758706,82.1164179 C208.879104,80.3572139 208.549254,78.4880597 208.549254,76.6189055 C208.329353,73.8701493 209.318905,71.121393 211.078109,69.0323383 C212.947264,67.1631841 215.58607,66.1736318 218.224876,66.2835821 Z M134.662687,60.1263682 C137.411443,60.1263682 140.050249,60.6761194 142.469154,61.7756219 L142.469154,61.7756219 L140.6,66.1736318 C138.730846,65.1840796 136.751741,64.7442786 134.662687,64.7442786 C132.573632,64.6343284 130.374627,65.5139303 128.945274,67.1631841 C127.40597,68.9223881 126.636318,71.2313433 126.746269,73.6502488 C126.526368,75.959204 127.18607,78.2681592 128.505473,80.2472637 C129.714925,81.7865672 131.58408,82.5562189 133.563184,82.4462687 C134.772637,82.4462687 135.872139,82.3363184 137.081592,82.1164179 L137.081592,82.1164179 L137.081592,76.6189055 L132.133831,76.6189055 L132.023881,71.8910448 L142.469154,71.8910448 L142.469154,85.6348259 C140.929851,86.0746269 139.390547,86.5144279 137.741294,86.7343284 C136.20199,86.9542289 134.662687,87.0641791 133.123383,87.0641791 C129.165174,87.0641791 126.196517,85.8547264 124.107463,83.5457711 C122.018408,81.2368159 121.028856,77.9383085 121.028856,73.5402985 C121.028856,69.2522388 122.238308,65.9537313 124.657214,63.6447761 C127.076119,61.3358209 130.374627,60.1263682 134.662687,60.1263682 Z M204.261194,58.8069652 L204.261194,86.5144279 L200.083085,86.5144279 L198.983582,83.8756219 L198.763682,83.8756219 C197.554229,85.9646766 195.355224,87.0641791 193.046269,86.9542289 C190.847264,86.9542289 188.758209,85.9646766 187.548756,84.2054726 C186.119403,82.0064677 185.459701,79.2577114 185.569652,76.6189055 C185.459701,73.8701493 186.119403,71.2313433 187.658706,68.9223881 C188.868159,67.1631841 191.067164,66.0636816 193.266169,66.1736318 C195.575124,66.0636816 197.664179,67.1631841 198.983582,69.1422886 L198.983582,69.1422886 L199.203483,69.1422886 C198.873632,67.8228856 198.763682,66.5034826 198.763682,65.1840796 L198.763682,65.1840796 L198.763682,58.8069652 L204.261194,58.8069652 Z M23.0631841,60.4562189 L23.0631841,65.0741294 L13.4975124,65.0741294 L13.4975124,70.7915423 L22.4034826,70.7915423 L22.4034826,75.2995025 L13.4975124,75.2995025 L13.4975124,82.1164179 L23.0631841,82.1164179 L23.0631841,86.6243781 L8,86.6243781 L8,60.4562189 L23.0631841,60.4562189 Z M33.2885572,58.8069652 L33.2885572,86.6243781 L27.7910448,86.6243781 L27.7910448,58.8069652 L33.2885572,58.8069652 Z M181.611443,66.2835821 C182.271144,66.1736318 182.930846,66.2835821 183.480597,66.3935323 L183.480597,66.3935323 L183.040796,71.561194 C182.491045,71.3412935 181.941294,71.3412935 181.391542,71.3412935 C179.962189,71.2313433 178.422886,71.6711443 177.323383,72.6606965 C176.443781,73.6502488 175.89403,74.9696517 176.00398,76.399005 L176.00398,76.399005 L176.00398,86.6243781 L170.506468,86.6243781 L170.506468,66.6134328 L174.684577,66.6134328 L175.454229,70.0218905 L175.674129,70.0218905 C176.333831,68.9223881 177.103483,67.9328358 178.202985,67.2731343 C179.192537,66.6134328 180.40199,66.2835821 181.611443,66.2835821 Z M195.129863,70.7789203 L194.915423,70.7915423 C193.70597,70.7915423 192.606468,71.3412935 192.056716,72.3308458 C191.287065,73.760199 190.957214,75.2995025 191.067164,76.838806 C190.957214,78.3781095 191.287065,79.9174129 192.056716,81.2368159 C192.716418,82.1164179 193.81592,82.7761194 195.025373,82.6661692 C196.234826,82.7761194 197.334328,82.3363184 198.10398,81.4567164 C198.873632,80.1373134 199.313433,78.7079602 199.203483,77.278607 L199.203483,77.278607 L199.203483,76.7288557 C199.313433,75.1895522 198.983582,73.5402985 198.21393,72.1109453 C197.444279,71.2313433 196.124876,70.681592 194.915423,70.7915423 Z M159.181592,71.561194 C157.422388,70.1318408 154.783582,70.3517413 153.354229,72.1109453 C152.584577,73.5402985 152.254726,75.079602 152.364677,76.6189055 C152.254726,78.158209 152.584577,79.6975124 153.354229,81.1268657 C154.123881,82.2263682 155.333333,82.7761194 156.542786,82.6661692 C157.862189,82.7761194 159.071642,82.1164179 159.731343,81.1268657 C160.500995,79.6975124 160.830846,78.158209 160.720896,76.5089552 C160.830846,74.9696517 160.500995,73.4303483 159.731343,72.1109453 C159.511443,71.8910448 159.401493,71.6711443 159.181592,71.561194 Z M220.753731,71.561194 C218.994527,70.1318408 216.355721,70.3517413 214.926368,72.1109453 C214.156716,73.5402985 213.826866,75.079602 213.936816,76.6189055 C213.826866,78.158209 214.156716,79.6975124 214.926368,81.1268657 C215.69602,82.2263682 216.905473,82.7761194 218.114925,82.6661692 C219.434328,82.7761194 220.643781,82.1164179 221.303483,81.1268657 C222.073134,79.6975124 222.402985,78.158209 222.293035,76.5089552 C222.402985,74.9696517 222.073134,73.4303483 221.303483,72.1109453 C221.083582,71.8910448 220.973632,71.6711443 220.753731,71.561194 Z M57.1477612,72.880597 L57.1477612,72.9905473 L100.578109,72.9905473 C100.90796,74.8597015 100.90796,76.838806 100.578109,78.8179104 L100.578109,78.8179104 L57.1477612,78.8179104 C57.0378109,77.8283582 56.9278607,76.838806 56.9278607,75.8492537 C56.9278607,74.8597015 57.0378109,73.8701493 57.1477612,72.880597 L57.1477612,72.880597 Z M96.0701493,62.5452736 C97.6094527,64.4144279 98.7089552,66.5034826 99.478607,68.8124378 L99.478607,68.8124378 L58.0273632,68.8124378 C58.9069652,66.5034826 60.0064677,64.4144279 61.4358209,62.5452736 L61.4358209,62.5452736 Z M65.7238806,58.3671642 C73.420398,52.539801 84.1955224,52.539801 92.00199,58.3671642 L92.00199,58.3671642 Z" id="Combined-Shape" fill="#DD3D47"></path>
            </g>
        </g>
    </g>
</svg>