<?xml version="1.0" encoding="UTF-8"?>
<svg width="234px" height="130px" viewBox="0 0 234 130" version="1.1" xmlns="http://www.w3.org/2000/svg" xmlns:xlink="http://www.w3.org/1999/xlink">
    <title>euro_jackpot</title>
    <defs>
        <linearGradient x1="76.5783829%" y1="32.7653953%" x2="47.6344189%" y2="56.1655837%" id="linearGradient-1">
            <stop stop-color="#C7974E" offset="0%"></stop>
            <stop stop-color="#AA5E22" offset="100%"></stop>
        </linearGradient>
        <linearGradient x1="127.163206%" y1="-120.621967%" x2="-31.5929825%" y2="229.882295%" id="linearGradient-2">
            <stop stop-color="#FFFFFF" offset="0%"></stop>
            <stop stop-color="#FFF7BD" offset="38.96%"></stop>
            <stop stop-color="#FEEB1A" offset="100%"></stop>
        </linearGradient>
        <linearGradient x1="117.618146%" y1="-83.7619672%" x2="-59.8154862%" y2="266.742623%" id="linearGradient-3">
            <stop stop-color="#FFFFFF" offset="0%"></stop>
            <stop stop-color="#FFF7BD" offset="38.96%"></stop>
            <stop stop-color="#FEEB1A" offset="100%"></stop>
        </linearGradient>
        <linearGradient x1="98.2170363%" y1="-43.3255738%" x2="-83.107684%" y2="307.178689%" id="linearGradient-4">
            <stop stop-color="#FFFFFF" offset="0%"></stop>
            <stop stop-color="#FFF7BD" offset="38.96%"></stop>
            <stop stop-color="#FEEB1A" offset="100%"></stop>
        </linearGradient>
        <linearGradient x1="77.491126%" y1="-4.21344262%" x2="-99.9422607%" y2="346.29082%" id="linearGradient-5">
            <stop stop-color="#FFFFFF" offset="0%"></stop>
            <stop stop-color="#FFF7BD" offset="38.96%"></stop>
            <stop stop-color="#FEEB1A" offset="100%"></stop>
        </linearGradient>
        <linearGradient x1="153.839506%" y1="-252.871148%" x2="37.1070142%" y2="97.6331148%" id="linearGradient-6">
            <stop stop-color="#FFFFFF" offset="0%"></stop>
            <stop stop-color="#FFF7BD" offset="38.96%"></stop>
            <stop stop-color="#FEEB1A" offset="100%"></stop>
        </linearGradient>
        <linearGradient x1="200.91882%" y1="-218.589836%" x2="11.0339672%" y2="131.914426%" id="linearGradient-7">
            <stop stop-color="#FFFFFF" offset="0%"></stop>
            <stop stop-color="#FFF7BD" offset="38.96%"></stop>
            <stop stop-color="#FEEB1A" offset="100%"></stop>
        </linearGradient>
        <linearGradient x1="157.201041%" y1="-182.518689%" x2="-1.55514754%" y2="167.985902%" id="linearGradient-8">
            <stop stop-color="#FFFFFF" offset="0%"></stop>
            <stop stop-color="#FFF7BD" offset="38.96%"></stop>
            <stop stop-color="#FEEB1A" offset="100%"></stop>
        </linearGradient>
        <linearGradient x1="151.690943%" y1="-146.625902%" x2="-29.6335265%" y2="203.878361%" id="linearGradient-9">
            <stop stop-color="#FFFFFF" offset="0%"></stop>
            <stop stop-color="#FFF7BD" offset="38.96%"></stop>
            <stop stop-color="#FEEB1A" offset="100%"></stop>
        </linearGradient>
        <linearGradient x1="122.93304%" y1="-113.750492%" x2="-54.5003472%" y2="236.754098%" id="linearGradient-10">
            <stop stop-color="#FFFFFF" offset="0%"></stop>
            <stop stop-color="#FFF7BD" offset="38.96%"></stop>
            <stop stop-color="#FEEB1A" offset="100%"></stop>
        </linearGradient>
        <linearGradient x1="109.802298%" y1="-67.8121311%" x2="-67.6310884%" y2="282.692131%" id="linearGradient-11">
            <stop stop-color="#FFFFFF" offset="0%"></stop>
            <stop stop-color="#FFF7BD" offset="38.96%"></stop>
            <stop stop-color="#FEEB1A" offset="100%"></stop>
        </linearGradient>
        <linearGradient x1="83.642437%" y1="-35.5219672%" x2="-82.1177006%" y2="314.982295%" id="linearGradient-12">
            <stop stop-color="#FFFFFF" offset="0%"></stop>
            <stop stop-color="#FFF7BD" offset="38.96%"></stop>
            <stop stop-color="#FEEB1A" offset="100%"></stop>
        </linearGradient>
    </defs>
    <g id="Bg" stroke="none" stroke-width="1" fill="none" fill-rule="evenodd">
        <g id="Logos" transform="translate(-974.000000, -258.000000)">
            <g id="euro_jackpot" transform="translate(974.000000, 258.000000)">
                <rect id="Rectangle" x="0" y="0" width="234" height="130" rx="2"></rect>
                <g id="Group" transform="translate(15.000000, 20.000000)" fill-rule="nonzero">
                    <path d="M165.50625,42.20125 L165.27875,42.20125 L164.9375,42.20125 C165.165,41.29125 165.27875,40.38125 165.27875,39.3575 L165.27875,13.30875 C165.27875,6.825 160.3875,1.93375 153.79,1.93375 L136.5,1.93375 C134.225,1.93375 132.06375,2.5025 130.3575,3.64 C128.65125,2.61625 126.60375,1.93375 124.32875,1.93375 L105.7875,1.93375 L95.55,1.93375 L76.78125,1.93375 L65.63375,1.93375 L39.47125,1.93375 L39.47125,42.20125 L32.305,42.20125 L26.95875,42.20125 L7.28,42.20125 L7.28,68.13625 L1.02375,68.13625 L1.02375,91 L20.93,91 C21.04375,91 21.04375,91 21.1575,91 L21.1575,91 L63.0175,91 L63.0175,91 C63.13125,91 63.13125,91 63.245,91 L77.91875,91 L89.06625,91 L107.26625,91 L118.41375,91 L132.1775,91 L132.1775,80.19375 L135.93125,80.19375 C136.15875,80.19375 136.38625,80.19375 136.7275,80.19375 C136.955,86.45 141.84625,91 148.1025,91 L165.3925,91 C167.78125,91 169.82875,90.3175 171.64875,89.29375 L171.64875,91 L196.67375,91 L196.67375,65.065 L199.63125,65.065 L203.6125,54.94125 L203.6125,42.20125 L165.50625,42.20125 Z M76.78125,68.13625 L76.78125,65.065 L77.91875,65.065 L77.91875,68.13625 L76.78125,68.13625 Z" id="Shape" fill="#75341C"></path>
                    <path d="M165.50625,40.2675 L165.27875,40.2675 L164.9375,40.2675 C165.165,39.3575 165.27875,38.4475 165.27875,37.42375 L165.27875,11.375 C165.27875,4.89125 160.3875,0 153.79,0 L136.5,0 C134.225,0 132.06375,0.56875 130.3575,1.70625 C128.65125,0.6825 126.60375,0 124.32875,0 L105.7875,0 L95.55,0 L76.78125,0 L65.63375,0 L39.47125,0 L39.47125,40.2675 L32.305,40.2675 L26.95875,40.2675 L7.28,40.2675 L7.28,66.2025 L1.02375,66.2025 L1.02375,89.06625 L20.93,89.06625 C21.04375,89.06625 21.04375,89.06625 21.1575,89.06625 L21.1575,89.06625 L63.0175,89.06625 L63.0175,89.06625 C63.13125,89.06625 63.13125,89.06625 63.245,89.06625 L77.91875,89.06625 L89.06625,89.06625 L107.26625,89.06625 L118.41375,89.06625 L132.1775,89.06625 L132.1775,78.26 L135.93125,78.26 C136.15875,78.26 136.38625,78.26 136.7275,78.26 C136.955,84.51625 141.84625,89.06625 148.1025,89.06625 L165.3925,89.06625 C167.78125,89.06625 169.82875,88.38375 171.64875,87.36 L171.64875,89.06625 L196.67375,89.06625 L196.67375,63.13125 L199.63125,63.13125 L203.6125,53.0075 L203.6125,40.2675 L165.50625,40.2675 Z M76.78125,66.2025 L76.78125,63.13125 L77.91875,63.13125 L77.91875,66.2025 L76.78125,66.2025 Z" id="Shape" fill="url(#linearGradient-1)"></path>
                    <g transform="translate(7.962500, 6.825000)">
                        <g transform="translate(0.000000, 1.137500)" fill="#76351C">
                            <polygon id="Path" points="38.675 35.49 38.675 0.79625 61.88 0.79625 61.88 5.11875 60.17375 9.555 49.48125 9.555 49.48125 13.4225 60.17375 13.4225 60.17375 22.0675 49.48125 22.0675 49.48125 26.845 61.88 26.845 61.88 35.49"></polygon>
                            <path d="M90.7725,0.91 L90.7725,35.60375 L69.16,35.60375 C66.54375,35.60375 64.8375,33.78375 64.8375,31.28125 L64.8375,0.91 L75.64375,0.91 L75.64375,26.845 L79.96625,26.845 L79.96625,0.91 L90.7725,0.91 Z" id="Path"></path>
                            <path d="M116.36625,0.91 C118.86875,0.91 120.68875,2.73 120.68875,5.2325 L120.68875,18.8825 C120.68875,20.475 119.4375,22.295 117.845,22.75 L121.2575,31.28125 L121.2575,35.60375 L110.67875,35.60375 L107.72125,24.7975 L105.56,24.7975 L105.56,35.60375 L94.75375,35.60375 L94.75375,0.91 L116.36625,0.91 L116.36625,0.91 Z M105.56,9.555 L105.56,16.03875 L109.8825,16.03875 L109.8825,9.555 L105.56,9.555 Z" id="Shape"></path>
                            <path d="M128.5375,35.49 C125.92125,35.49 124.215,33.67 124.215,31.1675 L124.215,5.11875 C124.215,2.61625 126.035,0.79625 128.5375,0.79625 L145.8275,0.79625 C148.44375,0.79625 150.15,2.61625 150.15,5.11875 L150.15,31.1675 C150.15,33.67 148.33,35.49 145.8275,35.49 L128.5375,35.49 Z M135.02125,9.555 L135.02125,26.845 L139.34375,26.845 L139.34375,9.555 L135.02125,9.555 Z" id="Shape"></path>
                            <path d="M0.2275,75.7575 L0.2275,67.1125 L6.48375,67.1125 L6.48375,41.1775 L17.29,41.1775 L17.29,71.54875 C17.29,74.05125 15.47,75.87125 12.9675,75.87125 L0.2275,75.87125 L0.2275,75.7575 Z" id="Path"></path>
                            <path d="M43.11125,41.06375 L48.0025,71.435 L48.0025,75.7575 L37.19625,75.7575 L36.51375,68.81875 L31.73625,68.81875 L31.05375,75.7575 L20.2475,75.7575 L20.2475,71.435 L25.13875,41.06375 L43.11125,41.06375 Z M35.7175,60.06 L34.69375,49.8225 L33.55625,49.8225 L32.5325,60.06 L35.7175,60.06 Z" id="Shape"></path>
                            <path d="M74.05125,41.06375 L74.05125,45.38625 L72.345,49.8225 L61.6525,49.8225 L61.6525,67.1125 L73.9375,67.1125 L73.9375,75.7575 L55.16875,75.7575 C52.5525,75.7575 50.84625,73.9375 50.84625,71.435 L50.84625,45.38625 C50.84625,42.88375 52.66625,41.06375 55.16875,41.06375 L74.05125,41.06375 L74.05125,41.06375 Z" id="Path"></path>
                            <polygon id="Path" points="92.365 41.06375 102.6025 41.06375 102.6025 45.38625 98.62125 57.44375 103.5125 71.435 103.5125 75.7575 92.70625 75.7575 89.74875 62.335 87.815 62.335 87.815 75.7575 77.00875 75.7575 77.00875 41.06375 87.815 41.06375 87.815 53.69 89.74875 53.69"></polygon>
                            <path d="M117.27625,64.95125 L117.27625,75.7575 L106.47,75.7575 L106.47,41.06375 L128.0825,41.06375 C130.69875,41.06375 132.405,42.88375 132.405,45.38625 L132.405,60.62875 C132.405,63.13125 130.585,64.95125 128.0825,64.95125 L117.27625,64.95125 L117.27625,64.95125 Z M117.27625,56.30625 L121.59875,56.30625 L121.59875,49.8225 L117.27625,49.8225 L117.27625,56.30625 Z" id="Shape"></path>
                            <path d="M140.25375,75.7575 C137.6375,75.7575 135.93125,73.9375 135.93125,71.435 L135.93125,45.38625 C135.93125,42.88375 137.75125,41.06375 140.25375,41.06375 L157.54375,41.06375 C160.16,41.06375 161.86625,42.88375 161.86625,45.38625 L161.86625,71.435 C161.86625,73.9375 160.04625,75.7575 157.54375,75.7575 L140.25375,75.7575 Z M146.7375,49.8225 L146.7375,67.1125 L151.06,67.1125 L151.06,49.8225 L146.7375,49.8225 Z" id="Shape"></path>
                            <polygon id="Path" points="164.36875 49.8225 164.36875 41.06375 188.5975 41.06375 188.5975 45.38625 186.89125 49.8225 181.65875 49.8225 181.65875 75.7575 170.8525 75.7575 170.8525 49.8225 164.36875 49.8225"></polygon>
                        </g>
                        <g>
                            <polygon id="Path" fill="url(#linearGradient-2)" points="38.675 34.92125 38.675 0.2275 61.88 0.2275 61.88 4.55 60.17375 8.98625 49.48125 8.98625 49.48125 12.85375 60.17375 12.85375 60.17375 21.49875 49.48125 21.49875 49.48125 26.27625 61.88 26.27625 61.88 34.92125"></polygon>
                            <path d="M90.7725,0.2275 L90.7725,34.92125 L69.16,34.92125 C66.54375,34.92125 64.8375,33.10125 64.8375,30.59875 L64.8375,0.2275 L75.64375,0.2275 L75.64375,26.1625 L79.96625,26.1625 L79.96625,0.2275 L90.7725,0.2275 Z" id="Path" fill="url(#linearGradient-3)"></path>
                            <path d="M116.36625,0.2275 C118.86875,0.2275 120.68875,2.0475 120.68875,4.55 L120.68875,18.2 C120.68875,19.7925 119.4375,21.6125 117.845,22.0675 L121.2575,30.59875 L121.2575,34.92125 L110.67875,34.92125 L107.72125,24.115 L105.56,24.115 L105.56,34.92125 L94.75375,34.92125 L94.75375,0.2275 L116.36625,0.2275 L116.36625,0.2275 Z M105.56,8.98625 L105.56,15.47 L109.8825,15.47 L109.8825,8.98625 L105.56,8.98625 Z" id="Shape" fill="url(#linearGradient-4)"></path>
                            <path d="M128.5375,34.92125 C125.92125,34.92125 124.215,33.10125 124.215,30.59875 L124.215,4.55 C124.215,2.0475 126.035,0.2275 128.5375,0.2275 L145.8275,0.2275 C148.44375,0.2275 150.15,2.0475 150.15,4.55 L150.15,30.59875 C150.15,33.10125 148.33,34.92125 145.8275,34.92125 L128.5375,34.92125 L128.5375,34.92125 Z M135.02125,8.98625 L135.02125,26.27625 L139.34375,26.27625 L139.34375,8.98625 L135.02125,8.98625 Z" id="Shape" fill="url(#linearGradient-5)"></path>
                            <path d="M0.2275,75.075 L0.2275,66.43 L6.48375,66.43 L6.48375,40.495 L17.29,40.495 L17.29,70.86625 C17.29,73.36875 15.47,75.18875 12.9675,75.18875 L0.2275,75.18875 L0.2275,75.075 Z" id="Path" fill="url(#linearGradient-6)"></path>
                            <path d="M43.11125,40.495 L48.0025,70.86625 L48.0025,75.18875 L37.19625,75.18875 L36.51375,68.25 L31.73625,68.25 L31.05375,75.18875 L20.2475,75.18875 L20.2475,70.86625 L25.13875,40.495 L43.11125,40.495 Z M35.7175,59.49125 L34.69375,49.25375 L33.55625,49.25375 L32.5325,59.49125 L35.7175,59.49125 Z" id="Shape" fill="url(#linearGradient-7)"></path>
                            <path d="M74.05125,40.495 L74.05125,44.8175 L72.345,49.25375 L61.6525,49.25375 L61.6525,66.54375 L73.9375,66.54375 L73.9375,75.18875 L55.16875,75.18875 C52.5525,75.18875 50.84625,73.36875 50.84625,70.86625 L50.84625,44.8175 C50.84625,42.315 52.66625,40.495 55.16875,40.495 L74.05125,40.495 L74.05125,40.495 Z" id="Path" fill="url(#linearGradient-8)"></path>
                            <polygon id="Path" fill="url(#linearGradient-9)" points="92.365 40.495 102.6025 40.495 102.6025 44.8175 98.62125 56.875 103.5125 70.86625 103.5125 75.18875 92.70625 75.18875 89.74875 61.76625 87.815 61.76625 87.815 75.18875 77.00875 75.18875 77.00875 40.495 87.815 40.495 87.815 53.12125 89.74875 53.12125"></polygon>
                            <path d="M117.27625,64.3825 L117.27625,75.18875 L106.47,75.18875 L106.47,40.495 L128.0825,40.495 C130.69875,40.495 132.405,42.315 132.405,44.8175 L132.405,60.06 C132.405,62.5625 130.585,64.3825 128.0825,64.3825 L117.27625,64.3825 L117.27625,64.3825 Z M117.27625,55.62375 L121.59875,55.62375 L121.59875,49.14 L117.27625,49.14 L117.27625,55.62375 Z" id="Shape" fill="url(#linearGradient-10)"></path>
                            <path d="M140.25375,75.075 C137.6375,75.075 135.93125,73.255 135.93125,70.7525 L135.93125,44.70375 C135.93125,42.20125 137.75125,40.38125 140.25375,40.38125 L157.54375,40.38125 C160.16,40.38125 161.86625,42.20125 161.86625,44.70375 L161.86625,70.7525 C161.86625,73.255 160.04625,75.075 157.54375,75.075 L140.25375,75.075 Z M146.7375,49.14 L146.7375,66.43 L151.06,66.43 L151.06,49.14 L146.7375,49.14 Z" id="Shape" fill="url(#linearGradient-11)"></path>
                            <polygon id="Path" fill="url(#linearGradient-12)" points="164.36875 49.14 164.36875 40.38125 188.5975 40.38125 188.5975 44.70375 186.89125 49.14 181.65875 49.14 181.65875 75.075 170.8525 75.075 170.8525 49.14 164.36875 49.14"></polygon>
                        </g>
                        <g fill="#FFFFFF">
                            <polygon id="Path" points="38.78875 0.91 61.6525 0.91 61.6525 4.89125 61.76625 4.55 61.76625 0.2275 38.675 0.2275 38.675 34.92125 38.78875 34.92125"></polygon>
                            <polygon id="Path" points="49.25375 13.53625 59.94625 13.53625 59.94625 21.49875 60.06 21.49875 60.06 12.85375 49.3675 12.85375 49.3675 9.3275 49.25375 9.3275"></polygon>
                            <polygon id="Path" points="49.25375 26.95875 61.6525 26.95875 61.6525 34.92125 61.76625 34.92125 61.76625 26.27625 49.3675 26.27625 49.3675 21.84 49.25375 21.84"></polygon>
                            <path d="M64.95125,31.1675 L64.95125,1.02375 L75.53,1.02375 L75.53,26.95875 L80.08,26.95875 L80.08,1.02375 L90.65875,1.02375 L90.65875,35.035 L90.7725,35.035 L90.7725,0.34125 L79.96625,0.34125 L79.96625,26.27625 L75.64375,26.27625 L75.64375,0.34125 L64.8375,0.34125 L64.8375,30.7125 C64.8375,31.395 64.95125,31.96375 65.17875,32.41875 C64.95125,31.96375 64.95125,31.50875 64.95125,31.1675 Z" id="Path"></path>
                            <polygon id="Path" points="107.835 24.45625 107.835 24.45625 110.67875 34.92125 110.67875 34.92125 107.835 24.57"></polygon>
                            <path d="M117.6175,22.5225 L121.03,31.1675 L121.03,34.92125 L121.14375,34.92125 L121.14375,30.59875 L117.845,22.40875 C117.845,22.40875 117.73125,22.40875 117.73125,22.5225 L117.6175,22.5225 Z" id="Path"></path>
                            <path d="M116.36625,0.91 C118.86875,0.91 120.575,2.61625 120.575,5.11875 L120.575,18.76875 C120.575,18.99625 120.575,19.3375 120.46125,19.565 C120.575,19.11 120.68875,18.655 120.68875,18.2 L120.68875,4.55 C120.68875,2.0475 118.86875,0.2275 116.36625,0.2275 L94.64,0.2275 L94.64,34.92125 L94.75375,34.92125 L94.75375,0.91 L116.36625,0.91 L116.36625,0.91 Z" id="Path"></path>
                            <polygon id="Path" points="109.99625 9.3275 109.8825 9.3275 109.8825 15.47 109.655 15.47 109.655 15.81125 105.67375 15.81125 105.67375 15.47 105.56 15.47 105.56 9.3275 105.44625 9.3275 105.44625 16.1525 109.99625 16.1525"></polygon>
                            <rect id="Rectangle" x="105.44625" y="24.45625" width="1" height="10.465"></rect>
                            <polygon id="Path" points="139.34375 26.27625 139.23 26.27625 139.23 26.6175 135.24875 26.6175 135.24875 26.27625 135.02125 26.27625 135.02125 9.3275 134.9075 9.3275 134.9075 26.95875 139.4575 26.95875 139.4575 9.3275 139.34375 9.3275"></polygon>
                            <path d="M124.32875,31.1675 L124.32875,5.11875 C124.32875,2.61625 126.035,0.91 128.5375,0.91 L145.8275,0.91 C148.33,0.91 150.03625,2.61625 150.03625,5.11875 L150.03625,31.1675 C150.03625,31.6225 149.9225,32.0775 149.80875,32.41875 C150.03625,31.85 150.15,31.28125 150.15,30.7125 L150.15,4.55 C150.15,2.0475 148.33,0.2275 145.8275,0.2275 L128.5375,0.2275 C125.92125,0.2275 124.215,2.0475 124.215,4.55 L124.215,30.59875 C124.215,31.28125 124.32875,31.85 124.55625,32.305 C124.4425,31.96375 124.32875,31.50875 124.32875,31.1675 Z" id="Path"></path>
                            <path d="M6.48375,66.43 L0.2275,66.43 L0.2275,75.075 L0.34125,75.075 L0.34125,67.1125 L6.5975,67.1125 L6.5975,41.1775 L17.0625,41.1775 L17.0625,71.32125 C17.0625,71.77625 16.94875,72.1175 16.835,72.5725 C17.0625,72.00375 17.17625,71.435 17.17625,70.86625 L17.17625,40.495 L6.37,40.495 L6.37,66.43 L6.48375,66.43 Z" id="Path"></path>
                            <polygon id="Path" points="30.94 75.075 31.05375 75.075 31.6225 68.4775 31.6225 68.4775"></polygon>
                            <polygon id="Path" points="36.6275 68.4775 36.51375 68.4775 37.0825 75.075 37.19625 75.075 36.6275 68.59125"></polygon>
                            <polygon id="Path" points="34.69375 49.595 35.7175 59.49125 35.49 59.49125 35.49 59.8325 32.64625 59.8325 32.64625 59.49125 32.5325 59.49125 33.4425 49.595 33.32875 49.595 32.305 59.94625 32.305 60.17375 35.83125 60.17375 34.8075 49.595"></polygon>
                            <polygon id="Path" points="25.025 40.495 20.2475 70.7525 20.2475 75.075 20.36125 75.075 20.36125 71.32125 25.2525 41.1775 42.9975 41.1775 47.775 71.32125 47.775 75.075 47.88875 75.075 47.88875 70.7525 43.11125 40.495"></polygon>
                            <path d="M50.96,44.8175 L50.96,70.86625 C50.96,71.54875 51.07375,72.1175 51.30125,72.5725 C51.1875,72.23125 51.07375,71.77625 51.07375,71.32125 L51.07375,45.2725 C51.07375,42.77 52.78,41.06375 55.2825,41.06375 L73.9375,41.06375 L73.9375,45.045 L74.05125,44.70375 L74.05125,40.38125 L55.2825,40.38125 C52.66625,40.495 50.96,42.20125 50.96,44.8175 Z" id="Path"></path>
                            <polygon id="Path" points="61.6525 67.1125 73.9375 67.1125 73.9375 75.075 74.05125 75.075 74.05125 66.43 61.76625 66.43 61.76625 49.595 61.6525 49.595"></polygon>
                            <polygon id="Path" points="87.70125 41.1775 87.70125 53.69 89.97625 53.69 92.47875 41.1775 102.48875 41.1775 102.48875 45.2725 102.71625 44.8175 102.71625 40.495 92.365 40.495 89.8625 53.0075 87.815 53.0075 87.815 40.495 77.00875 40.495 77.00875 75.075 77.23625 75.075 77.23625 41.1775"></polygon>
                            <polygon id="Path" points="98.5075 57.33 98.5075 57.33 103.39875 71.32125 103.39875 75.075 103.5125 75.075 103.5125 70.7525 98.62125 56.875"></polygon>
                            <rect id="Rectangle" x="87.70125" y="62.1075" width="1" height="13.08125"></rect>
                            <polygon id="Path" points="89.8625 62.1075 92.70625 75.075 92.82 75.075 89.97625 62.1075"></polygon>
                            <polygon id="Path" points="121.59875 55.62375 121.485 55.62375 121.485 56.07875 117.50375 56.07875 117.50375 55.62375 117.27625 55.62375 117.27625 49.595 117.1625 49.595 117.1625 56.30625 121.82625 56.30625 121.82625 49.595 121.59875 49.595"></polygon>
                            <rect id="Rectangle" x="117.1625" y="64.72375" width="1" height="10.465"></rect>
                            <path d="M128.0825,40.495 L106.47,40.495 L106.47,75.18875 L106.58375,75.18875 L106.58375,41.1775 L128.0825,41.1775 C130.585,41.1775 132.29125,42.88375 132.29125,45.38625 L132.29125,60.62875 C132.29125,61.08375 132.1775,61.53875 132.06375,61.88 C132.29125,61.31125 132.405,60.7425 132.405,60.17375 L132.405,44.93125 C132.51875,42.20125 130.69875,40.495 128.0825,40.495 Z" id="Path"></path>
                            <polygon id="Path" points="151.06 66.43 150.94625 66.43 150.94625 66.77125 146.965 66.77125 146.965 66.43 146.7375 66.43 146.7375 49.595 146.62375 49.595 146.62375 67.1125 151.17375 67.1125 151.17375 49.595 151.06 49.595"></polygon>
                            <path d="M157.54375,40.495 L140.25375,40.495 C137.6375,40.495 135.93125,42.315 135.93125,44.8175 L135.93125,70.86625 C135.93125,71.54875 136.045,72.1175 136.2725,72.5725 C136.15875,72.23125 136.045,71.77625 136.045,71.32125 L136.045,45.2725 C136.045,42.77 137.75125,41.06375 140.25375,41.06375 L157.54375,41.06375 C160.04625,41.06375 161.7525,42.77 161.7525,45.2725 L161.7525,71.32125 C161.7525,71.77625 161.63875,72.23125 161.525,72.5725 C161.7525,72.00375 161.86625,71.435 161.86625,70.86625 L161.86625,44.8175 C161.86625,42.20125 160.16,40.495 157.54375,40.495 Z" id="Path"></path>
                            <rect id="Rectangle" x="181.545" y="49.595" width="1" height="25.59375"></rect>
                            <polygon id="Path" points="188.5975 40.495 164.36875 40.495 164.36875 49.14 164.59625 49.14 164.59625 41.1775 188.48375 41.1775 188.48375 45.15875 188.5975 44.8175"></polygon>
                            <rect id="Rectangle" x="170.8525" y="49.595" width="1" height="25.59375"></rect>
                            <rect id="Rectangle" x="105.67375" y="15.47" width="3.98125" height="1"></rect>
                            <rect id="Rectangle" x="117.50375" y="55.62375" width="3.98125" height="1"></rect>
                            <rect id="Rectangle" x="146.965" y="66.43" width="3.98125" height="1"></rect>
                            <polygon id="Path" points="32.64625 59.8325 35.49 59.8325 35.49 59.49125 32.64625 59.49125"></polygon>
                            <rect id="Rectangle" x="135.24875" y="26.27625" width="3.98125" height="1"></rect>
                        </g>
                    </g>
                </g>
            </g>
        </g>
    </g>
</svg>