<?xml version="1.0" encoding="UTF-8"?>
<svg width="234px" height="130px" viewBox="0 0 234 130" version="1.1" xmlns="http://www.w3.org/2000/svg" xmlns:xlink="http://www.w3.org/1999/xlink">
    <title>euromillions</title>
    <defs>
        <filter x="-4.0%" y="-7.7%" width="107.9%" height="115.4%" filterUnits="objectBoundingBox" id="filter-1">
            <feOffset dx="0" dy="4" in="SourceAlpha" result="shadowOffsetOuter1"></feOffset>
            <feColorMatrix values="0 0 0 0 0.133333333   0 0 0 0 0.243137255   0 0 0 0 0.435294118  0 0 0 1 0" type="matrix" in="shadowOffsetOuter1" result="shadowMatrixOuter1"></feColorMatrix>
            <feMerge>
                <feMergeNode in="shadowMatrixOuter1"></feMergeNode>
                <feMergeNode in="SourceGraphic"></feMergeNode>
            </feMerge>
        </filter>
        <radialGradient cx="50%" cy="50%" fx="50%" fy="50%" r="104.556394%" gradientTransform="translate(0.500000,0.500000),scale(0.662413,1.000000),rotate(90.000000),translate(-0.500000,-0.500000)" id="radialGradient-2">
            <stop stop-color="#008BD1" offset="0%"></stop>
            <stop stop-color="#003A93" offset="100%"></stop>
        </radialGradient>
        <path d="M155.868477,51.8797244 C155.868477,80.2669442 121.134285,103.279556 78.2728726,103.279556 C35.4211356,103.279556 0.677268366,80.2669442 0.677268366,51.8797244 C0.677268366,23.4915371 35.4211356,0.478925488 78.2728726,0.478925488 C121.134285,0.478925488 155.868477,23.4915371 155.868477,51.8797244" id="path-3"></path>
        <path d="M5.33106957,14.0213902 C9.19149926,14.0987923 11.1168765,14.1326558 14.9773062,14.1926424 C14.9773062,12.4588354 14.9773062,11.5928994 14.9773062,9.85812484 C11.1168765,9.78265779 9.19149926,9.73815158 5.33106957,9.63946391 C5.33106957,7.96661104 5.33106957,7.13066837 5.33106957,5.45878303 C9.58818502,5.59133413 11.7167427,5.64841818 15.9738582,5.74710585 C15.9738582,3.85849464 15.9738582,2.91418903 15.9738582,1.02654534 C9.75266448,0.853358142 6.63722999,0.744995203 0.416036282,0.484730645 C0.416036282,9.53206849 0.416036282,14.0552537 0.416036282,23.1025915 C6.69528157,23.1606431 9.83974184,23.1838637 16.1189871,23.2225648 C16.1189871,21.3339535 16.1189871,20.3906155 16.1189871,18.5020042 C11.8038201,18.4565305 9.64623659,18.4284723 5.33106957,18.3675181 C5.33106957,16.6288734 5.33106957,15.7600349 5.33106957,14.0213902" id="path-5"></path>
        <linearGradient x1="49.9691929%" y1="239.125569%" x2="49.9691929%" y2="19.9251096%" id="linearGradient-7">
            <stop stop-color="#D3E5EE" offset="0%"></stop>
            <stop stop-color="#F0F8F4" offset="100%"></stop>
        </linearGradient>
        <path d="M9.87844289,22.7427294 C15.8384045,22.7591197 18.99254,19.2566747 18.99254,12.6271849 C18.99254,7.76149548 18.99254,5.33010204 18.99254,0.464412594 C16.9704102,0.452802279 15.9545077,0.445062069 13.9323778,0.423776492 C13.9323778,5.37364072 13.9323778,7.84760531 13.9323778,12.7974695 C13.9323778,17.1242469 11.4264849,17.7589441 9.93649446,17.7512039 C8.73676193,17.7444312 5.9406111,17.2248696 5.9406111,12.5749385 C5.9406111,7.66958049 5.9406111,5.217869 5.9406111,0.312510975 C3.91848126,0.27768003 2.90257871,0.257361979 0.870773614,0.212855772 C0.870773614,5.18690816 0.870773614,7.67345059 0.870773614,12.647503 C0.870773614,19.229584 3.9862081,22.7252563 9.87844289,22.7427294" id="path-8"></path>
        <linearGradient x1="50.0266951%" y1="238.245117%" x2="50.0266951%" y2="17.0213427%" id="linearGradient-10">
            <stop stop-color="#D3E5EE" offset="0%"></stop>
            <stop stop-color="#F0F8F4" offset="100%"></stop>
        </linearGradient>
        <path d="M9.54948397,11.2697456 C7.96274094,11.2784534 7.16936942,11.2813559 5.58262639,11.2861936 C5.58262639,8.86060529 5.58262639,7.64732738 5.58262639,5.22077158 C7.1500189,5.2139989 7.94339041,5.21012879 9.52045818,5.19851848 C11.6199901,5.18400558 12.8197227,6.26763497 12.8197227,8.17849929 C12.8197227,8.89930633 12.5875164,11.2542652 9.54948397,11.2697456 Z M13.6034189,14.7315545 C14.048481,14.4441992 14.271012,14.3010053 14.7063988,14.0126825 C16.7575544,12.6910417 17.8315086,10.5411984 17.8315086,7.80600169 C17.8315086,5.60584702 17.2896939,3.98137047 16.1383376,2.6955281 C14.7644504,1.1687717 12.6358927,0.417003808 9.80104079,0.441191964 C6.12444108,0.47312033 4.27646597,0.481828066 0.599866267,0.482795593 C0.599866267,9.22923278 0.599866267,13.6024514 0.599866267,22.347921 C2.59297032,22.347921 3.58952234,22.3469535 5.58262639,22.3450185 C5.58262639,19.6146594 5.58262639,18.2494799 5.58262639,15.5200884 C6.73398261,15.5171858 7.31449836,15.5162183 8.46585458,15.5113806 C10.0912987,18.2378696 10.8943454,19.6011141 12.5197895,22.3324406 C14.8031514,22.327603 15.9448324,22.3237329 18.2281943,22.3150251 C16.3802192,19.2750577 15.451394,17.7589441 13.6034189,14.7315545 L13.6034189,14.7315545 Z" id="path-11"></path>
        <linearGradient x1="50%" y1="243.976056%" x2="50%" y2="16.4653663%" id="linearGradient-13">
            <stop stop-color="#D3E5EE" offset="0%"></stop>
            <stop stop-color="#F0F8F4" offset="100%"></stop>
        </linearGradient>
        <path d="M10.7395412,18.5958543 C7.64345728,18.6326203 5.31171905,15.8625927 5.31171905,12.1608373 C5.31171905,8.46004942 7.62410675,5.61939239 10.6814897,5.54199029 C13.7969242,5.46168561 16.1383376,8.21526528 16.1383376,11.9595918 C16.1383376,15.7039184 13.8162747,18.5600558 10.7395412,18.5958543 Z M10.7395412,0.476022909 C4.82795593,0.659852894 0.193505248,5.79548216 0.193505248,12.2343693 C0.193505248,18.6722889 4.79893014,23.6966526 10.6814897,23.6610443 C16.6027502,23.6240881 21.2372009,18.4265372 21.2372009,11.8415536 C21.2372009,5.25753758 16.6221008,0.29316045 10.7395412,0.476022909 L10.7395412,0.476022909 Z" id="path-14"></path>
        <linearGradient x1="49.9774713%" y1="234.522543%" x2="49.9774713%" y2="19.5953226%" id="linearGradient-16">
            <stop stop-color="#D3E5EE" offset="0%"></stop>
            <stop stop-color="#F0F8F4" offset="100%"></stop>
        </linearGradient>
        <path d="M7.90468936,0.196407826 C5.08918801,0.194472774 3.6765997,0.193505248 0.861098352,0.190602669 C0.861098352,12.649438 0.861098352,18.878372 0.861098352,31.3372073 C3.47341919,31.1175789 4.77957961,31.011151 7.39190046,30.8070029 C7.39190046,23.8088857 7.39190046,20.3103108 7.39190046,13.313161 C9.83974184,17.9901829 11.0685002,20.2919278 13.5163415,24.8325284 L13.6517952,24.8238207 C16.1093119,19.9581312 17.3477454,17.5644713 19.8052621,12.8429433 C19.8052621,19.6669058 19.8052621,23.0784033 19.8052621,29.9013984 C22.4659592,29.722406 23.7914702,29.6362962 26.4424921,29.4718167 C26.4424921,17.7666843 26.4424921,11.9141181 26.4424921,0.208018141 C23.6269907,0.207050615 22.2144024,0.206083089 19.3892258,0.204148036 C17.0961886,4.80570282 15.9448324,7.135506 13.6517952,11.8657418 C11.3490828,7.26321947 10.2074018,4.93148123 7.90468936,0.196407826" id="path-17"></path>
        <linearGradient x1="50.0015129%" y1="82.3213842%" x2="50.0015129%" y2="-77.700671%" id="linearGradient-19">
            <stop stop-color="#D3E5EE" offset="0%"></stop>
            <stop stop-color="#F0F8F4" offset="100%"></stop>
        </linearGradient>
        <path d="M0.425711545,29.0141768 C3.11543449,28.8671128 4.45062069,28.7964834 7.14034363,28.6648998 C7.14034363,17.2848562 7.14034363,11.595802 7.14034363,0.215758351 C4.45062069,0.214790825 3.11543449,0.213823299 0.425711545,0.212855772 C0.425711545,11.7331907 0.425711545,17.4938419 0.425711545,29.0141768" id="path-20"></path>
        <linearGradient x1="49.9985591%" y1="88.9475275%" x2="49.9985591%" y2="-84.1050793%" id="linearGradient-22">
            <stop stop-color="#D3E5EE" offset="0%"></stop>
            <stop stop-color="#F0F8F4" offset="100%"></stop>
        </linearGradient>
        <path d="M7.15969416,0.221563508 C4.47964648,0.221563508 3.14446027,0.220595982 0.474087856,0.219628456 C0.474087856,11.4535756 0.474087856,17.0710329 0.474087856,28.3059476 C7.817612,27.9944042 11.4845364,27.8686258 18.8280606,27.674153 C18.8280606,25.0066831 18.8280606,23.673432 18.8280606,21.0069297 C14.1645841,21.1007797 11.8231706,21.1559287 7.15969416,21.2846097 C7.15969416,12.8593912 7.15969416,8.64678199 7.15969416,0.221563508" id="path-23"></path>
        <linearGradient x1="50.0263574%" y1="91.1877777%" x2="50.0263574%" y2="-86.2702814%" id="linearGradient-25">
            <stop stop-color="#D3E5EE" offset="0%"></stop>
            <stop stop-color="#F0F8F4" offset="100%"></stop>
        </linearGradient>
        <path d="M7.62410675,0.227368666 C4.95373434,0.227368666 3.61854813,0.227368666 0.948175713,0.22640114 C0.948175713,11.1459023 0.948175713,16.6046853 0.948175713,27.5241864 C8.29169986,27.3693822 11.9586243,27.3210059 19.3021484,27.2823049 C19.3021484,24.6545036 19.3021484,23.340603 19.3021484,20.7118342 C14.638672,20.7302172 12.2972585,20.7476326 7.62410675,20.8018141 C7.62410675,12.5720359 7.62410675,8.45714684 7.62410675,0.227368666" id="path-26"></path>
        <linearGradient x1="49.9736426%" y1="93.7970511%" x2="49.9736426%" y2="-88.787127%" id="linearGradient-28">
            <stop stop-color="#D3E5EE" offset="0%"></stop>
            <stop stop-color="#F0F8F4" offset="100%"></stop>
        </linearGradient>
        <path d="M0.590191005,27.2668244 C3.27991395,27.267792 4.62477542,27.2726296 7.3048231,27.2890775 C7.3048231,16.4653615 7.3048231,11.0530197 7.3048231,0.229303718 C4.62477542,0.229303718 3.27991395,0.229303718 0.590191005,0.229303718 C0.590191005,11.044312 0.590191005,16.4518161 0.590191005,27.2668244" id="path-29"></path>
        <linearGradient x1="50.0014409%" y1="94.6113415%" x2="50.0014409%" y2="-89.5788043%" id="linearGradient-31">
            <stop stop-color="#D3E5EE" offset="0%"></stop>
            <stop stop-color="#F0F8F4" offset="100%"></stop>
        </linearGradient>
        <path d="M13.8065994,22.2589086 C10.2944792,22.1960194 7.64345728,19.0002803 7.64345728,14.8089566 C7.64345728,10.6166654 10.2654534,7.46639998 13.7388726,7.48470294 C17.2800186,7.50316597 19.9407158,10.7153531 19.9407158,14.951183 C19.9407158,18.5542507 17.7928075,22.3314731 13.8065994,22.2589086 Z M13.8065994,0.647272281 C6.51145158,0.652112684 0.793371515,6.84911824 0.793371515,14.7576777 C0.793371515,22.6672047 6.48242579,28.9251644 13.7388726,29.0983516 C21.0436957,29.2725063 26.7617757,23.1470977 26.7617757,15.0585784 C26.7617757,6.97102654 21.0727215,0.642437422 13.8065994,0.647272281 L13.8065994,0.647272281 Z" id="path-32"></path>
        <linearGradient x1="50.0007452%" y1="91.9045748%" x2="50.0007452%" y2="-83.256062%" id="linearGradient-34">
            <stop stop-color="#D3E5EE" offset="0%"></stop>
            <stop stop-color="#F0F8F4" offset="100%"></stop>
        </linearGradient>
        <path d="M0.783696253,0.220595982 C0.783696253,11.4206797 0.783696253,17.0216891 0.783696253,28.2227404 C3.42504288,28.3301358 4.75055383,28.3872198 7.39190046,28.5100956 C7.39190046,22.3014798 7.39190046,19.1976556 7.39190046,12.9900073 C11.5135622,19.2827979 13.5647179,22.4814397 17.6863796,29.0325598 C20.0277931,29.1622083 21.1984999,29.2299352 23.5302381,29.371194 C23.5302381,17.7066977 23.5302381,11.873482 23.5302381,0.208985667 C20.8888915,0.21092072 19.5730558,0.211888246 16.9317092,0.212855772 C16.9317092,6.29666076 16.9317092,9.33953077 16.9317092,15.4233358 C12.9648516,9.2263302 10.9814228,6.19313545 7.01456522,0.217693403 C4.51834753,0.21866093 3.27991395,0.219628456 0.783696253,0.220595982" id="path-35"></path>
        <linearGradient x1="50.0216929%" y1="87.8600577%" x2="50.0216929%" y2="-83.0509937%" id="linearGradient-37">
            <stop stop-color="#D3E5EE" offset="0%"></stop>
            <stop stop-color="#F0F8F4" offset="100%"></stop>
        </linearGradient>
        <path d="M12.4423874,12.62912 L12.4327122,12.6271849 C9.59786028,11.7380283 8.68838562,11.1884734 8.34975143,10.1367724 C8.32072564,10.031312 8.30137512,9.97906562 8.27234933,9.87360526 C8.27234933,9.76040469 8.27234933,9.70428816 8.27234933,9.59108759 C8.27234933,8.61388609 8.90124139,7.57960055 10.6718144,7.60669128 C12.8487484,7.63958717 15.2385382,8.73869698 17.4154723,10.748249 L17.4154723,10.7492165 C18.7506585,8.37200454 19.4182516,7.17323953 20.7534378,4.75248888 C18.0733901,1.95246795 14.8321772,0.640502369 10.8459691,0.648208536 C5.18594063,0.659852894 1.52869146,4.38386138 1.52869146,10.139675 C1.52869146,15.8616251 4.86665698,18.0056633 10.6040876,19.9252353 C13.5840684,20.9227549 14.3000378,21.6029258 14.5806204,22.474667 C14.6096462,22.5839974 14.6289967,22.6391464 14.6676978,22.7494444 C14.6676978,22.8665151 14.6676978,22.9245667 14.6676978,23.0416374 C14.6676978,23.6976201 14.3967904,25.2040585 11.910248,25.0569945 C9.14312295,24.892515 6.51145158,23.5234654 4.10231125,21.0436957 C2.6219961,23.1712859 1.8770009,24.226857 0.396685757,26.3205838 L0.396685757,26.3215513 C3.26056342,29.6362962 7.27579731,31.6845492 11.6780417,32.0212484 C17.6767044,32.4808233 21.4016804,28.9241969 21.4016804,22.6720423 C21.4016804,16.6472564 17.8218333,14.2574666 12.4423874,12.62912" id="path-38"></path>
        <linearGradient x1="49.978351%" y1="83.247251%" x2="49.978351%" y2="-75.4191004%" id="linearGradient-40">
            <stop stop-color="#D3E5EE" offset="0%"></stop>
            <stop stop-color="#F0F8F4" offset="100%"></stop>
        </linearGradient>
    </defs>
    <g id="Bg" stroke="none" stroke-width="1" fill="none" fill-rule="evenodd">
        <g id="Logos" transform="translate(-56.000000, -56.000000)">
            <g id="euromillions" transform="translate(56.000000, 56.000000)">
                <rect id="Rectangle" x="0" y="0" width="234" height="130" rx="2"></rect>
                <g id="logo-EM" filter="url(#filter-1)" transform="translate(16.000000, 13.000000)">
                    <g id="Group-266" transform="translate(20.308376, 0.000000)">
                        <mask id="mask-4" fill="white">
                            <use xlink:href="#path-3"></use>
                        </mask>
                        <use id="Clip-265" fill="url(#radialGradient-2)" xlink:href="#path-3"></use>
                    </g>
                    <path d="M70.9680495,28.4394662 C71.3647353,28.4472064 71.5679158,28.4510765 71.9742768,28.4578492 C71.9742768,23.9375666 71.9742768,21.6774254 71.9742768,17.1561752 C63.5180975,16.9191313 59.2803326,16.7546519 50.8338285,16.3366805 C50.8338285,28.1588836 50.8338285,34.0704689 50.8338285,45.892672 C49.6921476,45.8878344 49.1213071,45.8849318 47.9893014,45.8791267 C47.9893014,60.0988598 47.9893014,67.2082426 47.9893014,81.4279757 C57.5581359,80.9287322 62.3473908,80.7361944 71.9259005,80.4672221 C71.9259005,75.1526005 71.9259005,72.4948059 71.9259005,67.1801843 C67.2527488,67.2556514 64.9113353,67.3020926 60.2478588,67.409488 C60.2478588,58.9504061 60.2478588,54.721349 60.2478588,46.2622671 C64.9887374,46.278715 67.3688519,46.2845202 72.1097305,46.295163 C72.1097305,41.7758479 72.1097305,39.5157066 72.1097305,34.995424 C71.6549932,34.9896189 71.4227869,34.9867163 70.9680495,34.9809111 C70.9680495,32.3647202 70.9680495,31.0566247 70.9680495,28.4394662" id="Fill-267" fill="#223E6F"></path>
                    <path d="M133.547647,28.2062924 C135.095689,28.172429 136.218019,29.5879199 136.218019,31.5761863 C136.218019,33.6273419 135.173091,35.0244498 133.605698,35.0476704 C132.077007,35.0699235 130.964352,33.6505625 130.964352,31.6729389 C130.964352,29.6333936 132.00928,28.2411234 133.547647,28.2062924 Z M126.997494,67.5275262 C125.043091,67.4955979 123.620827,65.6650382 123.620827,63.167853 C123.620827,60.6309992 124.985039,58.8681664 126.929767,58.8855819 C128.903521,58.9020298 130.345135,60.7393622 130.345135,63.2510603 C130.345135,65.3380144 129.300206,67.5652598 126.997494,67.5275262 Z M146.889833,31.3333372 C146.889833,22.7097759 141.05565,16.2457331 133.605698,16.503095 C126.12672,16.7623921 120.263511,23.4412257 120.263511,31.823873 C120.273187,38.001528 123.446673,43.1632805 128.090799,45.4669605 C127.732814,45.4408373 127.374829,45.4089089 126.997494,45.4098764 C125.604256,45.4137465 124.26907,45.63144 122.98226,45.9990999 C120.660197,42.0748135 119.499166,40.121378 117.177103,36.2232148 C119.199232,34.2436561 120.263511,31.4794337 120.263511,28.21113 C120.263511,25.0889229 119.441114,22.6343088 117.757618,20.7118342 C115.841916,18.5358677 113.045766,17.4667512 109.446568,17.5015821 C104.647638,17.5480234 102.257848,17.5567311 97.4589179,17.5451208 C97.4589179,28.928067 97.4589179,34.6200238 97.4589179,46.00297 L97.4492427,46.00297 C97.4492427,59.6334797 97.4492427,66.447767 97.4492427,80.0782766 C102.364276,80.0666663 104.821793,80.0763415 109.746501,80.1256854 C109.746501,66.4748577 109.746501,59.6489601 109.746501,45.9981324 C109.049882,45.9990999 108.701573,45.9990999 108.014629,46.0000674 C108.014629,44.2972213 108.014629,43.4457982 108.014629,41.7439195 C109.078908,43.5744792 109.601372,44.4887915 110.665651,46.3222537 C115.203349,46.3183836 117.467361,46.315481 122.005059,46.3067733 C115.667762,48.6143233 111.188115,55.1422229 111.188115,63.0672303 C111.188115,72.9524459 118.105928,80.7594151 126.929767,81.0051667 C135.792307,81.2509184 142.739146,73.6152013 142.739146,63.4590784 C142.739146,55.7875629 138.791639,49.358351 133.054208,46.7237771 C133.218688,46.7295822 133.383167,46.7499003 133.547647,46.7499003 C141.026624,46.7324848 146.889833,39.9568986 146.889833,31.3333372 L146.889833,31.3333372 Z" id="Fill-268" fill="#223E6F"></path>
                    <path d="M15.5771724,54.3817472 C13.903352,50.9218734 13.0616042,49.174521 11.3877838,45.6430503 C6.83073524,45.6053167 4.55704858,45.5859662 0,45.5443626 C0,58.7278751 0,71.9113876 0,85.0958677 C4.83763119,84.6082344 7.25644678,84.3789307 12.1037532,83.9512841 C12.1037532,80.2301782 12.1037532,78.3705928 12.1037532,74.6494869 C12.8293979,76.0475623 13.1970579,76.7432137 13.9323778,78.1287112 C15.1901619,78.0377638 15.819054,77.99229 17.0865134,77.9042451 C17.8315086,76.3968393 18.1991685,75.6460389 18.9441637,74.1512109 C18.9441637,77.8384534 18.9441637,79.6825584 18.9441637,83.3688333 C23.8301712,82.97118 26.2683374,82.7873501 31.1543449,82.4487159 C31.1543449,67.7839207 31.1543449,60.4510393 31.1543449,45.7862441 C26.5972963,45.7572184 24.3236096,45.7417379 19.766561,45.7078745 C18.0927406,49.1425927 17.2509928,50.8763997 15.5771724,54.3817472" id="Fill-269" fill="#223E6F"></path>
                    <path d="M33.4280315,82.2948792 C38.3430648,81.9659203 40.8005814,81.8169212 45.7156147,81.5489165 C45.7156147,67.2769369 45.7156147,60.1404634 45.7156147,45.8684839 C40.8005814,45.8433282 38.3430648,45.8297828 33.4280315,45.7997895 C33.4280315,60.3978254 33.4280315,67.6968433 33.4280315,82.2948792" id="Fill-270" fill="#223E6F"></path>
                    <path d="M84.9101026,46.7237771 C92.1375236,46.4954409 96.2785359,41.5978231 96.2785359,33.1842149 C96.2785359,26.9281902 96.2785359,23.7992104 96.2785359,17.5412507 C92.0214205,17.5267378 89.8928627,17.5073873 85.626072,17.4464331 C85.626072,23.802113 85.626072,26.9794691 85.626072,33.335149 C85.626072,35.2179551 85.1229584,35.2150525 84.4263395,35.2102148 C83.855499,35.2063447 83.2169317,35.2015071 83.2169317,33.1532541 C83.2169317,26.8546583 83.2169317,23.7063279 83.2169317,17.4086996 C78.9598163,17.3371027 76.8312585,17.2906614 72.5741431,17.1735907 C72.5741431,23.5708742 72.5741431,26.7704835 72.5741431,33.167767 C72.5741431,39.8330552 75.1574381,44.303994 79.7918888,45.984587 C76.9280112,45.9787819 75.5057476,45.9768468 72.6418699,45.9691066 C72.6418699,59.7602256 72.6418699,66.6557851 72.6418699,80.4469041 C82.2203797,80.185672 87.0096346,80.11214 96.5881443,80.0811792 C96.5881443,74.8304143 96.5881443,72.2055156 96.5881443,66.9557182 C91.9149926,66.964426 89.5735791,66.9770038 84.9101026,67.0176399 C84.9101026,58.8991272 84.9101026,54.8413222 84.9101026,46.7237771" id="Fill-271" fill="#223E6F"></path>
                    <path d="M194.995238,60.8864261 C196.862564,57.4826688 197.791389,55.7604721 199.649039,52.2696375 C198.836317,51.386286 198.420281,50.9470291 197.607559,50.0733529 C194.414722,46.6599203 190.602669,45.0876902 185.958543,45.1312289 C178.721447,45.1979882 173.85479,50.5068047 173.85479,58.35441 C173.85479,62.0590679 174.919069,65.0574318 177.0186,67.3233782 C175.170625,70.0169712 174.251475,71.3492549 172.4035,73.991569 C172.4035,62.6995703 172.4035,57.0530872 172.4035,45.7601209 C167.536843,45.7930168 165.098677,45.8084973 160.222345,45.835588 C160.222345,49.4357531 160.222345,51.2363194 160.222345,54.8364846 C157.919633,51.2111638 156.768276,49.4183376 154.465564,45.8655813 C150.314876,45.8868669 148.234695,45.8965421 144.084007,45.9129901 C144.084007,59.9721138 144.084007,67.001192 144.084007,81.0612833 C148.96034,81.2780091 151.398506,81.4018525 156.265163,81.6795325 C156.265163,77.8694142 156.265163,75.964355 156.265163,72.1552042 C158.722679,76.0640102 159.951438,78.0396988 162.408954,82.0471925 C166.404838,82.2997168 168.407617,82.4351705 172.4035,82.7273634 C172.4035,80.0357054 172.4035,78.6898764 172.4035,75.9982184 C172.906614,76.5806692 173.148496,76.8728622 173.641934,77.4591831 C177.028276,81.4599041 181.701427,83.5110597 186.790615,83.963862 C194.269593,84.6304875 200.026374,79.9176672 200.026374,71.44504 C200.026374,66.8318749 197.888141,63.3420077 194.995238,60.8864261" id="Fill-272" fill="#223E6F"></path>
                    <path d="M59.7157194,34.7458023 C63.5664738,34.8144966 65.491851,34.8444899 69.3522807,34.8967363 C69.3522807,32.0957479 69.3522807,30.6957374 69.3522807,27.894749 C65.491851,27.8163793 63.5664738,27.7709056 59.7157194,27.6683478 C59.7157194,27.0791243 59.7157194,26.7849964 59.7157194,26.1967404 C63.9728348,26.3186487 66.1013926,26.3708951 70.358508,26.4608751 C70.358508,23.5050824 70.358508,22.0286374 70.358508,19.0738123 C63.1891386,18.8735343 59.6092915,18.7438858 52.4399221,18.4216996 C52.4399221,28.5758874 52.4399221,33.6524976 52.4399221,43.8057179 C59.6673431,43.8598994 63.2762159,43.881185 70.4939617,43.9150484 C70.4939617,40.9602233 70.4939617,39.4837782 70.5036369,36.5289531 C66.1787947,36.4796093 64.0308864,36.449616 59.7157194,36.3818891 C59.7157194,35.7278414 59.7157194,35.39985 59.7157194,34.7458023" id="Fill-273" fill="#FFFFFE"></path>
                    <path d="M84.3682879,44.3833698 C91.0055179,44.397844 94.6627671,40.3322987 94.6627671,32.949106 C94.6627671,27.5590174 94.6627671,24.8625217 94.6627671,19.4714655 C91.6924616,19.4569526 90.2121464,19.4453423 87.2418409,19.4095439 C87.2418409,24.8896125 87.2418409,27.6296468 87.2418409,33.1087479 C87.2418409,35.5681996 86.3226909,36.7592244 84.4263395,36.7485816 C82.5493386,36.7369712 81.6011629,35.4414536 81.6011629,32.9036323 C81.6011629,27.4729075 81.6011629,24.7580289 81.6011629,19.3273041 C78.6405326,19.2760252 77.1602175,19.2460319 74.1899119,19.1734675 C74.1899119,24.6844969 74.1899119,27.4390441 74.1899119,32.9500736 C74.1899119,40.303273 77.7987848,44.3688182 84.3682879,44.3833698" id="Fill-274" fill="#FFFFFE"></path>
                    <path d="M106.39886,26.8507882 C107.50184,26.8459505 108.05333,26.8420804 109.165985,26.8353077 C111.294543,26.8207948 111.294543,28.0872867 111.294543,28.505258 C111.294543,29.6662895 110.588249,30.2603506 109.195011,30.2690583 C108.072681,30.2748635 107.511516,30.2777661 106.39886,30.2816362 C106.39886,28.909684 106.39886,28.2237079 106.39886,26.8507882 Z M114.942117,35.475317 C117.341582,33.9185673 118.647743,31.3372073 118.647743,28.1085723 C118.647743,25.5688159 117.989825,23.5911923 116.615937,22.0654034 C115.019519,20.2880577 112.600704,19.4114789 109.446568,19.4405047 C105.29588,19.4782382 103.225374,19.4879135 99.0746867,19.4840434 C99.0746867,29.2841166 99.0746867,34.1836695 99.0746867,43.9827752 C102.006291,43.9827752 103.467256,43.9818077 106.39886,43.9789051 C106.39886,41.2485461 106.39886,39.8833666 106.39886,37.1539751 C106.834247,37.15204 107.047103,37.15204 107.48249,37.150105 C109.107934,39.8765939 109.910981,41.2408059 111.536425,43.9711649 C114.961468,43.9653598 116.673989,43.9614897 120.099032,43.9498793 C118.038201,40.5509597 117.002948,38.8577888 114.942117,35.475317 L114.942117,35.475317 Z" id="Fill-275" fill="#FFFFFE"></path>
                    <path d="M133.605698,36.6053877 C131.186883,36.6363485 129.348583,34.4371614 129.348583,31.4939466 C129.348583,28.5004204 131.119156,26.2925255 133.547647,26.2335064 C135.995488,26.1744873 137.833788,28.3639992 137.833788,31.3352723 C137.833788,34.3549217 136.05354,36.5724918 133.605698,36.6053877 Z M133.605698,18.4865238 C127.036195,18.6993796 121.87928,24.4222973 121.87928,31.6003745 C121.87928,38.7765166 127.007169,44.3833311 133.547647,44.3515384 C140.126825,44.3194744 145.274065,38.5220572 145.274065,31.1640201 C145.274065,23.8050156 140.146176,18.2736681 133.605698,18.4865238 L133.605698,18.4865238 Z" id="Fill-276" fill="#FFFFFE"></path>
                    <path d="M15.5771724,57.4449353 C13.5356921,53.3522993 12.5197895,51.2817932 10.4879844,47.0856319 C6.93716312,47.0691839 5.16659011,47.0614437 1.61576882,47.0440283 C1.61576882,60.7596802 1.61576882,67.6175062 1.61576882,81.3331581 C5.16659011,81.016777 6.93716312,80.865843 10.4879844,80.5775201 C10.4879844,75.0016664 10.4879844,72.2142233 10.4879844,66.6383696 C12.2101811,69.9037707 13.0809547,71.5176044 14.8031514,74.7162462 C15.3643167,74.6804477 15.6448993,74.6620647 16.2060645,74.6272338 C17.9476117,71.1905806 18.8183853,69.4916045 20.5599326,66.1284833 C20.5599326,71.5998442 20.5599326,74.3360084 20.5599326,79.8073692 C24.1494549,79.5490397 25.9490537,79.4271314 29.5482513,79.1978277 C29.5482513,66.3839102 29.5482513,59.9769515 29.5482513,47.163034 C25.9877547,47.1494886 24.2171817,47.1436835 20.6663604,47.1291706 C18.6248801,51.2053586 17.6089775,53.267157 15.5771724,57.4449353" id="Fill-277" fill="#FFFFFE"></path>
                    <path d="M35.0438003,78.8611286 C38.6623485,78.6482728 40.4812978,78.5495851 44.0998459,78.3667227 C44.0998459,65.9030497 44.0998459,59.6721807 44.0998459,47.2094752 C40.4812978,47.1988325 38.6623485,47.1930273 35.0438003,47.181417 C35.0438003,59.8531081 35.0438003,66.1894375 35.0438003,78.8611286" id="Fill-278" fill="#FFFFFE"></path>
                    <path d="M58.63209,47.2452737 C55.0232171,47.2375335 53.2139431,47.2326959 49.6050702,47.2239881 C49.6050702,59.5754281 49.6050702,65.7511481 49.6050702,78.102588 C57.8870948,77.7252528 62.0281071,77.5762537 70.3101317,77.3546902 C70.3101317,73.6229415 70.3101317,71.7565834 70.3101317,68.0248347 C65.63698,68.1090095 63.3052417,68.1593209 58.63209,68.2763915 C58.63209,59.8637509 58.63209,55.6579144 58.63209,47.2452737" id="Fill-279" fill="#FFFFFE"></path>
                    <path d="M83.2943338,47.2810722 C79.6757857,47.2781696 77.8761869,47.2762346 74.2576387,47.2713969 C74.2576387,59.2648522 74.2576387,65.2615798 74.2576387,77.2560026 C82.5396633,77.0634648 86.6903509,77.0063808 94.9723755,76.9705823 C94.9723755,73.289145 94.9723755,71.4479426 94.9723755,67.7674727 C90.2992238,67.7810181 87.9674855,67.795531 83.2943338,67.8429398 C83.2943338,59.6179992 83.2943338,55.5060127 83.2943338,47.2810722" id="Fill-280" fill="#FFFFFE"></path>
                    <path d="M99.0650115,76.9599395 C102.693235,76.9580045 104.502509,76.9638096 108.130732,76.9909004 C108.130732,65.1087106 108.130732,59.1680995 108.130732,47.2859098 C104.502509,47.2878449 102.693235,47.2878449 99.0650115,47.2878449 C99.0650115,59.1564892 99.0650115,65.0912952 99.0650115,76.9599395" id="Fill-281" fill="#FFFFFE"></path>
                    <path d="M126.997494,68.3363782 C124.152967,68.2880019 122.005059,65.6669733 122.005059,62.228385 C122.014734,58.7336803 124.075565,56.2084368 126.929767,56.2267201 C129.793645,56.2452028 131.960904,58.8768741 131.960904,62.3444882 C131.960904,65.3680077 130.258057,68.3915272 126.997494,68.3363782 Z M126.997494,46.7227836 C119.044428,46.7373224 112.803884,53.5138762 112.803884,62.1596907 C112.803884,70.8055051 119.015403,77.641078 126.929767,77.8394209 C134.892508,78.0377638 141.123377,71.3482874 141.123377,62.4886496 C141.123377,53.6290118 134.921534,46.7073291 126.997494,46.7227836 L126.997494,46.7227836 Z" id="Fill-282" fill="#FFFFFE"></path>
                    <path d="M161.838114,59.6924988 C158.57755,54.6255639 156.942431,52.1341838 153.672192,47.2143129 C150.489031,47.2230206 148.892613,47.2268907 145.699776,47.2346309 C145.699776,59.5057662 145.699776,65.6418176 145.699776,77.9129529 C149.279623,78.0619519 151.069547,78.1432241 154.649394,78.3212489 C154.649394,73.1575614 154.649394,70.5752339 154.649394,65.4115464 C158.074437,70.6700515 159.777283,73.3384888 163.192651,78.7788889 C166.240358,78.9540111 167.759374,79.0468936 170.797407,79.2423339 C170.797407,66.4090659 170.797407,59.9924319 170.797407,47.1601314 C167.21756,47.1727092 165.427636,47.1794819 161.838114,47.1901247 C161.838114,52.1912678 161.838114,54.6913556 161.838114,59.6924988" id="Fill-283" fill="#FFFFFE"></path>
                    <path d="M187.816193,59.2300212 C182.543175,57.5300776 185.416728,55.9984836 186.006919,56.0091264 C187.941972,56.0458924 190.022153,56.9137634 192.005582,58.7452906 C192.382917,59.0994052 192.576422,59.2764625 192.963433,59.6325121 C194.821083,56.326475 195.595104,55.2757415 197.452755,51.8864971 C197.11412,51.5256098 196.939966,51.3456499 196.601332,50.9857302 C193.698753,47.9622107 190.215658,46.5573626 185.958543,46.5812438 C179.688973,46.6173492 175.470558,51.0137884 175.470558,57.5262075 C175.470558,64.8823095 180.49202,67.1221327 185.581208,68.6672721 C189.867349,69.9676274 188.367683,71.5630782 187.100224,71.5746885 C184.594331,71.5969416 182.069087,70.009231 179.650272,67.7761805 C179.292287,67.407553 179.118132,67.223723 178.760148,66.856063 C176.689642,69.8302387 175.944646,70.8712969 173.87414,73.7816158 C174.212774,74.1705614 174.386929,74.3650342 174.725563,74.7559148 C177.811972,78.3183464 182.098113,80.5310789 186.790615,80.9074466 C193.408495,81.4386185 197.684961,77.2482623 197.684961,70.1485548 C197.684961,62.6724796 192.895706,60.864173 187.816193,59.2300212" id="Fill-284" fill="#FFFFFE"></path>
                    <g id="Group-287" transform="translate(53.204268, 19.350525)">
                        <mask id="mask-6" fill="white">
                            <use xlink:href="#path-5"></use>
                        </mask>
                        <g id="Clip-286"></g>
                        <path d="M5.33106957,14.0213902 C9.19149926,14.0987923 11.1168765,14.1326558 14.9773062,14.1926424 C14.9773062,12.4588354 14.9773062,11.5928994 14.9773062,9.85812484 C11.1168765,9.78265779 9.19149926,9.73815158 5.33106957,9.63946391 C5.33106957,7.96661104 5.33106957,7.13066837 5.33106957,5.45878303 C9.58818502,5.59133413 11.7167427,5.64841818 15.9738582,5.74710585 C15.9738582,3.85849464 15.9738582,2.91418903 15.9738582,1.02654534 C9.75266448,0.853358142 6.63722999,0.744995203 0.416036282,0.484730645 C0.416036282,9.53206849 0.416036282,14.0552537 0.416036282,23.1025915 C6.69528157,23.1606431 9.83974184,23.1838637 16.1189871,23.2225648 C16.1189871,21.3339535 16.1189871,20.3906155 16.1189871,18.5020042 C11.8038201,18.4565305 9.64623659,18.4284723 5.33106957,18.3675181 C5.33106957,16.6288734 5.33106957,15.7600349 5.33106957,14.0213902" id="Fill-285" fill="url(#linearGradient-7)" mask="url(#mask-6)"></path>
                    </g>
                    <g id="Group-290" transform="translate(74.489845, 20.318051)">
                        <mask id="mask-9" fill="white">
                            <use xlink:href="#path-8"></use>
                        </mask>
                        <g id="Clip-289"></g>
                        <path d="M9.87844289,22.7427294 C15.8384045,22.7591197 18.99254,19.2566747 18.99254,12.6271849 C18.99254,7.76149548 18.99254,5.33010204 18.99254,0.464412594 C16.9704102,0.452802279 15.9545077,0.445062069 13.9323778,0.423776492 C13.9323778,5.37364072 13.9323778,7.84760531 13.9323778,12.7974695 C13.9323778,17.1242469 11.4264849,17.7589441 9.93649446,17.7512039 C8.73676193,17.7444312 5.9406111,17.2248696 5.9406111,12.5749385 C5.9406111,7.66958049 5.9406111,5.217869 5.9406111,0.312510975 C3.91848126,0.27768003 2.90257871,0.257361979 0.870773614,0.212855772 C0.870773614,5.18690816 0.870773614,7.67345059 0.870773614,12.647503 C0.870773614,19.229584 3.9862081,22.7252563 9.87844289,22.7427294" id="Fill-288" fill="url(#linearGradient-10)" mask="url(#mask-9)"></path>
                    </g>
                    <g id="Group-293" transform="translate(99.645527, 20.318051)">
                        <mask id="mask-12" fill="white">
                            <use xlink:href="#path-11"></use>
                        </mask>
                        <g id="Clip-292"></g>
                        <path d="M9.54948397,11.2697456 C7.96274094,11.2784534 7.16936942,11.2813559 5.58262639,11.2861936 C5.58262639,8.86060529 5.58262639,7.64732738 5.58262639,5.22077158 C7.1500189,5.2139989 7.94339041,5.21012879 9.52045818,5.19851848 C11.6199901,5.18400558 12.8197227,6.26763497 12.8197227,8.17849929 C12.8197227,8.89930633 12.5875164,11.2542652 9.54948397,11.2697456 Z M13.6034189,14.7315545 C14.048481,14.4441992 14.271012,14.3010053 14.7063988,14.0126825 C16.7575544,12.6910417 17.8315086,10.5411984 17.8315086,7.80600169 C17.8315086,5.60584702 17.2896939,3.98137047 16.1383376,2.6955281 C14.7644504,1.1687717 12.6358927,0.417003808 9.80104079,0.441191964 C6.12444108,0.47312033 4.27646597,0.481828066 0.599866267,0.482795593 C0.599866267,9.22923278 0.599866267,13.6024514 0.599866267,22.347921 C2.59297032,22.347921 3.58952234,22.3469535 5.58262639,22.3450185 C5.58262639,19.6146594 5.58262639,18.2494799 5.58262639,15.5200884 C6.73398261,15.5171858 7.31449836,15.5162183 8.46585458,15.5113806 C10.0912987,18.2378696 10.8943454,19.6011141 12.5197895,22.3324406 C14.8031514,22.327603 15.9448324,22.3237329 18.2281943,22.3150251 C16.3802192,19.2750577 15.451394,17.7589441 13.6034189,14.7315545 L13.6034189,14.7315545 Z" id="Fill-291" fill="url(#linearGradient-13)" mask="url(#mask-12)"></path>
                    </g>
                    <g id="Group-296" transform="translate(122.866157, 19.350525)">
                        <mask id="mask-15" fill="white">
                            <use xlink:href="#path-14"></use>
                        </mask>
                        <g id="Clip-295"></g>
                        <path d="M10.7395412,18.5958543 C7.64345728,18.6326203 5.31171905,15.8625927 5.31171905,12.1608373 C5.31171905,8.46004942 7.62410675,5.61939239 10.6814897,5.54199029 C13.7969242,5.46168561 16.1383376,8.21526528 16.1383376,11.9595918 C16.1383376,15.7039184 13.8162747,18.5600558 10.7395412,18.5958543 Z M10.7395412,0.476022909 C4.82795593,0.659852894 0.193505248,5.79548216 0.193505248,12.2343693 C0.193505248,18.6722889 4.79893014,23.6966526 10.6814897,23.6610443 C16.6027502,23.6240881 21.2372009,18.4265372 21.2372009,11.8415536 C21.2372009,5.25753758 16.6221008,0.29316045 10.7395412,0.476022909 L10.7395412,0.476022909 Z" id="Fill-294" fill="url(#linearGradient-16)" mask="url(#mask-15)"></path>
                    </g>
                    <g id="Group-299" transform="translate(1.925377, 48.376312)">
                        <mask id="mask-18" fill="white">
                            <use xlink:href="#path-17"></use>
                        </mask>
                        <g id="Clip-298"></g>
                        <path d="M7.90468936,0.196407826 C5.08918801,0.194472774 3.6765997,0.193505248 0.861098352,0.190602669 C0.861098352,12.649438 0.861098352,18.878372 0.861098352,31.3372073 C3.47341919,31.1175789 4.77957961,31.011151 7.39190046,30.8070029 C7.39190046,23.8088857 7.39190046,20.3103108 7.39190046,13.313161 C9.83974184,17.9901829 11.0685002,20.2919278 13.5163415,24.8325284 L13.6517952,24.8238207 C16.1093119,19.9581312 17.3477454,17.5644713 19.8052621,12.8429433 C19.8052621,19.6669058 19.8052621,23.0784033 19.8052621,29.9013984 C22.4659592,29.722406 23.7914702,29.6362962 26.4424921,29.4718167 C26.4424921,17.7666843 26.4424921,11.9141181 26.4424921,0.208018141 C23.6269907,0.207050615 22.2144024,0.206083089 19.3892258,0.204148036 C17.0961886,4.80570282 15.9448324,7.135506 13.6517952,11.8657418 C11.3490828,7.26321947 10.2074018,4.93148123 7.90468936,0.196407826" id="Fill-297" fill="url(#linearGradient-19)" mask="url(#mask-18)"></path>
                    </g>
                    <g id="Group-302" transform="translate(35.788796, 48.376312)">
                        <mask id="mask-21" fill="white">
                            <use xlink:href="#path-20"></use>
                        </mask>
                        <g id="Clip-301"></g>
                        <path d="M0.425711545,29.0141768 C3.11543449,28.8671128 4.45062069,28.7964834 7.14034363,28.6648998 C7.14034363,17.2848562 7.14034363,11.595802 7.14034363,0.215758351 C4.45062069,0.214790825 3.11543449,0.213823299 0.425711545,0.212855772 C0.425711545,11.7331907 0.425711545,17.4938419 0.425711545,29.0141768" id="Fill-300" fill="url(#linearGradient-22)" mask="url(#mask-21)"></path>
                    </g>
                    <g id="Group-305" transform="translate(50.301689, 48.376312)">
                        <mask id="mask-24" fill="white">
                            <use xlink:href="#path-23"></use>
                        </mask>
                        <g id="Clip-304"></g>
                        <path d="M7.15969416,0.221563508 C4.47964648,0.221563508 3.14446027,0.220595982 0.474087856,0.219628456 C0.474087856,11.4535756 0.474087856,17.0710329 0.474087856,28.3059476 C7.817612,27.9944042 11.4845364,27.8686258 18.8280606,27.674153 C18.8280606,25.0066831 18.8280606,23.673432 18.8280606,21.0069297 C14.1645841,21.1007797 11.8231706,21.1559287 7.15969416,21.2846097 C7.15969416,12.8593912 7.15969416,8.64678199 7.15969416,0.221563508" id="Fill-303" fill="url(#linearGradient-25)" mask="url(#mask-24)"></path>
                    </g>
                    <g id="Group-308" transform="translate(74.489845, 48.376312)">
                        <mask id="mask-27" fill="white">
                            <use xlink:href="#path-26"></use>
                        </mask>
                        <g id="Clip-307"></g>
                        <path d="M7.62410675,0.227368666 C4.95373434,0.227368666 3.61854813,0.227368666 0.948175713,0.22640114 C0.948175713,11.1459023 0.948175713,16.6046853 0.948175713,27.5241864 C8.29169986,27.3693822 11.9586243,27.3210059 19.3021484,27.2823049 C19.3021484,24.6545036 19.3021484,23.340603 19.3021484,20.7118342 C14.638672,20.7302172 12.2972585,20.7476326 7.62410675,20.8018141 C7.62410675,12.5720359 7.62410675,8.45714684 7.62410675,0.227368666" id="Fill-306" fill="url(#linearGradient-28)" mask="url(#mask-27)"></path>
                    </g>
                    <g id="Group-311" transform="translate(99.645527, 48.376312)">
                        <mask id="mask-30" fill="white">
                            <use xlink:href="#path-29"></use>
                        </mask>
                        <g id="Clip-310"></g>
                        <path d="M0.590191005,27.2668244 C3.27991395,27.267792 4.62477542,27.2726296 7.3048231,27.2890775 C7.3048231,16.4653615 7.3048231,11.0530197 7.3048231,0.229303718 C4.62477542,0.229303718 3.27991395,0.229303718 0.590191005,0.229303718 C0.590191005,11.044312 0.590191005,16.4518161 0.590191005,27.2668244" id="Fill-309" fill="url(#linearGradient-31)" mask="url(#mask-30)"></path>
                    </g>
                    <g id="Group-314" transform="translate(113.190895, 47.408786)">
                        <mask id="mask-33" fill="white">
                            <use xlink:href="#path-32"></use>
                        </mask>
                        <g id="Clip-313"></g>
                        <path d="M13.8065994,22.2589086 C10.2944792,22.1960194 7.64345728,19.0002803 7.64345728,14.8089566 C7.64345728,10.6166654 10.2654534,7.46639998 13.7388726,7.48470294 C17.2800186,7.50316597 19.9407158,10.7153531 19.9407158,14.951183 C19.9407158,18.5542507 17.7928075,22.3314731 13.8065994,22.2589086 Z M13.8065994,0.647272281 C6.51145158,0.652112684 0.793371515,6.84911824 0.793371515,14.7576777 C0.793371515,22.6672047 6.48242579,28.9251644 13.7388726,29.0983516 C21.0436957,29.2725063 26.7617757,23.1470977 26.7617757,15.0585784 C26.7617757,6.97102654 21.0727215,0.642437422 13.8065994,0.647272281 L13.8065994,0.647272281 Z" id="Fill-312" fill="url(#linearGradient-34)" mask="url(#mask-33)"></path>
                    </g>
                    <g id="Group-317" transform="translate(146.086787, 48.376312)">
                        <mask id="mask-36" fill="white">
                            <use xlink:href="#path-35"></use>
                        </mask>
                        <g id="Clip-316"></g>
                        <path d="M0.783696253,0.220595982 C0.783696253,11.4206797 0.783696253,17.0216891 0.783696253,28.2227404 C3.42504288,28.3301358 4.75055383,28.3872198 7.39190046,28.5100956 C7.39190046,22.3014798 7.39190046,19.1976556 7.39190046,12.9900073 C11.5135622,19.2827979 13.5647179,22.4814397 17.6863796,29.0325598 C20.0277931,29.1622083 21.1984999,29.2299352 23.5302381,29.371194 C23.5302381,17.7066977 23.5302381,11.873482 23.5302381,0.208985667 C20.8888915,0.21092072 19.5730558,0.211888246 16.9317092,0.212855772 C16.9317092,6.29666076 16.9317092,9.33953077 16.9317092,15.4233358 C12.9648516,9.2263302 10.9814228,6.19313545 7.01456522,0.217693403 C4.51834753,0.21866093 3.27991395,0.219628456 0.783696253,0.220595982" id="Fill-315" fill="url(#linearGradient-37)" mask="url(#mask-36)"></path>
                    </g>
                    <g id="Group-320" transform="translate(175.112574, 47.408786)">
                        <mask id="mask-39" fill="white">
                            <use xlink:href="#path-38"></use>
                        </mask>
                        <g id="Clip-319"></g>
                        <path d="M12.4423874,12.62912 L12.4327122,12.6271849 C9.59786028,11.7380283 8.68838562,11.1884734 8.34975143,10.1367724 C8.32072564,10.031312 8.30137512,9.97906562 8.27234933,9.87360526 C8.27234933,9.76040469 8.27234933,9.70428816 8.27234933,9.59108759 C8.27234933,8.61388609 8.90124139,7.57960055 10.6718144,7.60669128 C12.8487484,7.63958717 15.2385382,8.73869698 17.4154723,10.748249 L17.4154723,10.7492165 C18.7506585,8.37200454 19.4182516,7.17323953 20.7534378,4.75248888 C18.0733901,1.95246795 14.8321772,0.640502369 10.8459691,0.648208536 C5.18594063,0.659852894 1.52869146,4.38386138 1.52869146,10.139675 C1.52869146,15.8616251 4.86665698,18.0056633 10.6040876,19.9252353 C13.5840684,20.9227549 14.3000378,21.6029258 14.5806204,22.474667 C14.6096462,22.5839974 14.6289967,22.6391464 14.6676978,22.7494444 C14.6676978,22.8665151 14.6676978,22.9245667 14.6676978,23.0416374 C14.6676978,23.6976201 14.3967904,25.2040585 11.910248,25.0569945 C9.14312295,24.892515 6.51145158,23.5234654 4.10231125,21.0436957 C2.6219961,23.1712859 1.8770009,24.226857 0.396685757,26.3205838 L0.396685757,26.3215513 C3.26056342,29.6362962 7.27579731,31.6845492 11.6780417,32.0212484 C17.6767044,32.4808233 21.4016804,28.9241969 21.4016804,22.6720423 C21.4016804,16.6472564 17.8218333,14.2574666 12.4423874,12.62912" id="Fill-318" fill="url(#linearGradient-40)" mask="url(#mask-39)"></path>
                    </g>
                </g>
            </g>
        </g>
    </g>
</svg>