<?xml version="1.0" encoding="UTF-8"?>
<svg width="234px" height="130px" viewBox="0 0 234 130" version="1.1" xmlns="http://www.w3.org/2000/svg" xmlns:xlink="http://www.w3.org/1999/xlink">
    <title>franceloto</title>
    <defs>
        <radialGradient cx="49.9230769%" cy="50.0694332%" fx="49.9230769%" fy="50.0694332%" r="50.0694332%" id="radialGradient-1">
            <stop stop-color="#78BDE9" offset="0%"></stop>
            <stop stop-color="#3168B1" offset="100%"></stop>
        </radialGradient>
        <radialGradient cx="50.0898785%" cy="50.0694332%" fx="50.0898785%" fy="50.0694332%" r="50.0694332%" id="radialGradient-2">
            <stop stop-color="#F5B2BD" offset="0%"></stop>
            <stop stop-color="#E62C2F" offset="100%"></stop>
        </radialGradient>
        <radialGradient cx="49.9706478%" cy="49.9961538%" fx="49.9706478%" fy="49.9961538%" r="50.0694332%" id="radialGradient-3">
            <stop stop-color="#78BDE9" offset="0%"></stop>
            <stop stop-color="#3168B1" offset="100%"></stop>
        </radialGradient>
        <radialGradient cx="50.0769231%" cy="50.0694332%" fx="50.0769231%" fy="50.0694332%" r="50.0694332%" id="radialGradient-4">
            <stop stop-color="#F5B2BD" offset="0%"></stop>
            <stop stop-color="#E62C2F" offset="100%"></stop>
        </radialGradient>
    </defs>
    <g id="Bg" stroke="none" stroke-width="1" fill="none" fill-rule="evenodd">
        <g id="Logos" transform="translate(-362.000000, -1066.000000)">
            <g id="franceloto" transform="translate(362.000000, 1066.000000)">
                <rect id="Rectangle" x="0" y="0" width="234" height="130" rx="2"></rect>
                <g id="Group" transform="translate(11.000000, 13.000000)" fill-rule="nonzero">
                    <g>
                        <g id="Oval">
                            <circle fill="url(#radialGradient-1)" cx="32.76" cy="32.11" r="32.11"></circle>
                            <circle fill="url(#radialGradient-2)" cx="80.99" cy="32.11" r="32.11"></circle>
                            <circle fill="url(#radialGradient-3)" cx="129.48" cy="32.5" r="32.11"></circle>
                            <circle fill="url(#radialGradient-4)" cx="177.84" cy="32.11" r="32.11"></circle>
                        </g>
                        <g transform="translate(20.800000, 15.600000)" fill="#FFFFFF">
                            <path d="M6.76,32.24 C5.33,31.46 4.03,29.51 3.12,26.78 C2.08,23.92 1.43,20.8 1.17,17.29 C1.04,15.47 0.91,13.91 0.91,12.22 C0.91,10.53 1.04,8.71 1.3,6.5 C1.56,4.29 2.34,2.73 3.51,1.69 C4.42,1.04 5.33,0.65 6.11,0.65 C6.11,0.65 6.37,0.65 6.89,0.65 C7.41,0.65 8.19,1.04 9.23,1.69 C9.75,2.08 10.01,2.47 10.14,2.86 C10.14,3.12 10.27,3.38 10.27,3.64 C10.27,3.9 10.27,4.29 10.14,4.55 C10.01,5.85 9.75,8.06 9.49,11.18 C9.23,14.43 9.1,17.55 8.97,20.8 C8.97,21.97 8.84,23.01 8.84,23.92 C8.84,25.48 8.97,26.78 9.1,27.56 C9.49,28.73 10.14,29.51 10.92,29.9 C11.57,30.16 12.35,30.29 13.13,30.29 C13.39,30.29 13.78,30.29 14.43,30.16 C15.08,30.16 15.86,29.9 16.77,29.51 C17.68,29.12 18.46,28.86 19.11,28.6 C19.76,28.34 20.02,28.08 20.02,28.08 C19.76,29.38 19.11,30.29 18.07,31.07 C17.03,31.72 15.73,32.24 14.17,32.5 C13.13,32.63 12.09,32.76 11.05,32.76 C10.66,32.76 10.01,32.76 9.1,32.63 C8.32,32.76 7.54,32.63 6.76,32.24 Z" id="Path"></path>
                            <path d="M59.02,33.02 C57.98,33.02 57.07,32.89 56.03,32.5 C54.34,31.85 52.91,30.55 51.61,28.47 C50.57,26.52 49.79,24.44 49.27,22.1 C49.14,21.45 49.01,20.8 49.01,20.15 C48.88,18.85 48.75,17.55 48.75,16.25 C48.75,14.69 48.88,13 49.14,11.44 C49.66,8.71 50.44,6.37 51.61,4.55 C52.78,2.86 53.95,1.82 55.12,1.43 C56.29,1.04 57.33,0.78 57.98,0.78 C60.97,0.78 63.7,2.73 65.91,6.5 C67.34,9.1 68.25,11.96 68.77,14.95 C69.03,16.25 69.16,17.55 69.16,18.85 C69.16,20.54 69.03,22.36 68.64,24.05 C67.99,26.78 66.82,28.99 65,30.55 C63.31,32.24 61.36,33.02 59.02,33.02 Z M66.95,22.88 C67.21,21.97 67.34,21.06 67.47,20.02 C67.21,20.41 66.95,20.67 66.69,20.8 C66.43,20.93 66.17,21.06 66.04,21.19 C65.78,21.32 65.65,21.32 65.52,21.32 L65.26,21.32 C65.65,20.28 65.78,19.24 65.78,18.07 C65.78,17.42 65.65,16.38 65.52,14.95 C65.26,13.52 64.74,12.09 63.96,10.27 C63.18,8.45 62.27,7.41 61.49,6.63 C61.1,6.37 60.71,6.24 60.45,6.24 C60.06,6.24 59.67,6.5 59.28,7.02 C58.5,8.71 58.11,10.66 57.98,13 C57.98,13.91 57.85,14.69 57.85,15.47 C57.85,16.64 57.98,17.68 58.11,18.59 C58.37,20.15 58.5,21.19 58.63,21.84 C59.28,24.7 60.06,26.39 61.23,27.04 C61.75,27.3 62.14,27.43 62.66,27.43 C63.31,27.43 63.96,27.04 64.87,26.39 C65.65,26 66.43,24.7 66.95,22.88 Z" id="Shape"></path>
                            <path d="M108.55,32.76 C107.77,32.37 106.99,31.46 106.34,30.16 C105.43,28.47 104.78,26.78 104.52,25.22 C104.13,23.66 104,22.75 103.87,22.36 C103.35,20.02 103.09,17.55 102.96,14.95 C102.96,14.3 102.96,13.65 102.96,13 C102.96,10.79 103.09,8.84 103.48,7.02 C103.61,6.63 103.61,6.24 103.74,5.85 C102.57,6.24 101.66,6.76 101.01,7.41 C100.36,8.06 99.84,8.58 99.58,9.23 C99.32,9.75 99.06,10.27 98.93,10.66 L98.8,11.31 L97.89,11.05 C97.24,10.92 96.59,10.66 95.81,10.27 C95.03,9.88 94.25,9.49 93.47,8.97 C92.69,8.45 92.17,7.93 91.78,7.28 C91.65,7.02 91.52,6.63 91.52,6.24 C91.52,5.85 91.65,5.46 91.91,4.94 C92.17,4.42 92.95,3.64 94.25,2.86 C96.33,1.69 99.06,0.91 102.18,0.78 C103.09,0.78 104,0.65 105.04,0.65 C107.25,0.65 109.72,0.78 112.32,1.17 C115.05,1.43 117.39,1.95 119.6,2.34 L122.85,3.12 L122.85,3.25 L122.85,3.38 C122.85,3.51 122.85,3.64 122.85,3.77 C122.85,3.9 122.72,4.03 122.59,4.29 C122.46,4.55 122.2,4.68 121.94,4.94 C121.68,5.2 121.16,5.33 120.64,5.46 C120.12,5.59 119.47,5.72 118.69,5.85 C118.17,5.85 117.78,5.98 117.13,5.98 C116.74,5.98 116.09,5.98 115.18,5.98 C114.4,5.98 113.23,5.85 111.67,5.59 C111.41,7.54 111.15,10.79 110.89,15.34 C110.63,18.46 110.5,21.32 110.5,23.92 C110.5,25.09 110.5,26.26 110.63,27.3 C110.63,27.69 110.76,27.95 110.76,28.21 C110.89,29.12 111.28,29.51 111.8,29.51 C112.19,29.51 112.58,29.25 113.1,28.86 C113.23,28.99 113.23,29.25 113.23,29.51 C113.23,29.9 113.1,30.42 112.71,30.94 C112.45,31.59 111.8,32.11 111.02,32.5 C110.63,32.76 110.24,32.89 109.72,32.89 C109.33,33.15 108.94,33.02 108.55,32.76 Z" id="Path"></path>
                            <path d="M157.04,32.63 C156,32.63 155.09,32.5 154.05,32.11 C152.36,31.46 150.93,30.16 149.63,28.08 C148.59,26.13 147.81,24.05 147.29,21.71 C147.16,21.06 147.03,20.41 147.03,19.76 C146.9,18.46 146.77,17.16 146.77,15.86 C146.77,14.3 146.9,12.61 147.16,11.05 C147.68,8.32 148.46,5.98 149.63,4.16 C150.8,2.47 151.97,1.43 153.14,1.04 C154.31,0.65 155.35,0.39 156,0.39 C158.99,0.39 161.72,2.34 163.93,6.11 C165.36,8.71 166.27,11.57 166.79,14.56 C167.05,15.86 167.18,17.16 167.18,18.46 C167.18,20.15 167.05,21.97 166.66,23.66 C166.01,26.39 164.84,28.6 163.02,30.16 C161.33,31.85 159.25,32.63 157.04,32.63 Z M164.97,22.62 C165.23,21.71 165.36,20.8 165.49,19.76 C165.23,20.15 164.97,20.41 164.71,20.54 C164.45,20.67 164.19,20.8 164.06,20.93 C163.8,21.06 163.67,21.06 163.54,21.06 L163.28,21.06 C163.67,20.02 163.8,18.98 163.8,17.81 C163.8,17.16 163.67,16.12 163.54,14.69 C163.28,13.26 162.76,11.83 161.98,10.01 C161.2,8.32 160.29,7.15 159.51,6.37 C159.12,6.11 158.73,5.98 158.47,5.98 C158.08,5.98 157.69,6.24 157.3,6.76 C156.52,8.45 156.13,10.4 156,12.74 C156,13.65 155.87,14.43 155.87,15.21 C155.87,16.38 156,17.42 156.13,18.33 C156.39,19.89 156.52,20.93 156.65,21.58 C157.3,24.44 158.08,26.13 159.25,26.78 C159.77,27.04 160.16,27.17 160.68,27.17 C161.33,27.17 161.98,26.78 162.89,26.13 C163.67,25.61 164.32,24.31 164.97,22.62 Z" id="Shape"></path>
                        </g>
                    </g>
                    <g transform="translate(15.600000, 80.600000)">
                        <polygon id="Path" fill="#E6292D" points="0.13 22.88 4.68 0.65 20.8 0.65 19.63 6.11 9.62 6.11 8.97 9.49 18.07 9.49 17.03 14.56 7.93 14.56 6.24 22.75 0.13 22.75"></polygon>
                        <path d="M18.72,22.88 L21.97,6.76 L27.82,6.76 L27.43,8.71 C28.6,7.15 30.03,6.37 31.85,6.37 C32.63,6.37 33.28,6.37 33.8,6.5 L32.76,11.7 C31.98,11.57 31.33,11.57 30.68,11.57 C28.21,11.57 26.65,13.13 25.87,16.38 L24.57,22.62 L18.72,22.62 L18.72,22.88 Z" id="Path" fill="#E6292D"></path>
                        <path d="M40.95,12.74 C43.29,12.48 44.07,12.35 44.07,11.7 C44.07,11.18 43.29,10.79 42.25,10.79 C40.82,10.79 39.39,11.44 37.96,12.61 L34.97,9.49 C36.92,7.28 39.39,6.24 42.51,6.24 C47.06,6.24 49.53,8.06 49.53,11.18 C49.53,11.7 49.53,12.22 49.4,12.61 L48.62,16.77 C48.62,17.03 48.62,17.16 48.62,17.29 C48.62,17.81 48.88,18.07 49.27,18.07 C49.4,18.07 49.4,18.07 49.53,18.07 L48.62,22.75 C48.1,23.01 47.58,23.14 46.8,23.14 C45.76,23.14 45.11,23.01 44.59,22.75 C44.07,22.49 43.68,22.1 43.42,21.45 C42.38,22.75 40.69,23.27 38.35,23.27 C36.66,23.27 35.23,22.88 34.19,21.97 C33.15,21.06 32.63,20.02 32.63,18.72 C32.37,15.08 35.23,13.26 40.95,12.74 Z M39.91,18.59 C41.86,18.59 42.9,17.94 43.16,16.12 L43.16,15.73 C43.03,15.86 42.77,15.86 42.51,15.99 C41.99,16.12 40.82,16.25 40.17,16.38 C38.74,16.64 38.09,17.03 38.09,17.68 C38.35,18.2 38.87,18.59 39.91,18.59 Z" id="Shape" fill="#E6292D"></path>
                        <path d="M50.57,22.88 L53.82,6.76 L59.67,6.76 L59.28,8.71 C60.45,7.15 62.01,6.37 63.83,6.37 C67.08,6.37 69.29,8.32 69.29,11.7 C69.29,12.22 69.29,12.74 69.16,13.26 L67.21,22.75 L61.36,22.75 L63.18,13.78 C63.18,13.52 63.18,13.26 63.18,13.13 C63.18,11.96 62.4,11.31 61.1,11.31 C59.54,11.31 58.63,12.35 58.24,13.91 L56.42,22.75 L50.57,22.75 L50.57,22.88 Z" id="Path" fill="#E6292D"></path>
                        <path d="M73.71,9.1 C75.66,7.28 78,6.24 80.73,6.24 C83.85,6.24 86.19,7.41 87.75,9.75 L83.2,13.13 C82.55,12.22 81.64,11.7 80.47,11.7 C79.43,11.7 78.65,12.09 77.87,12.74 C77.09,13.39 76.7,14.3 76.7,15.21 C76.7,16.77 78,17.94 79.82,17.94 C80.86,17.94 81.77,17.55 82.55,16.77 L86.06,20.54 C84.24,22.49 81.9,23.4 79.3,23.4 C76.83,23.4 74.75,22.75 73.06,21.32 C71.5,19.89 70.59,18.07 70.59,15.86 C70.85,13.13 71.76,11.05 73.71,9.1 Z" id="Path" fill="#E6292D"></path>
                        <path d="M90.61,9.23 C92.43,7.41 94.64,6.5 97.37,6.5 C99.71,6.5 101.79,7.15 103.22,8.58 C104.78,10.01 105.56,11.7 105.56,13.78 C105.56,14.56 105.43,15.47 105.17,16.51 L93.73,16.51 L93.73,16.51 C93.73,17.68 95.16,18.33 97.24,18.33 C98.8,18.33 100.1,17.94 101.14,17.03 L103.87,20.28 C101.79,22.23 99.19,23.27 96.2,23.27 C93.73,23.27 91.78,22.62 90.22,21.19 C88.66,19.76 88.01,17.94 88.01,15.73 C88.01,13.26 88.92,11.05 90.61,9.23 Z M99.97,13 L99.97,13 C99.97,11.83 98.93,11.05 97.37,11.05 C95.81,11.05 94.38,11.96 93.99,13 L99.97,13 Z" id="Shape" fill="#E6292D"></path>
                        <polygon id="Path" fill="#3169B1" points="106.34 22.88 110.89 0.65 117 0.65 113.62 17.42 122.07 17.42 120.9 22.88 106.34 22.88"></polygon>
                        <path d="M126.62,9.23 C128.57,7.41 131.04,6.37 133.77,6.37 C136.24,6.37 138.32,7.15 139.88,8.58 C141.44,10.01 142.22,11.83 142.22,14.04 C142.22,16.51 141.18,18.72 139.23,20.54 C137.28,22.36 134.94,23.4 132.08,23.4 C129.61,23.4 127.53,22.62 125.97,21.19 C124.41,19.76 123.63,17.94 123.63,15.6 C123.63,13.26 124.67,11.05 126.62,9.23 Z M132.6,18.07 C133.64,18.07 134.42,17.68 135.2,17.03 C135.98,16.38 136.24,15.6 136.24,14.69 C136.24,13 134.94,11.83 133.12,11.83 C132.08,11.83 131.3,12.22 130.52,12.87 C129.74,13.52 129.48,14.3 129.48,15.21 C129.61,16.9 130.78,18.07 132.6,18.07 Z" id="Shape" fill="#3169B1"></path>
                        <path d="M144.82,16.64 L145.73,11.96 L143.65,11.96 L144.69,6.89 L146.77,6.89 L148.07,0.78 L153.92,0.78 L152.62,6.89 L156,6.89 L154.96,11.96 L151.58,11.96 L150.8,16.12 C150.8,16.38 150.67,16.64 150.67,16.9 C150.67,17.68 151.19,18.2 152.23,18.2 C152.62,18.2 153.01,18.2 153.27,18.07 L152.23,23.01 C151.71,23.14 150.8,23.27 149.63,23.27 C146.51,23.27 144.43,21.45 144.43,18.59 C144.56,18.2 144.56,17.55 144.82,16.64 Z" id="Path" fill="#3169B1"></path>
                        <path d="M158.21,9.23 C160.16,7.41 162.63,6.37 165.36,6.37 C167.83,6.37 169.91,7.15 171.47,8.58 C173.03,10.01 173.81,11.83 173.81,14.04 C173.81,16.51 172.77,18.72 170.82,20.54 C168.87,22.36 166.53,23.4 163.67,23.4 C161.2,23.4 159.12,22.62 157.56,21.19 C156,19.76 155.22,17.94 155.22,15.6 C155.22,13.26 156.26,11.05 158.21,9.23 Z M164.19,18.07 C165.23,18.07 166.01,17.68 166.79,17.03 C167.57,16.38 167.83,15.6 167.83,14.69 C167.83,13 166.53,11.83 164.71,11.83 C163.67,11.83 162.89,12.22 162.11,12.87 C161.33,13.52 161.07,14.3 161.07,15.21 C161.2,16.9 162.37,18.07 164.19,18.07 Z" id="Shape" fill="#3169B1"></path>
                    </g>
                </g>
            </g>
        </g>
    </g>
</svg>