<?xml version="1.0" encoding="UTF-8"?>
<svg width="234px" height="130px" viewBox="0 0 234 130" version="1.1" xmlns="http://www.w3.org/2000/svg" xmlns:xlink="http://www.w3.org/1999/xlink">
    <title>la_primitiva</title>
    <g id="Bg" stroke="none" stroke-width="1" fill="none" fill-rule="evenodd">
        <g id="Logos" transform="translate(-668.000000, -1470.000000)" fill-rule="nonzero">
            <g id="la_primitiva" transform="translate(668.000000, 1470.000000)">
                <rect id="Rectangle" x="0" y="0" width="234" height="130" rx="2"></rect>
                <path d="M97.3438281,38 L97.3438281,92.117941 L90.0544728,92.117941 L90.0544728,88.5837081 L93.8095952,88.5837081 L93.8095952,41.5342329 L46.7601199,41.5342329 L46.7601199,88.5837081 L50.4047976,88.5837081 L50.4047976,92.117941 L43.2258871,92.117941 L43.2258871,38 L97.3438281,38 Z M80.3353323,86.5957021 C77.4637681,88.8045977 73.9295352,89.9090455 70.2848576,89.9090455 C66.6401799,89.9090455 63.105947,88.8045977 60.2343828,86.5957021 L60.2343828,86.5957021 Z M86.0784608,78.6436782 C85.5262369,80.3003498 84.6426787,81.9570215 83.5382309,83.3928036 L83.5382309,83.3928036 L57.0314843,83.3928036 C55.8165917,81.9570215 55.0434783,80.3003498 54.3808096,78.6436782 L54.3808096,78.6436782 Z M28.9785107,59.868066 C30.7456272,59.7576212 32.4022989,60.3098451 33.9485257,61.4142929 C35.1634183,62.4082959 35.7156422,63.9545227 35.6051974,65.5007496 L35.6051974,65.5007496 L35.6051974,75.7721139 L32.6231884,75.7721139 L31.850075,73.6736632 L31.7396302,73.6736632 C31.1874063,74.4467766 30.4142929,75.1094453 29.5307346,75.5512244 C28.5367316,75.9930035 27.5427286,76.1034483 26.5487256,76.1034483 C25.2233883,76.2138931 24.0084958,75.7721139 23.0144928,74.8885557 C22.0204898,73.8945527 21.5787106,72.5692154 21.6891554,71.2438781 C21.5787106,69.808096 22.2413793,68.3723138 23.4562719,67.5992004 C25.0024988,66.7156422 26.88006,66.2738631 28.6471764,66.2738631 L28.6471764,66.2738631 L31.2978511,66.1634183 L31.2978511,64.838081 C31.0769615,63.6231884 29.9725137,62.850075 28.868066,63.0709645 C27.4322839,63.1814093 25.886057,63.5127436 24.5607196,64.1754123 L24.5607196,64.1754123 L23.1249375,61.3038481 C24.892054,60.3098451 26.88006,59.868066 28.9785107,59.868066 Z M221.483758,59.9785107 C223.14043,59.868066 224.797101,60.3098451 226.232884,61.3038481 C227.447776,62.2978511 228,63.844078 228,65.5007496 L228,65.5007496 L228,75.7721139 L225.017991,75.7721139 L224.244878,73.6736632 L224.134433,73.6736632 C223.582209,74.4467766 222.809095,75.1094453 221.925537,75.5512244 C220.931534,75.9930035 219.937531,76.1034483 218.943528,76.1034483 C217.618191,76.2138931 216.403298,75.7721139 215.409295,74.8885557 C214.415292,73.8945527 213.973513,72.5692154 214.083958,71.2438781 C213.973513,69.808096 214.636182,68.3723138 215.851074,67.5992004 C217.397301,66.7156422 219.274863,66.1634183 221.041979,66.2738631 L221.041979,66.2738631 L223.692654,66.1634183 L223.692654,64.9485257 C223.471764,63.844078 222.367316,62.9605197 221.262869,63.1814093 C219.827086,63.2918541 218.28086,63.6231884 216.955522,64.2858571 L216.955522,64.2858571 L215.51974,61.4142929 C217.397301,60.4202899 219.385307,59.9785107 221.483758,59.9785107 Z M182.717641,56.886057 L182.717641,60.1994003 L187.024988,60.1994003 L187.024988,63.4022989 L182.717641,63.4022989 L182.717641,70.802099 C182.717641,71.2438781 182.938531,71.7961019 183.269865,72.1274363 C183.601199,72.4587706 184.042979,72.5692154 184.484758,72.5692154 C185.368316,72.5692154 186.251874,72.4587706 187.135432,72.1274363 L187.135432,72.1274363 L187.135432,75.3303348 C185.92054,75.7721139 184.595202,75.9930035 183.269865,75.9930035 C181.944528,76.1034483 180.61919,75.5512244 179.625187,74.6676662 C178.852074,73.5632184 178.410295,72.1274363 178.52074,70.802099 L178.52074,70.802099 L178.52074,63.4022989 L176.532734,63.4022989 L176.532734,61.6351824 L178.852074,60.1994003 L180.066967,56.886057 L182.717641,56.886057 Z M159.855572,59.9785107 C161.291354,59.868066 162.727136,60.3098451 163.942029,61.3038481 C164.936032,62.5187406 165.377811,64.0649675 165.267366,65.6111944 L165.267366,65.6111944 L165.267366,75.7721139 L161.070465,75.7721139 L161.070465,66.7156422 C161.18091,65.832084 160.96002,64.9485257 160.518241,64.1754123 C160.076462,63.5127436 159.413793,63.2918541 158.751124,63.2918541 C157.867566,63.1814093 156.984008,63.6231884 156.431784,64.3963018 C155.87956,65.5007496 155.548226,66.7156422 155.658671,67.9305347 L155.658671,67.9305347 L155.658671,75.6616692 L151.461769,75.6616692 L151.461769,66.6051974 C151.572214,65.7216392 151.351324,64.838081 150.909545,64.0649675 C150.467766,63.4022989 149.805097,63.1814093 149.142429,63.1814093 C148.258871,63.1814093 147.375312,63.6231884 146.823088,64.3963018 C146.16042,65.6111944 145.93953,66.9365317 146.049975,68.2618691 L146.049975,68.2618691 L146.049975,75.6616692 L141.853073,75.6616692 L141.853073,60.1994003 L145.055972,60.1994003 L145.608196,62.1874063 L145.829085,62.1874063 C146.270865,61.5247376 146.823088,60.862069 147.596202,60.5307346 C148.369315,60.1994003 149.363318,59.9785107 150.246877,59.9785107 C152.566217,59.9785107 154.112444,60.6411794 154.996002,62.1874063 L154.996002,62.1874063 L155.327336,62.1874063 C155.658671,61.5247376 156.321339,60.862069 157.094453,60.5307346 C157.978011,60.1994003 158.861569,59.9785107 159.855572,59.9785107 Z M128.710145,59.9785107 C129.151924,59.9785107 129.704148,59.9785107 130.145927,60.0889555 L130.145927,60.0889555 L129.814593,64.0649675 C128.268366,63.7336332 126.611694,64.0649675 125.396802,64.9485257 C124.623688,65.7216392 124.181909,66.7156422 124.292354,67.82009 L124.292354,67.82009 L124.292354,75.7721139 L120.095452,75.7721139 L120.095452,60.3098451 L123.298351,60.3098451 L123.961019,62.850075 L124.181909,62.850075 C124.734133,61.9665167 125.396802,61.3038481 126.169915,60.7516242 C126.943028,60.1994003 127.826587,59.9785107 128.710145,59.9785107 Z M194.535232,60.1994003 L194.535232,75.6616692 L190.338331,75.6616692 L190.338331,60.1994003 L194.535232,60.1994003 Z M201.161919,60.1994003 L204.143928,69.0349825 C204.475262,70.1394303 204.696152,71.1334333 204.806597,72.2378811 L204.806597,72.2378811 L204.917041,72.2378811 C205.027486,71.1334333 205.248376,70.0289855 205.57971,69.0349825 L205.57971,69.0349825 L208.34083,60.1994003 L212.758621,60.1994003 L206.905047,75.6616692 L202.597701,75.6616692 L196.744128,60.1994003 L201.161919,60.1994003 Z M11.3073463,55.4502749 L11.3073463,72.1274363 L19.4802599,72.1274363 L19.4802599,75.6616692 L7,75.6616692 L7,55.4502749 L11.3073463,55.4502749 Z M109.161419,55.4502749 C111.149425,55.2293853 113.137431,55.892054 114.794103,56.9965017 C116.11944,58.2113943 116.782109,59.9785107 116.671664,61.7456272 C116.892554,63.6231884 116.11944,65.5007496 114.683658,66.7156422 C113.026987,68.0409795 111.038981,68.5932034 108.94053,68.4827586 L108.94053,68.4827586 L107.062969,68.4827586 L107.062969,75.6616692 L102.755622,75.6616692 L102.755622,55.4502749 Z M137.214393,60.1994003 L137.214393,75.6616692 L133.017491,75.6616692 L133.017491,60.1994003 L137.214393,60.1994003 Z M173.661169,60.1994003 L173.661169,75.6616692 L169.464268,75.6616692 L169.464268,60.1994003 L173.661169,60.1994003 Z M86.8515742,70.9125437 C86.962019,71.6856572 87.0724638,72.3483258 87.0724638,73.1214393 C86.962019,73.8945527 86.962019,74.5572214 86.8515742,75.3303348 L86.8515742,75.3303348 L53.6076962,75.3303348 C53.6076962,74.5572214 53.4972514,73.8945527 53.4972514,73.1214393 C53.4972514,72.3483258 53.4972514,71.6856572 53.6076962,70.9125437 L53.6076962,70.9125437 Z M31.4082959,68.5932034 L29.7516242,68.5932034 C28.7576212,68.5932034 27.874063,68.814093 26.9905047,69.2558721 C26.3278361,69.6976512 25.9965017,70.3603198 25.9965017,71.1334333 C25.9965017,72.3483258 26.6591704,72.9005497 27.9845077,72.9005497 C28.868066,72.9005497 29.6411794,72.5692154 30.3038481,72.0169915 C30.856072,71.4647676 31.1874063,70.5812094 31.1874063,69.808096 L31.1874063,69.808096 L31.4082959,68.5932034 Z M223.692654,68.5932034 L222.035982,68.5932034 C221.041979,68.5932034 220.158421,68.814093 219.274863,69.2558721 C218.722639,69.6976512 218.391304,70.3603198 218.391304,71.1334333 C218.391304,72.3483258 219.164418,72.9005497 220.489755,72.9005497 C221.373313,72.9005497 222.146427,72.5692154 222.809095,72.0169915 C223.361319,71.4647676 223.692654,70.5812094 223.692654,69.808096 L223.692654,69.808096 L223.692654,68.5932034 Z M83.5382309,62.850075 C84.6426787,64.2858571 85.5262369,65.9425287 86.0784608,67.7096452 L86.0784608,67.7096452 L54.3808096,67.7096452 C55.0434783,65.9425287 55.8165917,64.2858571 57.0314843,62.850075 L57.0314843,62.850075 Z M111.48076,59.7576212 C110.818091,59.2053973 109.824088,58.874063 108.94053,58.9845077 L108.94053,58.9845077 L106.952524,58.9845077 L106.952524,64.9485257 L108.388306,64.9485257 C109.492754,65.0589705 110.486757,64.7276362 111.370315,64.1754123 C112.032984,63.6231884 112.474763,62.7396302 112.364318,61.9665167 C112.364318,61.1934033 112.032984,60.3098451 111.48076,59.7576212 Z M60.2343828,59.7576212 C66.1984008,55.2293853 74.3713143,55.2293853 80.3353323,59.7576212 L80.3353323,59.7576212 Z M135.115942,54.1249375 C136.662169,54.1249375 137.435282,54.898051 137.435282,56.2233883 C137.545727,56.7756122 137.324838,57.3278361 136.883058,57.7696152 C136.330835,58.2113943 135.778611,58.3218391 135.115942,58.3218391 C133.569715,58.3218391 132.796602,57.5487256 132.796602,56.2233883 C132.796602,54.7876062 133.569715,54.1249375 135.115942,54.1249375 Z M171.562719,54.1249375 C173.108946,54.1249375 173.882059,54.898051 173.882059,56.2233883 C173.882059,56.7756122 173.771614,57.3278361 173.329835,57.7696152 C172.777611,58.2113943 172.225387,58.3218391 171.562719,58.3218391 C170.016492,58.3218391 169.243378,57.6591704 169.243378,56.2233883 C169.243378,54.7876062 170.016492,54.1249375 171.562719,54.1249375 Z M192.547226,54.1249375 C193.983008,54.1249375 194.756122,54.898051 194.756122,56.2233883 C194.866567,56.7756122 194.645677,57.3278361 194.314343,57.7696152 C193.762119,58.2113943 193.209895,58.3218391 192.547226,58.3218391 C191.001,58.3218391 190.227886,57.6591704 190.227886,56.2233883 C190.227886,54.7876062 191.001,54.1249375 192.547226,54.1249375 Z" id="Combined-Shape" fill="#0D8443"></path>
            </g>
        </g>
    </g>
</svg>