<?xml version="1.0" encoding="UTF-8"?>
<svg width="234px" height="130px" viewBox="0 0 234 130" version="1.1" xmlns="http://www.w3.org/2000/svg" xmlns:xlink="http://www.w3.org/1999/xlink">
    <title>loto_ireland</title>
    <g id="Bg" stroke="none" stroke-width="1" fill="none" fill-rule="evenodd">
        <g id="Logos" transform="translate(-1280.000000, -1268.000000)">
            <g id="loto_ireland" transform="translate(1280.000000, 1268.000000)">
                <rect id="Rectangle" x="0" y="0" width="234" height="130" rx="2"></rect>
                <g id="Group-4" transform="translate(7.000000, 39.000000)" fill-rule="nonzero">
                    <path d="M77.35,40.8173469 C78.0265306,41.2683673 78.3647959,42.0576531 78.2520408,42.7341837 C78.2520408,43.9744898 77.4627551,44.8765306 75.9969388,45.327551 C76.3352041,45.4403061 76.6734694,45.7785714 77.0117347,46.1168367 C77.35,46.5678571 77.5755102,47.0188776 77.8010204,47.5826531 C77.9137755,48.0336735 78.2520408,48.3719388 78.477551,48.7102041 C78.7030612,48.9357143 79.0413265,48.9357143 79.2668367,48.9357143 C79.3795918,49.3867347 79.3795918,49.6122449 79.2668367,49.8377551 C79.1643321,50.0427644 78.7822694,50.0614016 78.2900777,50.0630959 L78.1392857,50.0632653 C77.5755102,50.0632653 77.1244898,50.0632653 76.6734694,49.8377551 C76.222449,49.4994898 75.9969388,48.9357143 75.8841837,48.3719388 C75.7714286,47.3571429 75.5459184,46.7933673 75.2076531,46.2295918 C74.9821429,45.8913265 74.5311224,45.6658163 74.1928571,45.6658163 C73.9673469,45.6658163 73.7418367,45.6658163 73.5163265,45.7785714 C73.4035714,47.1316327 73.4035714,48.1464286 73.4035714,48.597449 L74.4183673,48.597449 C74.5311224,48.7102041 74.5311224,48.9357143 74.5311224,49.1612245 C74.5311224,49.2739796 74.5311224,49.3867347 74.4183673,49.4994898 C74.4183673,49.4994898 74.3056122,49.6122449 74.1928571,49.6122449 L70.2464286,49.6122449 C70.1562245,49.4318367 70.1381837,49.3235918 70.1345755,49.172049 L70.1336735,49.0484694 C70.1336735,48.9357143 70.1336735,48.8229592 70.2464286,48.8229592 C70.3591837,48.7102041 70.4719388,48.7102041 70.5846939,48.7102041 L71.2612245,48.7102041 L71.2612245,41.0428571 L71.2612245,41.0428571 L70.3591837,41.0428571 C70.2464286,40.8173469 70.2464286,40.7045918 70.2464286,40.4790816 C70.2464286,40.3663265 70.2464286,40.2535714 70.3591837,40.2535714 C70.4493878,40.1633673 70.5395918,40.1453265 70.6297959,40.1417184 L74.3056122,40.1408163 C75.3204082,40.0280612 76.4479592,40.2535714 77.35,40.8173469 Z M113.544388,39.9153061 C114.220918,41.1556122 114.784694,42.2831633 115.348469,43.2979592 C116.025,44.5382653 116.588776,45.7785714 117.152551,47.1316327 L117.152551,40.930102 L117.152551,40.930102 L116.363265,40.930102 C116.25051,40.7045918 116.25051,40.5918367 116.25051,40.3663265 C116.25051,40.2535714 116.25051,40.1408163 116.363265,40.1408163 C116.47602,40.0280612 116.588776,40.0280612 116.701531,40.0280612 L119.858673,40.0280612 C119.971429,40.1408163 119.971429,40.3663265 119.971429,40.5918367 C119.971429,40.7045918 119.971429,40.8173469 119.858673,40.930102 C119.745918,41.0428571 119.633163,41.0428571 119.520408,41.0428571 L118.956633,41.0428571 L118.956633,48.8229592 C118.956633,49.1612245 118.956633,49.3867347 118.843878,49.725 C118.618367,49.8377551 118.280102,49.9505102 118.054592,49.9505102 C117.603571,49.9505102 117.039796,49.9505102 116.588776,49.8377551 C116.025,49.1612245 115.57398,48.3719388 115.235714,47.5826531 C114.333673,46.1168367 113.657143,44.6510204 112.980612,43.072449 L112.980612,48.8229592 L112.980612,48.8229592 L113.657143,48.8229592 C113.769898,48.9357143 113.769898,49.1612245 113.769898,49.3867347 C113.769898,49.4994898 113.769898,49.6122449 113.657143,49.725 C113.56318,49.8189626 113.469218,49.834623 113.440507,49.8372331 L110.387245,49.8377551 C110.27449,49.6122449 110.27449,49.4994898 110.27449,49.2739796 C110.27449,49.1612245 110.27449,49.0484694 110.387245,49.0484694 C110.5,48.9357143 110.612755,48.9357143 110.72551,48.9357143 L111.289286,48.9357143 L111.289286,41.2683673 L111.289286,41.2683673 L110.612755,41.2683673 C110.5,41.0428571 110.5,40.930102 110.5,40.7045918 C110.5,40.5918367 110.5,40.4790816 110.612755,40.4790816 C110.27449,40.0280612 110.387245,39.9153061 110.5,39.9153061 L113.544388,39.9153061 Z M103.283673,39.802551 C103.734694,39.802551 104.185714,39.802551 104.636735,39.9153061 C105.20051,41.1556122 105.651531,42.3959184 105.989796,43.6362245 C106.779082,46.1168367 107.342857,47.6954082 107.793878,48.7102041 L108.470408,48.7102041 C108.583163,48.8229592 108.583163,49.0484694 108.583163,49.2739796 C108.583163,49.3867347 108.583163,49.4994898 108.470408,49.6122449 C108.357653,49.725 108.244898,49.725 108.132143,49.725 L104.636735,49.725 C104.52398,49.4994898 104.52398,49.3867347 104.52398,49.1612245 C104.52398,49.0484694 104.52398,48.9357143 104.636735,48.9357143 C104.74949,48.8229592 104.862245,48.8229592 104.975,48.8229592 L105.313265,48.8229592 C105.20051,48.4846939 105.087755,47.8081633 104.74949,46.7933673 L101.817857,46.7933673 C101.592347,47.8081633 101.366837,48.4846939 101.366837,48.8229592 L102.043367,48.8229592 C102.156122,48.9357143 102.156122,49.1612245 102.156122,49.3867347 C102.156122,49.4994898 102.156122,49.6122449 102.043367,49.725 C101.949405,49.8189626 101.855442,49.834623 101.826731,49.8372331 L98.7734694,49.8377551 C98.6832653,49.6573469 98.6652245,49.549102 98.6616163,49.3975592 L98.6607143,49.2739796 C98.6607143,49.1612245 98.6607143,49.0484694 98.7734694,49.0484694 C98.8862245,48.9357143 98.9989796,48.9357143 99.1117347,48.9357143 L99.45,48.9357143 C99.7882653,48.0336735 100.239286,46.5678571 100.915816,44.5382653 C101.254082,43.2979592 101.705102,42.0576531 102.268878,40.8173469 C102.381633,40.0280612 102.832653,39.6897959 103.283673,39.802551 Z M68.1040816,39.9153061 C68.2168367,40.0280612 68.2168367,40.2535714 68.2168367,40.4790816 C68.2168367,40.5918367 68.2168367,40.7045918 68.1040816,40.8173469 C67.9913265,40.930102 67.8785714,40.930102 67.7658163,40.930102 L67.0892857,40.930102 L67.0892857,48.7102041 L67.0892857,48.7102041 L67.9913265,48.7102041 C68.1040816,48.8229592 68.1040816,49.0484694 68.1040816,49.2739796 C68.1040816,49.3867347 68.1040816,49.4994898 67.9913265,49.6122449 C67.8785714,49.725 67.7658163,49.725 67.6530612,49.725 L63.8193878,49.725 C63.7291837,49.5445918 63.7111429,49.4363469 63.7075347,49.2848041 L63.7066327,49.1612245 C63.7066327,49.0484694 63.7066327,48.9357143 63.8193878,48.9357143 C63.9321429,48.8229592 64.044898,48.8229592 64.1576531,48.9357143 L64.8341837,48.9357143 L64.8341837,41.2683673 L64.8341837,41.2683673 L63.8193878,41.2683673 C63.7291837,41.0879592 63.7111429,40.9797143 63.7075347,40.8281714 L63.7066327,40.7045918 C63.7066327,40.5918367 63.7066327,40.4790816 63.8193878,40.4790816 C64.027551,39.9586735 64.1396389,39.9186421 64.2443364,39.9155627 L68.1040816,39.9153061 Z M125.158163,39.9153061 C127.30051,39.9153061 128.653571,40.2535714 129.442857,40.930102 C130.344898,41.8321429 130.683163,43.072449 130.570408,44.3127551 C130.683163,45.7785714 130.232143,47.1316327 129.330102,48.2591837 C128.202551,49.2739796 126.736735,49.725 125.270918,49.6122449 L121.888265,49.6122449 C121.77551,49.3867347 121.77551,49.2739796 121.77551,49.0484694 C121.77551,48.9357143 121.77551,48.8229592 121.888265,48.8229592 C122.00102,48.7102041 122.113776,48.7102041 122.226531,48.7102041 L122.677551,48.7102041 L122.677551,41.0428571 L122.677551,41.0428571 L121.888265,41.0428571 C121.77551,40.8173469 121.77551,40.7045918 121.77551,40.4790816 C121.77551,40.3663265 121.77551,40.2535714 121.888265,40.2535714 C121.988492,39.9528912 122.088719,39.9194822 122.188946,39.9157701 L125.158163,39.9153061 Z M94.4887755,40.1408163 C94.6015306,40.2535714 94.6015306,40.4790816 94.6015306,40.7045918 C94.6015306,40.8173469 94.6015306,40.930102 94.4887755,41.0428571 C94.3948129,41.1368197 94.3008503,41.1524802 94.2721396,41.1550902 L93.5867347,41.1556122 L93.5867347,44.2 L93.5867347,44.2 C93.4893553,46.1475881 93.4760763,47.5064735 93.4742655,48.1313917 L93.4739796,48.3719388 L93.4739796,48.3719388 L93.5867347,48.3719388 C94.8270408,48.3719388 96.0673469,48.2591837 97.3076531,47.8081633 C97.5331633,48.1464286 97.6459184,48.4846939 97.6459184,48.8229592 C97.6459184,49.0484694 97.5331633,49.2739796 97.4204082,49.3867347 C97.0821429,49.4994898 96.6311224,49.6122449 96.2928571,49.6122449 L90.5423469,49.6122449 C90.4295918,49.3867347 90.4295918,49.2739796 90.4295918,49.0484694 C90.4295918,48.9357143 90.4295918,48.8229592 90.5423469,48.8229592 C90.655102,48.7102041 90.7678571,48.7102041 90.8806122,48.7102041 L91.3316327,48.7102041 L91.3316327,41.0428571 L91.3316327,41.0428571 L90.5423469,41.0428571 C90.4295918,40.8173469 90.4295918,40.7045918 90.4295918,40.4790816 C90.4295918,40.3663265 90.4295918,40.2535714 90.5423469,40.2535714 C90.632551,40.1633673 90.7227551,40.1453265 90.8129592,40.1417184 L94.4887755,40.1408163 Z M87.6107143,39.9153061 C87.8362245,39.9153061 88.0617347,39.9153061 88.2872449,40.0280612 C88.4,40.1408163 88.5127551,40.2535714 88.5127551,40.5918367 C88.5127551,40.930102 88.4,41.3811224 88.1744898,41.6066327 C86.9341837,41.1556122 85.6938776,40.930102 84.4535714,41.0428571 L84.1153061,41.0428571 L84.1153061,43.8617347 L84.1153061,43.8617347 L87.6107143,43.8617347 C87.7234694,44.0872449 87.7234694,44.4255102 87.7234694,44.6510204 C87.7234694,44.7637755 87.7234694,44.9892857 87.4979592,44.9892857 L84.002551,44.9892857 L84.002551,48.2591837 L84.002551,48.2591837 L84.5663265,48.2591837 C85.8066327,48.2591837 87.0469388,48.1464286 88.2872449,47.6954082 C88.5127551,48.0336735 88.6255102,48.3719388 88.6255102,48.7102041 C88.6255102,48.9357143 88.5127551,49.1612245 88.4,49.2739796 C88.0617347,49.3867347 87.6107143,49.4994898 87.272449,49.4994898 L81.0709184,49.4994898 C80.9581633,49.2739796 80.9581633,49.1612245 80.9581633,48.9357143 C80.9581633,48.8229592 80.9581633,48.7102041 81.0709184,48.7102041 C81.1836735,48.597449 81.2964286,48.597449 81.4091837,48.597449 L81.8602041,48.597449 L81.8602041,40.930102 L81.8602041,40.930102 L81.0709184,40.930102 C80.9581633,40.7045918 80.9581633,40.5918367 80.9581633,40.3663265 C80.9581633,40.2535714 80.9581633,40.1408163 81.0709184,40.1408163 C81.0709184,39.9434949 81.1572465,39.9188297 81.2543656,39.9157466 L87.6107143,39.9153061 Z M125.834694,41.2683673 C125.496429,41.2683673 125.270918,41.2683673 124.932653,41.3811224 L124.932653,46.0040816 L124.932653,46.0040816 C124.819898,46.6806122 124.932653,47.3571429 125.158163,48.0336735 C125.270918,48.2591837 125.609184,48.3719388 126.172959,48.3719388 C126.736735,48.3719388 127.30051,48.1464286 127.751531,47.6954082 C128.202551,46.9061224 128.428061,45.8913265 128.315306,44.9892857 C128.428061,43.9744898 128.202551,43.072449 127.638776,42.1704082 C127.187755,41.4938776 126.511224,41.2683673 125.834694,41.2683673 Z M103.058163,41.8321429 C102.607143,42.9596939 102.268878,44.2 102.043367,45.4403061 L104.298469,45.4403061 C103.960204,44.2 103.621939,43.072449 103.058163,41.8321429 Z M74.5311224,41.2683673 L74.080102,41.2683673 L74.080102,41.2683673 C73.8545918,41.2683673 73.6290816,41.2683673 73.4035714,41.3811224 L73.4035714,44.5382653 L73.9673469,44.5382653 C74.4183673,44.5382653 74.9821429,44.4255102 75.3204082,44.2 C75.6586735,43.9744898 75.8841837,43.5234694 75.7714286,43.072449 C75.8841837,42.2831633 75.3204082,41.3811224 74.5311224,41.2683673 Z M77.8010204,2.25510204 C78.1392857,3.15714286 78.2520408,4.17193878 78.2520408,5.07397959 C78.2520408,5.525 78.1392857,5.97602041 77.9137755,6.31428571 C77.7043732,6.52368805 78.2727509,6.63586787 77.993904,6.65082518 L77.9137755,6.65255102 L75.6586735,6.65255102 C75.5700802,8.24723032 75.5510959,10.7468268 75.5470278,14.041955 L75.5462471,14.960268 L75.5461856,20.0689382 L75.5461856,20.0689382 L75.5470652,21.700635 L75.5473508,21.9982531 L75.5473508,21.9982531 L75.5480565,22.5663217 C75.5530946,26.0243236 75.5700036,27.413814 75.6267545,28.4689891 L75.6425918,28.739556 L75.6531292,28.8990063 L75.6586735,28.9780612 L76.222449,28.9780612 C81.6346939,28.9780612 84.9045918,28.4142857 88.2872449,27.1739796 C88.9637755,28.1887755 89.3020408,29.4290816 89.3020408,30.6693878 C89.3020408,31.5714286 88.9637755,33.2627551 88.2872449,33.6010204 C87.1596939,34.011039 85.9389568,34.2346854 84.7097483,34.1872453 L84.3408163,34.1647959 L64.4959184,34.1647959 C64.1576531,33.15 64.044898,32.1352041 64.044898,31.1204082 C63.9321429,30.6693878 64.1576531,30.3311224 64.3831633,30.1056122 C64.5804847,29.9082908 64.9504624,29.7972975 65.266485,29.7726323 L65.3979592,29.7673469 L67.0892857,29.7673469 C67.0931738,29.697361 67.0969279,29.6273751 67.1005524,29.5571118 L67.1110425,29.3452123 C67.1733932,28.0299456 67.1930221,26.5248044 67.1992016,23.0734484 L67.2000904,22.496432 L67.2004551,22.1946091 L67.2004551,22.1946091 L67.2010422,21.5632933 L67.2013247,14.4208007 C67.1983316,11.1399285 67.182827,8.65728661 67.1025131,6.92057706 L67.0892857,6.65255102 L64.3831633,6.65255102 C64.044898,5.6377551 63.9321429,4.62295918 63.9321429,3.60816327 C63.8193878,3.26989796 64.044898,2.81887755 64.2704082,2.59336735 C64.4677296,2.39604592 64.8377073,2.28505261 65.1537299,2.26038744 L65.2852041,2.25510204 L77.8010204,2.25510204 Z M108.019388,2.25510204 C112.867857,2.25510204 116.588776,3.38265306 119.182143,5.86326531 C121.77551,8.11836735 123.015816,12.4030612 123.015816,18.4918367 C123.015816,25.0316327 121.55,26.2719388 118.505612,29.4290816 C115.461224,32.5862245 111.289286,34.0520408 105.989796,34.0520408 C101.254082,34.0520408 97.5331633,32.8117347 95.052551,30.5566327 C92.5292747,28.2527716 91.2869095,24.2410291 91.2215978,18.4175474 L91.2188776,17.9280612 L91.2207872,17.5261591 C91.2806384,11.3357539 92.7481186,10.0821854 95.7290816,6.99081633 C98.7734694,3.83367347 102.832653,2.25510204 108.019388,2.25510204 Z M158.420918,1.01479592 C162.20949,1.85670068 166.096283,2.30571655 169.989625,2.27016946 L170.82398,2.25510204 L187.962755,2.25510204 C188.526531,2.14234694 189.090306,2.36785714 189.654082,2.59336735 C190.105102,3.04438776 190.330612,3.60816327 190.217857,4.17193878 C190.217857,5.97602041 189.766837,7.78010204 188.977551,9.35867347 C185.879753,8.07682599 182.579558,7.30097094 179.172838,7.31872506 L178.604082,7.32908163 L178.604082,7.21632653 L178.040306,7.21632653 C177.950259,8.47699121 177.932124,10.8163496 177.928472,14.1195409 L177.92832,21.1107698 L177.92832,21.1107698 L177.929137,22.0669025 C177.933554,26.0263015 177.950277,27.6511164 178.013587,29.1010134 L178.023699,29.3229857 L178.031782,29.4887049 L178.031782,29.4887049 L178.040306,29.6545918 L181.648469,29.6545918 C181.986735,30.2183673 182.09949,30.7821429 182.09949,31.4586735 C182.09949,32.2479592 181.986735,33.0372449 181.761224,33.7137755 C181.563903,33.9110969 181.193925,34.0220902 180.877903,34.0467554 L180.746429,34.0520408 L165.637245,34.0520408 C165.29898,33.0372449 165.186224,32.022449 165.186224,31.0076531 C165.186224,30.6693878 165.29898,30.3311224 165.52449,30.1056122 C165.721811,29.9082908 166.091789,29.7972975 166.407812,29.7726323 L166.539286,29.7673469 L169.245408,29.7673469 L169.253065,29.6261974 L169.253065,29.6261974 L169.267323,29.3418792 C169.332915,27.9562889 169.351146,26.3584346 169.356213,22.496432 L169.356894,21.8836322 L169.357165,21.5632933 L169.357165,21.5632933 L169.358148,18.2246276 L169.35813,15.966089 L169.35813,15.966089 L169.357261,14.2062408 C169.353653,10.8650816 169.335612,8.59193878 169.245408,7.32908163 C163.720408,7.66734694 160.563265,7.78010204 159.886735,7.78010204 C159.322959,7.78010204 158.646429,7.66734694 158.195408,7.32908163 C157.744388,6.87806122 157.518878,6.20153061 157.631633,5.6377551 C157.631633,4.05918367 157.857143,2.48061224 158.420918,1.01479592 Z M124.143367,1.01479592 C127.931939,1.85670068 131.818732,2.30571655 135.712074,2.27016946 L136.546429,2.25510204 L153.685204,2.25510204 C154.24898,2.25510204 154.92551,2.36785714 155.376531,2.48061224 C155.827551,2.93163265 156.053061,3.49540816 155.940306,4.05918367 C155.940306,5.86326531 155.489286,7.66734694 154.7,9.24591837 C151.602202,7.96407089 148.302007,7.18821584 144.895287,7.20596996 L144.326531,7.21632653 L143.762755,7.21632653 C143.672551,8.47918367 143.65451,10.8244898 143.650902,14.1367837 L143.650267,14.9849359 L143.650198,19.6968003 L143.650198,19.6968003 L143.650999,21.4390542 L143.65127,21.7576923 L143.65127,21.7576923 L143.65195,22.3669034 C143.656891,26.1095103 143.67435,27.6882933 143.736036,29.1010134 L143.746148,29.3229857 L143.754231,29.4887049 L143.754231,29.4887049 L143.762755,29.6545918 L147.370918,29.6545918 C147.709184,30.2183673 147.821939,30.7821429 147.821939,31.4586735 C147.821939,32.2479592 147.709184,33.0372449 147.483673,33.7137755 C147.286352,33.9110969 146.916374,34.0220902 146.600352,34.0467554 L146.468878,34.0520408 L131.359694,34.0520408 C131.021429,33.0372449 130.908673,32.022449 130.908673,31.0076531 C130.908673,30.6693878 131.021429,30.3311224 131.246939,30.1056122 C131.44426,29.9082908 131.814238,29.7972975 132.13026,29.7726323 L132.261735,29.7673469 L134.967857,29.7673469 C135.049507,28.2976425 135.072032,26.8279381 135.078245,22.7893091 L135.079026,22.1946091 L135.079343,21.8836322 L135.079343,21.8836322 L135.080034,20.8936975 L135.08009,14.6294525 L135.08009,14.6294525 L135.07918,13.7941543 C135.074473,10.677407 135.054303,8.53931973 134.967857,7.32908163 C129.442857,7.66734694 126.285714,7.78010204 125.609184,7.78010204 C125.045408,7.78010204 124.368878,7.66734694 123.917857,7.32908163 C123.466837,6.87806122 123.241327,6.20153061 123.354082,5.6377551 C123.354082,4.05918367 123.579592,2.48061224 124.143367,1.01479592 Z M206.003571,2.02959184 C210.964796,2.02959184 214.572959,3.15714286 217.166327,5.525 C219.646939,7.89285714 221,12.0647959 220.887245,18.1535714 C220.887245,24.6933673 219.421429,25.9336735 216.377041,29.0908163 C213.332653,32.2479592 209.160714,33.8265306 203.861224,33.8265306 C199.12551,33.8265306 195.404592,32.5862245 192.92398,30.3311224 C190.443367,28.0760204 189.203061,23.9040816 189.203061,17.702551 C189.203061,11.1627551 190.668878,9.92244898 193.713265,6.76530612 C196.757653,3.60816327 200.816837,2.02959184 206.003571,2.02959184 Z M101.592347,10.4862245 C100.615136,12.1149093 100.056155,14.7891695 100.01609,18.6096902 L100.013776,19.0556122 L100.014823,19.3864399 C100.044818,24.0227773 100.718495,24.1680311 101.930612,25.8209184 C103.170918,27.5122449 105.20051,28.5270408 107.342857,28.4142857 C109.372449,28.6397959 111.402041,27.7377551 112.529592,25.9336735 C113.657143,24.2423469 114.108163,21.4234694 114.108163,17.3642857 C114.108163,12.177551 113.431633,12.177551 112.191327,10.4862245 C110.95102,8.79489796 108.921429,7.89285714 106.779082,8.00561224 C104.74949,7.78010204 102.719898,8.79489796 101.592347,10.4862245 Z M205.143178,7.65852163 L204.87602,7.66734694 C202.846429,7.55459184 200.816837,8.45663265 199.689286,10.2607143 C198.67449,11.9520408 198.110714,14.7709184 198.110714,18.830102 C198.110714,23.7913265 198.787245,23.7913265 200.027551,25.5954082 C201.267857,27.2867347 203.297449,28.3015306 205.439796,28.1887755 C207.469388,28.4142857 209.49898,27.3994898 210.626531,25.7081633 C211.641327,24.0168367 212.205102,21.1979592 212.205102,17.0260204 C212.205102,11.8392857 211.528571,11.8392857 210.288265,10.1479592 C209.151318,8.59757653 207.351152,7.71041312 205.408867,7.66016924 L205.143178,7.65852163 Z" id="Combined-Shape" fill="#010101"></path>
                    <path d="M30.9815155,27.9639581 C34.4734743,27.9719249 39.4236939,28.0715102 42.8469388,29.3163265 C44.2,29.7673469 45.4403061,30.5566327 46.3423469,31.5714286 C47.1316327,32.5862245 47.5826531,33.8265306 47.5826531,35.0668367 C47.6954082,38.5622449 46.3423469,42.0576531 43.9744898,44.6510204 C41.4938776,47.1316327 38.1112245,48.4846939 34.6158163,48.3719388 C33.3755102,48.3719388 32.1352041,47.9209184 31.2331633,47.0188776 C30.2183673,45.8913265 29.5418367,44.6510204 29.0908163,43.2979592 C27.861422,39.704345 27.7424483,34.9209943 27.7360519,31.675346 L27.73612,30.9548882 C27.7366991,30.6095489 27.7377551,30.2874753 27.7377551,29.9928571 L27.7377551,28.9780612 L28.752551,27.9632653 Z M16.8396311,0.671231453 L17.2515306,0.676530612 C18.830102,0.676530612 20.2959184,1.24030612 21.4234694,2.36785714 C22.6637755,3.72091837 23.5658163,5.18673469 24.1295918,6.99081633 C25.9336735,12.2903061 25.8209184,19.844898 25.8209184,23.6785714 L25.8209184,23.6785714 L25.8209184,24.9188776 L24.6933673,26.0464286 L22.5380755,26.0463592 C18.125014,26.0444175 11.4465869,25.988107 6.76530612,24.355102 C5.07397959,23.9040816 3.60816327,22.8892857 2.36785714,21.6489796 C1.24030612,20.4086735 0.676530612,18.830102 0.789285714,17.2515306 C0.676530612,12.7413265 2.36785714,8.45663265 5.4122449,5.2994898 C8.56938776,2.25510204 12.8540816,0.56377551 17.2515306,0.676530612 Z" id="Combined-Shape" fill="#F1891A"></path>
                    <path d="M22.4213289,27.7365234 C22.7385008,27.7370879 23.0454082,27.7377551 23.3403061,27.7377551 L23.3403061,27.7377551 L24.6933673,27.7377551 L25.7081633,28.752551 L25.7081633,28.752551 L25.7084385,30.196073 C25.7135588,33.5567552 25.771588,39.8307398 24.2423469,44.2 C23.7913265,45.6658163 23.0020408,47.0188776 21.9872449,48.1464286 C21.0852041,49.0484694 19.7321429,49.6122449 18.3790816,49.6122449 C14.6581633,49.725 11.05,48.2591837 8.34387755,45.5530612 C5.7505102,42.7341837 4.39744898,39.1260204 4.51020408,35.2923469 C4.51020408,33.8265306 4.96122449,32.5862245 5.86326531,31.4586735 C6.87806122,30.4438776 8.11836735,29.5418367 9.58418367,29.0908163 C13.0188776,27.8505102 17.7452512,27.7404239 21.440765,27.7359075 Z M34.7285714,4.28469388 C38.4494898,4.17193878 42.0576531,5.6377551 44.6510204,8.23112245 C47.2443878,11.05 48.597449,14.6581633 48.3719388,18.3790816 C48.3719388,19.7321429 47.9209184,21.0852041 47.0188776,22.1 C46.1168367,23.227551 44.7637755,24.0168367 43.4107143,24.4678571 C39.3515306,25.9336735 33.6010204,25.8209184 29.880102,25.8209184 L28.5270408,25.8209184 L27.5122449,24.8061224 L27.5122449,24.8061224 L27.5119497,23.4652031 C27.5115939,23.2414491 27.5109959,23.0052504 27.5106098,22.7579999 L27.5105417,21.9844857 C27.5169381,18.5009886 27.6359118,13.3851218 28.8653061,9.69693878 C29.3163265,8.23112245 30.1056122,6.87806122 31.1204082,5.7505102 C32.1352041,4.73571429 33.3755102,4.28469388 34.7285714,4.28469388 Z" id="Combined-Shape" fill="#74B951"></path>
                    <path d="M36.0816327,26.9484694 C42.7341837,26.497449 49.6122449,24.9188776 49.6122449,19.1683673 C49.6122449,15.1091837 48.8229592,11.7265306 46.6806122,8.90765306 C43.9744898,5.4122449 39.4642857,3.04438776 34.1647959,3.04438776 C28.8653061,3.04438776 27.2867347,10.4862245 26.7229592,17.2515306 C26.2719388,9.24591837 24.4678571,9.23705556e-14 18.0408163,9.23705556e-14 C12.9668367,9.23705556e-14 8.56938776,1.57857143 5.525,4.39744898 C1.91683673,7.55459184 2.74225087e-13,12.5158163 2.74225087e-13,18.1535714 C2.74225087e-13,24.8061224 8.56938776,26.497449 16.575,26.9484694 C10.2607143,27.5122449 3.83367347,29.2035714 3.83367347,34.5030612 C3.83367347,38.5622449 4.73571429,42.1704082 6.87806122,44.8765306 C9.58418367,48.3719388 14.0943878,50.5142857 19.2811224,50.5142857 C24.6933673,50.5142857 26.2719388,42.7341837 26.7229592,35.9688776 C27.1739796,42.3959184 28.752551,49.3867347 33.8265306,49.3867347 C39.0132653,49.3867347 43.2979592,47.3571429 45.8913265,43.7489796 C47.6954082,41.1556122 48.597449,37.8857143 48.597449,34.1647959 C48.4846939,28.9780612 42.1704082,27.3994898 36.0816327,26.9484694 Z M34.8413265,5.525 C38.5622449,5.525 41.4938776,6.87806122 43.6362245,9.13316327 C45.8913265,11.3882653 47.2443878,14.6581633 47.2443878,18.3790816 C47.2443878,25.369898 33.9392857,24.6933673 28.752551,24.6933673 C28.752551,20.7469388 28.0760204,5.525 34.8413265,5.525 Z M2.36785714,17.3642857 C2.36785714,12.7413265 4.17193878,8.90765306 6.99081633,6.20153061 C9.58418367,3.83367347 12.9668367,2.48061224 17.0260204,2.48061224 C25.1443878,2.48061224 24.2423469,20.1831633 24.2423469,24.6933673 C18.1535714,24.5806122 2.36785714,25.4826531 2.36785714,17.3642857 Z M18.4918367,48.1464286 C14.319898,48.1464286 11.1627551,46.455102 8.90765306,43.7489796 C7.10357143,41.4938776 5.97602041,38.675 5.97602041,35.2923469 C5.97602041,28.3015306 19.2811224,28.9780612 24.5806122,28.9780612 C24.5806122,32.9244898 25.2571429,48.1464286 18.4918367,48.1464286 Z M43.9744898,42.5086735 C41.944898,45.327551 38.5622449,47.0188776 34.5030612,47.0188776 C28.0760204,47.0188776 28.752551,32.6989796 28.752551,28.9780612 C33.7137755,28.9780612 46.2295918,28.3015306 46.2295918,34.9540816 C46.2295918,37.8857143 45.4403061,40.4790816 43.9744898,42.5086735 Z" id="Shape" fill="#010101"></path>
                </g>
            </g>
        </g>
    </g>
</svg>