<?xml version="1.0" encoding="UTF-8"?>
<svg width="234px" height="130px" viewBox="0 0 234 130" version="1.1" xmlns="http://www.w3.org/2000/svg" xmlns:xlink="http://www.w3.org/1999/xlink">
    <title>lotto_max</title>
    <defs>
        <radialGradient cx="55.1451651%" cy="49.7464539%" fx="55.1451651%" fy="49.7464539%" r="44.8534165%" id="radialGradient-1">
            <stop stop-color="#D7DB2F" offset="0%"></stop>
            <stop stop-color="#8EC045" offset="100%"></stop>
        </radialGradient>
    </defs>
    <g id="Bg" stroke="none" stroke-width="1" fill="none" fill-rule="evenodd">
        <g id="Logos" transform="translate(-1280.000000, -662.000000)">
            <g id="lotto_max" transform="translate(1280.000000, 662.000000)">
                <rect id="Rectangle" x="0" y="0" width="234" height="130" rx="2"></rect>
                <g id="Group" transform="translate(46.000000, 13.000000)" fill-rule="nonzero">
                    <g>
                        <g transform="translate(0.000000, 55.900000)" fill="#1388C9">
                            <polygon id="Path" points="10.79 22.75 8.45 48.1 1.04 48.1 5.46 1.17 6.5 1.17 26.13 34.06 46.28 1.17 47.32 1.17 51.22 48.1 43.42 48.1 41.34 21.97 26.52 46.02 25.22 46.02"></polygon>
                            <path d="M77.61,0.65 L97.89,48.1 L89.96,48.1 L85.8,38.35 L67.99,38.35 L63.96,48.1 L56.42,48.1 L76.57,0.65 L77.61,0.65 Z M70.85,31.72 L83.07,31.72 L76.96,17.29 L70.85,31.72 Z" id="Shape"></path>
                            <polygon id="Path" points="116.74 23.79 102.05 1.95 110.89 1.95 121.81 18.07 132.86 1.95 140.79 1.95 125.71 23.79 142.09 47.97 133.25 47.97 120.77 29.51 108.16 47.97 100.1 47.97"></polygon>
                        </g>
                        <g fill="#7DBA45">
                            <path d="M1.04,0 L11.18,0 L11.18,35.23 C11.18,35.75 11.31,36.14 11.44,36.4 C12.09,38.61 13.78,39.78 16.38,39.78 L27.82,39.78 L27.82,49.92 L15.6,49.92 C14.04,49.92 12.48,49.66 10.79,49.01 C7.67,47.97 5.33,46.02 3.51,43.29 C1.82,40.69 1.04,37.7 1.04,34.32 L1.04,0 L1.04,0 Z" id="Path"></path>
                            <path d="M69.29,0.26 L79.43,0.26 L79.43,13.13 L84.37,13.13 L84.37,23.27 L79.43,23.27 L79.43,38.48 C79.43,38.74 79.56,39.13 79.95,39.52 C80.21,39.91 80.6,40.04 80.86,40.04 L85.02,40.04 L85.02,50.18 L80.21,50.18 C79.56,50.18 78.78,50.05 77.87,49.79 C73.71,48.62 70.98,45.89 69.81,41.6 C69.55,40.69 69.42,39.78 69.42,39 L69.42,0.26 L69.29,0.26 Z" id="Path"></path>
                            <path d="M87.49,0.26 L97.63,0.26 L97.63,13.13 L102.57,13.13 L102.57,23.27 L97.5,23.27 L97.5,38.48 C97.5,38.74 97.63,39.13 98.02,39.52 C98.28,39.91 98.67,40.04 98.93,40.04 L103.09,40.04 L103.09,50.18 L98.28,50.18 C97.63,50.18 96.85,50.05 95.94,49.79 C91.78,48.62 89.05,45.89 87.88,41.6 C87.62,40.69 87.49,39.78 87.49,39 L87.49,0.26 L87.49,0.26 Z" id="Path"></path>
                            <path d="M105.3,31.59 C105.3,26.52 107.12,22.23 110.63,18.72 C114.14,15.21 118.43,13.39 123.5,13.39 C128.57,13.39 132.86,15.21 136.5,18.72 C140.14,22.23 141.96,26.65 141.96,31.72 C141.96,36.66 140.14,40.95 136.63,44.59 C132.99,48.23 128.7,50.05 123.76,50.05 C118.69,50.05 114.4,48.23 110.76,44.72 C107.12,41.08 105.3,36.66 105.3,31.59 Z M115.44,31.72 C115.44,34.06 116.22,35.88 117.78,37.57 C119.34,39.13 121.29,39.91 123.63,39.91 C125.84,39.91 127.79,39.13 129.48,37.44 C131.04,35.88 131.95,33.93 131.95,31.72 C131.95,29.51 131.17,27.56 129.48,26 C127.79,24.44 125.84,23.66 123.63,23.66 C121.42,23.66 119.47,24.44 117.91,26 C116.22,27.56 115.44,29.38 115.44,31.72 Z" id="Shape"></path>
                        </g>
                    </g>
                    <path d="M30.16,31.59 C30.16,26.52 31.98,22.23 35.49,18.72 C39,15.21 43.29,13.39 48.36,13.39 C53.43,13.39 57.72,15.21 61.36,18.72 C65,22.23 66.82,26.65 66.82,31.72 C66.82,36.66 65,40.95 61.49,44.59 C57.85,48.23 53.56,50.05 48.62,50.05 C43.55,50.05 39.26,48.23 35.62,44.72 C31.98,40.95 30.16,36.66 30.16,31.59 Z" id="Path" fill="url(#radialGradient-1)"></path>
                </g>
            </g>
        </g>
    </g>
</svg>