<?xml version="1.0" encoding="UTF-8"?>
<svg width="234px" height="130px" viewBox="0 0 234 130" version="1.1" xmlns="http://www.w3.org/2000/svg" xmlns:xlink="http://www.w3.org/1999/xlink">
    <title>africa_lotto</title>
    <defs>
        <circle id="path-1" cx="27.82" cy="27.196" r="27.196"></circle>
        <path d="M27.82,1.44950718e-14 C42.8399361,1.44950718e-14 55.016,12.1760639 55.016,27.196 C55.016,42.2159361 42.8399361,54.392 27.82,54.392 C12.8000639,54.392 0.624,42.2159361 0.624,27.196 C0.624,12.1760639 12.8000639,1.44950718e-14 27.82,1.44950718e-14 Z M27.82,3.276 C14.6093488,3.276 3.9,13.9853488 3.9,27.196 C3.9,40.4066512 14.6093488,51.116 27.82,51.116 C41.0306512,51.116 51.74,40.4066512 51.74,27.196 C51.74,13.9853488 41.0306512,3.276 27.82,3.276 Z" id="path-3"></path>
    </defs>
    <g id="Bg" stroke="none" stroke-width="1" fill="none" fill-rule="evenodd">
        <g id="Logos" transform="translate(-974.000000, -662.000000)">
            <g id="africa_lotto" transform="translate(974.000000, 662.000000)">
                <rect id="Rectangle" x="0" y="0" width="234" height="130" rx="2"></rect>
                <g transform="translate(13.000000, 34.000000)">
                    <rect id="Rectangle" fill="#FAB725" fill-rule="nonzero" x="0" y="0.0624" width="208" height="62.2752" rx="29.94"></rect>
                    <path d="M81.0264,21.4864 L81.0264,40.2064 L91.5824,40.2064 C92.281397,40.1605833 92.9720169,40.3796509 93.5168,40.82 C93.9564849,41.2094461 94.2035255,41.7719385 94.1928,42.3592 C94.214894,42.9464806 93.9702344,43.512256 93.5272,43.8984 C92.9706438,44.3212323 92.2797534,44.5281299 91.5824,44.4808 L79.04,44.4808 C78.1440844,44.5566774 77.2554381,44.2679611 76.5752,43.68 C76.0179178,42.9974208 75.7492328,42.1241944 75.8264,41.2464 L75.8264,21.4864 C75.7650318,20.6362 76.0165458,19.7928881 76.5336,19.1152 C77.0116592,18.590188 77.6959349,18.3012716 78.4056,18.3248 C79.1200259,18.2966986 79.8111918,18.5815197 80.2984,19.1048 C80.8353418,19.7770751 81.0956979,20.6288115 81.0264,21.4864 L81.0264,21.4864 Z" id="Path" fill="#FFFFFF" fill-rule="nonzero"></path>
                    <path d="M107.12,18.3248 C109.5102,18.2590618 111.876171,18.8182913 113.984,19.9472 C115.867,21.0077028 117.380362,22.6190526 118.3208,24.5648 C119.343793,26.7606131 119.845643,29.1630867 119.7872,31.5848 C119.808313,33.4184978 119.538012,35.2439095 118.9864,36.9928 C118.481396,38.5536015 117.65605,39.9917583 116.5632,41.2152 C115.474536,42.424328 114.117369,43.361165 112.6008,43.9504 C109.123313,45.230014 105.303887,45.230014 101.8264,43.9504 C100.306671,43.3509143 98.9441953,42.4117663 97.8432,41.2048 C96.7515073,39.9721367 95.9328004,38.5225648 95.4408,36.9512 C94.8790922,35.2113147 94.6016635,33.3922257 94.6192,31.564 C94.5965143,29.7193445 94.8848169,27.8840523 95.472,26.1352 C95.9904306,24.5899509 96.8304894,23.1721302 97.9368,21.9752 C99.0385318,20.7740959 100.401252,19.8418959 101.92,19.2504 C103.579773,18.6178565 105.343904,18.3038411 107.12,18.3248 L107.12,18.3248 Z M114.5144,31.5432 C114.555492,29.8677149 114.243674,28.2023239 113.5992,26.6552 C113.071655,25.3739872 112.164278,24.2851352 110.9992,23.5352 C109.832168,22.8247633 108.485907,22.4638354 107.12,22.4952 C106.128369,22.4842914 105.145957,22.6864484 104.2392,23.088 C103.356527,23.4747542 102.573931,24.0581437 101.9512,24.7936 C101.264911,25.640519 100.755648,26.6166074 100.4536,27.664 C100.063213,28.9301122 99.8737127,30.2495952 99.892,31.5744 C99.8738919,32.9162486 100.063329,34.252832 100.4536,35.5368 C100.761116,36.61866 101.29657,37.622193 102.024,38.48 C102.650693,39.2304241 103.440327,39.8279853 104.3328,40.2272 C106.455955,41.1335633 108.883161,40.97921 110.8744,39.8112 C112.055641,39.0628468 112.983557,37.9754451 113.5368,36.6912 C114.241438,35.0689631 114.578817,33.3110373 114.5248,31.5432 L114.5144,31.5432 Z" id="Shape" fill="#FFFFFF" fill-rule="nonzero"></path>
                    <path d="M147.2328,23.0672 L133.8896,23.0672 L133.8896,41.7248 C133.96031,42.5840666 133.704024,43.4383535 133.172,44.1168 C132.694433,44.6351622 132.01484,44.919908 131.3104,44.8968 C130.599803,44.9204657 129.9136,44.6361274 129.428,44.1168 C128.895932,43.4379416 128.636332,42.5849694 128.7,41.7248 L128.7,23.0672 L123.0216,23.0672 C122.311904,23.1243533 121.606638,22.9127735 121.0456,22.4744 C120.628953,22.0622123 120.394505,21.5004828 120.394505,20.9144 C120.394505,20.3283172 120.628953,19.7665877 121.0456,19.3544 C121.608465,18.9370707 122.301756,18.7342463 123.0008,18.7824 L147.212,18.7824 C147.93141,18.7244287 148.646716,18.9356846 149.2192,19.3752 C149.646529,19.7815895 149.888441,20.3454862 149.888441,20.9352 C149.888441,21.5249138 149.646529,22.0888105 149.2192,22.4952 C148.648003,22.9197634 147.942313,23.1229726 147.2328,23.0672 L147.2328,23.0672 Z" id="Path" fill="#FFFFFF" fill-rule="nonzero"></path>
                    <path d="M143.52,19.344 C144.077987,18.9248668 144.768745,18.7217027 145.4648,18.772 L162.0112,18.772 C162.73061,18.7140287 163.445916,18.9252846 164.0184,19.3648 C164.445729,19.7711895 164.687641,20.3350862 164.687641,20.9248 C164.687641,21.5145138 164.445729,22.0784105 164.0184,22.4848 C163.44456,22.9216471 162.730299,23.1325949 162.0112,23.0776 L156.3328,23.0776 L156.3328,41.7248 C156.40351,42.5840666 156.147224,43.4383535 155.6152,44.1168 C155.142498,44.6358649 154.465632,44.9210615 153.764,44.8968 C153.05007,44.9221276 152.360011,44.6377627 151.8712,44.1168 C151.34284,43.4364595 151.086992,42.5836308 151.1536,41.7248 L151.1536,23.0672 L145.4648,23.0672 C144.755322,23.1223121 144.05078,22.9109496 143.4888,22.4744" id="Path" fill="#FFFFFF" fill-rule="nonzero"></path>
                    <path d="M178.5888,18.3248 C180.975846,18.2574949 183.33886,18.8168729 185.4424,19.9472 C187.33093,21.0038965 188.848646,22.6160159 189.7896,24.5648 C190.812593,26.7606131 191.314443,29.1630867 191.256,31.5848 C191.277113,33.4184978 191.006812,35.2439095 190.4552,36.9928 C189.950196,38.5536015 189.12485,39.9917583 188.032,41.2152 C186.946298,42.4229957 185.592826,43.3597411 184.08,43.9504 C180.602513,45.230014 176.783087,45.230014 173.3056,43.9504 C171.785871,43.3509143 170.423395,42.4117663 169.3224,41.2048 C168.23128,39.9700104 167.409535,38.5213316 166.9096,36.9512 C166.356468,35.2095583 166.082676,33.3912995 166.0984,31.564 C166.075714,29.7193445 166.364017,27.8840523 166.9512,26.1352 C167.469631,24.5899509 168.309689,23.1721302 169.416,21.9752 C170.50744,20.8082664 171.84747,19.9018799 173.3368,19.3232 C175.008011,18.6593194 176.79056,18.3204586 178.5888,18.3248 L178.5888,18.3248 Z M185.9832,31.5432 C186.024292,29.8677149 185.712474,28.2023239 185.068,26.6552 C184.540455,25.3739872 183.633078,24.2851352 182.468,23.5352 C181.300968,22.8247633 179.954707,22.4638354 178.5888,22.4952 C177.593918,22.4853747 176.608341,22.6874532 175.6976,23.088 C174.819599,23.4776824 174.041008,24.0607368 173.42,24.7936 C172.733955,25.6422453 172.221559,26.617563 171.912,27.664 C171.530363,28.9318266 171.344489,30.2504798 171.3608,31.5744 C171.34468,32.9153748 171.530495,34.2511379 171.912,35.5368 C172.225029,36.614317 172.755996,37.6160741 173.472,38.48 C174.09985,39.2099889 174.881105,39.7923789 175.76,40.1856 C177.880203,41.0884508 180.302678,40.934153 182.2912,39.7696 C183.478027,39.0248402 184.410224,37.9366728 184.964,36.6496 C185.67334,35.042566 186.021261,33.2994099 185.9832,31.5432 L185.9832,31.5432 Z" id="Shape" fill="#FFFFFF" fill-rule="nonzero"></path>
                    <g id="Group" transform="translate(4.160000, 4.035200)">
                        <mask id="mask-2" fill="white">
                            <use xlink:href="#path-1"></use>
                        </mask>
                        <use id="Mask" fill="#FFFFFF" fill-rule="nonzero" xlink:href="#path-1"></use>
                        <g mask="url(#mask-2)" fill-rule="nonzero" id="Path">
                            <g transform="translate(-1.040000, 1.164800)">
                                <polygon fill="#00784A" points="39.6032 21.1744 9.1832 0.8736 0.1664 7.02 28.8184 26.1456 0.2496 45.3544 9.0168 51.428 39.6032 31.2 76.0032 31.2 76.0032 21.1744"></polygon>
                                <polygon fill="#FAB725" points="0.1664 6.8848 29.0056 26.1248 0.1664 45.4376"></polygon>
                                <polygon fill="#010101" points="0.1664 11.4608 22.1416 26.1352 0.1664 40.8512"></polygon>
                                <polygon fill="#FFFFFF" points="9.1832 0.8736 39.5824 21.112 76.0032 21.112 76.0032 17.6384 40.7056 17.6384 15.4856 0.8736"></polygon>
                                <polygon fill="#FFFFFF" points="9.1832 51.428 39.5824 31.1896 76.0032 31.1896 76.0032 34.6632 40.7056 34.6632 15.4856 51.428"></polygon>
                                <polygon fill="#E03D31" points="15.4856 0.8736 40.7056 17.6384 76.0032 17.6384 76.0032 0.8736"></polygon>
                                <polygon fill="#273371" points="15.4856 51.428 40.7056 34.6632 76.0032 34.6632 76.0032 51.428"></polygon>
                            </g>
                        </g>
                        <mask id="mask-4" fill="white">
                            <use xlink:href="#path-3"></use>
                        </mask>
                        <use id="Combined-Shape" fill="#FFFFFF" fill-rule="nonzero" xlink:href="#path-3"></use>
                    </g>
                </g>
            </g>
        </g>
    </g>
</svg>