<?xml version="1.0" encoding="UTF-8"?>
<svg width="234px" height="130px" viewBox="0 0 234 130" version="1.1" xmlns="http://www.w3.org/2000/svg" xmlns:xlink="http://www.w3.org/1999/xlink">
    <title>lotto_america</title>
    <defs>
        <path d="M17.4949606,58.0629686 L8.17145575,34.2394047 L0.699884669,33.6851739 C0.609020557,32.73452 0.562510453,31.7713191 0.562510453,30.7975654 C0.562510453,13.7885374 14.7440111,0 32.2376627,0 C49.7313913,0 63.912892,13.7885374 63.912892,30.7975654 C63.912892,47.8065934 49.7313913,61.5951383 32.2376627,61.5951383 C26.9147199,61.5951383 21.8984049,60.3185032 17.4949606,58.0629686 Z M32.2376627,52.3558634 C44.4832958,52.3558634 54.410354,42.7038842 54.410354,30.7975654 C54.410354,18.8912466 44.4832958,9.23926738 32.2376627,9.23926738 C19.9921066,9.23926738 10.0650484,18.8912466 10.0650484,30.7975654 C10.0650484,42.7038842 19.9921066,52.3558634 32.2376627,52.3558634 Z" id="path-1"></path>
        <polygon id="path-3" points="18.3191457 33.4586531 4.03958599 37.9543321 9.10124062 24.0603547 0.346073259 12.0782737 15.3309513 12.5244858 24.1994902 0.623474111 28.3990978 14.7932318 42.6353788 19.4200862 30.2458934 27.7312571 30.175879 42.4918163"></polygon>
        <path d="M6.66857448,34.3260547 L13.4051394,33.4559422 L28.2907159,67.3931377 L19.4822025,69.3203654 L18.1763185,66.2924898 L9.70290807,68.1351299 L9.16687952,71.653686 L0.363929599,73.7113362 L6.66857448,34.3260547 Z M14.8852588,58.8088821 L12.2441981,52.7692424 L11.1065881,59.5497274 L14.8852588,58.8088821 Z M26.23625,31.997495 L33.6918689,31.5346224 L42.1872564,44.1331485 L48.3932315,30.6723265 L55.8507796,30.2597991 L58.7185028,62.7853811 L49.7278408,64.1142478 L48.6848115,52.1451869 L43.813007,62.9565276 L37.1475032,53.512548 L38.2067372,65.8682567 L29.2194568,67.2771907 L26.23625,31.997495 Z M60.2295187,30.1175349 L76.9364454,29.9828198 L77.3779536,38.0610505 L69.7333471,38.3007045 L69.923129,41.7908812 L77.4372652,41.4807102 L77.8559264,49.1396973 L70.3487503,49.6169346 L70.5461278,53.2455628 L78.4740077,52.6597113 L78.9147594,60.7170063 L61.9736805,62.3803035 L60.2295187,30.1175349 Z M81.026222,30.0219484 L90.8170988,30.2878486 C92.6332895,30.3353133 94.3203413,30.6273909 95.8781785,31.1608493 C97.4357888,31.6893946 98.7926929,32.4399896 99.9489664,33.4114345 C101.104937,34.3763541 102.017458,35.5540398 102.686681,36.9455458 C103.355601,38.3319249 103.710184,39.9207778 103.750431,41.716261 C103.782357,43.1415013 103.611306,44.3565046 103.237129,45.362975 C102.863102,46.3719133 102.442853,47.2125552 101.976303,47.8845186 C101.426915,48.6470943 100.804143,49.2992833 100.108139,49.840818 L105.625858,59.0425763 L95.0223213,59.6921979 L90.6062552,52.4210812 L90.7808613,59.9504497 L81.7463586,60.4974399 L81.026222,30.0219484 Z M90.4309682,44.8531955 L90.8983497,44.8455394 C91.9748854,44.8278127 92.8826403,44.5623175 93.621917,44.0507882 C94.3611937,43.5414289 94.7175172,42.7018873 94.6906605,41.5306276 C94.6638039,40.359513 94.2691245,39.5256868 93.5064712,39.027315 C92.7437422,38.5266738 91.823656,38.2740457 90.7463637,38.2710047 L90.2785284,38.2696293 L90.4309682,44.8531955 Z M106.94486,30.741812 L116.56514,31.2200044 L116.360198,58.6840007 L106.772977,59.0138469 L106.94486,30.741812 Z M117.960778,45.0747102 C118.044072,42.901427 118.515917,40.9588658 119.376465,39.2524743 C120.237466,37.5556797 121.372406,36.1335952 122.78151,34.9865568 C124.190917,33.8495891 125.816009,33.0221887 127.656711,32.5011543 C129.497565,31.9859039 131.438733,31.8022265 133.479915,31.9442462 C135.095853,32.0552137 136.528334,32.2933624 137.777585,32.6574394 C139.026684,33.018567 140.096789,33.4035186 140.988052,33.812768 C142.018591,34.2783302 142.905692,34.770192 143.649281,35.2888578 L138.877724,42.0832721 C138.438031,41.7613418 137.955368,41.4496503 137.429507,41.1480904 C136.957057,40.9245356 136.39216,40.7029292 135.734966,40.4830649 C135.077772,40.262215 134.324348,40.1330929 133.47477,40.0961802 C132.596823,40.0576934 131.783709,40.1649704 131.03543,40.419119 C130.28715,40.6743679 129.626704,41.0393312 129.053938,41.5144596 C128.481324,41.9912767 128.025593,42.559921 127.686745,43.2202398 C127.347973,43.8820333 127.163078,44.5964948 127.131985,45.3627687 C127.100968,46.1293329 127.234494,46.8539262 127.532641,47.5354788 C127.830712,48.2158623 128.252399,48.8115322 128.797779,49.3220682 C129.343158,49.8308467 129.991727,50.2341745 130.743487,50.5321967 C131.495246,50.8286601 132.323566,50.9809032 133.228597,50.989843 C134.133628,50.9984465 134.943943,50.9024397 135.659767,50.702602 C136.375592,50.5034978 136.979375,50.2782696 137.471192,50.0269023 C138.049026,49.7516498 138.558395,49.4253413 138.999298,49.0480611 L143.14309,56.0965705 C142.355547,56.6610811 141.429636,57.1666047 140.365356,57.6130878 C139.445723,57.9833309 138.343617,58.3325693 137.059037,58.6608949 C135.774608,58.9911384 134.313076,59.1704911 132.674518,59.1967908 C130.470759,59.2305937 128.450231,58.9228677 126.612479,58.2683025 C124.774349,57.6048663 123.201079,56.6559465 121.892593,55.4205193 C120.583652,54.1748381 119.580878,52.6706453 118.88442,50.9104549 C118.18766,49.1433649 117.879679,47.1958677 117.960778,45.0747102 Z M156.588212,34.1666597 L163.371219,34.7556515 L171.773115,58.5612511 L162.899601,58.5190968 L162.175152,56.3613169 L153.635417,56.2152551 L152.502596,58.4135466 L143.625224,58.2743464 L156.588212,34.1666597 Z M160.309939,51.0326391 L158.805588,46.7483684 L156.502573,50.9028447 L160.309939,51.0326391 Z M37.6431182,5.65102057 L46.1349273,4.25719171 L49.0487532,21.1389876 L56.0870122,20.2194926 L57.1234294,26.376159 L41.5933764,28.1493158 L37.6431182,5.65102057 Z M57.3224788,15.2620665 C57.2041507,13.5594114 57.4464885,11.9272809 58.0495073,10.3617096 C58.6525186,8.79185943 59.5266082,7.39265908 60.6717834,6.1625957 C61.8169663,4.92627449 63.1910208,3.9039418 64.7939848,3.09616304 C66.3969487,2.28290583 68.1254959,1.78699436 69.9796793,1.61180587 C71.8338627,1.43570049 73.6076047,1.60518129 75.3009886,2.12416801 C76.9943196,2.64743357 78.4916347,3.44203193 79.7929342,4.50946068 C81.0942336,5.58314726 82.1515536,6.89079542 82.9648941,8.43187032 C83.7783103,9.97841604 84.2441787,11.657079 84.3624993,13.4644972 C84.4808199,15.27284 84.2384291,17.0036744 83.6354783,18.6531419 C83.0324519,20.2983304 82.1583623,21.7460652 81.0131341,22.9949173 C79.8679815,24.2375116 78.4939043,25.2346831 76.8909782,25.9870355 C75.2879764,26.733917 73.5594443,27.1413173 71.7052685,27.2126595 C69.8510851,27.2830772 68.0773431,27.0148925 66.3839895,26.412002 C64.6906358,25.8133981 63.1933282,24.9702653 61.8920212,23.8840554 C60.5907142,22.8040957 59.5333942,21.5216088 58.7200158,20.0359603 C57.9066451,18.5557827 57.4407994,16.9656385 57.3224788,15.2620665 Z M65.4344744,14.7433548 C65.4821355,15.442061 65.6685509,16.0899482 65.9937358,16.6875818 C66.3189207,17.2860788 66.741773,17.8008859 67.2622928,18.232118 C67.7828126,18.6643433 68.3804526,18.9958474 69.0552203,19.2263936 C69.7299881,19.4576198 70.4407665,19.5529771 71.1875933,19.511839 C71.9344125,19.4705633 72.6271175,19.296903 73.2657309,18.9903308 C73.9043443,18.6828799 74.4526739,18.281065 74.9107728,17.7847791 C75.368849,17.2874923 75.718515,16.7154554 75.9599223,16.0688901 C76.2012539,15.4216371 76.2981648,14.7399165 76.2505037,14.0243241 C76.2028426,13.3088845 76.0163591,12.646816 75.6912045,12.0386305 C75.3660498,11.431316 74.9431521,10.912505 74.422655,10.482274 C73.9021277,10.0530515 73.3044952,9.72928744 72.6297275,9.510745 C71.9549597,9.29287496 71.2441814,9.21334177 70.4973546,9.27150361 C69.7505353,9.32951264 69.0578303,9.5173543 68.4192169,9.83449375 C67.7806035,10.1507545 67.2322739,10.5565732 66.7741977,11.0518505 C66.3161291,11.5461344 65.9664101,12.1104312 65.7250407,12.7450004 C65.4836712,13.3788896 65.3868132,14.0447938 65.4344744,14.7433548 Z M89.6886655,7.24434332 L84.9281534,7.27681677 L85.0251399,0.635944588 L103.060858,0.263867721 L102.963872,7.16098973 L98.2033595,7.18966569 L97.9307077,26.3755172 L89.4160137,26.0900794 L89.6886655,7.24434332 Z M108.974012,7.40409737 L104.223562,7.17451396 L104.674224,0.26188111 L122.671738,0.910944968 L122.221152,8.07766531 L117.470701,7.83047747 L116.203748,27.7221716 L107.707059,26.9585415 L108.974012,7.40409737 Z M122.834618,13.173604 C123.080716,11.2155013 123.687071,9.40734193 124.653608,7.74597012 C125.620145,6.07867668 126.830359,4.66070287 128.284325,3.49186529 C129.738291,2.31692271 131.382372,1.43550947 133.216644,0.849474654 C135.050916,0.259833373 136.94692,0.0622114722 138.904732,0.260658581 C140.862544,0.460901279 142.664512,1.04026567 144.310787,2.00186921 C145.957062,2.96939437 147.344757,4.20275094 148.474022,5.70212994 C149.603288,7.20761395 150.432364,8.92252491 150.961402,10.845052 C151.490365,12.7711855 151.631835,14.7664606 151.385738,16.8268967 C151.139564,18.8855371 150.533285,20.7752239 149.566748,22.4929161 C148.600211,24.2046944 147.389997,25.6359097 145.936031,26.7864628 C144.482065,27.9309033 142.837983,28.753574 141.003712,29.2563545 C139.16944,29.755521 137.273436,29.8517952 135.315624,29.5492191 C133.357812,29.248431 131.555844,28.5875392 129.909569,27.5696152 C128.263293,26.5576129 126.875523,25.3110072 125.746333,23.8299203 C124.617068,22.3549308 123.787991,20.69877 123.258953,18.8594972 C122.729991,17.0238309 122.58852,15.1299034 122.834618,13.173604 Z M131.674088,14.2433097 C131.573622,15.043845 131.630815,15.8149555 131.845593,16.5573213 C132.06037,17.3002601 132.396646,17.9683954 132.85442,18.5620481 C133.312117,19.1566789 133.873308,19.6535454 134.537916,20.0526402 C135.202523,20.4526671 135.934386,20.707427 136.733504,20.8164232 C137.532622,20.9257173 138.302613,20.8752345 139.043403,20.6643328 C139.784193,20.4528505 140.44933,20.1165479 141.038663,19.6551118 C141.628072,19.1926976 142.118528,18.6232052 142.509954,17.946642 C142.901456,17.2691467 143.147402,16.5216463 143.247869,15.7046222 C143.348335,14.8873077 143.291142,14.0999528 143.076365,13.3431765 C142.861587,12.5869732 142.525311,11.9094626 142.067538,11.310935 C141.609764,10.7133779 141.048574,10.2186049 140.384042,9.82658551 C139.719434,9.43549831 138.987571,9.19380422 138.188454,9.10100658 C137.38926,9.00849166 136.619344,9.07521885 135.878479,9.30053869 C135.137689,9.52527782 134.472627,9.87095569 133.883218,10.3372743 C133.293809,10.8026149 132.80343,11.3700061 132.411928,12.0395015 C132.020501,12.7080494 131.774555,13.4424764 131.674088,14.2433097 Z" id="path-5"></path>
    </defs>
    <g id="Bg" stroke="none" stroke-width="1" fill="none" fill-rule="evenodd">
        <g id="Logos" transform="translate(-362.000000, -56.000000)">
            <g id="lotto_america" transform="translate(362.000000, 56.000000)">
                <rect id="Rectangle" x="0" y="0" width="234" height="130" rx="2"></rect>
                <g id="america" transform="translate(7.000000, 27.000000)">
                    <g id="Group-3" transform="translate(156.317073, 0.000000)">
                        <mask id="mask-2" fill="white">
                            <use xlink:href="#path-1"></use>
                        </mask>
                        <g id="Clip-2"></g>
                        <polygon id="Fill-1" fill="#F45547" mask="url(#mask-2)" points="-3.28766376 65.3293434 67.7630662 65.3293434 67.7630662 -3.73420511 -3.28766376 -3.73420511"></polygon>
                    </g>
                    <g id="Group-6" transform="translate(168.445122, 9.432927)">
                        <mask id="mask-4" fill="white">
                            <use xlink:href="#path-3"></use>
                        </mask>
                        <g id="Clip-5"></g>
                        <polygon id="Fill-4" fill="#F45547" mask="url(#mask-4)" points="-0.120035831 -7.49771376 49.8936656 1.16356885 41.4223191 48.3490324 -8.59138235 39.6877421"></polygon>
                    </g>
                    <g id="Group-9" transform="translate(0.000000, 1.347561)">
                        <mask id="mask-6" fill="white">
                            <use xlink:href="#path-5"></use>
                        </mask>
                        <g id="Clip-8"></g>
                        <polygon id="Fill-7" fill="#1072CA" mask="url(#mask-6)" points="-3.4186977 77.531741 175.555708 77.531741 175.555708 -3.6343641 -3.4186977 -3.6343641"></polygon>
                    </g>
                </g>
            </g>
        </g>
    </g>
</svg>