<?xml version="1.0" encoding="UTF-8"?>
<svg width="234px" height="130px" viewBox="0 0 234 130" version="1.1" xmlns="http://www.w3.org/2000/svg" xmlns:xlink="http://www.w3.org/1999/xlink">
    <title>megamillions</title>
    <defs>
        <linearGradient x1="118.610638%" y1="-64.8431544%" x2="60.0093617%" y2="43.5321286%" id="linearGradient-1">
            <stop stop-color="#EF7F3E" offset="0%"></stop>
            <stop stop-color="#E52D1D" offset="100%"></stop>
        </linearGradient>
        <linearGradient x1="79.8184663%" y1="-52.1176887%" x2="44.6604842%" y2="68.1941038%" id="linearGradient-2">
            <stop stop-color="#EF7F3E" offset="0%"></stop>
            <stop stop-color="#E52D1D" offset="100%"></stop>
        </linearGradient>
        <linearGradient x1="76.1294837%" y1="28.6051765%" x2="26.6239358%" y2="131.791059%" id="linearGradient-3">
            <stop stop-color="#EF7F3E" offset="0%"></stop>
            <stop stop-color="#E52D1D" offset="100%"></stop>
        </linearGradient>
        <linearGradient x1="78.8923077%" y1="-13.8545249%" x2="30.9486947%" y2="92.6201357%" id="linearGradient-4">
            <stop stop-color="#EF7F3E" offset="0%"></stop>
            <stop stop-color="#E52D1D" offset="100%"></stop>
        </linearGradient>
    </defs>
    <g id="Bg" stroke="none" stroke-width="1" fill="none" fill-rule="evenodd">
        <g id="Logos" transform="translate(-974.000000, -56.000000)">
            <g id="megamillions" transform="translate(974.000000, 56.000000)">
                <rect id="Rectangle" x="0" y="0" width="234" height="130" rx="2"></rect>
                <g id="Group" transform="translate(23.000000, 20.000000)" fill-rule="nonzero">
                    <g transform="translate(2.275000, 3.412500)" fill="#8C9A9E">
                        <polygon id="Path" points="23.09125 31.73625 27.755 49.48125 32.5325 49.48125 33.32875 49.48125 37.9925 49.48125 42.65625 31.85 44.8175 49.48125 59.15 49.48125 52.5525 1.70625 44.8175 1.70625 43.9075 1.70625 38.56125 1.70625 32.87375 22.63625 27.41375 1.82 22.295 1.82 21.385 1.82 13.53625 1.82 6.71125 49.48125 20.81625 49.48125"></polygon>
                        <polygon id="Path" points="88.61125 35.14875 74.96125 35.14875 74.96125 32.5325 87.815 32.41875 87.92875 18.54125 75.075 18.54125 75.075 15.6975 88.725 15.6975 88.725 1.5925 60.40125 1.70625 60.2875 49.48125 88.61125 49.48125"></polygon>
                        <path d="M147.6475,49.3675 L149.695,41.6325 L161.7525,41.6325 L163.68625,49.3675 L179.0425,49.3675 L164.0275,1.365 L155.95125,1.365 L155.72375,1.365 L147.53375,1.365 L132.29125,49.3675 L147.6475,49.3675 Z M155.8375,19.67875 L158.34,28.55125 L153.335,28.55125 L155.8375,19.67875 Z" id="Shape"></path>
                        <polygon id="Path" points="25.2525 55.2825 23.4325 55.2825 20.2475 55.2825 17.29 66.31625 14.3325 55.2825 11.26125 55.2825 9.555 55.2825 4.7775 55.2825 0.34125 86.10875 10.465 86.10875 11.48875 77.91875 13.53625 86.10875 16.38 86.10875 18.08625 86.10875 20.93 86.10875 22.9775 78.0325 24.00125 86.10875 34.125 86.10875 29.91625 55.2825"></polygon>
                        <polygon id="Path" points="35.49 86.10875 46.06875 86.10875 46.06875 55.2825 35.60375 55.2825"></polygon>
                        <polygon id="Path" points="58.0125 55.2825 47.43375 55.2825 47.43375 86.10875 66.08875 86.10875 66.08875 75.64375 57.89875 75.64375"></polygon>
                        <polygon id="Path" points="78.60125 55.2825 68.0225 55.2825 68.0225 86.10875 86.6775 86.10875 86.6775 75.64375 78.4875 75.64375"></polygon>
                        <polygon id="Path" points="87.47375 86.10875 98.0525 86.10875 98.16625 55.2825 87.47375 55.2825"></polygon>
                        <path d="M125.23875,59.3775 C123.87375,57.89875 122.1675,56.76125 120.3475,55.85125 C116.7075,54.25875 112.49875,54.25875 108.9725,55.85125 C107.1525,56.6475 105.56,57.785 104.195,59.3775 C102.71625,60.85625 101.6925,62.67625 100.89625,64.61 C100.1,66.54375 99.75875,68.59125 99.75875,70.86625 C99.75875,73.0275 100.1,75.075 100.89625,77.00875 C101.6925,78.9425 102.71625,80.7625 104.195,82.24125 C105.56,83.72 107.1525,84.97125 108.9725,85.7675 C110.7925,86.56375 112.72625,87.01875 114.66,87.01875 C116.59375,87.01875 118.5275,86.56375 120.3475,85.7675 C122.1675,84.97125 123.76,83.83375 125.23875,82.24125 C126.60375,80.7625 127.74125,78.9425 128.5375,77.00875 C129.33375,75.075 129.675,73.0275 129.675,70.7525 C129.675,68.59125 129.33375,66.43 128.5375,64.49625 C127.74125,62.5625 126.7175,60.85625 125.23875,59.3775 Z M117.73125,74.96125 C116.935,75.985 115.91125,76.44 114.66,76.44 C113.40875,76.44 112.385,75.985 111.58875,74.96125 C110.67875,73.9375 110.3375,72.5725 110.3375,70.7525 C110.3375,69.04625 110.7925,67.68125 111.7025,66.54375 C112.49875,65.52 113.5225,65.065 114.77375,65.065 C116.025,65.065 116.935,65.52 117.845,66.54375 C118.755,67.68125 119.21,68.9325 119.21,70.63875 C118.9825,72.45875 118.64125,73.82375 117.73125,74.96125 Z" id="Shape"></path>
                        <polygon id="Path" points="148.44375 67.22625 140.48125 55.16875 136.955 55.16875 135.93125 55.16875 131.15375 55.2825 131.04 86.2225 141.39125 86.2225 141.39125 74.165 149.4675 86.2225 152.99375 86.2225 154.0175 86.2225 158.795 86.2225 158.795 55.16875 148.5575 55.16875"></polygon>
                        <path d="M185.185,71.77625 C184.73,70.63875 184.0475,69.615 183.1375,68.705 C181.7725,67.45375 179.4975,66.43 175.74375,65.52 L175.4025,65.40625 C173.5825,64.95125 173.01375,64.61 172.9,64.49625 C172.78625,64.3825 172.6725,64.3825 172.6725,64.04125 C172.6725,63.9275 172.6725,63.81375 172.9,63.58625 C173.5825,63.13125 175.06125,63.13125 176.42625,63.7 C177.2225,64.04125 178.01875,64.49625 178.815,65.065 L180.635,66.54375 L184.73,57.785 L183.47875,56.98875 C182,56.07875 180.4075,55.39625 178.815,54.94125 C177.2225,54.48625 175.4025,54.25875 173.5825,54.25875 C170.05625,54.25875 167.09875,55.2825 164.82375,57.21625 C162.54875,59.26375 161.41125,61.76625 161.41125,64.95125 C161.41125,67.45375 162.2075,69.50125 163.68625,70.98 C165.165,72.345 167.44,73.4825 170.73875,74.27875 C173.46875,74.96125 174.0375,75.41625 174.15125,75.53 C174.265,75.64375 174.4925,75.7575 174.4925,76.44 C174.4925,76.78125 174.37875,77.00875 174.0375,77.23625 C173.1275,77.91875 171.42125,77.805 169.82875,76.895 C168.805,76.32625 167.78125,75.53 166.64375,74.3925 L165.05125,72.68625 L159.36375,81.33125 L160.3875,82.24125 C162.09375,83.83375 164.0275,84.97125 165.8475,85.65375 C167.78125,86.45 169.9425,86.79125 172.2175,86.79125 C176.19875,86.79125 179.38375,85.7675 181.7725,83.60625 C184.275,81.445 185.52625,78.715 185.52625,75.3025 C185.75375,74.165 185.52625,72.91375 185.185,71.77625 Z" id="Path"></path>
                        <path d="M96.34625,43.33875 C98.5075,45.7275 101.01,47.5475 103.74,48.685 C106.47,49.8225 109.54125,50.39125 113.0675,50.39125 C120.12,50.39125 125.69375,48.11625 129.78875,43.4525 C133.77,38.9025 135.8175,32.5325 135.8175,24.45625 C135.8175,23.77375 135.8175,23.205 135.8175,22.86375 C135.8175,22.5225 135.8175,22.0675 135.8175,21.84 L135.70375,19.67875 L126.83125,19.67875 L119.77875,19.67875 L118.9825,19.67875 L110.565,19.67875 L110.565,33.4425 L120.3475,33.4425 C120.00625,34.01125 119.4375,34.58 118.86875,35.14875 C117.39,36.28625 115.57,36.855 113.295,36.855 C110.67875,36.855 108.745,35.945 107.38,34.125 C105.90125,32.19125 105.105,29.46125 105.105,25.935 C105.105,22.40875 105.90125,19.67875 107.38,17.85875 C108.85875,16.03875 110.7925,15.12875 113.40875,15.12875 C114.77375,15.12875 116.025,15.47 117.04875,16.03875 C118.18625,16.72125 119.21,17.745 120.12,19.11 L133.315,12.17125 L132.86,11.48875 C130.69875,7.84875 127.855,5.11875 124.55625,3.29875 C121.2575,1.47875 117.50375,0.56875 113.40875,0.56875 C110.22375,0.56875 107.1525,1.1375 104.4225,2.38875 C101.57875,3.64 99.07625,5.34625 96.915,7.735 C94.75375,10.12375 93.0475,12.85375 91.91,15.81125 C90.7725,18.76875 90.20375,22.0675 90.20375,25.59375 C90.20375,29.00625 90.7725,32.19125 91.91,35.2625 C92.5925,38.33375 94.185,41.06375 96.34625,43.33875 Z" id="Path"></path>
                    </g>
                    <g transform="translate(1.137500, 1.137500)" fill="#FFFFFF">
                        <polygon id="Path" points="23.31875 32.0775 27.9825 49.93625 32.87375 49.93625 33.78375 49.93625 38.4475 49.93625 43.11125 32.19125 45.2725 49.93625 59.71875 49.93625 53.12125 1.93375 45.2725 1.93375 44.3625 1.93375 39.01625 2.0475 33.215 22.9775 27.755 2.0475 22.5225 2.0475 21.6125 2.0475 13.65 2.0475 6.825 49.93625 21.1575 49.93625"></polygon>
                        <polygon id="Path" points="89.52125 35.60375 75.7575 35.60375 75.7575 32.87375 88.725 32.87375 88.725 18.99625 75.7575 18.99625 75.7575 16.1525 89.52125 16.03875 89.52125 1.93375 61.08375 1.93375 60.85625 49.93625 89.4075 49.93625"></polygon>
                        <path d="M149.0125,49.93625 L151.06,42.20125 L163.23125,42.20125 L165.27875,49.93625 L180.74875,49.93625 L165.62,1.82 L157.43,1.82 L157.2025,1.82 L149.0125,1.82 L133.65625,49.93625 L149.0125,49.93625 Z M157.2025,20.13375 L159.705,29.00625 L154.7,29.00625 L157.2025,20.13375 Z" id="Shape"></path>
                        <polygon id="Path" points="25.48 55.7375 23.66 55.7375 20.475 55.7375 17.5175 66.885 14.56 55.7375 11.48875 55.7375 9.66875 55.7375 4.89125 55.7375 0.455 86.6775 10.57875 86.79125 11.6025 78.60125 13.76375 86.79125 16.6075 86.79125 18.31375 86.79125 21.1575 86.79125 23.31875 78.60125 24.22875 86.79125 34.46625 86.79125 30.2575 55.7375"></polygon>
                        <polygon id="Path" points="35.83125 86.79125 46.52375 86.79125 46.52375 55.7375 35.945 55.7375"></polygon>
                        <polygon id="Path" points="58.58125 55.7375 48.0025 55.7375 47.88875 86.79125 66.77125 86.79125 66.77125 76.2125 58.4675 76.2125"></polygon>
                        <polygon id="Path" points="79.28375 55.85125 68.705 55.85125 68.705 86.79125 87.47375 86.79125 87.5875 76.2125 79.28375 76.2125"></polygon>
                        <polygon id="Path" points="88.27 86.79125 98.9625 86.79125 99.07625 55.85125 88.38375 55.85125"></polygon>
                        <path d="M126.49,59.94625 C125.125,58.4675 123.41875,57.21625 121.59875,56.42 C117.95875,54.8275 113.75,54.8275 110.11,56.42 C108.29,57.21625 106.58375,58.4675 105.21875,59.94625 C103.74,61.425 102.6025,63.245 101.92,65.17875 C101.12375,67.1125 100.7825,69.27375 100.7825,71.435 C100.7825,73.59625 101.12375,75.7575 101.92,77.69125 C102.71625,79.625 103.74,81.445 105.21875,82.92375 C106.58375,84.4025 108.29,85.65375 110.11,86.45 C111.93,87.24625 113.86375,87.70125 115.91125,87.70125 C117.845,87.70125 119.77875,87.24625 121.59875,86.45 C123.41875,85.65375 125.125,84.51625 126.49,82.92375 C127.96875,81.445 128.9925,79.625 129.78875,77.69125 C130.585,75.7575 130.92625,73.59625 130.92625,71.435 C130.92625,69.27375 130.585,67.1125 129.78875,65.17875 C128.87875,63.245 127.855,61.425 126.49,59.94625 Z M118.86875,75.53 C118.0725,76.55375 117.04875,77.00875 115.7975,77.00875 C114.4325,77.00875 113.5225,76.55375 112.72625,75.53 C111.81625,74.50625 111.475,73.14125 111.475,71.32125 C111.475,69.615 111.93,68.25 112.84,67.1125 C113.63625,66.08875 114.66,65.63375 115.91125,65.63375 C117.1625,65.63375 118.18625,66.08875 118.9825,67.1125 C119.8925,68.25 120.3475,69.615 120.3475,71.32125 C120.12,73.14125 119.665,74.50625 118.86875,75.53 Z" id="Shape"></path>
                        <polygon id="Path" points="149.80875 67.795 141.7325 55.85125 138.20625 55.85125 137.1825 55.85125 132.405 55.85125 132.29125 86.905 142.6425 86.905 142.75625 74.8475 150.8325 86.905 154.35875 86.905 155.49625 86.905 160.16 86.905 160.27375 55.85125 149.9225 55.85125"></polygon>
                        <path d="M186.7775,72.45875 C186.3225,71.32125 185.64,70.2975 184.73,69.3875 C183.365,68.13625 181.09,67.1125 177.2225,66.2025 L176.88125,66.08875 C175.06125,65.63375 174.4925,65.2925 174.37875,65.17875 C174.265,65.065 174.15125,65.065 174.15125,64.72375 C174.15125,64.61 174.15125,64.49625 174.37875,64.26875 C175.06125,63.81375 176.65375,63.81375 178.01875,64.3825 C178.815,64.72375 179.61125,65.17875 180.4075,65.7475 L182.2275,67.22625 L186.43625,58.4675 L185.185,57.67125 C183.70625,56.76125 182.11375,56.07875 180.4075,55.62375 C178.70125,55.16875 176.995,54.94125 175.175,54.94125 C171.64875,54.94125 168.69125,55.965 166.41625,57.89875 C164.14125,59.94625 162.89,62.5625 162.89,65.63375 C162.89,68.13625 163.68625,70.18375 165.165,71.6625 C166.64375,73.14125 168.91875,74.165 172.33125,74.96125 C175.06125,75.64375 175.74375,76.09875 175.74375,76.2125 C175.8575,76.32625 176.085,76.44 176.085,77.1225 C176.085,77.46375 175.97125,77.69125 175.63,77.91875 C174.72,78.60125 173.01375,78.4875 171.3075,77.5775 C170.28375,77.00875 169.26,76.2125 168.1225,74.96125 L166.53,73.255 L160.8425,82.01375 L161.86625,82.92375 C163.5725,84.51625 165.50625,85.65375 167.44,86.33625 C169.37375,87.1325 171.535,87.47375 173.92375,87.47375 C177.905,87.47375 181.20375,86.45 183.5925,84.28875 C186.095,82.1275 187.34625,79.3975 187.34625,75.87125 C187.46,74.8475 187.2325,73.59625 186.7775,72.45875 Z" id="Path"></path>
                        <path d="M97.25625,43.9075 C99.4175,46.29625 101.92,48.11625 104.65,49.25375 C107.38,50.39125 110.565,50.96 113.9775,50.96 C121.14375,50.96 126.7175,48.685 130.8125,44.02125 C134.79375,39.47125 136.84125,33.10125 136.84125,25.025 C136.84125,24.3425 136.84125,23.77375 136.84125,23.4325 C136.84125,23.09125 136.84125,22.63625 136.84125,22.40875 L136.7275,20.2475 L127.74125,20.2475 L120.575,20.2475 L119.77875,20.2475 L111.2475,20.2475 L111.2475,34.01125 L121.14375,34.01125 C120.8025,34.58 120.23375,35.14875 119.665,35.7175 C118.18625,36.855 116.36625,37.42375 114.09125,37.42375 C111.475,37.42375 109.54125,36.51375 108.0625,34.69375 C106.58375,32.76 105.7875,30.03 105.7875,26.50375 C105.7875,22.9775 106.58375,20.2475 108.0625,18.31375 C109.54125,16.49375 111.475,15.58375 114.09125,15.58375 C115.45625,15.58375 116.7075,15.925 117.73125,16.49375 C118.86875,17.17625 119.8925,18.2 120.8025,19.565 L134.11125,12.62625 L133.65625,11.94375 C131.38125,8.30375 128.65125,5.57375 125.3525,3.64 C122.05375,1.82 118.3,0.91 114.09125,0.91 C110.90625,0.91 107.835,1.47875 104.99125,2.73 C102.1475,3.98125 99.645,5.6875 97.37,8.07625 C95.20875,10.465 93.5025,13.195 92.365,16.1525 C91.2275,19.11 90.65875,22.40875 90.65875,25.935 C90.65875,29.3475 91.2275,32.64625 92.365,35.7175 C93.5025,38.78875 95.095,41.6325 97.25625,43.9075 Z" id="Path"></path>
                    </g>
                    <polygon id="Path" fill="#12509F" points="25.36625 55.055 23.66 55.055 20.36125 55.055 17.29 66.2025 14.3325 55.055 11.26125 55.055 9.44125 55.055 4.55 55.055 0.11375 86.10875 10.35125 86.10875 11.375 77.91875 13.53625 86.10875 16.49375 86.10875 18.2 86.10875 21.04375 86.2225 23.205 78.0325 24.22875 86.2225 34.46625 86.2225 30.14375 55.055"></polygon>
                    <polygon id="Rectangle" fill="#12509F" transform="translate(41.335629, 70.626942) rotate(-89.897201) translate(-41.335629, -70.626942) " points="25.7518539 65.2238085 56.9194041 65.2238085 56.9194041 76.0300759 25.7518539 76.0300759"></polygon>
                    <polygon id="Path" fill="#12509F" points="58.80875 55.055 48.11625 55.055 48.0025 86.2225 66.99875 86.2225 67.1125 75.64375 58.695 75.64375"></polygon>
                    <polygon id="Path" fill="#12509F" points="79.73875 55.055 69.04625 55.055 68.9325 86.2225 88.0425 86.33625 88.0425 75.64375 79.73875 75.64375"></polygon>
                    <polygon id="Rectangle" fill="#12509F" transform="translate(94.212691, 70.758551) rotate(-89.897201) translate(-94.212691, -70.758551) " points="78.628916 65.3554172 109.796466 65.3554172 109.796466 76.1616846 78.628916 76.1616846"></polygon>
                    <polygon id="Path" fill="#12509F" points="150.94625 67.22625 142.75625 55.16875 139.11625 55.16875 138.0925 55.16875 133.20125 55.16875 133.20125 86.33625 143.66625 86.33625 143.66625 74.27875 151.85625 86.45 155.49625 86.45 156.52 86.45 161.2975 86.45 161.41125 55.16875 150.94625 55.16875"></polygon>
                    <path d="M188.1425,72.00375 C187.6875,70.86625 187.005,69.72875 186.095,68.9325 C184.73,67.68125 182.34125,66.6575 178.5875,65.7475 L178.24625,65.63375 C176.3125,65.17875 175.8575,64.8375 175.74375,64.72375 C175.63,64.61 175.51625,64.61 175.51625,64.26875 C175.51625,64.155 175.51625,64.04125 175.74375,63.81375 C176.42625,63.35875 178.01875,63.35875 179.38375,63.9275 C180.18,64.26875 180.97625,64.72375 181.7725,65.40625 L183.5925,66.885 L187.80125,58.12625 L186.55,57.33 C185.07125,56.42 183.47875,55.62375 181.7725,55.16875 C180.06625,54.71375 178.36,54.48625 176.42625,54.48625 C172.9,54.48625 169.82875,55.51 167.55375,57.44375 C165.27875,59.49125 164.0275,62.1075 164.0275,65.17875 C164.0275,67.68125 164.82375,69.72875 166.41625,71.2075 C167.895,72.68625 170.28375,73.71 173.5825,74.62 C176.3125,75.3025 176.995,75.7575 177.10875,75.87125 C177.2225,75.985 177.45,76.09875 177.45,76.78125 C177.45,77.1225 177.33625,77.35 176.995,77.5775 C176.085,78.26 174.37875,78.14625 172.6725,77.23625 C171.64875,76.6675 170.51125,75.87125 169.4875,74.62 L167.895,72.91375 L162.09375,81.6725 L163.1175,82.5825 C164.9375,84.175 166.7575,85.3125 168.69125,86.10875 C170.625,86.905 172.78625,87.24625 175.175,87.24625 C179.15625,87.24625 182.455,86.2225 184.9575,84.06125 C187.46,81.9 188.71125,79.05625 188.71125,75.64375 C188.71125,74.3925 188.5975,73.14125 188.1425,72.00375 Z" id="Path" fill="#12509F"></path>
                    <g transform="translate(5.687500, 0.000000)">
                        <polygon id="Path" fill="url(#linearGradient-1)" points="17.5175 31.28125 22.295 49.14 27.18625 49.25375 27.9825 49.25375 32.76 49.25375 37.5375 31.395 39.69875 49.25375 54.25875 49.25375 47.5475 1.02375 39.69875 1.02375 38.78875 1.02375 33.32875 1.02375 27.5275 22.0675 21.95375 1.02375 16.72125 1.02375 15.81125 1.02375 7.735 1.02375 0.79625 49.14 15.2425 49.14"></polygon>
                        <polygon id="Path" fill="url(#linearGradient-2)" points="84.28875 34.8075 70.41125 34.8075 70.41125 32.0775 83.4925 32.19125 83.60625 18.08625 70.525 18.08625 70.525 15.2425 84.4025 15.2425 84.4025 1.02375 55.62375 1.02375 55.51 49.25375 84.28875 49.25375"></polygon>
                        <path d="M144.34875,49.25375 L146.39625,41.405 L158.68125,41.405 L160.72875,49.25375 L176.3125,49.25375 L161.07,0.91 L152.76625,0.91 L152.53875,0.91 L144.235,0.91 L128.765,49.25375 L144.34875,49.25375 Z M152.6525,19.3375 L155.155,28.32375 L150.15,28.32375 L152.6525,19.3375 Z" id="Shape" fill="url(#linearGradient-3)"></path>
                        <path d="M92.1375,43.11125 C94.29875,45.5 96.80125,47.32 99.645,48.57125 C102.375,49.70875 105.56,50.2775 109.08625,50.2775 C116.2525,50.2775 121.94,48.0025 126.035,43.33875 C130.01625,38.78875 132.1775,32.305 132.1775,24.22875 C132.1775,23.54625 132.1775,22.9775 132.1775,22.63625 C132.1775,22.295 132.1775,21.84 132.1775,21.6125 L132.06375,19.45125 L123.0775,19.45125 L115.91125,19.45125 L115.00125,19.45125 L106.47,19.45125 L106.47,33.32875 L116.48,33.32875 C116.13875,34.01125 115.57,34.46625 115.00125,35.035 C113.5225,36.1725 111.7025,36.74125 109.31375,36.74125 C106.6975,36.74125 104.65,35.83125 103.285,34.01125 C101.80625,32.0775 101.01,29.3475 101.01,25.7075 C101.01,22.18125 101.80625,19.45125 103.285,17.5175 C104.76375,15.6975 106.6975,14.7875 109.4275,14.7875 C110.7925,14.7875 112.04375,15.12875 113.18125,15.6975 C114.31875,16.38 115.3425,17.40375 116.2525,18.76875 L129.675,11.83 L129.22,11.1475 C126.945,7.5075 124.10125,4.66375 120.8025,2.84375 C117.50375,1.02375 113.63625,1.29318778e-13 109.4275,1.29318778e-13 C106.12875,1.29318778e-13 103.0575,0.56875 100.21375,1.82 C97.37,3.07125 94.75375,4.7775 92.5925,7.16625 C90.3175,9.555 88.61125,12.285 87.47375,15.35625 C86.33625,18.31375 85.7675,21.72625 85.7675,25.2525 C85.7675,28.665 86.33625,31.96375 87.47375,35.035 C88.38375,38.10625 90.09,40.83625 92.1375,43.11125 Z" id="Path" fill="url(#linearGradient-4)"></path>
                    </g>
                    <path d="M127.51375,59.8325 C126.14875,58.35375 124.4425,57.1025 122.6225,56.30625 C118.9825,54.71375 114.77375,54.71375 111.13375,56.30625 C109.31375,57.1025 107.6075,58.35375 106.2425,59.8325 C104.76375,61.31125 103.62625,63.13125 102.94375,65.065 C102.1475,66.99875 101.80625,69.16 101.80625,71.32125 C101.80625,73.4825 102.1475,75.64375 102.94375,77.5775 C103.74,79.51125 104.76375,81.33125 106.2425,82.81 C107.6075,84.28875 109.31375,85.54 111.13375,86.33625 C112.95375,87.1325 114.8875,87.5875 116.935,87.5875 C118.86875,87.5875 120.8025,87.1325 122.6225,86.33625 C124.4425,85.54 126.14875,84.4025 127.51375,82.81 C128.9925,81.33125 130.01625,79.51125 130.8125,77.5775 C131.60875,75.64375 131.95,73.4825 131.95,71.32125 C131.95,69.16 131.60875,66.99875 130.8125,65.065 C130.01625,63.13125 128.87875,61.31125 127.51375,59.8325 Z M119.8925,75.41625 C119.09625,76.44 118.0725,76.895 116.82125,76.895 C115.45625,76.895 114.54625,76.44 113.75,75.41625 C112.84,74.3925 112.49875,73.0275 112.49875,71.2075 C112.49875,69.50125 112.95375,68.13625 113.86375,66.99875 C114.66,65.975 115.68375,65.52 116.935,65.52 C118.18625,65.52 119.21,65.975 120.00625,66.99875 C120.91625,68.13625 121.37125,69.50125 121.37125,71.2075 C121.2575,73.0275 120.8025,74.3925 119.8925,75.41625 Z" id="Shape" fill="#12509F"></path>
                </g>
            </g>
        </g>
    </g>
</svg>