<?xml version="1.0" encoding="UTF-8"?>
<svg width="234px" height="130px" viewBox="0 0 234 130" version="1.1" xmlns="http://www.w3.org/2000/svg" xmlns:xlink="http://www.w3.org/1999/xlink">
    <title>megasena</title>
    <g id="Bg" stroke="none" stroke-width="1" fill="none" fill-rule="evenodd">
        <g id="Logos" transform="translate(-668.000000, -1066.000000)">
            <g id="megasena" transform="translate(668.000000, 1066.000000)">
                <rect id="Rectangle" x="0" y="0" width="234" height="130" rx="2"></rect>
                <g id="Group" transform="translate(7.000000, 33.000000)" fill-rule="nonzero">
                    <g fill="#06A54D">
                        <polygon id="Path" points="13.5915 0.442 20.774 16.2435 28.067 0.442 41.4375 0.442 41.4375 24.752 34.1445 24.752 34.3655 6.5195 33.15 6.5195 23.9785 24.752 17.7905 24.752 8.619 6.5195 7.293 6.5195 7.514 24.752 0.221 24.752 0.221 0.442 13.5915 0.442"></polygon>
                        <polygon id="Path" points="71.825 0.442 71.825 6.188 52.156 6.188 52.156 9.724 70.8305 9.724 70.8305 15.1385 52.156 15.1385 52.156 19.006 71.9355 19.006 71.9355 24.8625 44.863 24.8625 44.863 0.5525 71.825 0.5525"></polygon>
                        <path d="M106.08,11.05 L106.08,11.713 C106.08,14.0335 105.9695,18.2325 105.859,19.448 C105.5275,22.321 103.9805,23.9785 101.1075,24.531 C98.566,25.0835 96.0245,25.194 89.3945,25.194 C81.107,25.194 78.455,24.8625 76.3555,23.426 C74.1455,21.9895 73.814,20.2215 73.814,12.2655 C73.814,5.746 74.477,3.2045 76.466,1.768 C78.234,0.5525 82.212,0 90.7205,0 C99.7815,0 103.0965,0.663 104.754,2.5415 C105.7485,3.757 106.08,5.1935 106.08,8.84 L98.6765,8.84 C98.6765,7.4035 98.566,7.072 98.124,6.7405 C97.3505,6.188 95.693,6.0775 90.0575,6.0775 C81.328,6.0775 81.2175,6.0775 81.2175,12.4865 C81.2175,16.575 81.4385,17.901 82.3225,18.564 C82.875,19.006 83.538,19.227 85.527,19.227 L90.0575,19.3375 C96.356,19.3375 97.682,19.227 98.4555,18.564 C98.8975,18.122 99.008,17.68 99.008,15.8015 L89.284,15.8015 L89.284,11.05 L106.08,11.05 Z" id="Path"></path>
                        <path d="M133.3735,20.6635 L117.2405,20.6635 L115.141,24.752 L106.6325,24.752 L119.561,0.442 L131.053,0.442 L143.7605,24.752 L135.3625,24.752 L133.3735,20.6635 Z M126.0805,6.0775 L124.644,6.0775 L119.8925,15.3595 L130.7215,15.3595 L126.0805,6.0775 Z" id="Shape"></path>
                        <path d="M7.735,52.7085 C7.735,54.2555 7.8455,54.808 8.5085,55.1395 C9.282,55.5815 10.166,55.692 15.691,55.692 C21.7685,55.692 22.6525,55.692 23.426,55.3605 C23.9785,55.1395 24.31,54.4765 24.31,53.3715 C24.31,51.8245 23.647,51.3825 21.1055,51.3825 C20.2215,51.3825 17.68,51.272 14.9175,51.1615 C12.0445,51.051 9.3925,50.9405 8.5085,50.9405 C4.7515,50.83 2.873,50.2775 1.6575,48.9515 C0.663,47.736 0.221,46.0785 0.221,43.4265 C0.221,39.559 1.105,37.2385 2.9835,36.1335 C4.9725,35.0285 7.293,34.8075 16.796,34.8075 C24.089,34.8075 26.8515,35.139 28.73,36.244 C30.3875,37.349 31.161,39.0065 31.161,42.211 C31.161,42.3215 31.161,42.874 31.161,43.4265 L23.426,43.4265 C23.426,42.1005 23.3155,41.769 22.8735,41.4375 C22.2105,40.885 21.3265,40.885 15.3595,40.885 C8.619,40.885 8.0665,40.9955 8.0665,42.9845 C8.0665,43.979 8.398,44.421 9.1715,44.642 C9.8345,44.863 11.934,44.9735 17.68,45.084 C26.078,45.305 27.846,45.526 29.5035,46.5205 C31.382,47.6255 32.1555,49.3935 32.1555,53.1505 C32.1555,57.5705 31.161,59.7805 28.6195,60.8855 C26.962,61.5485 23.7575,61.7695 15.691,61.7695 C7.8455,61.7695 4.641,61.438 2.7625,60.333 C0.7735,59.228 0.221,57.681 0.221,53.924 L0.221,52.7085 L7.735,52.7085 L7.735,52.7085 Z" id="Path"></path>
                        <polygon id="Path" points="63.7585 35.2495 63.7585 41.4375 42.653 41.4375 42.653 45.1945 62.764 45.1945 62.764 50.9405 42.653 50.9405 42.653 55.1395 63.9795 55.1395 63.9795 61.438 34.8075 61.438 34.8075 35.2495"></polygon>
                        <polygon id="Path" points="80.444 35.2495 94.146 54.808 94.9195 54.808 94.6985 35.2495 102.8755 35.2495 102.8755 61.438 89.063 61.438 75.2505 41.8795 74.3665 41.8795 74.5875 61.438 66.4105 61.438 66.4105 35.2495"></polygon>
                        <path d="M132.7105,56.9075 L115.362,56.9075 L113.152,61.3275 L104.091,61.3275 L117.9035,35.139 L130.2795,35.139 L143.9815,61.3275 L134.9205,61.3275 L132.7105,56.9075 Z M124.865,41.327 L123.318,41.327 L118.235,51.272 L129.948,51.272 L124.865,41.327 Z" id="Shape"></path>
                    </g>
                    <g transform="translate(159.120000, 0.000000)" id="Path">
                        <path d="M47.515,9.1715 C47.515,9.061 47.515,8.84 47.515,8.7295 C47.515,3.978 43.758,0.221 39.0065,0.221 C35.36,0.221 32.266,2.431 31.0505,5.6355 C29.835,2.431 26.741,0.221 23.0945,0.221 C18.343,0.221 14.586,3.978 14.586,8.7295 C14.586,10.0555 14.9175,11.271 15.3595,12.376 L15.3595,12.376 C15.3595,12.376 17.901,13.481 22.1,17.238 C22.1,17.238 22.1,17.238 22.1,17.238 C22.2105,17.3485 22.4315,17.459 22.542,17.68 C22.542,17.68 22.542,17.68 22.542,17.68 C22.6525,17.7905 22.8735,18.0115 22.984,18.122 C27.625,22.542 31.4925,28.6195 31.4925,28.6195 C31.4925,28.6195 40.885,22.542 44.2,17.459 C44.3105,17.238 44.421,17.1275 44.5315,16.9065 C44.5315,16.9065 44.642,16.796 44.642,16.796 C44.7525,16.6855 44.7525,16.575 44.863,16.4645 C44.863,16.354 44.9735,16.354 44.9735,16.2435 C45.084,16.133 45.084,16.0225 45.1945,15.912 C45.1945,15.8015 45.305,15.8015 45.305,15.691 C45.305,15.5805 45.4155,15.47 45.4155,15.3595 C45.4155,15.249 45.526,15.249 45.526,15.1385 C45.526,15.028 45.6365,14.9175 45.6365,14.9175 C45.6365,14.807 45.747,14.807 45.747,14.6965 C45.747,14.586 45.8575,14.4755 45.8575,14.365 C45.8575,14.365 45.8575,14.2545 45.968,14.2545 C46.0785,14.144 46.0785,14.0335 46.0785,13.923 C46.0785,13.923 46.0785,13.923 46.0785,13.8125 C46.189,13.702 46.189,13.5915 46.2995,13.3705 C46.2995,13.3705 46.2995,13.26 46.2995,13.26 C46.2995,13.1495 46.41,13.039 46.41,12.9285 C46.41,12.9285 46.41,12.818 46.41,12.818 C46.41,12.7075 46.5205,12.597 46.5205,12.597 C46.5205,12.597 46.5205,12.4865 46.5205,12.4865 C46.5205,12.376 46.631,12.376 46.631,12.2655 C46.631,12.2655 46.631,12.155 46.631,12.155 C46.631,12.0445 46.631,12.0445 46.7415,11.934 C46.7415,11.934 46.7415,11.8235 46.7415,11.8235 C46.7415,11.713 46.7415,11.6025 46.852,11.6025 C46.852,11.6025 46.852,11.6025 46.852,11.492 C46.852,11.3815 46.852,11.3815 46.9625,11.271 C46.9625,11.271 46.9625,11.271 46.9625,11.1605 C46.9625,11.1605 46.9625,11.05 46.9625,11.05 C46.9625,11.05 46.9625,11.05 46.9625,10.9395 C46.9625,10.9395 46.9625,10.829 46.9625,10.829 C46.9625,10.829 46.9625,10.829 46.9625,10.7185 C46.9625,10.7185 46.9625,10.608 46.9625,10.608 C46.9625,10.608 46.9625,10.608 46.9625,10.608 C46.9625,10.608 46.9625,10.608 46.9625,10.608 C46.9625,10.608 46.9625,10.4975 46.9625,10.4975 C46.9625,10.4975 46.9625,10.4975 46.9625,10.4975 C46.9625,10.4975 46.9625,10.4975 46.9625,10.4975 C46.9625,10.387 46.9625,10.2765 47.073,10.166 C47.073,10.166 47.073,10.166 47.073,10.166 C47.073,10.166 47.073,10.166 47.073,10.166 C47.073,10.0555 47.073,10.0555 47.073,9.945 C47.073,9.945 47.073,9.945 47.073,9.945 C47.073,9.945 47.073,9.945 47.073,9.945 C47.515,9.503 47.515,9.1715 47.515,9.1715 L47.515,9.1715 Z" fill="#57AE56"></path>
                        <path d="M9.3925,14.4755 C9.282,14.4755 9.061,14.4755 8.9505,14.4755 C4.199,14.4755 0.442,18.2325 0.442,22.984 C0.442,26.6305 2.652,29.7245 5.8565,30.94 C2.652,32.1555 0.442,35.2495 0.442,38.896 C0.442,43.6475 4.199,47.4045 8.9505,47.4045 C10.2765,47.4045 11.492,47.073 12.597,46.631 L12.597,46.631 C12.597,46.631 13.702,44.0895 17.459,39.8905 C17.459,39.8905 17.459,39.8905 17.459,39.8905 C17.5695,39.78 17.68,39.559 17.901,39.4485 C17.901,39.4485 17.901,39.4485 17.901,39.4485 C18.0115,39.338 18.2325,39.117 18.343,39.0065 C22.763,34.3655 28.8405,30.498 28.8405,30.498 C28.8405,30.498 22.763,21.1055 17.68,17.7905 C17.459,17.68 17.3485,17.5695 17.1275,17.459 C17.1275,17.459 17.017,17.3485 17.017,17.3485 C16.9065,17.238 16.796,17.238 16.6855,17.1275 C16.575,17.1275 16.575,17.017 16.4645,17.017 C16.354,16.9065 16.2435,16.9065 16.133,16.796 C16.0225,16.796 16.0225,16.6855 15.912,16.6855 C15.8015,16.6855 15.691,16.575 15.5805,16.575 C15.47,16.575 15.47,16.4645 15.3595,16.4645 C15.249,16.4645 15.1385,16.354 15.1385,16.354 C15.028,16.354 15.028,16.2435 14.9175,16.2435 C14.807,16.2435 14.6965,16.133 14.586,16.133 C14.586,16.133 14.4755,16.133 14.4755,16.0225 C14.365,15.912 14.2545,15.912 14.144,15.912 C14.144,15.912 14.144,15.912 14.0335,15.912 C13.923,15.8015 13.8125,15.8015 13.5915,15.691 C13.5915,15.691 13.481,15.691 13.481,15.691 C13.3705,15.691 13.26,15.5805 13.1495,15.5805 C13.1495,15.5805 13.039,15.5805 13.039,15.5805 C12.9285,15.5805 12.818,15.47 12.818,15.47 C12.818,15.47 12.7075,15.47 12.7075,15.47 C12.597,15.47 12.597,15.3595 12.4865,15.3595 C12.4865,15.3595 12.376,15.3595 12.376,15.3595 C12.2655,15.3595 12.2655,15.3595 12.155,15.249 C12.155,15.249 12.0445,15.249 12.0445,15.249 C11.934,15.249 11.8235,15.249 11.8235,15.1385 C11.8235,15.1385 11.8235,15.1385 11.713,15.1385 C11.6025,15.1385 11.6025,15.1385 11.492,15.028 C11.492,15.028 11.492,15.028 11.3815,15.028 C11.3815,15.028 11.271,15.028 11.271,15.028 C11.271,15.028 11.271,15.028 11.1605,15.028 C11.1605,15.028 11.05,15.028 11.05,15.028 C11.05,15.028 11.05,15.028 10.9395,15.028 C10.9395,15.028 10.829,15.028 10.829,15.028 C10.829,15.028 10.829,15.028 10.829,15.028 C10.829,15.028 10.829,15.028 10.829,15.028 C10.829,15.028 10.7185,15.028 10.7185,15.028 C10.7185,15.028 10.7185,15.028 10.7185,15.028 C10.7185,15.028 10.7185,15.028 10.7185,15.028 C10.608,15.028 10.4975,15.028 10.387,14.9175 C10.387,14.9175 10.387,14.9175 10.387,14.9175 C10.387,14.9175 10.387,14.9175 10.387,14.9175 C10.2765,14.9175 10.2765,14.9175 10.166,14.9175 C10.166,14.9175 10.166,14.9175 10.166,14.9175 C10.166,14.9175 10.166,14.9175 10.166,14.9175 C9.6135,14.4755 9.3925,14.4755 9.3925,14.4755 L9.3925,14.4755 Z" fill="#06A54D"></path>
                        <path d="M52.9295,47.294 C53.04,47.294 53.261,47.294 53.3715,47.294 C58.123,47.294 61.88,43.537 61.88,38.7855 C61.88,35.139 59.67,32.045 56.4655,30.8295 C59.67,29.614 61.88,26.52 61.88,22.8735 C61.88,18.122 58.123,14.365 53.3715,14.365 C52.0455,14.365 50.83,14.6965 49.725,15.1385 L49.725,15.1385 C49.725,15.1385 48.62,17.68 44.863,21.879 C44.863,21.879 44.863,21.879 44.863,21.879 C44.7525,21.9895 44.642,22.2105 44.421,22.321 C44.421,22.321 44.421,22.321 44.421,22.321 C44.3105,22.4315 44.0895,22.6525 43.979,22.763 C39.559,27.404 33.4815,31.2715 33.4815,31.2715 C33.4815,31.2715 39.559,40.664 44.642,43.979 C44.863,44.0895 44.9735,44.2 45.1945,44.3105 C45.1945,44.3105 45.305,44.421 45.305,44.421 C45.4155,44.5315 45.526,44.5315 45.6365,44.642 C45.747,44.642 45.747,44.7525 45.8575,44.7525 C45.968,44.863 46.0785,44.863 46.189,44.9735 C46.2995,44.9735 46.2995,45.084 46.41,45.084 C46.5205,45.084 46.631,45.1945 46.7415,45.1945 C46.852,45.1945 46.852,45.305 46.9625,45.305 C47.073,45.305 47.1835,45.4155 47.1835,45.4155 C47.294,45.4155 47.294,45.526 47.4045,45.526 C47.515,45.526 47.6255,45.6365 47.736,45.6365 C47.736,45.6365 47.8465,45.6365 47.8465,45.747 C47.957,45.8575 48.0675,45.8575 48.178,45.8575 C48.178,45.8575 48.178,45.8575 48.2885,45.8575 C48.399,45.968 48.5095,45.968 48.7305,46.0785 C48.7305,46.0785 48.841,46.0785 48.841,46.0785 C48.9515,46.0785 49.062,46.189 49.1725,46.189 C49.1725,46.189 49.283,46.189 49.283,46.189 C49.3935,46.189 49.504,46.2995 49.504,46.2995 C49.504,46.2995 49.6145,46.2995 49.6145,46.2995 C49.725,46.2995 49.725,46.41 49.8355,46.41 C49.8355,46.41 49.946,46.41 49.946,46.41 C50.0565,46.41 50.0565,46.41 50.167,46.5205 C50.167,46.5205 50.2775,46.5205 50.2775,46.5205 C50.388,46.5205 50.4985,46.5205 50.4985,46.631 C50.4985,46.631 50.4985,46.631 50.609,46.631 C50.7195,46.631 50.7195,46.631 50.83,46.7415 C50.83,46.7415 50.83,46.7415 50.9405,46.7415 C50.9405,46.7415 51.051,46.7415 51.051,46.7415 C51.051,46.7415 51.051,46.7415 51.1615,46.7415 C51.1615,46.7415 51.272,46.7415 51.272,46.7415 C51.272,46.7415 51.272,46.7415 51.3825,46.7415 C51.3825,46.7415 51.493,46.7415 51.493,46.7415 C51.493,46.7415 51.493,46.7415 51.493,46.7415 C51.493,46.7415 51.493,46.7415 51.493,46.7415 C51.493,46.7415 51.6035,46.7415 51.6035,46.7415 C51.6035,46.7415 51.6035,46.7415 51.6035,46.7415 C51.6035,46.7415 51.6035,46.7415 51.6035,46.7415 C51.714,46.7415 51.8245,46.7415 51.935,46.852 C51.935,46.852 51.935,46.852 51.935,46.852 C51.935,46.852 51.935,46.852 51.935,46.852 C52.0455,46.852 52.0455,46.852 52.156,46.852 C52.156,46.852 52.156,46.852 52.156,46.852 C52.156,46.852 52.156,46.852 52.156,46.852 C52.598,47.294 52.9295,47.294 52.9295,47.294 L52.9295,47.294 Z" fill="#06A54D"></path>
                        <path d="M14.6965,52.7085 C14.6965,52.819 14.6965,53.04 14.6965,53.1505 C14.6965,57.902 18.4535,61.659 23.205,61.659 C26.8515,61.659 29.9455,59.449 31.161,56.2445 C32.3765,59.449 35.4705,61.659 39.117,61.659 C43.8685,61.659 47.6255,57.902 47.6255,53.1505 C47.6255,51.8245 47.294,50.609 46.852,49.504 L46.852,49.504 C46.852,49.504 44.3105,48.399 40.1115,44.642 C40.1115,44.642 40.1115,44.642 40.1115,44.642 C40.001,44.5315 39.78,44.421 39.6695,44.2 C39.6695,44.2 39.6695,44.2 39.6695,44.2 C39.559,44.0895 39.338,43.8685 39.2275,43.758 C34.5865,39.338 30.719,33.2605 30.719,33.2605 C30.719,33.2605 21.3265,39.338 18.0115,44.421 C17.901,44.642 17.7905,44.7525 17.68,44.9735 C17.68,44.9735 17.5695,45.084 17.5695,45.084 C17.459,45.1945 17.459,45.305 17.3485,45.4155 C17.3485,45.526 17.238,45.526 17.238,45.6365 C17.1275,45.747 17.1275,45.8575 17.017,45.968 C17.017,46.0785 16.9065,46.0785 16.9065,46.189 C16.9065,46.2995 16.796,46.41 16.796,46.5205 C16.796,46.631 16.6855,46.631 16.6855,46.7415 C16.6855,46.852 16.575,46.9625 16.575,46.9625 C16.575,47.073 16.4645,47.073 16.4645,47.1835 C16.4645,47.294 16.354,47.4045 16.354,47.515 C16.354,47.515 16.354,47.6255 16.2435,47.6255 C16.133,47.736 16.133,47.8465 16.133,47.957 C16.133,47.957 16.133,47.957 16.133,48.0675 C16.0225,48.178 16.0225,48.2885 15.912,48.5095 C15.912,48.5095 15.912,48.62 15.912,48.62 C15.912,48.7305 15.8015,48.841 15.8015,48.9515 C15.8015,48.9515 15.8015,49.062 15.8015,49.062 C15.8015,49.1725 15.691,49.283 15.691,49.283 C15.691,49.283 15.691,49.3935 15.691,49.3935 C15.691,49.504 15.5805,49.504 15.5805,49.6145 C15.5805,49.6145 15.5805,49.725 15.5805,49.725 C15.5805,49.8355 15.5805,49.8355 15.47,49.946 C15.47,49.946 15.47,50.0565 15.47,50.0565 C15.47,50.167 15.47,50.2775 15.3595,50.2775 C15.3595,50.2775 15.3595,50.2775 15.3595,50.388 C15.3595,50.4985 15.3595,50.4985 15.249,50.609 C15.249,50.609 15.249,50.609 15.249,50.7195 C15.249,50.7195 15.249,50.83 15.249,50.83 C15.249,50.83 15.249,50.83 15.249,50.9405 C15.249,50.9405 15.249,51.051 15.249,51.051 C15.249,51.051 15.249,51.051 15.249,51.1615 C15.249,51.1615 15.249,51.272 15.249,51.272 C15.249,51.272 15.249,51.272 15.249,51.272 C15.249,51.272 15.249,51.272 15.249,51.272 C15.249,51.272 15.249,51.3825 15.249,51.3825 C15.249,51.3825 15.249,51.3825 15.249,51.3825 C15.249,51.3825 15.249,51.3825 15.249,51.3825 C15.249,51.493 15.249,51.6035 15.1385,51.714 C15.1385,51.714 15.1385,51.714 15.1385,51.714 C15.1385,51.714 15.1385,51.714 15.1385,51.714 C15.1385,51.8245 15.1385,51.8245 15.1385,51.935 C15.1385,51.935 15.1385,51.935 15.1385,51.935 C15.1385,51.935 15.1385,51.935 15.1385,51.935 C14.6965,52.377 14.6965,52.7085 14.6965,52.7085 L14.6965,52.7085 Z" fill="#57AE56"></path>
                    </g>
                </g>
            </g>
        </g>
    </g>
</svg>