<?xml version="1.0" encoding="UTF-8"?>
<svg width="234px" height="130px" viewBox="0 0 234 130" version="1.1" xmlns="http://www.w3.org/2000/svg" xmlns:xlink="http://www.w3.org/1999/xlink">
    <title>mega_bucks</title>
    <defs>
        <radialGradient cx="73.9615128%" cy="-9.65031268%" fx="73.9615128%" fy="-9.65031268%" r="212.830544%" gradientTransform="translate(0.739615,-0.096503),scale(0.251162,1.000000),rotate(148.970836),translate(-0.739615,0.096503)" id="radialGradient-1">
            <stop stop-color="#7EBC50" offset="0%"></stop>
            <stop stop-color="#449539" offset="100%"></stop>
        </radialGradient>
    </defs>
    <g id="Bg" stroke="none" stroke-width="1" fill="none" fill-rule="evenodd">
        <g id="Logos" transform="translate(-56.000000, -1066.000000)">
            <g id="mega_bucks" transform="translate(56.000000, 1066.000000)">
                <rect id="Rectangle" x="0" y="0" width="234" height="130" rx="2"></rect>
                <g id="Artboard" transform="translate(32.000000, 8.000000)" fill-rule="nonzero">
                    <g id="logo">
                        <path d="M10.0097561,111.080488 C17.1,111.080488 22.3829268,110.107317 25.7195122,108.3 C29.0560976,106.492683 30.8634146,103.573171 30.8634146,99.8195122 C30.8634146,98.0121951 30.5853659,96.3439024 29.7512195,94.8146341 C28.9170732,93.2853659 28.0829268,92.1731707 26.9707317,91.3390244 C25.8585366,90.504878 24.4682927,90.0878049 22.9390244,90.0878049 C22.5219512,90.0878049 22.104878,90.0878049 21.8268293,90.0878049 C23.6341463,89.8097561 24.8853659,88.697561 25.997561,87.1682927 C27.1097561,85.5 27.6658537,83.6926829 27.6658537,81.6073171 C27.6658537,79.9390244 27.1097561,78.4097561 25.8585366,77.0195122 C24.6073171,75.6292683 23.0780488,74.5170732 21.2707317,73.6829268 C19.3243902,72.8487805 17.3780488,72.4317073 15.2926829,72.4317073 C13.0682927,72.4317073 10.704878,72.5707317 8.20243902,72.8487805 C5.7,73.1268293 3.89268293,73.6829268 2.64146341,74.3780488 L2.64146341,74.3780488 L2.50243902,110.941463 L10.0097561,111.080488 L10.0097561,111.080488 Z M13.4853659,86.6121951 C12.9292683,86.6121951 12.3731707,86.6121951 11.9560976,86.4731707 L11.9560976,86.4731707 L11.9560976,80.7731707 C12.6512195,80.495122 13.4853659,80.2170732 14.3195122,80.2170732 C15.4317073,80.2170732 16.404878,80.495122 17.1,81.0512195 C17.795122,81.6073171 18.2121951,82.302439 18.2121951,83.2756098 C18.2121951,84.2487805 17.795122,85.0829268 16.6829268,85.6390244 C15.8487805,86.3341463 14.7365854,86.6121951 13.4853659,86.6121951 Z M14.0414634,102.878049 C13.3463415,102.878049 12.6512195,102.739024 11.9560976,102.460976 L11.9560976,102.460976 L11.9560976,95.7878049 C13.0682927,95.2317073 14.1804878,94.9536585 15.4317073,94.9536585 C16.6829268,94.9536585 17.795122,95.2317073 18.6292683,95.9268293 C19.4634146,96.6219512 20.0195122,97.4560976 20.0195122,98.4292683 C20.0195122,99.6804878 19.4634146,100.792683 18.2121951,101.626829 C17.2390244,102.460976 15.8487805,102.878049 14.0414634,102.878049 Z M47.5463415,111.497561 C50.8829268,111.497561 53.6634146,110.663415 56.0268293,108.856098 C58.3902439,107.04878 60.197561,104.546341 61.5878049,101.070732 C62.9780488,97.595122 63.5341463,93.8414634 63.5341463,89.3926829 C63.5341463,82.8585366 62.7,77.0195122 60.8926829,72.0146341 C55.4707317,73.5439024 49.4926829,72.4317073 50.1878049,75.0731707 C50.8829268,77.7146341 51.4390244,80.3560976 51.8560976,83.1365854 C52.2731707,85.9170732 52.5512195,88.002439 52.5512195,89.3926829 C52.5512195,97.4560976 50.8829268,101.487805 47.5463415,101.487805 C44.0707317,101.487805 42.402439,97.4560976 42.402439,89.1146341 L42.5414634,87.5853659 C42.8195122,84.804878 42.9585366,82.4414634 43.2365854,80.495122 C43.5146341,78.5487805 43.6536585,76.8804878 44.0707317,75.3512195 C38.6487805,74.1 34.6170732,67.8439024 33.2268293,72.7097561 C31.8365854,77.5756098 31.2804878,82.8585366 31.2804878,88.4195122 C31.2804878,93.1463415 31.9756098,97.1780488 33.2268293,100.653659 C34.6170732,104.129268 36.4243902,106.770732 38.9268293,108.578049 C41.2902439,110.663415 44.2097561,111.497561 47.5463415,111.497561 Z M83.8317073,111.358537 C86.4731707,111.358537 89.1146341,110.802439 91.6170732,109.55122 C94.1195122,108.439024 96.204878,106.770732 97.8731707,104.82439 C99.5414634,102.878049 100.653659,100.653659 101.070732,98.2902439 L101.070732,98.2902439 L92.8682927,95.5097561 C92.5902439,96.3439024 92.1731707,97.1780488 91.3390244,98.0121951 C90.504878,98.8463415 89.5317073,99.6804878 88.2804878,100.236585 C87.0292683,100.792683 85.7780488,101.070732 84.3878049,101.070732 C82.7195122,101.070732 81.3292683,100.653659 80.0780488,99.9585366 C78.6878049,99.2634146 77.7146341,98.0121951 76.8804878,96.6219512 C76.0463415,95.0926829 75.6292683,93.4243902 75.6292683,91.4780488 C75.6292683,88.5585366 76.4634146,86.3341463 78.1317073,84.6658537 C79.8,83.1365854 82.0243902,82.302439 84.5268293,82.302439 C86.6121951,82.302439 88.4195122,82.8585366 89.9487805,83.9707317 C91.4780488,85.0829268 92.4512195,86.3341463 93.0073171,87.8634146 L93.0073171,87.8634146 L101.765854,85.2219512 C101.070732,82.4414634 99.8195122,80.0780488 98.1512195,78.1317073 C96.4829268,76.1853659 94.397561,74.6560976 92.1731707,73.8219512 C89.9487805,72.8487805 87.4463415,72.4317073 84.804878,72.4317073 C81.3292683,72.4317073 78.1317073,73.2658537 75.2121951,75.0731707 C72.2926829,76.8804878 69.9292683,79.104878 68.2609756,82.0243902 C66.4536585,84.9439024 65.7585366,88.1414634 65.7585366,91.7560976 C65.7585366,95.2317073 66.5926829,98.4292683 68.2609756,101.487805 C69.9292683,104.546341 72.1536585,106.909756 75.0731707,108.717073 C77.5756098,110.385366 80.495122,111.358537 83.8317073,111.358537 Z M127.902439,112.609756 L136.243902,105.241463 L123.453659,89.9487805 L133.880488,79.5219512 L125.956098,72.1536585 L113.026829,84.804878 L113.026829,72.9878049 L103.017073,72.9878049 L103.017073,110.802439 L113.026829,110.802439 L113.026829,100.37561 L115.807317,97.595122 L127.902439,112.609756 Z M153.065854,111.497561 C155.846341,111.497561 158.487805,110.941463 160.85122,109.690244 C163.214634,108.439024 165.160976,106.770732 166.55122,104.685366 C167.941463,102.6 168.636585,100.236585 168.636585,97.7341463 C168.636585,95.3707317 168.080488,93.4243902 166.829268,91.7560976 C165.578049,90.0878049 163.909756,88.8365854 161.82439,88.002439 C159.739024,87.1682927 157.37561,86.7512195 154.595122,86.7512195 C153.065854,86.7512195 151.814634,86.6121951 150.702439,86.3341463 C149.590244,86.0560976 149.034146,85.5 149.034146,84.9439024 C149.034146,84.3878049 149.45122,83.8317073 150.42439,83.4146341 C151.397561,82.997561 152.370732,82.7195122 153.621951,82.7195122 C156.402439,82.7195122 159.460976,83.8317073 162.658537,86.195122 L162.658537,86.195122 L168.358537,78.4097561 C166.412195,76.4634146 164.187805,75.0731707 161.685366,73.9609756 C159.182927,72.9878049 156.541463,72.4317073 153.9,72.4317073 C151.258537,72.4317073 148.895122,72.9878049 146.670732,74.1 C144.446341,75.2121951 142.778049,76.602439 141.387805,78.5487805 C139.997561,80.495122 139.441463,82.4414634 139.441463,84.804878 C139.441463,87.0292683 139.997561,89.1146341 141.387805,90.9219512 C142.639024,92.7292683 144.307317,94.2585366 146.392683,95.2317073 C148.478049,96.204878 150.702439,96.7609756 153.343902,96.7609756 C154.595122,96.7609756 155.707317,96.9 156.541463,97.1780488 C157.37561,97.4560976 157.792683,98.0121951 157.792683,98.7073171 C157.792683,99.402439 157.37561,99.9585366 156.541463,100.514634 C155.707317,100.931707 154.595122,101.209756 153.204878,101.209756 C151.67561,101.209756 150.285366,100.931707 148.756098,100.236585 C147.226829,99.5414634 145.97561,98.5682927 144.863415,97.4560976 L144.863415,97.4560976 L138.05122,104.963415 C139.858537,106.909756 141.943902,108.578049 144.72439,109.690244 C147.643902,110.802439 150.285366,111.497561 153.065854,111.497561 Z" id="BUCKS_black" fill="#020203"></path>
                        <g id="BUCKS" transform="translate(0.000000, 69.512195)" fill="url(#radialGradient-1)">
                            <path d="M8.6195122,41.5682927 C15.7097561,41.5682927 20.9926829,40.595122 24.3292683,38.7878049 C27.804878,36.8414634 29.4731707,34.0609756 29.4731707,30.3073171 C29.4731707,28.5 29.195122,26.8317073 28.3609756,25.302439 C27.5268293,23.7731707 26.6926829,22.6609756 25.5804878,21.8268293 C24.4682927,20.9926829 23.0780488,20.5756098 21.5487805,20.5756098 C21.1317073,20.5756098 20.7146341,20.5756098 20.4365854,20.5756098 C22.2439024,20.297561 23.495122,19.1853659 24.6073171,17.6560976 C25.7195122,15.9878049 26.2756098,14.1804878 26.2756098,12.095122 C26.2756098,10.4268293 25.7195122,8.89756098 24.4682927,7.50731707 C23.2170732,6.11707317 21.6878049,5.00487805 19.8804878,4.17073171 C18.0731707,3.33658537 15.9878049,2.9195122 13.902439,2.9195122 C11.6780488,2.9195122 9.31463415,3.05853659 6.81219512,3.33658537 C4.3097561,3.61463415 2.50243902,4.17073171 1.25121951,4.86585366 L1.25121951,4.86585366 L1.11219512,41.4292683 L8.6195122,41.5682927 L8.6195122,41.5682927 Z M12.095122,17.1 C11.5390244,17.1 10.9829268,17.1 10.5658537,16.9609756 L10.5658537,16.9609756 L10.5658537,11.2609756 C11.2609756,10.9829268 12.095122,10.704878 12.9292683,10.704878 C14.0414634,10.704878 15.0146341,10.9829268 15.7097561,11.5390244 C16.404878,12.095122 16.8219512,12.7902439 16.8219512,13.7634146 C16.8219512,14.7365854 16.404878,15.5707317 15.2926829,16.1268293 C14.4585366,16.8219512 13.4853659,17.1 12.095122,17.1 Z M12.7902439,33.3658537 C12.095122,33.3658537 11.4,33.2268293 10.704878,32.9487805 L10.704878,32.9487805 L10.704878,26.2756098 C11.8170732,25.7195122 12.9292683,25.4414634 14.1804878,25.4414634 C15.4317073,25.4414634 16.5439024,25.7195122 17.3780488,26.4146341 C18.2121951,27.1097561 18.7682927,27.9439024 18.7682927,28.9170732 C18.7682927,30.1682927 18.2121951,31.2804878 16.9609756,32.1146341 C15.8487805,32.9487805 14.4585366,33.3658537 12.7902439,33.3658537 Z M46.295122,41.9853659 C49.6317073,41.9853659 52.4121951,41.1512195 54.7756098,39.3439024 C57.1390244,37.5365854 58.9463415,35.0341463 60.3365854,31.5585366 C61.7268293,28.2219512 62.2829268,24.3292683 62.2829268,19.8804878 C62.2829268,13.3463415 61.4487805,7.50731707 59.6414634,2.50243902 C54.2195122,4.03170732 48.2414634,2.9195122 48.9365854,5.56097561 C49.6317073,8.06341463 50.1878049,10.8439024 50.604878,13.6243902 C51.0219512,16.404878 51.3,18.4902439 51.3,19.8804878 C51.3,27.9439024 49.6317073,31.9756098 46.295122,31.9756098 C42.8195122,31.9756098 41.1512195,27.9439024 41.1512195,19.602439 L41.2902439,18.0731707 C41.5682927,15.2926829 41.7073171,12.9292683 41.9853659,10.9829268 C42.1243902,9.03658537 42.402439,7.36829268 42.8195122,5.83902439 C37.397561,4.58780488 33.3658537,-1.66829268 31.9756098,3.19756098 C30.5853659,8.06341463 30.0292683,13.3463415 30.0292683,18.9073171 C30.0292683,23.6341463 30.7243902,27.6658537 31.9756098,31.1414634 C33.3658537,34.6170732 35.1731707,37.2585366 37.6756098,39.0658537 C39.9,41.1512195 42.9585366,41.9853659 46.295122,41.9853659 Z M82.4414634,41.8463415 C85.0829268,41.8463415 87.7243902,41.2902439 90.2268293,40.0390244 C92.7292683,38.9268293 94.8146341,37.2585366 96.4829268,35.3121951 C98.1512195,33.3658537 99.2634146,31.1414634 99.6804878,28.7780488 L99.6804878,28.7780488 L91.4780488,25.997561 C91.2,26.8317073 90.7829268,27.6658537 89.9487805,28.5 C89.1146341,29.3341463 88.1414634,30.1682927 86.8902439,30.7243902 C85.6390244,31.2804878 84.3878049,31.5585366 82.997561,31.5585366 C81.3292683,31.5585366 79.9390244,31.1414634 78.6878049,30.4463415 C77.297561,29.7512195 76.3243902,28.5 75.4902439,27.1097561 C74.6560976,25.5804878 74.2390244,23.9121951 74.2390244,21.9658537 C74.2390244,19.0463415 75.0731707,16.8219512 76.7414634,15.1536585 C78.4097561,13.6243902 80.6341463,12.7902439 83.1365854,12.7902439 C85.2219512,12.7902439 87.0292683,13.3463415 88.5585366,14.4585366 C90.0878049,15.5707317 91.0609756,16.8219512 91.6170732,18.3512195 L91.6170732,18.3512195 L100.37561,15.7097561 C99.6804878,12.9292683 98.4292683,10.5658537 96.7609756,8.6195122 C95.0926829,6.67317073 93.0073171,5.14390244 90.7829268,4.3097561 C88.5585366,3.33658537 86.0560976,2.9195122 83.4146341,2.9195122 C79.9390244,2.9195122 76.7414634,3.75365854 73.8219512,5.56097561 C70.902439,7.36829268 68.5390244,9.59268293 66.8707317,12.5121951 C65.0634146,15.4317073 64.3682927,18.6292683 64.3682927,22.2439024 C64.3682927,25.7195122 65.202439,28.9170732 66.8707317,31.9756098 C68.5390244,35.0341463 70.7634146,37.397561 73.6829268,39.204878 C76.1853659,40.8731707 79.2439024,41.8463415 82.4414634,41.8463415 Z M126.512195,43.097561 L134.853659,35.7292683 L122.063415,20.4365854 L132.490244,10.0097561 L124.565854,2.64146341 L111.636585,15.2926829 L111.636585,3.47560976 L101.626829,3.47560976 L101.626829,41.2902439 L111.636585,41.2902439 L111.636585,30.8634146 L114.417073,28.0829268 L126.512195,43.097561 Z M151.67561,41.9853659 C154.456098,41.9853659 157.097561,41.4292683 159.460976,40.1780488 C161.82439,38.9268293 163.770732,37.2585366 165.160976,35.1731707 C166.55122,33.0878049 167.246341,30.7243902 167.246341,28.2219512 C167.246341,25.8585366 166.690244,23.9121951 165.439024,22.2439024 C164.187805,20.5756098 162.519512,19.3243902 160.434146,18.4902439 C158.34878,17.6560976 155.985366,17.2390244 153.204878,17.2390244 C151.67561,17.2390244 150.42439,17.1 149.312195,16.8219512 C148.2,16.5439024 147.643902,15.9878049 147.643902,15.4317073 C147.643902,14.8756098 148.060976,14.3195122 149.034146,13.902439 C150.007317,13.4853659 150.980488,13.2073171 152.231707,13.2073171 C155.012195,13.2073171 158.070732,14.3195122 161.268293,16.6829268 L161.268293,16.6829268 L166.968293,8.89756098 C165.021951,6.95121951 162.797561,5.56097561 160.295122,4.44878049 C157.792683,3.47560976 155.15122,2.9195122 152.509756,2.9195122 C149.868293,2.9195122 147.504878,3.47560976 145.280488,4.58780488 C143.056098,5.7 141.387805,7.0902439 139.997561,9.03658537 C138.607317,10.9829268 138.05122,12.9292683 138.05122,15.2926829 C138.05122,17.5170732 138.607317,19.602439 139.997561,21.4097561 C141.24878,23.2170732 142.917073,24.7463415 145.002439,25.7195122 C147.087805,26.6926829 149.312195,27.2487805 151.953659,27.2487805 C153.204878,27.2487805 154.317073,27.3878049 155.15122,27.6658537 C155.985366,27.9439024 156.402439,28.5 156.402439,29.195122 C156.402439,29.8902439 155.985366,30.4463415 155.15122,31.002439 C154.317073,31.4195122 153.204878,31.697561 151.814634,31.697561 C150.285366,31.697561 148.895122,31.4195122 147.365854,30.7243902 C145.836585,30.0292683 144.585366,29.0560976 143.473171,27.9439024 L143.473171,27.9439024 L136.660976,35.4512195 C138.468293,37.397561 140.553659,39.0658537 143.334146,40.1780488 C146.253659,41.2902439 149.034146,41.9853659 151.67561,41.9853659 Z" id="path-2"></path>
                        </g>
                        <path d="M167.107317,62.5609756 C166.968293,62.4219512 166.968293,62.1439024 167.107317,62.004878 C167.107317,61.8658537 167.246341,61.7268293 167.246341,61.5878049 C167.246341,60.0585366 166.412195,59.7804878 166.134146,58.1121951 C165.578049,55.0536585 164.604878,53.2463415 164.743902,50.1878049 C164.743902,49.7707317 164.743902,49.3536585 164.187805,49.2146341 C162.658537,48.797561 161.546341,46.7121951 161.546341,44.904878 C161.546341,43.7926829 161.685366,42.9585366 161.963415,41.8463415 C161.963415,41.5682927 162.102439,40.7341463 162.241463,40.7341463 C162.241463,40.7341463 162.241463,40.8731707 162.519512,40.8731707 C162.658537,40.8731707 162.936585,40.595122 162.936585,40.0390244 C163.07561,38.5097561 162.797561,38.0926829 162.519512,37.6756098 C160.990244,35.1731707 160.712195,35.0341463 159.460976,33.9219512 C158.487805,33.0878049 156.958537,32.3926829 156.680488,32.3926829 C155.985366,32.2536585 155.846341,32.1146341 154.734146,32.1146341 C153.621951,32.1146341 152.64878,32.2536585 150.980488,32.2536585 C149.312195,32.1146341 147.782927,32.1146341 146.114634,31.8365854 C145.697561,31.8365854 145.280488,31.697561 144.863415,31.4195122 C143.334146,30.4463415 142.082927,29.195122 142.082927,27.5268293 C142.082927,24.4682927 142.5,25.1634146 143.890244,25.1634146 C144.307317,25.1634146 144.72439,25.0243902 144.863415,24.7463415 C145.141463,24.3292683 145.280488,23.9121951 145.280488,23.2170732 C145.280488,22.104878 145.002439,21.8268293 144.168293,21.4097561 C143.75122,21.1317073 143.334146,20.8536585 143.056098,20.297561 C143.056098,20.297561 143.056098,20.1585366 143.195122,20.0195122 C144.446341,20.1585366 145.419512,20.0195122 145.97561,18.6292683 C145.97561,18.3512195 146.114634,18.0731707 146.253659,17.9341463 C146.392683,17.795122 146.531707,17.5170732 146.670732,17.3780488 L146.670732,17.3780488 L146.670732,17.3780488 C146.94878,16.8219512 146.809756,16.5439024 146.531707,16.5439024 C146.531707,16.5439024 146.392683,16.5439024 146.253659,16.5439024 C145.836585,16.5439024 145.280488,16.8219512 144.863415,16.9609756 C144.029268,17.3780488 143.195122,17.795122 142.360976,18.2121951 C142.360976,18.2121951 142.221951,18.0731707 142.082927,17.9341463 L142.082927,17.9341463 C142.5,17.2390244 142.917073,16.6829268 143.612195,16.5439024 C144.168293,16.404878 145.836585,16.1268293 146.392683,15.9878049 C147.087805,15.8487805 147.782927,15.7097561 148.339024,15.4317073 C148.478049,15.4317073 151.67561,14.7365854 152.787805,13.4853659 C153.9,12.2341463 154.178049,9.59268293 153.9,9.31463415 C153.760976,9.17560976 153.204878,10.9829268 152.926829,11.6780488 C152.509756,12.5121951 151.67561,13.0682927 150.841463,13.4853659 C150.007317,13.902439 149.173171,14.0414634 148.339024,14.1804878 L148.339024,14.1804878 C148.339024,13.902439 148.756098,13.6243902 148.895122,13.3463415 C149.173171,13.0682927 149.45122,12.5121951 149.729268,12.095122 C150.007317,11.6780488 150.285366,11.2609756 150.563415,10.704878 C150.702439,10.5658537 150.702439,10.4268293 150.980488,10.2878049 C151.258537,10.1487805 151.536585,10.1487805 151.814634,10.1487805 C152.509756,10.0097561 153.343902,9.59268293 153.760976,8.89756098 C154.178049,8.34146341 154.317073,7.50731707 154.317073,6.81219512 C154.317073,6.11707317 154.317073,5.42195122 154.317073,4.72682927 C154.595122,4.17073171 154.734146,3.61463415 154.734146,3.05853659 C154.734146,2.9195122 154.595122,2.22439024 154.595122,2.50243902 C154.456098,2.64146341 154.456098,3.05853659 154.456098,3.19756098 C154.456098,3.33658537 154.456098,3.47560976 154.317073,3.75365854 C154.178049,3.05853659 154.039024,1.80731707 153.9,1.80731707 C153.9,1.80731707 153.760976,2.08536585 153.760976,2.36341463 C153.760976,3.33658537 153.9,4.17073171 153.9,4.86585366 C153.9,5.00487805 153.760976,5.14390244 153.621951,5.14390244 C153.482927,5.28292683 153.343902,5.42195122 153.343902,5.56097561 C153.343902,5.56097561 153.343902,5.56097561 153.204878,5.7 C153.065854,5.7 152.926829,5.7 152.926829,5.56097561 C152.926829,5.56097561 152.787805,5.42195122 152.787805,5.28292683 C152.370732,4.17073171 151.814634,3.19756098 151.258537,2.08536585 C151.258537,1.94634146 151.119512,1.52926829 150.841463,1.3902439 C150.702439,1.25121951 150.702439,1.94634146 150.841463,2.22439024 C150.980488,2.9195122 151.258537,3.61463415 151.536585,4.17073171 C151.814634,4.86585366 151.953659,5.7 151.814634,6.39512195 C151.67561,7.36829268 150.980488,8.20243902 150.563415,9.03658537 C150.563415,9.17560976 150.42439,9.31463415 150.285366,9.45365854 C150.285366,9.45365854 150.146341,9.45365854 150.007317,9.45365854 C149.729268,9.45365854 149.312195,9.31463415 149.173171,9.17560976 C149.034146,8.89756098 148.895122,7.78536585 148.895122,7.36829268 C148.895122,4.72682927 148.339024,3.75365854 148.060976,3.89268293 C147.782927,3.89268293 148.2,5.14390244 148.060976,6.95121951 C148.060976,7.50731707 148.060976,8.75853659 148.060976,9.59268293 C148.060976,9.73170732 148.060976,9.87073171 148.060976,10.0097561 C148.060976,10.2878049 148.339024,10.4268293 148.478049,10.704878 C148.617073,10.9829268 149.034146,11.2609756 148.895122,11.5390244 C148.756098,11.9560976 148.478049,12.3731707 148.339024,12.6512195 C148.2,12.9292683 147.921951,13.3463415 147.643902,13.6243902 C147.504878,13.902439 147.226829,14.3195122 146.94878,14.4585366 C146.670732,14.597561 146.253659,14.7365854 145.836585,14.8756098 C145.419512,15.0146341 145.141463,15.0146341 144.585366,15.1536585 C144.446341,15.1536585 144.029268,15.1536585 144.029268,15.1536585 C144.168293,15.0146341 144.029268,15.0146341 144.307317,14.8756098 C144.72439,14.4585366 145.002439,14.0414634 145.280488,13.4853659 C145.419512,13.2073171 145.419512,12.9292683 145.419512,12.6512195 C145.419512,12.5121951 145.419512,12.2341463 145.419512,11.9560976 C145.419512,11.6780488 145.141463,12.2341463 145.002439,12.5121951 C144.72439,13.3463415 144.168293,14.0414634 143.612195,14.4585366 C143.334146,14.7365854 143.195122,14.8756098 142.639024,15.4317073 C142.360976,15.7097561 141.526829,16.6829268 140.831707,17.3780488 C140.692683,17.3780488 140.414634,17.3780488 140.136585,17.3780488 C139.997561,17.3780488 139.719512,17.3780488 139.441463,17.3780488 L139.441463,17.3780488 C138.468293,16.8219512 138.329268,16.404878 137.912195,16.1268293 C137.634146,15.9878049 136.8,15.2926829 136.382927,14.8756098 C135.826829,14.3195122 135.270732,13.7634146 134.992683,13.3463415 C134.992683,13.3463415 134.853659,12.9292683 134.714634,12.7902439 C134.436585,12.7902439 134.714634,13.2073171 134.714634,13.4853659 C134.853659,14.1804878 135.270732,14.1804878 135.270732,15.0146341 C133.185366,14.1804878 131.934146,12.6512195 130.682927,10.8439024 C130.682927,10.704878 130.543902,10.5658537 130.543902,10.4268293 C130.543902,10.1487805 130.821951,10.0097561 130.960976,9.87073171 C131.934146,9.17560976 132.35122,7.92439024 132.629268,6.81219512 C132.768293,5.83902439 132.629268,4.58780488 132.629268,3.61463415 C132.629268,3.05853659 132.907317,1.80731707 132.768293,1.52926829 C132.629268,1.25121951 131.934146,3.47560976 131.934146,4.58780488 C131.934146,5.56097561 131.934146,6.53414634 131.656098,7.50731707 C131.378049,8.4804878 130.543902,9.31463415 129.570732,9.31463415 C129.570732,9.31463415 129.431707,9.31463415 129.431707,9.17560976 C129.431707,8.34146341 129.570732,7.22926829 129.709756,6.53414634 C129.709756,6.25609756 129.84878,5.7 129.709756,5.83902439 C129.431707,5.97804878 128.87561,7.36829268 128.736585,8.34146341 C128.041463,7.78536585 128.180488,6.67317073 128.180488,5.83902439 C128.180488,4.44878049 128.319512,3.89268293 128.458537,2.64146341 C128.458537,2.50243902 128.597561,1.3902439 128.319512,1.52926829 C128.041463,1.66829268 127.207317,5.00487805 127.207317,6.95121951 C127.207317,7.64634146 127.346341,8.75853659 128.041463,9.17560976 C127.485366,9.17560976 126.373171,8.20243902 126.234146,7.78536585 C125.956098,7.0902439 126.095122,6.39512195 126.234146,5.7 C126.373171,5.00487805 126.65122,3.61463415 126.512195,3.33658537 C126.512195,3.05853659 126.095122,3.61463415 126.095122,3.89268293 C125.817073,4.72682927 125.539024,5.56097561 125.4,6.53414634 C125.4,7.36829268 125.4,8.34146341 125.956098,9.03658537 C126.373171,9.59268293 127.068293,10.1487805 127.763415,10.4268293 C128.319512,10.5658537 128.87561,10.704878 129.292683,11.1219512 C129.570732,11.2609756 129.709756,11.6780488 129.84878,11.9560976 C130.404878,12.9292683 131.239024,13.902439 132.073171,14.7365854 C131.1,14.7365854 130.126829,14.597561 129.292683,14.3195122 C128.458537,14.0414634 127.62439,13.3463415 127.207317,12.5121951 C126.790244,11.6780488 126.234146,10.0097561 126.095122,10.1487805 C125.817073,10.2878049 126.234146,13.2073171 127.485366,14.3195122 C128.319512,15.1536585 129.987805,15.8487805 131.378049,15.8487805 C131.795122,15.8487805 132.212195,15.8487805 132.768293,15.9878049 C133.32439,16.1268293 133.880488,16.404878 134.436585,16.5439024 C134.992683,16.6829268 135.54878,16.8219512 136.104878,17.1 C136.8,17.3780488 137.078049,17.795122 137.495122,18.3512195 C137.078049,18.7682927 136.939024,18.9073171 136.521951,18.4902439 C135.965854,18.0731707 135.409756,17.5170732 134.714634,17.2390244 C133.880488,16.9609756 132.907317,16.6829268 132.073171,16.404878 C131.517073,16.404878 132.490244,18.0731707 132.768293,18.9073171 C133.046341,20.0195122 133.880488,20.5756098 134.992683,20.5756098 C135.409756,20.5756098 135.687805,20.4365854 136.243902,20.4365854 C136.104878,22.5219512 135.687805,25.0243902 135.54878,26.1365854 C134.992683,28.9170732 134.714634,31.8365854 134.992683,34.6170732 C135.270732,36.4243902 135.409756,38.2317073 135.826829,40.0390244 C135.965854,40.8731707 136.243902,41.9853659 136.8,42.5414634 C137.217073,42.9585366 137.217073,43.3756098 136.8,44.0707317 C135.54878,46.295122 134.57561,47.9634146 132.768293,49.2146341 C131.934146,49.9097561 131.934146,51.1609756 132.490244,52.1341463 C132.629268,52.4121951 132.907317,53.3853659 132.907317,53.3853659 C133.185366,54.9146341 134.019512,57.2780488 134.853659,59.0853659 C134.853659,59.2243902 135.270732,59.2243902 135.270732,59.2243902 C135.270732,59.3634146 135.270732,59.6414634 135.54878,59.9195122 C135.54878,59.9195122 135.826829,60.197561 135.965854,60.3365854 C136.382927,60.6146341 137.078049,61.0317073 137.356098,60.8926829 C137.912195,60.7536585 137.495122,59.502439 137.217073,58.6682927 C137.078049,58.1121951 137.078049,57.8341463 136.660976,57.8341463 C136.521951,57.8341463 136.243902,57.5560976 136.243902,57.5560976 C136.243902,57.2780488 136.382927,57.1390244 136.243902,57 C135.54878,56.1658537 135.270732,55.0536585 134.853659,54.0804878 C134.714634,53.6634146 134.57561,52.5512195 134.853659,51.995122 C135.131707,51.1609756 135.826829,50.3268293 136.8,49.9097561 C137.356098,49.6317073 137.912195,49.0756098 138.468293,48.6585366 C139.163415,48.102439 139.719512,47.2682927 140.414634,46.8512195 C141.109756,46.4341463 142.221951,46.5731707 142.5,46.8512195 C142.639024,46.9902439 142.778049,47.8243902 142.639024,48.102439 C142.221951,49.6317073 141.804878,51.0219512 141.526829,52.4121951 C141.526829,52.6902439 140.692683,53.6634146 140.692683,53.9414634 C140.692683,54.2195122 140.692683,54.6365854 140.692683,55.4707317 C140.692683,57.8341463 139.580488,62.1439024 139.719512,62.7 C139.719512,62.8390244 139.719512,62.8390244 139.719512,63.1170732 C139.580488,63.2560976 139.163415,64.2292683 139.02439,64.6463415 C138.885366,65.0634146 139.02439,65.4804878 139.858537,65.4804878 C141.109756,65.4804878 141.804878,65.202439 141.804878,64.7853659 C141.804878,64.2292683 141.804878,63.9512195 141.804878,63.6731707 C141.804878,63.5341463 142.221951,63.6731707 142.221951,63.2560976 C142.221951,62.4219512 142.221951,59.9195122 142.360976,59.0853659 C142.5,58.1121951 142.5,57.2780488 142.639024,57 C142.917073,56.304878 142.917073,56.5829268 143.334146,55.7487805 C143.612195,55.1926829 143.334146,54.0804878 143.612195,53.802439 C144.585366,52.1341463 145.836585,49.9097561 146.670732,48.102439 C146.809756,47.8243902 146.94878,47.5463415 147.226829,47.5463415 C147.921951,47.5463415 149.173171,47.5463415 149.590244,48.3804878 C150.285366,50.0487805 151.397561,51.3 152.926829,52.2731707 C153.621951,52.6902439 153.760976,53.2463415 153.482927,54.2195122 C152.926829,56.304878 151.953659,58.5292683 151.397561,60.0585366 C150.980488,61.3097561 150.563415,61.8658537 150.007317,62.5609756 C149.868293,62.7 149.868293,63.2560976 149.729268,63.2560976 C149.312195,63.8121951 148.478049,64.5073171 148.617073,65.202439 C148.617073,65.4804878 150.42439,65.3414634 150.702439,65.3414634 C150.980488,65.3414634 151.397561,65.202439 151.397561,64.7853659 C151.397561,64.5073171 151.67561,64.0902439 151.814634,64.0902439 C151.953659,64.0902439 152.231707,64.0902439 152.231707,63.8121951 C152.926829,60.6146341 154.317073,57.695122 156.12439,55.0536585 C156.541463,54.3585366 156.958537,53.6634146 157.37561,53.1073171 C157.653659,52.5512195 157.653659,52.2731707 157.236585,51.7170732 C156.541463,50.8829268 155.846341,49.9097561 155.290244,48.9365854 C155.15122,48.6585366 154.873171,47.5463415 155.15122,47.5463415 C155.429268,47.5463415 155.568293,47.9634146 155.707317,48.102439 C156.819512,49.9097561 158.626829,51.0219512 160.573171,51.5780488 C162.380488,52.1341463 163.492683,53.1073171 164.04878,54.9146341 C164.604878,57 165.439024,59.0853659 165.995122,61.0317073 C166.134146,61.4487805 165.995122,62.5609756 165.995122,62.9780488 C165.995122,63.1170732 166.134146,63.1170732 166.134146,63.2560976 C166.134146,63.395122 166.134146,63.8121951 165.995122,64.2292683 C165.995122,64.5073171 165.717073,65.3414634 165.995122,65.6195122 C166.273171,65.7585366 167.663415,65.202439 168.080488,64.6463415 C167.385366,63.395122 167.385366,62.8390244 167.107317,62.5609756 Z M153.065854,5.97804878 C153.065854,5.83902439 153.204878,5.83902439 153.343902,5.7 C153.343902,5.97804878 153.343902,6.39512195 153.204878,6.95121951 C153.204878,7.36829268 153.065854,7.78536585 152.787805,8.06341463 C152.370732,8.6195122 151.67561,8.75853659 151.119512,8.89756098 C151.536585,7.78536585 152.231707,6.95121951 153.065854,5.97804878 Z" id="Reindeer_1_" fill="#020203"></path>
                        <path d="M22.8,64.9243902 L26.8317073,45.8780488 L27.6658537,64.9243902 L36.1463415,64.6463415 L34.7560976,32.9487805 L21.5487805,32.9487805 L18.3512195,50.1878049 L13.6243902,33.2268293 L7.0902439,33.0878049 L0.973170732,32.6707317 L0.973170732,64.6463415 L9.45365854,64.6463415 L9.73170732,47.2682927 L14.4585366,65.0634146 L22.8,65.0634146 L22.8,64.9243902 Z M39.0658537,64.7853659 L61.4487805,64.2292683 L61.4487805,55.8878049 L47.5463415,56.4439024 L47.4073171,52.4121951 L59.2243902,52.2731707 L58.8073171,43.7926829 L46.9902439,44.0707317 L46.8512195,40.7341463 L61.1707317,40.595122 L60.6146341,32.2536585 L38.2317073,32.9487805 L39.0658537,64.7853659 Z M78.2707317,64.9243902 C79.2439024,64.9243902 80.2170732,64.7853659 81.3292683,64.6463415 C83.4146341,64.2292683 85.3609756,63.2560976 87.1682927,61.8658537 C88.9756098,60.4756098 90.2268293,58.8073171 91.2,56.8609756 C92.1731707,54.9146341 92.7292683,52.9682927 92.7292683,50.8829268 C92.7292683,49.2146341 92.4512195,47.8243902 91.895122,46.4341463 L91.895122,46.4341463 L77.8536585,43.6536585 L76.0463415,51.3 L83.5536585,52.6902439 C83.4146341,53.3853659 82.8585366,54.0804878 81.8853659,54.6365854 C80.9121951,55.1926829 80.0780488,55.6097561 79.104878,55.7487805 C78.6878049,55.7487805 78.2707317,55.8878049 77.8536585,55.8878049 C76.1853659,55.8878049 74.795122,55.3317073 73.404878,54.0804878 C72.0146341,52.9682927 71.3195122,51.4390244 70.902439,49.7707317 C70.902439,49.3536585 70.7634146,48.797561 70.7634146,48.3804878 C70.7634146,46.7121951 71.1804878,45.1829268 72.2926829,43.7926829 C73.2658537,42.402439 74.5170732,41.5682927 76.1853659,41.1512195 C76.8804878,41.0121951 77.4365854,41.0121951 78.1317073,41.0121951 C79.2439024,41.0121951 80.2170732,41.1512195 81.1902439,41.4292683 C82.1634146,41.7073171 82.997561,42.2634146 83.5536585,42.8195122 L83.5536585,42.8195122 L88.002439,35.8682927 C86.8902439,34.7560976 85.3609756,34.0609756 83.5536585,33.504878 C81.7463415,32.9487805 79.8,32.6707317 77.8536585,32.6707317 C76.7414634,32.6707317 75.4902439,32.8097561 74.3780488,32.9487805 C71.8756098,33.504878 69.7902439,34.6170732 67.8439024,36.1463415 C65.897561,37.8146341 64.3682927,39.6219512 63.395122,41.9853659 C62.5609756,44.3487805 62.004878,46.7121951 62.004878,49.2146341 C62.004878,50.3268293 62.004878,51.3 62.2829268,52.2731707 C62.8390244,54.7756098 63.9512195,57 65.4804878,58.9463415 C67.1487805,60.8926829 68.9560976,62.4219512 71.3195122,63.5341463 C73.5439024,64.3682927 75.9073171,64.9243902 78.2707317,64.9243902 Z M115.25122,64.7853659 L123.731707,62.8390244 L113.860976,32.9487805 L105.380488,32.9487805 L91.4780488,61.1707317 L99.9585366,64.6463415 L102.6,57.9731707 L113.304878,57.9731707 L115.25122,64.7853659 Z M111.080488,49.3536585 L105.936585,49.3536585 L108.995122,41.8463415 L111.080488,49.3536585 Z" id="MEGA" fill="#020203"></path>
                        <path d="M4.17073171,26.5536585 C4.3097561,26.5536585 4.44878049,26.5536585 4.58780488,26.2756098 L4.58780488,26.2756098 L6.67317073,22.8 L7.36829268,26.2756098 C7.36829268,26.4146341 7.50731707,26.5536585 7.64634146,26.5536585 L7.64634146,26.5536585 L8.75853659,26.5536585 C8.89756098,26.5536585 9.03658537,26.5536585 9.17560976,26.2756098 L9.17560976,26.2756098 L15.0146341,16.5439024 C15.0146341,16.5439024 15.0146341,16.404878 15.0146341,16.404878 C15.0146341,16.404878 15.0146341,16.404878 15.0146341,16.2658537 C15.0146341,16.2658537 15.0146341,16.2658537 14.8756098,16.2658537 L14.8756098,16.2658537 L13.2073171,16.2658537 C13.2073171,16.2658537 13.0682927,16.2658537 13.0682927,16.2658537 C13.0682927,16.2658537 12.9292683,16.404878 12.9292683,16.404878 L12.9292683,16.404878 L8.6195122,23.7731707 L8.20243902,20.4365854 L10.5658537,16.5439024 C10.5658537,16.5439024 10.5658537,16.404878 10.5658537,16.404878 C10.5658537,16.404878 10.5658537,16.404878 10.5658537,16.2658537 C10.5658537,16.2658537 10.5658537,16.2658537 10.4268293,16.2658537 L10.4268293,16.2658537 L8.75853659,16.2658537 C8.6195122,16.2658537 8.4804878,16.2658537 8.34146341,16.5439024 L8.34146341,16.5439024 L4.3097561,23.7731707 L3.19756098,16.5439024 C3.19756098,16.404878 3.05853659,16.2658537 2.9195122,16.2658537 L2.9195122,16.2658537 L1.52926829,16.2658537 C1.52926829,16.2658537 1.3902439,16.2658537 1.3902439,16.2658537 C1.3902439,16.2658537 1.3902439,16.404878 1.3902439,16.404878 L1.3902439,16.404878 L3.19756098,25.997561 C3.19756098,26.1365854 3.33658537,26.2756098 3.47560976,26.2756098 L3.47560976,26.2756098 L4.17073171,26.5536585 L4.17073171,26.5536585 Z M17.6560976,16.6829268 C17.795122,16.6829268 17.9341463,16.6829268 17.9341463,16.6829268 C17.9341463,16.6829268 18.0731707,16.5439024 18.0731707,16.404878 L18.0731707,16.404878 L18.3512195,15.1536585 C18.3512195,15.1536585 18.3512195,15.1536585 18.3512195,15.0146341 C18.3512195,14.8756098 18.2121951,14.7365854 18.0731707,14.7365854 L18.0731707,14.7365854 L16.8219512,14.7365854 C16.5439024,14.7365854 16.404878,14.8756098 16.2658537,15.1536585 L16.2658537,15.1536585 L15.9878049,16.404878 C15.9878049,16.404878 15.9878049,16.404878 15.9878049,16.5439024 C15.9878049,16.6829268 16.1268293,16.8219512 16.2658537,16.8219512 L16.2658537,16.8219512 L17.6560976,16.6829268 L17.6560976,16.6829268 Z M15.7097561,26.5536585 C15.8487805,26.5536585 15.9878049,26.5536585 15.9878049,26.2756098 L15.9878049,26.2756098 L17.795122,18.0731707 L17.795122,18.0731707 C17.795122,18.0731707 17.795122,17.9341463 17.795122,17.9341463 C17.795122,17.9341463 17.795122,17.9341463 17.6560976,17.9341463 L17.6560976,17.9341463 L16.2658537,17.9341463 C16.2658537,17.9341463 16.1268293,17.9341463 16.1268293,17.9341463 C16.1268293,17.9341463 15.9878049,18.0731707 15.9878049,18.0731707 L15.9878049,18.0731707 L14.1804878,26.2756098 C14.1804878,26.2756098 14.1804878,26.2756098 14.1804878,26.2756098 C14.1804878,26.4146341 14.1804878,26.4146341 14.3195122,26.4146341 L14.3195122,26.4146341 C14.3195122,26.5536585 15.7097561,26.5536585 15.7097561,26.5536585 Z M20.7146341,26.6926829 C21.2707317,26.6926829 21.8268293,26.6926829 22.3829268,26.4146341 C22.9390244,26.2756098 23.3560976,25.997561 23.7731707,25.5804878 C24.1902439,25.1634146 24.3292683,24.7463415 24.4682927,24.0512195 C24.4682927,23.9121951 24.4682927,23.6341463 24.4682927,23.495122 C24.4682927,23.0780488 24.3292683,22.6609756 24.0512195,22.2439024 C23.7731707,21.9658537 23.3560976,21.6878049 22.6609756,21.4097561 L22.6609756,21.4097561 L22.3829268,21.2707317 C21.9658537,21.1317073 21.6878049,21.1317073 21.5487805,20.9926829 C21.4097561,20.9926829 21.2707317,20.8536585 21.1317073,20.7146341 C20.9926829,20.5756098 20.9926829,20.4365854 20.9926829,20.297561 C20.9926829,20.1585366 20.9926829,20.0195122 21.1317073,19.7414634 C21.2707317,19.602439 21.4097561,19.4634146 21.5487805,19.3243902 C21.6878049,19.1853659 21.9658537,19.1853659 22.2439024,19.1853659 C22.5219512,19.1853659 22.8,19.1853659 23.0780488,19.3243902 C23.3560976,19.4634146 23.495122,19.602439 23.6341463,19.8804878 C23.6341463,19.8804878 23.7731707,20.0195122 23.7731707,20.0195122 C23.7731707,20.0195122 23.9121951,20.0195122 23.9121951,20.0195122 L23.9121951,20.0195122 L24.7463415,19.4634146 C24.8853659,19.4634146 24.8853659,19.3243902 24.8853659,19.1853659 C24.8853659,19.1853659 24.8853659,19.1853659 24.8853659,19.0463415 C24.7463415,18.9073171 24.6073171,18.6292683 24.3292683,18.4902439 C24.0512195,18.3512195 23.7731707,18.0731707 23.495122,17.9341463 C23.2170732,17.795122 22.8,17.795122 22.3829268,17.795122 C21.8268293,17.795122 21.2707317,17.9341463 20.7146341,18.0731707 C20.1585366,18.2121951 19.8804878,18.6292683 19.4634146,19.0463415 C19.1853659,19.4634146 19.0463415,19.7414634 18.9073171,20.1585366 C18.9073171,20.297561 18.9073171,20.4365854 18.9073171,20.7146341 C18.9073171,21.2707317 19.0463415,21.6878049 19.4634146,22.104878 C19.7414634,22.3829268 20.297561,22.8 20.9926829,22.9390244 C21.1317073,22.9390244 21.1317073,22.9390244 21.1317073,22.9390244 C21.4097561,22.9390244 21.6878049,23.0780488 21.8268293,23.0780488 C21.9658537,23.0780488 22.104878,23.2170732 22.2439024,23.3560976 C22.2439024,23.3560976 22.3829268,23.495122 22.3829268,23.7731707 C22.3829268,23.7731707 22.3829268,23.9121951 22.3829268,23.9121951 C22.3829268,24.0512195 22.2439024,24.3292683 22.104878,24.4682927 C21.9658537,24.6073171 21.6878049,24.7463415 21.4097561,24.8853659 C21.1317073,24.8853659 20.8536585,25.0243902 20.7146341,25.0243902 C20.297561,25.0243902 20.0195122,25.0243902 19.7414634,24.7463415 C19.602439,24.6073171 19.3243902,24.3292683 19.1853659,24.0512195 C19.1853659,23.9121951 19.0463415,23.9121951 19.0463415,23.9121951 C19.0463415,23.9121951 18.9073171,23.9121951 18.9073171,23.9121951 L18.9073171,23.9121951 L18.0731707,24.4682927 C17.9341463,24.4682927 17.9341463,24.6073171 17.9341463,24.7463415 C17.9341463,24.7463415 17.9341463,24.8853659 17.9341463,24.8853659 C18.0731707,25.302439 18.4902439,25.7195122 19.0463415,25.997561 C19.602439,26.5536585 20.0195122,26.6926829 20.7146341,26.6926829 Z M29.6121951,26.6926829 C30.1682927,26.6926829 30.5853659,26.5536585 31.1414634,26.4146341 C31.697561,26.2756098 32.1146341,25.997561 32.5317073,25.5804878 C32.6707317,25.5804878 32.6707317,25.4414634 32.6707317,25.302439 C32.6707317,25.1634146 32.6707317,25.302439 32.6707317,25.1634146 L32.6707317,25.1634146 L32.1146341,24.0512195 C32.1146341,24.0512195 32.1146341,24.0512195 31.9756098,24.0512195 C31.9756098,24.0512195 31.8365854,24.0512195 31.8365854,24.0512195 C31.5585366,24.1902439 31.4195122,24.3292683 31.1414634,24.4682927 C31.002439,24.4682927 30.7243902,24.6073171 30.5853659,24.7463415 C30.3073171,24.7463415 30.1682927,24.8853659 29.8902439,24.8853659 C29.4731707,24.8853659 29.0560976,24.8853659 28.7780488,24.6073171 C28.5,24.4682927 28.2219512,24.1902439 28.0829268,23.9121951 C27.9439024,23.6341463 27.9439024,23.2170732 27.9439024,22.8 C27.9439024,22.5219512 27.9439024,22.3829268 27.9439024,22.104878 C28.0829268,21.5487805 28.2219512,21.1317073 28.6390244,20.7146341 C28.9170732,20.297561 29.3341463,20.0195122 29.8902439,19.7414634 C30.3073171,19.4634146 30.7243902,19.4634146 31.1414634,19.4634146 C31.4195122,19.4634146 31.8365854,19.4634146 32.1146341,19.602439 C32.3926829,19.7414634 32.6707317,19.8804878 32.9487805,20.0195122 C32.9487805,20.0195122 32.9487805,20.0195122 33.0878049,20.0195122 C33.0878049,20.0195122 33.2268293,20.0195122 33.2268293,20.0195122 L33.2268293,20.0195122 L34.0609756,19.0463415 C34.0609756,19.0463415 34.0609756,18.9073171 34.0609756,18.9073171 C34.0609756,18.9073171 34.0609756,18.7682927 34.0609756,18.7682927 C33.7829268,18.4902439 33.3658537,18.2121951 32.9487805,17.9341463 C32.5317073,17.6560976 31.9756098,17.6560976 31.4195122,17.6560976 C30.5853659,17.6560976 29.8902439,17.795122 29.195122,18.2121951 C28.5,18.6292683 27.804878,19.1853659 27.2487805,19.8804878 C26.6926829,20.5756098 26.4146341,21.2707317 26.1365854,22.104878 C26.1365854,22.3829268 26.1365854,22.6609756 26.1365854,23.0780488 C26.1365854,23.7731707 26.2756098,24.3292683 26.5536585,25.0243902 C26.8317073,25.5804878 27.2487805,25.997561 27.804878,26.2756098 C28.2219512,26.5536585 28.9170732,26.6926829 29.6121951,26.6926829 Z M37.9536585,26.6926829 C38.7878049,26.6926829 39.6219512,26.5536585 40.3170732,26.1365854 C41.0121951,25.7195122 41.7073171,25.1634146 42.2634146,24.4682927 C42.8195122,23.7731707 43.097561,22.9390244 43.3756098,22.2439024 C43.3756098,21.9658537 43.3756098,21.6878049 43.3756098,21.4097561 C43.3756098,20.7146341 43.2365854,20.1585366 42.9585366,19.602439 C42.6804878,19.0463415 42.2634146,18.6292683 41.5682927,18.3512195 C41.0121951,18.0731707 40.3170732,17.9341463 39.6219512,17.9341463 C38.7878049,17.9341463 37.9536585,18.0731707 37.2585366,18.4902439 C36.5634146,18.9073171 35.8682927,19.4634146 35.3121951,20.1585366 C34.7560976,20.8536585 34.4780488,21.5487805 34.2,22.3829268 C34.2,22.6609756 34.2,22.9390244 34.2,23.3560976 C34.2,24.0512195 34.3390244,24.6073171 34.6170732,25.1634146 C34.895122,25.7195122 35.3121951,26.1365854 36.0073171,26.4146341 C36.702439,26.5536585 37.2585366,26.6926829 37.9536585,26.6926829 Z M38.3707317,25.0243902 C37.6756098,25.0243902 37.2585366,24.8853659 36.8414634,24.4682927 C36.5634146,24.1902439 36.2853659,23.6341463 36.2853659,23.0780488 C36.2853659,22.8 36.2853659,22.6609756 36.2853659,22.3829268 C36.2853659,21.9658537 36.5634146,21.4097561 36.8414634,20.9926829 C37.1195122,20.5756098 37.5365854,20.297561 37.9536585,20.0195122 C38.3707317,19.7414634 38.7878049,19.7414634 39.204878,19.7414634 C39.9,19.7414634 40.4560976,19.8804878 40.7341463,20.297561 C41.0121951,20.5756098 41.2902439,21.1317073 41.2902439,21.6878049 C41.2902439,21.8268293 41.2902439,22.104878 41.2902439,22.3829268 C41.1512195,22.8 41.0121951,23.3560976 40.7341463,23.7731707 C40.4560976,24.1902439 40.0390244,24.4682927 39.6219512,24.7463415 C39.204878,24.8853659 38.7878049,25.0243902 38.3707317,25.0243902 Z M45.4609756,26.5536585 C45.6,26.5536585 45.6,26.5536585 45.7390244,26.5536585 C45.7390244,26.5536585 45.8780488,26.4146341 45.8780488,26.4146341 L45.8780488,26.4146341 L46.8512195,21.6878049 C46.8512195,21.2707317 47.1292683,20.9926829 47.4073171,20.5756098 C47.6853659,20.1585366 47.9634146,20.0195122 48.3804878,19.8804878 C48.797561,19.7414634 49.0756098,19.602439 49.3536585,19.602439 C49.7707317,19.602439 50.1878049,19.7414634 50.4658537,20.0195122 C50.7439024,20.297561 50.8829268,20.5756098 50.8829268,21.1317073 C50.8829268,21.2707317 50.8829268,21.4097561 50.8829268,21.5487805 L50.8829268,21.5487805 L49.9097561,26.4146341 C49.9097561,26.4146341 49.9097561,26.4146341 49.9097561,26.4146341 C49.9097561,26.5536585 49.9097561,26.5536585 50.1878049,26.5536585 L50.1878049,26.5536585 L51.5780488,26.5536585 C51.7170732,26.5536585 51.8560976,26.5536585 51.8560976,26.2756098 L51.8560976,26.2756098 L52.8292683,21.6878049 C52.8292683,21.2707317 52.9682927,20.9926829 52.9682927,20.7146341 C52.9682927,20.1585366 52.8292683,19.602439 52.5512195,19.0463415 C52.2731707,18.6292683 51.995122,18.2121951 51.5780488,18.0731707 C51.1609756,17.9341463 50.7439024,17.795122 50.3268293,17.795122 C49.7707317,17.795122 49.3536585,17.9341463 48.797561,18.0731707 C48.3804878,18.2121951 47.8243902,18.6292683 47.4073171,19.1853659 L47.4073171,19.1853659 L47.4073171,18.2121951 C47.4073171,18.2121951 47.4073171,18.0731707 47.4073171,17.9341463 C47.4073171,17.9341463 47.2682927,17.9341463 47.2682927,17.9341463 L47.2682927,17.9341463 L46.295122,17.9341463 C46.1560976,17.9341463 46.0170732,17.9341463 46.0170732,18.2121951 L46.0170732,18.2121951 L44.3487805,26.4146341 C44.3487805,26.4146341 44.3487805,26.4146341 44.3487805,26.4146341 C44.3487805,26.5536585 44.3487805,26.5536585 44.6268293,26.5536585 L44.6268293,26.5536585 L45.4609756,26.5536585 L45.4609756,26.5536585 Z M55.8878049,26.6926829 C56.4439024,26.6926829 57,26.6926829 57.5560976,26.4146341 C58.1121951,26.1365854 58.5292683,25.997561 58.9463415,25.5804878 C59.3634146,25.1634146 59.502439,24.7463415 59.6414634,24.0512195 C59.6414634,23.9121951 59.6414634,23.6341463 59.6414634,23.495122 C59.6414634,23.0780488 59.502439,22.6609756 59.2243902,22.2439024 C58.9463415,21.8268293 58.5292683,21.6878049 57.8341463,21.4097561 L57.8341463,21.4097561 L57.5560976,21.2707317 C57.1390244,21.1317073 56.8609756,21.1317073 56.7219512,20.9926829 C56.5829268,20.9926829 56.4439024,20.8536585 56.304878,20.7146341 C56.1658537,20.5756098 56.1658537,20.4365854 56.1658537,20.297561 C56.1658537,20.1585366 56.1658537,20.0195122 56.304878,19.7414634 C56.4439024,19.602439 56.5829268,19.4634146 56.7219512,19.3243902 C56.8609756,19.1853659 57.1390244,19.1853659 57.4170732,19.1853659 C57.695122,19.1853659 57.9731707,19.1853659 58.2512195,19.3243902 C58.5292683,19.4634146 58.6682927,19.602439 58.8073171,19.8804878 C58.8073171,19.8804878 58.9463415,20.0195122 58.9463415,20.0195122 C58.9463415,20.0195122 59.0853659,20.0195122 59.0853659,20.0195122 L59.0853659,20.0195122 L59.9195122,19.4634146 C60.0585366,19.4634146 60.0585366,19.3243902 60.0585366,19.1853659 C60.0585366,19.1853659 60.0585366,19.1853659 60.0585366,19.0463415 C59.9195122,18.9073171 59.7804878,18.6292683 59.502439,18.4902439 C59.2243902,18.3512195 58.9463415,18.0731707 58.6682927,17.9341463 C58.3902439,17.795122 57.9731707,17.795122 57.5560976,17.795122 C57,17.795122 56.4439024,17.9341463 55.8878049,18.0731707 C55.4707317,18.2121951 55.0536585,18.6292683 54.6365854,19.0463415 C54.3585366,19.4634146 54.2195122,19.7414634 54.0804878,20.1585366 C54.0804878,20.297561 54.0804878,20.4365854 54.0804878,20.7146341 C54.0804878,21.2707317 54.2195122,21.6878049 54.6365854,22.104878 C55.0536585,22.5219512 55.4707317,22.8 56.1658537,22.9390244 C56.304878,22.9390244 56.304878,22.9390244 56.304878,22.9390244 C56.5829268,22.9390244 56.8609756,23.0780488 57,23.0780488 C57.1390244,23.0780488 57.2780488,23.2170732 57.4170732,23.3560976 C57.4170732,23.3560976 57.5560976,23.495122 57.5560976,23.7731707 C57.5560976,23.7731707 57.5560976,23.9121951 57.5560976,23.9121951 C57.5560976,24.0512195 57.4170732,24.3292683 57.2780488,24.4682927 C57.1390244,24.6073171 56.8609756,24.7463415 56.5829268,24.8853659 C56.304878,24.8853659 56.0268293,25.0243902 55.8878049,25.0243902 C55.4707317,25.0243902 55.1926829,25.0243902 54.9146341,24.7463415 C54.7756098,24.6073171 54.497561,24.3292683 54.3585366,24.0512195 C54.3585366,23.9121951 54.2195122,23.9121951 54.2195122,23.9121951 C54.2195122,23.9121951 54.0804878,23.9121951 54.0804878,23.9121951 L54.0804878,23.9121951 L53.2463415,24.4682927 C53.1073171,24.4682927 53.1073171,24.6073171 53.1073171,24.7463415 C53.1073171,24.7463415 53.1073171,24.8853659 53.1073171,24.8853659 C53.2463415,25.302439 53.6634146,25.7195122 54.2195122,25.997561 C54.7756098,26.5536585 55.1926829,26.6926829 55.8878049,26.6926829 Z M64.2292683,16.6829268 C64.3682927,16.6829268 64.5073171,16.6829268 64.5073171,16.6829268 C64.5073171,16.6829268 64.6463415,16.5439024 64.6463415,16.404878 L64.6463415,16.404878 L64.9243902,15.1536585 C64.9243902,15.1536585 64.9243902,15.1536585 64.9243902,15.0146341 C64.9243902,14.8756098 64.7853659,14.7365854 64.6463415,14.7365854 L64.6463415,14.7365854 L63.395122,14.7365854 C63.1170732,14.7365854 62.9780488,14.8756098 62.8390244,15.1536585 L62.8390244,15.1536585 L62.7,16.404878 C62.7,16.404878 62.7,16.404878 62.7,16.5439024 C62.7,16.6829268 62.8390244,16.8219512 62.9780488,16.8219512 L62.9780488,16.8219512 L64.2292683,16.6829268 L64.2292683,16.6829268 Z M62.2829268,26.5536585 C62.4219512,26.5536585 62.5609756,26.5536585 62.5609756,26.2756098 L62.5609756,26.2756098 L64.3682927,18.0731707 L64.3682927,18.0731707 C64.3682927,18.0731707 64.3682927,17.9341463 64.3682927,17.9341463 C64.3682927,17.9341463 64.3682927,17.9341463 64.2292683,17.9341463 L64.2292683,17.9341463 L62.8390244,17.9341463 C62.8390244,17.9341463 62.7,17.9341463 62.7,17.9341463 C62.7,17.9341463 62.5609756,18.0731707 62.5609756,18.0731707 L62.5609756,18.0731707 L60.7536585,26.2756098 C60.7536585,26.2756098 60.7536585,26.2756098 60.7536585,26.2756098 C60.7536585,26.4146341 60.7536585,26.4146341 60.8926829,26.4146341 L60.8926829,26.4146341 L62.2829268,26.4146341 L62.2829268,26.5536585 Z M66.3146341,26.5536585 C66.4536585,26.5536585 66.4536585,26.5536585 66.5926829,26.5536585 C66.5926829,26.5536585 66.7317073,26.4146341 66.7317073,26.4146341 L66.7317073,26.4146341 L67.704878,21.6878049 C67.704878,21.2707317 67.9829268,20.9926829 68.2609756,20.5756098 C68.5390244,20.1585366 68.8170732,20.0195122 69.2341463,19.8804878 C69.6512195,19.7414634 69.9292683,19.602439 70.2073171,19.602439 C70.6243902,19.602439 71.0414634,19.7414634 71.3195122,20.0195122 C71.597561,20.297561 71.7365854,20.5756098 71.7365854,21.1317073 C71.7365854,21.2707317 71.7365854,21.4097561 71.7365854,21.5487805 L71.7365854,21.5487805 L70.7634146,26.4146341 C70.7634146,26.4146341 70.7634146,26.4146341 70.7634146,26.4146341 C70.7634146,26.5536585 70.7634146,26.5536585 71.0414634,26.5536585 L71.0414634,26.5536585 L72.4317073,26.5536585 C72.5707317,26.5536585 72.7097561,26.5536585 72.7097561,26.2756098 L72.7097561,26.2756098 L73.6829268,21.6878049 C73.6829268,21.2707317 73.8219512,20.9926829 73.8219512,20.7146341 C73.8219512,20.1585366 73.6829268,19.602439 73.404878,19.0463415 C73.1268293,18.6292683 72.8487805,18.2121951 72.4317073,18.0731707 C72.0146341,17.9341463 71.597561,17.795122 71.1804878,17.795122 C70.6243902,17.795122 70.2073171,17.9341463 69.6512195,18.0731707 C69.2341463,18.2121951 68.6780488,18.6292683 68.2609756,19.1853659 L68.2609756,19.1853659 L68.2609756,18.2121951 C68.2609756,18.2121951 68.2609756,18.0731707 68.2609756,17.9341463 C68.2609756,17.9341463 68.1219512,17.9341463 68.1219512,17.9341463 L68.1219512,17.9341463 L66.7317073,17.9341463 C66.5926829,17.9341463 66.4536585,17.9341463 66.4536585,18.2121951 L66.4536585,18.2121951 L64.7853659,26.4146341 C64.7853659,26.4146341 64.7853659,26.4146341 64.7853659,26.4146341 C64.7853659,26.5536585 64.7853659,26.5536585 65.0634146,26.5536585 L65.0634146,26.5536585 L66.3146341,26.5536585 L66.3146341,26.5536585 Z M75.6292683,20.0195122 C75.6292683,20.0195122 75.7682927,20.0195122 75.7682927,20.0195122 C76.4634146,19.602439 77.0195122,18.7682927 77.1585366,17.795122 L77.1585366,17.795122 L77.297561,16.8219512 C77.297561,16.8219512 77.297561,16.8219512 77.297561,16.6829268 C77.297561,16.5439024 77.297561,16.5439024 77.0195122,16.5439024 L77.0195122,16.5439024 L75.7682927,16.5439024 C75.6292683,16.5439024 75.4902439,16.6829268 75.4902439,16.8219512 L75.4902439,16.8219512 L75.2121951,17.9341463 C75.2121951,17.9341463 75.2121951,17.9341463 75.2121951,18.0731707 C75.2121951,18.2121951 75.2121951,18.2121951 75.3512195,18.2121951 L75.3512195,18.2121951 L75.6292683,18.2121951 C75.6292683,18.2121951 75.6292683,18.2121951 75.6292683,18.2121951 L75.6292683,18.2121951 C75.6292683,18.3512195 75.6292683,18.4902439 75.4902439,18.6292683 C75.4902439,18.7682927 75.2121951,18.9073171 75.0731707,19.1853659 C75.0731707,19.1853659 75.0731707,19.1853659 75.0731707,19.3243902 C75.0731707,19.3243902 75.0731707,19.3243902 75.0731707,19.4634146 C75.0731707,19.602439 75.0731707,19.4634146 75.0731707,19.602439 L75.0731707,19.602439 L75.3512195,19.8804878 C75.4902439,20.0195122 75.6292683,20.0195122 75.6292683,20.0195122 Z M79.8,26.6926829 C80.3560976,26.6926829 80.9121951,26.6926829 81.4682927,26.4146341 C82.0243902,26.1365854 82.4414634,25.997561 82.8585366,25.5804878 C83.2756098,25.1634146 83.4146341,24.7463415 83.5536585,24.0512195 C83.5536585,23.9121951 83.5536585,23.6341463 83.5536585,23.495122 C83.5536585,23.0780488 83.4146341,22.6609756 83.1365854,22.2439024 C82.8585366,21.9658537 82.4414634,21.6878049 81.7463415,21.4097561 L81.7463415,21.4097561 L81.4682927,21.2707317 C81.0512195,21.1317073 80.7731707,21.1317073 80.6341463,20.9926829 C80.495122,20.9926829 80.3560976,20.8536585 80.2170732,20.7146341 C80.0780488,20.5756098 80.0780488,20.4365854 80.0780488,20.297561 C80.0780488,20.1585366 80.0780488,20.0195122 80.2170732,19.7414634 C80.3560976,19.602439 80.495122,19.4634146 80.6341463,19.3243902 C80.7731707,19.1853659 81.0512195,19.1853659 81.3292683,19.1853659 C81.6073171,19.1853659 81.8853659,19.1853659 82.1634146,19.3243902 C82.4414634,19.4634146 82.5804878,19.602439 82.7195122,19.8804878 C82.7195122,19.8804878 82.8585366,20.0195122 82.8585366,20.0195122 C82.8585366,20.0195122 82.997561,20.0195122 82.997561,20.0195122 L82.997561,20.0195122 L83.8317073,19.4634146 C83.9707317,19.4634146 83.9707317,19.3243902 83.9707317,19.1853659 C83.9707317,19.1853659 83.9707317,19.1853659 83.9707317,19.0463415 C83.8317073,18.9073171 83.6926829,18.6292683 83.4146341,18.4902439 C83.1365854,18.3512195 82.8585366,18.0731707 82.5804878,17.9341463 C82.302439,17.795122 81.8853659,17.795122 81.4682927,17.795122 C80.9121951,17.795122 80.3560976,17.9341463 79.8,18.0731707 C79.3829268,18.2121951 78.9658537,18.6292683 78.5487805,19.0463415 C78.2707317,19.4634146 78.1317073,19.7414634 77.9926829,20.1585366 C77.9926829,20.297561 77.9926829,20.4365854 77.9926829,20.7146341 C77.9926829,21.2707317 78.1317073,21.6878049 78.5487805,22.104878 C78.8268293,22.3829268 79.3829268,22.8 80.0780488,22.9390244 C80.2170732,22.9390244 80.2170732,22.9390244 80.2170732,22.9390244 C80.495122,22.9390244 80.7731707,23.0780488 80.9121951,23.0780488 C81.0512195,23.0780488 81.1902439,23.2170732 81.3292683,23.3560976 C81.3292683,23.3560976 81.4682927,23.495122 81.4682927,23.7731707 C81.4682927,23.7731707 81.4682927,23.9121951 81.4682927,23.9121951 C81.4682927,24.0512195 81.3292683,24.3292683 81.1902439,24.4682927 C81.0512195,24.6073171 80.7731707,24.7463415 80.495122,24.8853659 C80.2170732,24.8853659 79.9390244,25.0243902 79.8,25.0243902 C79.3829268,25.0243902 79.104878,25.0243902 78.8268293,24.7463415 C78.6878049,24.6073171 78.4097561,24.3292683 78.2707317,24.0512195 C78.2707317,23.9121951 78.1317073,23.9121951 78.1317073,23.9121951 C78.1317073,23.9121951 77.9926829,23.9121951 77.9926829,23.9121951 L77.9926829,23.9121951 L77.1585366,24.4682927 C77.0195122,24.4682927 77.0195122,24.6073171 77.0195122,24.7463415 C77.0195122,24.7463415 77.0195122,24.8853659 77.0195122,24.8853659 C77.1585366,25.302439 77.5756098,25.7195122 78.1317073,25.997561 C78.4097561,26.5536585 79.104878,26.6926829 79.8,26.6926829 Z" id="Wisconsin_x2019_s" fill="#45963A"></path>
                    </g>
                </g>
            </g>
        </g>
    </g>
</svg>