<?xml version="1.0" encoding="UTF-8"?>
<svg width="234px" height="130px" viewBox="0 0 234 130" version="1.1" xmlns="http://www.w3.org/2000/svg" xmlns:xlink="http://www.w3.org/1999/xlink">
    <title>monday_lotto</title>
    <defs>
        <radialGradient cx="43.5747415%" cy="38.9824282%" fx="43.5747415%" fy="38.9824282%" r="67.4513775%" id="radialGradient-1">
            <stop stop-color="#AADAF5" offset="0%"></stop>
            <stop stop-color="#23B2E5" offset="59.97%"></stop>
            <stop stop-color="#0090CE" offset="82.16%"></stop>
            <stop stop-color="#C6DBF3" offset="100%"></stop>
        </radialGradient>
        <radialGradient cx="43.6738315%" cy="38.9824282%" fx="43.6738315%" fy="38.9824282%" r="67.4513775%" id="radialGradient-2">
            <stop stop-color="#F3A8C8" offset="0%"></stop>
            <stop stop-color="#DE0D7F" offset="59.97%"></stop>
            <stop stop-color="#C80064" offset="82.16%"></stop>
            <stop stop-color="#F2C6D3" offset="100%"></stop>
        </radialGradient>
    </defs>
    <g id="Bg" stroke="none" stroke-width="1" fill="none" fill-rule="evenodd">
        <g id="Logos" transform="translate(-974.000000, -1066.000000)">
            <g id="monday_lotto" transform="translate(974.000000, 1066.000000)">
                <rect id="Rectangle" x="0" y="0" width="234" height="130" rx="2"></rect>
                <g id="Group" transform="translate(36.000000, 9.000000)" fill-rule="nonzero">
                    <polygon id="Path" fill="#024D97" points="11.7544554 66.8673267 31.160396 66.8673267 31.160396 75.4059406 0.554455446 75.4059406 0.554455446 29.1643564 11.7544554 29.1643564"></polygon>
                    <path d="M89.8217822,32.4910891 L89.8217822,41.029703 L95.4772277,41.029703 L95.4772277,48.4594059 L89.8217822,48.4594059 L89.8217822,64.2059406 C89.8217822,65.5366337 90.0435644,66.4237624 90.4871287,66.8673267 C90.9306931,67.4217822 91.9287129,67.6435644 93.2594059,67.6435644 C94.3683168,67.6435644 95.2554455,67.5326733 95.9207921,67.4217822 L95.9207921,75.0732673 C94.0356436,75.7386139 91.9287129,75.960396 89.9326733,75.960396 C86.2732673,75.960396 83.5009901,75.0732673 81.7267327,73.409901 C79.9524752,71.6356436 79.0653465,69.0851485 79.0653465,65.5366337 L79.0653465,48.4594059 L74.629703,48.4594059 L74.629703,41.029703 L79.0653465,41.029703 L79.0653465,32.4910891 L89.8217822,32.4910891 Z" id="Path" fill="#024D97"></path>
                    <path d="M112.110891,32.4910891 L112.110891,41.029703 L117.766337,41.029703 L117.766337,48.4594059 L112.110891,48.4594059 L112.110891,64.2059406 C112.110891,65.5366337 112.332673,66.4237624 112.776238,66.8673267 C113.219802,67.4217822 114.217822,67.6435644 115.548515,67.6435644 C116.657426,67.6435644 117.544554,67.5326733 118.209901,67.4217822 L118.209901,75.0732673 C116.324752,75.7386139 114.217822,75.960396 112.221782,75.960396 C108.562376,75.960396 105.790099,75.0732673 104.015842,73.409901 C102.241584,71.6356436 101.354455,69.0851485 101.354455,65.5366337 L101.354455,48.4594059 L96.9188119,48.4594059 L96.9188119,41.029703 L101.354455,41.029703 L101.354455,32.4910891 L112.110891,32.4910891 Z" id="Path" fill="#024D97"></path>
                    <circle id="Oval" fill="url(#radialGradient-1)" cx="141.829703" cy="56.5544554" r="19.5168317"></circle>
                    <circle id="Oval" fill="url(#radialGradient-2)" cx="54.0039604" cy="56.5544554" r="19.5168317"></circle>
                    <g transform="translate(15.524752, 82.059406)">
                        <path d="M108.784158,4.99009901 L107.564356,14.3049505 C107.453465,14.6376238 107.453465,14.970297 107.342574,15.1920792 L108.673267,4.99009901 L102.241584,5.54455446 L102.241584,5.54455446 C101.908911,5.43366337 101.465347,5.43366337 101.021782,5.54455446 C99.2475248,5.65544554 97.8059406,6.43168317 96.6970297,7.76237624 C95.809901,8.76039604 95.1445545,9.98019802 94.7009901,11.2 L96.0316832,0.776237624 L89.4891089,2.21782178 L88.9346535,6.76435644 C88.6019802,6.65346535 88.1584158,6.65346535 87.7148515,6.76435644 C85.9405941,6.87524752 84.4990099,7.65148515 83.390099,8.98217822 C82.3920792,10.0910891 81.7267327,11.3108911 81.2831683,12.7524752 C81.0613861,11.0891089 80.839604,9.53663366 80.6178218,7.98415842 L80.3960396,6.54257426 L76.5148515,7.42970297 L75.4059406,7.65148515 L74.4079208,7.87326733 L74.1861386,8.76039604 C73.8534653,10.0910891 73.5207921,11.4217822 73.1881188,12.7524752 C73.0772277,13.0851485 72.9663366,13.4178218 72.8554455,13.639604 C72.9663366,13.0851485 73.0772277,12.419802 72.9663366,11.7544554 C72.8554455,10.5346535 72.4118812,9.64752475 71.5247525,8.98217822 C70.7485149,8.42772277 69.750495,8.20594059 68.419802,8.31683168 C66.4237624,8.42772277 64.8712871,9.31485149 63.6514851,10.6455446 C62.7643564,11.7544554 62.0990099,12.9742574 61.6554455,14.3049505 C61.6554455,13.9722772 61.6554455,13.639604 61.6554455,13.3069307 C61.5445545,11.9762376 61.1009901,10.9782178 60.2138614,10.2019802 C59.4376238,9.53663366 58.3287129,9.31485149 57.1089109,9.42574257 C56.7762376,9.42574257 56.4435644,9.53663366 56.1108911,9.64752475 L49.6792079,10.2019802 L48.4594059,19.5168317 C48.3485149,19.849505 48.3485149,20.0712871 48.2376238,20.2930693 L50.2336634,4.76831683 L43.6910891,6.20990099 L43.1366337,10.7564356 C42.8039604,10.6455446 42.360396,10.6455446 41.9168317,10.7564356 C40.1425743,10.8673267 38.7009901,11.6435644 37.5920792,12.9742574 C37.2594059,13.3069307 37.0376238,13.639604 36.8158416,14.0831683 C36.4831683,12.8633663 35.4851485,11.3108911 32.4910891,11.5326733 C30.4950495,11.6435644 28.9425743,12.5306931 27.7227723,13.8613861 C26.9465347,14.7485149 26.5029703,15.7465347 26.0594059,16.7445545 L29.1643564,5.76633663 L24.5069307,6.20990099 L22.0673267,15.6356436 L21.180198,6.54257426 L15.6356436,6.98613861 L13.3069307,16.4118812 L12.419802,7.31881188 L11.2,7.31881188 C10.7564356,7.31881188 10.3128713,7.31881188 10.0910891,7.31881188 C8.53861386,7.42970297 6.98613861,7.98415842 5.43366337,8.76039604 C3.88118812,9.64752475 2.66138614,10.6455446 1.77425743,11.9762376 C0.776237624,13.3069307 0.332673267,14.7485149 0.443564356,16.190099 C0.554455446,17.5207921 0.998019802,18.4079208 1.88514851,19.0732673 C2.66138614,19.6277228 3.65940594,19.849505 4.87920792,19.7386139 L6.20990099,19.6277228 L6.0990099,18.2970297 C6.0990099,17.9643564 5.98811881,17.7425743 5.76633663,17.2990099 C5.76633663,17.2990099 5.65544554,17.0772277 5.65544554,16.5227723 C5.54455446,15.4138614 5.76633663,14.4158416 6.20990099,13.750495 C6.32079208,13.5287129 6.43168317,13.4178218 6.54257426,13.1960396 L8.31683168,29.4970297 L14.1940594,29.0534653 L16.3009901,21.5128713 L17.0772277,28.7207921 L22.9544554,28.2772277 L25.3940594,19.5168317 C25.1722772,20.6257426 25.0613861,21.7346535 25.1722772,22.7326733 C25.2831683,24.5069307 25.9485149,25.8376238 26.9465347,26.6138614 C27.8336634,27.2792079 28.9425743,27.6118812 30.2732673,27.6118812 C30.4950495,27.6118812 30.7168317,27.6118812 30.9386139,27.6118812 C32.8237624,27.5009901 34.5980198,26.6138614 36.150495,25.1722772 C36.2613861,25.3940594 36.4831683,25.6158416 36.7049505,25.7267327 C37.7029703,26.6138614 38.8118812,26.9465347 40.2534653,26.8356436 C41.3623762,26.7247525 42.360396,26.3920792 43.1366337,25.7267327 C43.2475248,25.6158416 43.4693069,25.5049505 43.580198,25.2831683 C43.6910891,25.3940594 43.8019802,25.3940594 43.8019802,25.5049505 C44.5782178,26.0594059 45.4653465,26.2811881 46.4633663,26.170297 C46.9069307,26.170297 47.4613861,26.0594059 47.9049505,25.8376238 L47.9049505,26.0594059 L54.3366337,25.5049505 L55.5564356,16.190099 C55.5564356,16.0792079 55.6673267,15.9683168 55.6673267,15.8574257 C55.6673267,15.8574257 55.6673267,15.8574257 55.6673267,15.9683168 C55.5564356,16.5227723 55.5564356,17.0772277 55.4455446,17.6316832 C55.4455446,17.7425743 55.3346535,18.0752475 55.3346535,18.5188119 C55.2237624,18.9623762 55.2237624,19.4059406 55.2237624,19.849505 C55.1128713,20.4039604 55.1128713,20.8475248 55.2237624,21.2910891 C55.3346535,22.4 55.7782178,23.3980198 56.5544554,24.1742574 C57.3306931,24.950495 58.550495,25.2831683 59.9920792,25.1722772 C61.2118812,25.0613861 62.3207921,24.5069307 63.3188119,23.619802 C63.3188119,23.619802 63.429703,23.5089109 63.429703,23.5089109 C64.4277228,24.2851485 65.7584158,24.6178218 67.3108911,24.5069307 C69.0851485,24.3960396 70.6376238,23.619802 72.0792079,22.2891089 C72.5227723,22.7326733 72.9663366,23.0653465 73.5207921,23.2871287 C74.2970297,23.619802 75.2950495,23.8415842 76.2930693,23.7306931 C77.180198,23.619802 78.0673267,23.3980198 78.8435644,23.0653465 C79.7306931,22.7326733 80.3960396,22.1782178 80.950495,21.5128713 C81.2831683,21.2910891 81.5049505,21.0693069 81.8376238,20.8475248 C82.0594059,21.180198 82.2811881,21.5128713 82.6138614,21.8455446 C83.6118812,22.7326733 84.7207921,23.0653465 86.1623762,22.9544554 C87.2712871,22.8435644 88.2693069,22.5108911 89.0455446,21.8455446 C89.1564356,21.7346535 89.3782178,21.6237624 89.4891089,21.4019802 C89.6,21.5128713 89.7108911,21.5128713 89.7108911,21.6237624 C90.4871287,22.1782178 91.3742574,22.4 92.3722772,22.2891089 C93.7029703,22.1782178 94.9227723,21.6237624 95.9207921,20.7366337 C95.9207921,20.7366337 95.9207921,20.7366337 96.0316832,20.7366337 C97.029703,21.6237624 98.1386139,21.9564356 99.580198,21.8455446 C100.689109,21.7346535 101.687129,21.4019802 102.463366,20.7366337 C102.574257,20.6257426 102.685149,20.5148515 102.906931,20.4039604 C103.017822,20.5148515 103.128713,20.6257426 103.239604,20.6257426 C104.015842,21.180198 104.90297,21.4019802 105.90099,21.4019802 C107.120792,21.2910891 108.229703,20.7366337 109.338614,19.849505 C109.338614,19.849505 109.338614,19.849505 109.338614,19.849505 C109.338614,19.849505 109.338614,19.849505 109.449505,19.849505 C109.782178,20.0712871 110.00396,20.2930693 110.336634,20.4039604 C109.893069,21.180198 109.671287,22.0673267 109.782178,23.0653465 C109.893069,24.2851485 110.447525,25.2831683 111.445545,25.9485149 C112.332673,26.6138614 113.441584,26.9465347 114.550495,26.8356436 C115.881188,26.7247525 117.10099,26.170297 118.09901,25.2831683 C119.207921,24.3960396 119.873267,22.8435644 120.09505,20.8475248 L122.20198,4.21386139 L108.784158,4.99009901 Z M101.687129,9.98019802 L101.021782,14.8594059 C100.910891,15.3029703 100.8,15.6356436 100.689109,15.8574257 C100.578218,15.9683168 100.578218,15.9683168 100.467327,16.0792079 C100.467327,15.9683168 100.356436,15.7465347 100.356436,15.5247525 C100.245545,14.8594059 100.356436,13.9722772 100.578218,12.8633663 C100.8,11.8653465 101.021782,10.9782178 101.465347,10.3128713 C101.465347,10.2019802 101.576238,10.0910891 101.687129,9.98019802 Z M88.2693069,11.2 L87.6039604,16.190099 C87.4930693,16.6336634 87.3821782,16.8554455 87.2712871,17.0772277 C87.160396,17.1881188 87.160396,17.1881188 87.049505,17.2990099 C87.049505,17.1881188 86.9386139,16.9663366 86.9386139,16.7445545 C86.8277228,16.0792079 86.9386139,15.1920792 87.160396,14.0831683 C87.3821782,13.0851485 87.6039604,12.1980198 88.0475248,11.5326733 C88.1584158,11.3108911 88.1584158,11.2 88.2693069,11.2 Z M70.8594059,16.9663366 C70.7485149,17.1881188 70.7485149,17.2990099 70.7485149,17.5207921 C70.3049505,17.9643564 69.9722772,18.2970297 69.750495,18.5188119 C69.3069307,18.8514851 68.8633663,19.0732673 68.1980198,19.0732673 C67.9762376,19.0732673 67.8653465,19.0732673 67.8653465,19.0732673 C67.8653465,18.9623762 67.7544554,18.8514851 67.7544554,18.4079208 C68.5306931,18.1861386 69.1960396,17.8534653 69.8613861,17.409901 C70.5267327,16.9663366 71.1920792,16.4118812 71.7465347,15.7465347 L71.7465347,15.8574257 C71.3029703,16.3009901 71.0811881,16.5227723 70.8594059,16.9663366 Z M42.5821782,14.970297 L41.9168317,19.960396 C41.8059406,20.4039604 41.6950495,20.6257426 41.5841584,20.8475248 L41.5841584,20.8475248 C41.4732673,20.9584158 41.4732673,20.9584158 41.3623762,21.0693069 C41.3623762,20.9584158 41.2514851,20.7366337 41.2514851,20.5148515 C41.1405941,19.849505 41.2514851,18.9623762 41.4732673,17.8534653 C41.6950495,16.8554455 41.9168317,15.9683168 42.360396,15.3029703 C42.4712871,15.1920792 42.4712871,15.0811881 42.5821782,14.970297 Z M33.7108911,20.5148515 C34.1544554,20.1821782 34.4871287,19.960396 34.9306931,19.6277228 C34.9306931,19.849505 34.9306931,20.1821782 34.9306931,20.4039604 C34.4871287,20.9584158 34.0435644,21.4019802 33.7108911,21.6237624 C33.2673267,21.9564356 32.8237624,22.0673267 32.1584158,22.1782178 C31.9366337,22.1782178 31.8257426,22.1782178 31.8257426,22.1782178 C31.8257426,22.0673267 31.7148515,21.9564356 31.7148515,21.5128713 C32.2693069,21.2910891 33.0455446,20.9584158 33.7108911,20.5148515 Z" id="Shape" stroke="#024D97" stroke-width="1.2226" fill="#FFFFFF" stroke-linejoin="round"></path>
                        <path d="M108.784158,4.32475248 L107.564356,13.639604 C107.453465,13.9722772 107.453465,14.3049505 107.342574,14.5267327 L108.673267,4.32475248 L102.241584,4.87920792 L102.241584,4.87920792 C101.908911,4.76831683 101.465347,4.76831683 101.021782,4.87920792 C99.2475248,4.99009901 97.8059406,5.76633663 96.6970297,7.0970297 C95.809901,8.0950495 95.1445545,9.31485149 94.7009901,10.5346535 L96.0316832,0.110891089 L89.4891089,1.55247525 L88.9346535,6.0990099 C88.6019802,5.98811881 88.1584158,5.98811881 87.7148515,6.0990099 C85.9405941,6.20990099 84.4990099,6.98613861 83.390099,8.31683168 C82.3920792,9.42574257 81.7267327,10.6455446 81.2831683,12.0871287 C81.0613861,10.4237624 80.839604,8.87128713 80.6178218,7.31881188 L80.3960396,5.87722772 L76.5148515,6.76435644 L75.4059406,6.98613861 L74.4079208,7.20792079 L74.1861386,8.0950495 C73.8534653,9.42574257 73.5207921,10.7564356 73.1881188,12.0871287 C73.0772277,12.419802 72.9663366,12.7524752 72.8554455,12.9742574 C72.9663366,12.419802 73.0772277,11.7544554 72.9663366,11.0891089 C72.8554455,9.86930693 72.4118812,8.98217822 71.5247525,8.31683168 C70.7485149,7.76237624 69.750495,7.54059406 68.419802,7.65148515 C66.4237624,7.76237624 64.8712871,8.64950495 63.6514851,9.98019802 C62.7643564,11.0891089 62.0990099,12.3089109 61.6554455,13.639604 C61.6554455,13.3069307 61.6554455,12.9742574 61.6554455,12.6415842 C61.5445545,11.3108911 61.1009901,10.3128713 60.2138614,9.53663366 C59.4376238,8.87128713 58.3287129,8.64950495 57.1089109,8.76039604 C56.7762376,8.76039604 56.4435644,8.87128713 56.1108911,8.98217822 L49.6792079,9.53663366 L48.4594059,18.8514851 C48.3485149,19.1841584 48.3485149,19.4059406 48.2376238,19.6277228 L50.2336634,4.1029703 L43.6910891,5.54455446 L43.1366337,10.0910891 C42.8039604,9.98019802 42.360396,9.98019802 41.9168317,10.0910891 C40.1425743,10.2019802 38.7009901,10.9782178 37.5920792,12.3089109 C37.2594059,12.6415842 37.0376238,12.9742574 36.8158416,13.4178218 C36.4831683,12.1980198 35.4851485,10.6455446 32.4910891,10.8673267 C30.4950495,10.9782178 28.9425743,11.8653465 27.7227723,13.1960396 C26.9465347,14.0831683 26.5029703,15.0811881 26.0594059,16.0792079 L29.1643564,5.1009901 L24.5069307,5.54455446 L22.0673267,14.970297 L21.180198,5.87722772 L15.6356436,6.32079208 L13.3069307,15.7465347 L12.419802,6.65346535 L11.2,6.65346535 C10.7564356,6.65346535 10.3128713,6.65346535 10.0910891,6.65346535 C8.53861386,6.76435644 6.98613861,7.31881188 5.43366337,8.0950495 C3.88118812,8.98217822 2.66138614,9.98019802 1.77425743,11.3108911 C0.776237624,12.6415842 0.332673267,14.0831683 0.443564356,15.5247525 C0.554455446,16.8554455 0.998019802,17.7425743 1.88514851,18.4079208 C2.66138614,18.9623762 3.65940594,19.1841584 4.87920792,19.0732673 L6.20990099,18.9623762 L6.0990099,17.6316832 C6.0990099,17.2990099 5.98811881,17.0772277 5.76633663,16.6336634 C5.76633663,16.6336634 5.65544554,16.4118812 5.65544554,15.8574257 C5.54455446,14.7485149 5.76633663,13.750495 6.20990099,13.0851485 C6.32079208,12.8633663 6.43168317,12.7524752 6.54257426,12.5306931 L8.31683168,28.8316832 L14.1940594,28.3881188 L16.3009901,20.8475248 L17.0772277,28.0554455 L22.9544554,27.6118812 L25.3940594,18.8514851 C25.1722772,19.960396 25.0613861,21.0693069 25.1722772,22.0673267 C25.2831683,23.8415842 25.9485149,25.1722772 26.9465347,25.9485149 C27.8336634,26.6138614 28.9425743,26.9465347 30.2732673,26.9465347 C30.4950495,26.9465347 30.7168317,26.9465347 30.9386139,26.9465347 C32.8237624,26.8356436 34.5980198,25.9485149 36.150495,24.5069307 C36.2613861,24.7287129 36.4831683,24.950495 36.7049505,25.0613861 C37.7029703,25.9485149 38.8118812,26.2811881 40.2534653,26.170297 C41.3623762,26.0594059 42.360396,25.7267327 43.1366337,25.0613861 C43.2475248,24.950495 43.4693069,24.839604 43.580198,24.6178218 C43.6910891,24.7287129 43.8019802,24.7287129 43.8019802,24.839604 C44.5782178,25.3940594 45.4653465,25.6158416 46.4633663,25.5049505 C46.9069307,25.5049505 47.4613861,25.3940594 47.9049505,25.1722772 L47.9049505,25.3940594 L54.3366337,24.839604 L55.5564356,15.5247525 C55.5564356,15.4138614 55.6673267,15.3029703 55.6673267,15.1920792 C55.6673267,15.1920792 55.6673267,15.1920792 55.6673267,15.3029703 C55.5564356,15.8574257 55.5564356,16.4118812 55.4455446,16.9663366 C55.4455446,17.0772277 55.3346535,17.409901 55.3346535,17.8534653 C55.2237624,18.2970297 55.2237624,18.7405941 55.2237624,19.1841584 C55.1128713,19.7386139 55.1128713,20.1821782 55.2237624,20.6257426 C55.3346535,21.7346535 55.7782178,22.7326733 56.5544554,23.5089109 C57.3306931,24.2851485 58.550495,24.6178218 59.9920792,24.5069307 C61.2118812,24.3960396 62.3207921,23.8415842 63.3188119,22.9544554 C63.3188119,22.9544554 63.429703,22.8435644 63.429703,22.8435644 C64.4277228,23.619802 65.7584158,23.9524752 67.3108911,23.8415842 C69.0851485,23.7306931 70.6376238,22.9544554 72.0792079,21.6237624 C72.5227723,22.0673267 72.9663366,22.4 73.5207921,22.6217822 C74.2970297,22.9544554 75.2950495,23.1762376 76.2930693,23.0653465 C77.180198,22.9544554 78.0673267,22.7326733 78.8435644,22.4 C79.7306931,22.0673267 80.3960396,21.5128713 80.950495,20.8475248 C81.2831683,20.6257426 81.5049505,20.4039604 81.8376238,20.1821782 C82.0594059,20.5148515 82.2811881,20.8475248 82.6138614,21.180198 C83.6118812,22.0673267 84.7207921,22.4 86.1623762,22.2891089 C87.2712871,22.1782178 88.2693069,21.8455446 89.0455446,21.180198 C89.1564356,21.0693069 89.3782178,20.9584158 89.4891089,20.7366337 C89.6,20.8475248 89.7108911,20.8475248 89.7108911,20.9584158 C90.4871287,21.5128713 91.3742574,21.7346535 92.3722772,21.6237624 C93.7029703,21.5128713 94.9227723,20.9584158 95.9207921,20.0712871 C95.9207921,20.0712871 95.9207921,20.0712871 96.0316832,20.0712871 C97.029703,20.9584158 98.1386139,21.2910891 99.580198,21.180198 C100.689109,21.0693069 101.687129,20.7366337 102.463366,20.0712871 C102.574257,19.960396 102.685149,19.849505 102.906931,19.7386139 C103.017822,19.849505 103.128713,19.960396 103.239604,19.960396 C104.015842,20.5148515 104.90297,20.7366337 105.90099,20.7366337 C107.120792,20.6257426 108.229703,20.0712871 109.338614,19.1841584 C109.338614,19.1841584 109.338614,19.1841584 109.338614,19.1841584 C109.338614,19.1841584 109.338614,19.1841584 109.449505,19.1841584 C109.782178,19.4059406 110.00396,19.6277228 110.336634,19.7386139 C109.893069,20.5148515 109.671287,21.4019802 109.782178,22.4 C109.893069,23.619802 110.447525,24.6178218 111.445545,25.2831683 C112.332673,25.9485149 113.441584,26.2811881 114.550495,26.170297 C115.881188,26.0594059 117.10099,25.5049505 118.09901,24.6178218 C119.207921,23.7306931 119.873267,22.1782178 120.09505,20.1821782 L122.20198,3.54851485 L108.784158,4.32475248 Z M101.687129,9.42574257 L101.021782,14.3049505 C100.910891,14.7485149 100.8,15.0811881 100.689109,15.3029703 C100.578218,15.4138614 100.578218,15.4138614 100.467327,15.5247525 C100.467327,15.4138614 100.356436,15.1920792 100.356436,14.970297 C100.245545,14.3049505 100.356436,13.4178218 100.578218,12.3089109 C100.8,11.3108911 101.021782,10.4237624 101.465347,9.75841584 C101.465347,9.64752475 101.576238,9.53663366 101.687129,9.42574257 Z M88.2693069,10.5346535 L87.6039604,15.5247525 C87.4930693,15.9683168 87.3821782,16.190099 87.2712871,16.4118812 C87.160396,16.5227723 87.160396,16.5227723 87.049505,16.6336634 C87.049505,16.5227723 86.9386139,16.3009901 86.9386139,16.0792079 C86.8277228,15.4138614 86.9386139,14.5267327 87.160396,13.4178218 C87.3821782,12.419802 87.6039604,11.5326733 88.0475248,10.8673267 C88.1584158,10.7564356 88.1584158,10.6455446 88.2693069,10.5346535 Z M70.8594059,16.4118812 C70.7485149,16.6336634 70.7485149,16.7445545 70.7485149,16.9663366 C70.3049505,17.409901 69.9722772,17.7425743 69.750495,17.9643564 C69.3069307,18.2970297 68.8633663,18.5188119 68.1980198,18.5188119 C67.9762376,18.5188119 67.8653465,18.5188119 67.8653465,18.5188119 C67.8653465,18.4079208 67.7544554,18.2970297 67.7544554,17.8534653 C68.5306931,17.6316832 69.1960396,17.2990099 69.8613861,16.8554455 C70.5267327,16.4118812 71.1920792,15.8574257 71.7465347,15.1920792 L71.7465347,15.3029703 C71.3029703,15.6356436 71.0811881,15.9683168 70.8594059,16.4118812 Z M42.5821782,14.4158416 L41.9168317,19.4059406 C41.8059406,19.849505 41.6950495,20.0712871 41.5841584,20.2930693 L41.5841584,20.2930693 C41.4732673,20.4039604 41.4732673,20.4039604 41.3623762,20.5148515 C41.3623762,20.4039604 41.2514851,20.1821782 41.2514851,19.960396 C41.1405941,19.2950495 41.2514851,18.4079208 41.4732673,17.2990099 C41.6950495,16.3009901 41.9168317,15.4138614 42.360396,14.7485149 C42.4712871,14.5267327 42.4712871,14.4158416 42.5821782,14.4158416 Z M33.7108911,19.960396 C34.1544554,19.6277228 34.4871287,19.4059406 34.9306931,19.0732673 C34.9306931,19.2950495 34.9306931,19.6277228 34.9306931,19.849505 C34.4871287,20.4039604 34.0435644,20.8475248 33.7108911,21.0693069 C33.2673267,21.4019802 32.8237624,21.5128713 32.1584158,21.6237624 C31.9366337,21.6237624 31.8257426,21.6237624 31.8257426,21.6237624 C31.8257426,21.5128713 31.7148515,21.4019802 31.7148515,20.9584158 C32.2693069,20.7366337 33.0455446,20.4039604 33.7108911,19.960396 Z" id="Shape" fill="#FFFFFF"></path>
                        <g transform="translate(1.108911, 1.108911)" fill="#D2007F">
                            <path d="M6.43168317,7.65148515 C5.21188119,8.20594059 4.43564356,8.98217822 3.77029703,9.98019802 C3.21584158,10.9782178 2.99405941,12.1980198 3.1049505,13.639604 C3.1049505,14.3049505 3.21584158,14.7485149 3.43762376,14.970297 C3.54851485,15.1920792 3.65940594,15.3029703 3.65940594,15.4138614 C2.77227723,15.5247525 1.9960396,15.3029703 1.55247525,14.970297 C1.10891089,14.6376238 0.776237624,13.9722772 0.776237624,13.0851485 C0.665346535,11.9762376 0.998019802,10.8673267 1.88514851,9.75841584 C2.66138614,8.64950495 3.77029703,7.76237624 5.1009901,6.98613861 C6.43168317,6.20990099 7.76237624,5.76633663 9.2039604,5.65544554 C9.42574257,5.65544554 9.75841584,5.65544554 10.2019802,5.65544554 L11.7544554,21.2910891 L15.8574257,5.32277228 L19.0732673,5.1009901 L20.6257426,20.6257426 L24.7287129,4.65742574 L26.5029703,4.54653465 L20.9584158,24.0633663 L17.2990099,24.3960396 L15.9683168,11.4217822 L12.1980198,24.7287129 L8.53861386,25.0613861 L6.43168317,7.65148515 Z" id="Path"></path>
                            <path d="M26.6138614,22.6217822 C25.8376238,22.0673267 25.3940594,21.0693069 25.2831683,19.6277228 C25.1722772,18.4079208 25.2831683,17.1881188 25.6158416,15.7465347 C25.9485149,14.3049505 26.6138614,12.9742574 27.5009901,11.8653465 C28.4990099,10.7564356 29.7188119,10.0910891 31.2712871,9.98019802 C33.1564356,9.86930693 34.1544554,10.5346535 34.2653465,12.1980198 C34.3762376,13.1960396 34.1544554,14.0831683 33.7108911,14.8594059 C33.2673267,15.7465347 32.6019802,16.4118812 31.7148515,16.9663366 C30.8277228,17.5207921 29.9405941,17.8534653 28.9425743,18.0752475 C28.9425743,18.629703 28.9425743,18.9623762 28.9425743,19.0732673 C29.0534653,19.960396 29.1643564,20.4039604 29.4970297,20.7366337 C29.829703,20.9584158 30.2732673,21.0693069 30.9386139,21.0693069 C31.8257426,20.9584158 32.6019802,20.7366337 33.2673267,20.1821782 C33.9326733,19.7386139 34.5980198,18.9623762 35.2633663,18.0752475 L36.150495,17.9643564 C34.4871287,21.2910891 32.380198,23.0653465 29.4970297,23.2871287 C28.3881188,23.5089109 27.390099,23.2871287 26.6138614,22.6217822 Z M30.9386139,16.0792079 C31.4930693,15.6356436 31.9366337,15.0811881 32.1584158,14.4158416 C32.4910891,13.750495 32.6019802,13.0851485 32.4910891,12.419802 C32.380198,11.7544554 32.1584158,11.4217822 31.7148515,11.4217822 C31.049505,11.4217822 30.6059406,12.0871287 30.0514851,13.1960396 C29.6079208,14.3049505 29.2752475,15.5247525 29.0534653,16.9663366 C29.7188119,16.7445545 30.3841584,16.5227723 30.9386139,16.0792079 Z" id="Shape"></path>
                            <path d="M36.3722772,21.8455446 C35.7069307,21.2910891 35.2633663,20.1821782 35.1524752,18.8514851 C35.0415842,17.6316832 35.1524752,16.3009901 35.5960396,14.8594059 C35.9287129,13.4178218 36.5940594,12.1980198 37.5920792,11.2 C38.4792079,10.2019802 39.6990099,9.53663366 41.029703,9.42574257 C41.6950495,9.31485149 42.249505,9.42574257 42.5821782,9.64752475 C42.9148515,9.86930693 43.1366337,10.2019802 43.1366337,10.5346535 L43.1366337,10.6455446 L43.9128713,4.65742574 L47.6831683,3.88118812 L45.9089109,17.8534653 C45.9089109,18.0752475 45.7980198,18.4079208 45.9089109,18.629703 C45.9089109,18.9623762 46.019802,19.1841584 46.2415842,19.2950495 C46.4633663,19.4059406 46.6851485,19.5168317 47.0178218,19.4059406 C47.4613861,19.4059406 47.9049505,19.0732673 48.2376238,18.7405941 C48.570297,18.2970297 48.7920792,17.7425743 48.9029703,17.0772277 L50.0118812,16.9663366 C49.2356436,20.0712871 47.6831683,21.7346535 45.2435644,21.9564356 C44.5782178,22.0673267 44.0237624,21.8455446 43.4693069,21.5128713 C43.0257426,21.180198 42.6930693,20.6257426 42.5821782,19.960396 C42.249505,20.6257426 41.6950495,21.2910891 41.1405941,21.7346535 C40.5861386,22.1782178 39.809901,22.5108911 39.0336634,22.6217822 C37.8138614,22.7326733 37.0376238,22.4 36.3722772,21.8455446 Z M41.4732673,19.4059406 C41.8059406,18.9623762 42.1386139,18.4079208 42.249505,17.7425743 L42.249505,17.6316832 L43.0257426,11.7544554 C42.8039604,11.2 42.4712871,10.8673267 41.9168317,10.9782178 C41.2514851,11.0891089 40.6970297,11.5326733 40.1425743,12.3089109 C39.6990099,13.1960396 39.3663366,14.0831683 39.1445545,15.3029703 C38.9227723,16.4118812 38.8118812,17.409901 38.9227723,18.2970297 C39.0336634,19.1841584 39.1445545,19.6277228 39.4772277,19.849505 C39.6990099,20.0712871 40.0316832,20.1821782 40.3643564,20.1821782 C40.6970297,19.960396 41.029703,19.7386139 41.4732673,19.4059406 Z" id="Shape"></path>
                            <path d="M56,20.4039604 C55.4455446,19.849505 55.2237624,19.1841584 55.1128713,18.4079208 C55.1128713,18.0752475 55.1128713,17.6316832 55.1128713,17.1881188 C55.1128713,16.7445545 55.2237624,16.3009901 55.2237624,15.8574257 C55.3346535,15.4138614 55.3346535,15.1920792 55.3346535,15.0811881 C55.4455446,14.5267327 55.4455446,13.8613861 55.5564356,13.3069307 C55.6673267,12.7524752 55.6673267,12.1980198 55.6673267,11.8653465 C55.5564356,10.9782178 55.2237624,10.6455446 54.6693069,10.6455446 C54.2257426,10.6455446 53.8930693,10.9782178 53.560396,11.4217822 C53.2277228,11.8653465 53.0059406,12.419802 52.8950495,13.1960396 L51.8970297,21.5128713 L48.2376238,21.8455446 L49.9009901,8.87128713 L53.560396,8.53861386 L53.3386139,9.86930693 C54.1148515,8.87128713 55.1128713,8.31683168 56.2217822,8.20594059 C57.1089109,8.0950495 57.7742574,8.31683168 58.3287129,8.76039604 C58.8831683,9.2039604 59.2158416,9.86930693 59.2158416,10.8673267 C59.2158416,11.3108911 59.2158416,11.8653465 59.2158416,12.5306931 C59.1049505,13.1960396 58.9940594,13.8613861 58.8831683,14.7485149 C58.7722772,15.3029703 58.6613861,15.8574257 58.6613861,16.3009901 C58.550495,16.8554455 58.550495,17.1881188 58.550495,17.5207921 C58.550495,17.8534653 58.6613861,18.0752475 58.8831683,18.2970297 C59.1049505,18.5188119 59.3267327,18.5188119 59.6594059,18.5188119 C60.2138614,18.5188119 60.5465347,18.2970297 60.8792079,17.8534653 C61.1009901,17.409901 61.4336634,16.8554455 61.6554455,16.0792079 L62.7643564,15.9683168 C62.3207921,17.8534653 61.6554455,19.1841584 60.8792079,19.849505 C60.1029703,20.5148515 59.3267327,20.9584158 58.439604,21.0693069 C57.3306931,21.0693069 56.5544554,20.8475248 56,20.4039604 Z" id="Path"></path>
                            <path d="M62.6534653,19.6277228 C61.8772277,19.0732673 61.4336634,18.0752475 61.3227723,16.6336634 C61.2118812,15.4138614 61.3227723,14.1940594 61.6554455,12.7524752 C61.9881188,11.3108911 62.6534653,9.98019802 63.5405941,8.87128713 C64.5386139,7.76237624 65.7584158,7.0970297 67.3108911,6.98613861 C69.1960396,6.87524752 70.1940594,7.54059406 70.3049505,9.2039604 C70.4158416,10.2019802 70.1940594,11.0891089 69.750495,11.8653465 C69.3069307,12.7524752 68.6415842,13.4178218 67.7544554,13.9722772 C66.8673267,14.5267327 65.980198,14.8594059 64.9821782,15.0811881 C64.9821782,15.6356436 64.9821782,15.9683168 64.9821782,16.0792079 C65.0930693,16.9663366 65.2039604,17.409901 65.5366337,17.7425743 C65.8693069,17.9643564 66.3128713,18.0752475 66.9782178,18.0752475 C67.8653465,17.9643564 68.6415842,17.7425743 69.3069307,17.1881188 C69.9722772,16.7445545 70.6376238,15.9683168 71.3029703,15.0811881 L72.190099,14.970297 C70.5267327,18.2970297 68.419802,20.0712871 65.5366337,20.2930693 C64.3168317,20.5148515 63.3188119,20.2930693 62.6534653,19.6277228 Z M66.8673267,13.0851485 C67.4217822,12.6415842 67.8653465,12.0871287 68.0871287,11.4217822 C68.419802,10.7564356 68.5306931,10.0910891 68.419802,9.42574257 C68.3089109,8.76039604 68.0871287,8.42772277 67.6435644,8.42772277 C66.9782178,8.42772277 66.5346535,9.09306931 65.980198,10.2019802 C65.5366337,11.3108911 65.2039604,12.5306931 64.9821782,13.9722772 C65.7584158,13.750495 66.3128713,13.5287129 66.8673267,13.0851485 Z" id="Shape"></path>
                            <path d="M72.5227723,19.2950495 C71.9683168,19.0732673 71.5247525,18.629703 71.1920792,18.1861386 C70.8594059,17.7425743 70.7485149,17.1881188 70.6376238,16.6336634 C70.6376238,16.0792079 70.6376238,15.5247525 70.8594059,15.1920792 C71.0811881,14.7485149 71.4138614,14.4158416 71.7465347,14.1940594 C72.3009901,12.9742574 72.7445545,11.7544554 73.1881188,10.4237624 C73.6316832,9.2039604 73.9643564,7.87326733 74.2970297,6.32079208 L78.0673267,5.54455446 C78.2891089,7.76237624 78.6217822,10.0910891 79.0653465,12.5306931 C79.2871287,13.5287129 79.2871287,14.3049505 79.3980198,14.7485149 C79.3980198,15.1920792 79.3980198,15.4138614 79.3980198,15.7465347 C80.1742574,15.1920792 80.7287129,14.7485149 81.1722772,14.3049505 L82.2811881,14.1940594 C81.2831683,15.5247525 80.0633663,16.7445545 78.6217822,17.7425743 C78.1782178,18.2970297 77.6237624,18.7405941 76.8475248,19.0732673 C76.1821782,19.4059406 75.4059406,19.5168317 74.7405941,19.6277228 C73.8534653,19.7386139 73.1881188,19.6277228 72.5227723,19.2950495 Z M75.1841584,16.9663366 C75.6277228,16.5227723 75.7386139,15.9683168 75.6277228,15.0811881 C75.6277228,14.5267327 75.5168317,13.8613861 75.2950495,12.9742574 C74.9623762,11.0891089 74.7405941,9.75841584 74.629703,9.09306931 C74.2970297,10.4237624 73.7425743,12.0871287 72.9663366,14.0831683 C73.409901,14.3049505 73.6316832,14.5267327 73.6316832,14.970297 C73.6316832,15.3029703 73.5207921,15.6356436 73.409901,15.8574257 C73.2990099,16.0792079 72.9663366,16.3009901 72.6336634,16.3009901 C72.3009901,16.3009901 72.0792079,16.190099 71.9683168,16.0792079 C71.9683168,16.6336634 72.190099,17.0772277 72.4118812,17.409901 C72.6336634,17.6316832 73.0772277,17.7425743 73.6316832,17.7425743 C74.2970297,17.6316832 74.8514851,17.409901 75.1841584,16.9663366 Z" id="Shape"></path>
                            <path d="M82.0594059,18.0752475 C81.3940594,17.5207921 80.950495,16.4118812 80.839604,15.0811881 C80.7287129,13.8613861 80.839604,12.5306931 81.2831683,11.0891089 C81.6158416,9.64752475 82.2811881,8.42772277 83.2792079,7.42970297 C84.1663366,6.43168317 85.3861386,5.76633663 86.7168317,5.65544554 C87.3821782,5.54455446 87.9366337,5.65544554 88.2693069,5.87722772 C88.6019802,6.0990099 88.8237624,6.43168317 88.8237624,6.76435644 L88.8237624,6.87524752 L89.6,0.887128713 L93.370297,0.110891089 L91.5960396,14.0831683 C91.5960396,14.3049505 91.4851485,14.6376238 91.5960396,14.8594059 C91.5960396,15.1920792 91.7069307,15.4138614 91.9287129,15.5247525 C92.150495,15.6356436 92.3722772,15.7465347 92.7049505,15.6356436 C93.1485149,15.6356436 93.5920792,15.3029703 93.9247525,14.970297 C94.2574257,14.5267327 94.4792079,13.9722772 94.590099,13.3069307 L95.6990099,13.1960396 C94.9227723,16.3009901 93.370297,17.9643564 90.9306931,18.1861386 C90.2653465,18.2970297 89.7108911,18.0752475 89.1564356,17.7425743 C88.7128713,17.409901 88.380198,16.8554455 88.2693069,16.190099 C87.9366337,16.8554455 87.3821782,17.5207921 86.8277228,17.9643564 C86.2732673,18.4079208 85.4970297,18.7405941 84.7207921,18.8514851 C83.6118812,18.9623762 82.7247525,18.629703 82.0594059,18.0752475 Z M87.160396,15.5247525 C87.4930693,15.0811881 87.8257426,14.5267327 87.9366337,13.8613861 L87.9366337,13.750495 L88.7128713,7.87326733 C88.4910891,7.31881188 88.1584158,6.98613861 87.6039604,7.0970297 C86.9386139,7.20792079 86.3841584,7.65148515 85.829703,8.42772277 C85.3861386,9.31485149 85.0534653,10.2019802 84.8316832,11.4217822 C84.609901,12.5306931 84.4990099,13.5287129 84.609901,14.4158416 C84.7207921,15.3029703 84.8316832,15.7465347 85.1643564,15.9683168 C85.3861386,16.190099 85.7188119,16.3009901 86.0514851,16.3009901 C86.3841584,16.190099 86.8277228,15.9683168 87.160396,15.5247525 Z" id="Shape"></path>
                            <path d="M95.3663366,16.9663366 C94.7009901,16.4118812 94.2574257,15.3029703 94.1465347,13.9722772 C94.0356436,12.7524752 94.1465347,11.4217822 94.590099,9.98019802 C94.9227723,8.53861386 95.5881188,7.31881188 96.5861386,6.32079208 C97.4732673,5.32277228 98.6930693,4.65742574 100.023762,4.54653465 C100.689109,4.43564356 101.243564,4.54653465 101.576238,4.76831683 C101.908911,4.99009901 102.130693,5.32277228 102.130693,5.65544554 L102.130693,5.87722772 L102.352475,4.54653465 L106.011881,4.21386139 L104.90297,12.9742574 C104.90297,13.1960396 104.792079,13.5287129 104.90297,13.750495 C105.013861,14.5267327 105.346535,14.8594059 106.011881,14.7485149 C106.455446,14.7485149 106.89901,14.4158416 107.231683,13.9722772 C107.564356,13.5287129 107.786139,12.8633663 107.89703,12.1980198 L109.005941,12.0871287 C108.562376,13.9722772 107.89703,15.3029703 107.009901,15.9683168 C106.122772,16.7445545 105.235644,17.0772277 104.348515,17.1881188 C103.683168,17.2990099 103.017822,17.0772277 102.574257,16.7445545 C102.130693,16.4118812 101.79802,15.8574257 101.687129,15.0811881 C101.243564,15.8574257 100.8,16.4118812 100.134653,16.8554455 C99.580198,17.2990099 98.9148515,17.6316832 98.0277228,17.6316832 C96.9188119,17.8534653 96.0316832,17.5207921 95.3663366,16.9663366 Z M100.578218,14.4158416 C100.910891,13.9722772 101.243564,13.4178218 101.243564,12.7524752 L102.019802,6.87524752 C102.019802,6.65346535 101.908911,6.43168317 101.687129,6.20990099 C101.465347,5.98811881 101.243564,5.87722772 100.910891,5.98811881 C100.245545,6.0990099 99.6910891,6.54257426 99.1366337,7.31881188 C98.6930693,8.20594059 98.360396,9.09306931 98.1386139,10.3128713 C97.9168317,11.4217822 97.8059406,12.419802 97.9168317,13.3069307 C98.0277228,14.1940594 98.1386139,14.6376238 98.4712871,14.8594059 C98.6930693,15.0811881 99.0257426,15.1920792 99.3584158,15.1920792 C99.8019802,15.0811881 100.134653,14.8594059 100.578218,14.4158416 Z" id="Shape"></path>
                            <path d="M110.558416,22.1782178 C109.893069,21.7346535 109.560396,21.0693069 109.449505,20.2930693 C109.338614,19.5168317 109.560396,18.9623762 109.893069,18.4079208 C110.225743,17.8534653 110.669307,17.5207921 111.223762,17.1881188 C111.778218,16.8554455 112.554455,16.5227723 113.552475,16.0792079 L113.663366,14.970297 C112.887129,16.0792079 111.889109,16.6336634 110.669307,16.7445545 C109.893069,16.8554455 109.227723,16.6336634 108.673267,16.190099 C108.118812,15.7465347 107.786139,14.970297 107.786139,13.9722772 C107.786139,13.5287129 107.786139,12.9742574 107.89703,12.3089109 L108.89505,3.99207921 L112.554455,3.65940594 L111.445545,12.419802 C111.445545,12.6415842 111.445545,12.8633663 111.445545,13.0851485 C111.556436,13.8613861 111.778218,14.1940594 112.332673,14.1940594 C112.776238,14.1940594 113.219802,13.9722772 113.552475,13.5287129 C113.885149,13.0851485 114.106931,12.5306931 114.217822,11.8653465 L115.215842,3.54851485 L118.875248,3.21584158 L116.990099,18.1861386 C116.768317,19.849505 116.324752,21.0693069 115.437624,21.7346535 C114.661386,22.4 113.663366,22.8435644 112.665347,22.9544554 C111.889109,22.8435644 111.223762,22.6217822 110.558416,22.1782178 Z M112.776238,19.960396 C112.99802,19.6277228 113.219802,19.0732673 113.330693,18.4079208 L113.552475,16.8554455 C112.665347,17.1881188 112,17.6316832 111.556436,18.0752475 C111.112871,18.5188119 110.891089,19.0732673 111.00198,19.7386139 C111.00198,19.960396 111.112871,20.0712871 111.334653,20.2930693 C111.556436,20.4039604 111.778218,20.5148515 112.110891,20.5148515 C112.221782,20.5148515 112.554455,20.2930693 112.776238,19.960396 Z" id="Shape"></path>
                        </g>
                    </g>
                    <g transform="translate(34.376238, 0.000000)">
                        <path d="M69.9722772,14.1940594 C69.8613861,14.5267327 69.8613861,14.7485149 69.750495,15.0811881 L71.0811881,4.87920792 L64.649505,5.43366337 L64.649505,5.43366337 C64.3168317,5.32277228 63.8732673,5.32277228 63.429703,5.43366337 C61.6554455,5.54455446 60.2138614,6.32079208 59.1049505,7.65148515 C58.2178218,8.64950495 57.5524752,9.75841584 57.1089109,11.0891089 L58.439604,0.665346535 L51.8970297,2.10693069 L51.3425743,6.65346535 C51.009901,6.54257426 50.5663366,6.54257426 50.1227723,6.65346535 C48.3485149,6.76435644 46.9069307,7.54059406 45.7980198,8.87128713 C44.9108911,9.98019802 44.1346535,11.2 43.6910891,12.5306931 C43.6910891,12.1980198 43.6910891,11.7544554 43.6910891,11.4217822 C43.580198,10.0910891 43.1366337,9.09306931 42.249505,8.31683168 C41.4732673,7.65148515 40.3643564,7.42970297 39.1445545,7.54059406 C38.8118812,7.54059406 38.4792079,7.65148515 38.1465347,7.76237624 L31.7148515,8.31683168 L31.2712871,11.8653465 C31.049505,10.9782178 30.6059406,10.3128713 30.1623762,9.75841584 C29.2752475,8.87128713 28.0554455,8.42772277 26.5029703,8.53861386 C24.5069307,8.64950495 22.9544554,9.53663366 21.7346535,10.8673267 C21.4019802,11.2 21.0693069,11.6435644 20.8475248,11.9762376 L21.4019802,3.1049505 L15.3029703,3.65940594 L12.8633663,11.0891089 L12.6415842,4.21386139 L11.6435644,3.99207921 C10.7564356,3.77029703 9.98019802,3.65940594 9.2039604,3.77029703 C7.76237624,3.88118812 6.32079208,4.43564356 4.87920792,5.32277228 C3.54851485,6.20990099 2.43960396,7.31881188 1.55247525,8.53861386 C0.665346535,9.86930693 0.332673267,11.3108911 0.443564356,12.6415842 C0.554455446,13.750495 0.887128713,14.5267327 1.66336634,15.1920792 C2.21782178,15.6356436 2.99405941,15.9683168 3.88118812,15.9683168 L0.998019802,26.3920792 L5.87722772,25.9485149 L7.0970297,21.5128713 L7.31881188,25.8376238 L13.0851485,25.3940594 L13.9722772,22.7326733 L13.8613861,25.2831683 L20.2930693,24.7287129 L20.4039604,22.8435644 C20.6257426,23.0653465 20.8475248,23.2871287 21.0693069,23.5089109 C22.0673267,24.2851485 23.3980198,24.6178218 25.0613861,24.5069307 C26.3920792,24.3960396 27.6118812,23.8415842 28.609901,23.0653465 C29.2752475,22.5108911 29.829703,21.8455446 30.2732673,21.180198 L29.9405941,24.0633663 L36.3722772,23.5089109 L37.5920792,14.1940594 C37.5920792,14.0831683 37.5920792,13.9722772 37.7029703,13.8613861 C37.7029703,13.8613861 37.7029703,13.8613861 37.7029703,13.9722772 C37.5920792,14.5267327 37.5920792,15.1920792 37.4811881,15.6356436 C37.4811881,15.7465347 37.370297,16.0792079 37.370297,16.5227723 C37.2594059,16.9663366 37.2594059,17.409901 37.2594059,17.8534653 C37.1485149,18.4079208 37.1485149,18.8514851 37.2594059,19.2950495 C37.370297,20.4039604 37.8138614,21.4019802 38.590099,22.1782178 C39.3663366,22.9544554 40.5861386,23.2871287 42.0277228,23.1762376 C43.2475248,23.0653465 44.3564356,22.5108911 45.3544554,21.6237624 C45.3544554,21.6237624 45.3544554,21.6237624 45.4653465,21.5128713 C46.4633663,22.2891089 47.5722772,22.6217822 48.7920792,22.5108911 C49.9009901,22.4 50.8990099,22.0673267 51.6752475,21.4019802 C51.7861386,21.2910891 52.0079208,21.180198 52.1188119,20.9584158 C52.229703,21.0693069 52.3405941,21.0693069 52.4514851,21.180198 C53.1168317,21.6237624 54.0039604,21.8455446 55.1128713,21.8455446 C56.4435644,21.7346535 57.6633663,21.180198 58.6613861,20.1821782 C58.6613861,20.1821782 58.6613861,20.1821782 58.7722772,20.1821782 C59.770297,21.0693069 60.8792079,21.4019802 62.3207921,21.2910891 C63.429703,21.180198 64.4277228,20.8475248 65.2039604,20.1821782 C65.3148515,20.0712871 65.4257426,19.960396 65.6475248,19.849505 C65.7584158,19.960396 65.8693069,20.0712871 65.980198,20.0712871 C66.6455446,20.6257426 67.6435644,20.9584158 68.7524752,20.8475248 C69.9722772,20.7366337 71.0811881,20.1821782 72.190099,19.2950495 C72.190099,19.2950495 72.190099,19.2950495 72.190099,19.2950495 C72.190099,19.2950495 72.190099,19.2950495 72.3009901,19.4059406 C72.6336634,19.6277228 72.8554455,19.849505 73.1881188,19.960396 C72.7445545,20.7366337 72.5227723,21.6237624 72.6336634,22.6217822 C72.7445545,23.7306931 73.1881188,24.7287129 74.0752475,25.3940594 L74.1861386,25.5049505 C74.9623762,26.0594059 75.849505,26.3920792 76.8475248,26.3920792 C76.9584158,26.3920792 77.180198,26.3920792 77.2910891,26.3920792 C78.6217822,26.2811881 79.8415842,25.7267327 80.839604,24.839604 C81.9485149,23.9524752 82.6138614,22.4 82.8356436,20.4039604 L84.9425743,3.77029703 L72.190099,4.87920792 L69.9722772,14.1940594 Z M63.9841584,9.98019802 L63.3188119,14.8594059 C63.2079208,15.3029703 63.0970297,15.6356436 62.9861386,15.8574257 C62.8752475,15.9683168 62.8752475,15.9683168 62.7643564,16.0792079 C62.7643564,15.9683168 62.6534653,15.7465347 62.6534653,15.5247525 C62.5425743,14.7485149 62.6534653,13.8613861 62.8752475,12.8633663 C63.0970297,11.8653465 63.3188119,10.9782178 63.7623762,10.3128713 C63.8732673,10.2019802 63.9841584,10.0910891 63.9841584,9.98019802 Z M50.6772277,11.0891089 L50.0118812,16.0792079 C49.9009901,16.4118812 49.790099,16.7445545 49.6792079,16.9663366 C49.5683168,17.0772277 49.5683168,17.0772277 49.4574257,17.1881188 C49.4574257,17.0772277 49.3465347,16.8554455 49.3465347,16.6336634 C49.2356436,15.8574257 49.3465347,14.970297 49.5683168,13.9722772 C49.790099,12.9742574 50.0118812,12.0871287 50.4554455,11.4217822 C50.4554455,11.3108911 50.5663366,11.2 50.6772277,11.0891089 Z M26.6138614,15.8574257 C26.5029703,16.4118812 26.3920792,16.9663366 26.2811881,17.5207921 C26.0594059,18.1861386 25.8376238,18.7405941 25.6158416,19.0732673 C25.6158416,19.1841584 25.5049505,19.1841584 25.5049505,19.1841584 C25.5049505,19.0732673 25.5049505,18.8514851 25.3940594,18.629703 C25.2831683,17.8534653 25.3940594,16.9663366 25.6158416,15.9683168 C25.7267327,15.5247525 25.8376238,15.0811881 25.9485149,14.6376238 C26.0594059,15.1920792 26.2811881,15.6356436 26.6138614,15.8574257 Z M42.9148515,17.0772277 C42.9148515,17.0772277 42.9148515,17.0772277 42.9148515,17.0772277 C42.9148515,17.1881188 42.9148515,17.1881188 42.9148515,17.0772277 C42.9148515,17.1881188 42.9148515,17.1881188 42.9148515,17.1881188 C42.9148515,17.1881188 42.9148515,17.1881188 42.9148515,17.0772277 Z" id="Shape" stroke="#024D97" stroke-width="1.2226" fill="#FFFFFF" stroke-linejoin="round"></path>
                        <path d="M69.9722772,13.639604 C69.8613861,13.9722772 69.8613861,14.1940594 69.750495,14.5267327 L71.0811881,4.32475248 L64.649505,4.87920792 L64.649505,4.87920792 C64.3168317,4.76831683 63.8732673,4.76831683 63.429703,4.87920792 C61.6554455,4.99009901 60.2138614,5.76633663 59.1049505,7.0970297 C58.2178218,8.0950495 57.5524752,9.2039604 57.1089109,10.5346535 L58.550495,1.96982145e-15 L51.8970297,1.44158416 L51.3425743,5.98811881 C51.009901,5.87722772 50.5663366,5.87722772 50.1227723,5.98811881 C48.3485149,6.0990099 46.9069307,6.87524752 45.7980198,8.20594059 C44.9108911,9.31485149 44.1346535,10.5346535 43.6910891,11.8653465 C43.6910891,11.5326733 43.6910891,11.0891089 43.6910891,10.7564356 C43.580198,9.42574257 43.1366337,8.42772277 42.249505,7.65148515 C41.4732673,6.98613861 40.3643564,6.76435644 39.1445545,6.87524752 C38.8118812,6.87524752 38.4792079,6.98613861 38.1465347,7.0970297 L31.7148515,7.65148515 L31.2712871,11.2 C31.049505,10.3128713 30.6059406,9.64752475 30.1623762,9.09306931 C29.2752475,8.20594059 28.0554455,7.76237624 26.5029703,7.87326733 C24.5069307,7.98415842 22.9544554,8.87128713 21.7346535,10.2019802 C21.4019802,10.5346535 21.0693069,10.9782178 20.8475248,11.3108911 L21.4019802,2.43960396 L15.3029703,2.99405941 L12.8633663,10.4237624 L12.6415842,3.54851485 L11.6435644,3.32673267 C10.7564356,3.1049505 9.98019802,2.99405941 9.2039604,3.1049505 C7.76237624,3.21584158 6.32079208,3.77029703 4.87920792,4.65742574 C3.54851485,5.54455446 2.43960396,6.65346535 1.55247525,7.87326733 C0.665346535,9.2039604 0.332673267,10.6455446 0.443564356,11.9762376 C0.554455446,13.0851485 0.887128713,13.8613861 1.66336634,14.5267327 C2.21782178,14.970297 2.99405941,15.3029703 3.88118812,15.3029703 L0.998019802,25.7267327 L5.87722772,25.2831683 L7.0970297,20.8475248 L7.31881188,25.1722772 L13.0851485,24.7287129 L13.9722772,22.0673267 L13.8613861,24.6178218 L20.2930693,24.0633663 L20.4039604,22.1782178 C20.6257426,22.4 20.8475248,22.6217822 21.0693069,22.8435644 C22.0673267,23.619802 23.3980198,23.9524752 25.0613861,23.8415842 C26.3920792,23.7306931 27.6118812,23.1762376 28.609901,22.4 C29.2752475,21.8455446 29.829703,21.180198 30.2732673,20.5148515 L29.9405941,23.3980198 L36.3722772,22.8435644 L37.5920792,13.5287129 C37.5920792,13.4178218 37.5920792,13.3069307 37.7029703,13.1960396 C37.7029703,13.1960396 37.7029703,13.1960396 37.7029703,13.3069307 C37.5920792,13.8613861 37.5920792,14.5267327 37.4811881,14.970297 C37.4811881,15.0811881 37.370297,15.4138614 37.370297,15.8574257 C37.2594059,16.3009901 37.2594059,16.7445545 37.2594059,17.1881188 C37.1485149,17.7425743 37.1485149,18.1861386 37.2594059,18.629703 C37.370297,19.7386139 37.8138614,20.7366337 38.590099,21.5128713 C39.3663366,22.2891089 40.5861386,22.6217822 42.0277228,22.5108911 C43.2475248,22.4 44.3564356,21.8455446 45.3544554,20.9584158 C45.3544554,20.9584158 45.3544554,20.9584158 45.4653465,20.8475248 C46.4633663,21.6237624 47.5722772,21.9564356 48.7920792,21.8455446 C49.9009901,21.7346535 50.8990099,21.4019802 51.6752475,20.7366337 C51.7861386,20.6257426 52.0079208,20.5148515 52.1188119,20.2930693 C52.229703,20.4039604 52.3405941,20.4039604 52.4514851,20.5148515 C53.1168317,20.9584158 54.0039604,21.180198 55.1128713,21.180198 C56.4435644,21.0693069 57.6633663,20.5148515 58.6613861,19.5168317 C58.6613861,19.5168317 58.6613861,19.5168317 58.7722772,19.5168317 C59.770297,20.4039604 60.8792079,20.7366337 62.3207921,20.6257426 C63.429703,20.5148515 64.4277228,20.1821782 65.2039604,19.5168317 C65.3148515,19.4059406 65.4257426,19.2950495 65.6475248,19.1841584 C65.7584158,19.2950495 65.8693069,19.4059406 65.980198,19.4059406 C66.6455446,19.960396 67.6435644,20.2930693 68.7524752,20.1821782 C69.9722772,20.0712871 71.0811881,19.5168317 72.190099,18.629703 C72.190099,18.629703 72.190099,18.629703 72.190099,18.629703 C72.190099,18.629703 72.190099,18.629703 72.3009901,18.7405941 C72.6336634,18.9623762 72.8554455,19.1841584 73.1881188,19.2950495 C72.7445545,20.0712871 72.5227723,20.9584158 72.6336634,21.9564356 C72.7445545,23.0653465 73.1881188,24.0633663 74.0752475,24.7287129 L74.1861386,24.839604 C74.9623762,25.3940594 75.849505,25.7267327 76.8475248,25.7267327 C76.9584158,25.7267327 77.180198,25.7267327 77.2910891,25.7267327 C78.6217822,25.6158416 79.8415842,25.0613861 80.839604,24.1742574 C81.9485149,23.2871287 82.6138614,21.7346535 82.8356436,19.7386139 L84.9425743,3.1049505 L72.190099,4.21386139 L69.9722772,13.639604 Z M63.9841584,9.42574257 L63.3188119,14.3049505 C63.2079208,14.7485149 63.0970297,15.0811881 62.9861386,15.3029703 C62.8752475,15.4138614 62.8752475,15.4138614 62.7643564,15.5247525 C62.7643564,15.4138614 62.6534653,15.1920792 62.6534653,14.970297 C62.5425743,14.1940594 62.6534653,13.3069307 62.8752475,12.3089109 C63.0970297,11.3108911 63.3188119,10.4237624 63.7623762,9.75841584 C63.8732673,9.64752475 63.9841584,9.53663366 63.9841584,9.42574257 Z M50.6772277,10.5346535 L50.0118812,15.5247525 C49.9009901,15.8574257 49.790099,16.190099 49.6792079,16.4118812 C49.5683168,16.5227723 49.5683168,16.5227723 49.4574257,16.6336634 C49.4574257,16.5227723 49.3465347,16.3009901 49.3465347,16.0792079 C49.2356436,15.3029703 49.3465347,14.4158416 49.5683168,13.4178218 C49.790099,12.419802 50.0118812,11.5326733 50.4554455,10.8673267 C50.4554455,10.7564356 50.5663366,10.6455446 50.6772277,10.5346535 Z M26.6138614,15.3029703 C26.5029703,15.8574257 26.3920792,16.4118812 26.2811881,16.9663366 C26.0594059,17.6316832 25.8376238,18.1861386 25.6158416,18.5188119 C25.6158416,18.629703 25.5049505,18.629703 25.5049505,18.629703 C25.5049505,18.5188119 25.5049505,18.2970297 25.3940594,18.0752475 C25.2831683,17.2990099 25.3940594,16.4118812 25.6158416,15.4138614 C25.7267327,14.970297 25.8376238,14.5267327 25.9485149,14.0831683 C26.0594059,14.6376238 26.2811881,14.970297 26.6138614,15.3029703 Z M42.9148515,16.5227723 C42.9148515,16.5227723 42.9148515,16.5227723 42.9148515,16.5227723 C42.9148515,16.5227723 42.9148515,16.6336634 42.9148515,16.5227723 C42.9148515,16.6336634 42.9148515,16.6336634 42.9148515,16.6336634 C42.9148515,16.6336634 42.9148515,16.6336634 42.9148515,16.5227723 Z" id="Shape" fill="#FFFFFF"></path>
                        <g transform="translate(1.108911, 1.108911)" fill="#008ECF">
                            <path d="M6.54257426,4.43564356 C5.32277228,4.99009901 4.32475248,5.76633663 3.77029703,6.76435644 C3.1049505,7.76237624 2.88316832,8.98217822 2.99405941,10.4237624 C2.99405941,11.0891089 3.1049505,11.5326733 3.32673267,11.7544554 C3.43762376,11.9762376 3.54851485,12.0871287 3.54851485,12.1980198 C1.77425743,12.3089109 0.776237624,11.6435644 0.665346535,10.0910891 C0.554455446,9.09306931 0.887128713,7.98415842 1.66336634,6.87524752 C2.32871287,5.76633663 3.32673267,4.76831683 4.54653465,3.99207921 C5.76633663,3.21584158 6.98613861,2.77227723 8.20594059,2.66138614 C8.87128713,2.66138614 9.53663366,2.66138614 10.2019802,2.88316832 L10.7564356,16.3009901 L15.1920792,2.43960396 L18.8514851,2.10693069 L17.7425743,21.0693069 L14.0831683,21.4019802 L14.7485149,9.86930693 L10.8673267,21.7346535 L7.42970297,22.0673267 L6.98613861,10.5346535 L3.65940594,22.4 L1.66336634,22.6217822 L6.54257426,4.43564356 Z" id="Path"></path>
                            <path d="M20.5148515,19.960396 C19.7386139,19.4059406 19.2950495,18.4079208 19.1841584,16.9663366 C19.0732673,15.8574257 19.1841584,14.5267327 19.6277228,13.0851485 C19.960396,11.6435644 20.6257426,10.3128713 21.6237624,9.2039604 C22.6217822,8.0950495 23.8415842,7.42970297 25.5049505,7.31881188 C27.7227723,7.0970297 28.8316832,8.42772277 29.0534653,11.0891089 L29.0534653,11.0891089 C29.0534653,11.0891089 29.1643564,11.0891089 29.3861386,11.0891089 C29.9405941,11.0891089 30.6059406,10.8673267 31.2712871,10.5346535 C31.9366337,10.2019802 32.6019802,9.75841584 33.1564356,9.31485149 L33.4891089,9.98019802 C33.0455446,10.5346535 32.4910891,11.0891089 31.7148515,11.4217822 C30.9386139,11.8653465 30.1623762,12.1980198 29.1643564,12.419802 C29.1643564,13.9722772 28.9425743,15.3029703 28.4990099,16.5227723 C28.0554455,17.7425743 27.390099,18.629703 26.6138614,19.4059406 C25.8376238,20.0712871 24.839604,20.5148515 23.8415842,20.6257426 C22.2891089,20.7366337 21.2910891,20.5148515 20.5148515,19.960396 Z M25.5049505,17.5207921 C25.8376238,16.9663366 26.170297,16.3009901 26.3920792,15.5247525 C26.6138614,14.6376238 26.7247525,13.750495 26.8356436,12.7524752 C26.3920792,12.6415842 26.0594059,12.3089109 26.0594059,11.7544554 C25.9485149,11.0891089 26.170297,10.5346535 26.7247525,10.3128713 C26.6138614,9.75841584 26.5029703,9.42574257 26.3920792,9.2039604 C26.2811881,8.98217822 25.9485149,8.87128713 25.6158416,8.98217822 C25.0613861,8.98217822 24.5069307,9.42574257 24.0633663,10.3128713 C23.619802,11.2 23.2871287,12.1980198 23.0653465,13.3069307 C22.8435644,14.4158416 22.7326733,15.5247525 22.8435644,16.3009901 C22.9544554,17.0772277 23.0653465,17.6316832 23.2871287,17.9643564 C23.5089109,18.1861386 23.8415842,18.2970297 24.3960396,18.2970297 C24.839604,18.2970297 25.1722772,17.9643564 25.5049505,17.5207921 Z" id="Shape"></path>
                            <path d="M37.8138614,18.7405941 C37.2594059,18.1861386 37.0376238,17.5207921 36.9267327,16.7445545 C36.9267327,16.4118812 36.9267327,15.9683168 36.9267327,15.5247525 C36.9267327,15.0811881 37.0376238,14.6376238 37.0376238,14.1940594 C37.1485149,13.750495 37.1485149,13.5287129 37.1485149,13.4178218 C37.2594059,12.8633663 37.2594059,12.1980198 37.370297,11.6435644 C37.4811881,11.0891089 37.4811881,10.5346535 37.4811881,10.2019802 C37.370297,9.31485149 37.0376238,8.98217822 36.4831683,8.98217822 C36.039604,8.98217822 35.7069307,9.31485149 35.3742574,9.75841584 C35.0415842,10.2019802 34.819802,10.7564356 34.7089109,11.5326733 L33.7108911,19.849505 L30.0514851,20.1821782 L31.7148515,7.20792079 L35.3742574,6.87524752 L35.1524752,8.20594059 C35.9287129,7.20792079 36.9267327,6.65346535 38.0356436,6.54257426 C38.9227723,6.43168317 39.5881188,6.65346535 40.1425743,7.0970297 C40.6970297,7.54059406 41.029703,8.20594059 41.029703,9.2039604 C41.029703,9.64752475 41.029703,10.2019802 41.029703,10.8673267 C40.9188119,11.5326733 40.8079208,12.1980198 40.6970297,13.0851485 C40.5861386,13.639604 40.4752475,14.1940594 40.4752475,14.6376238 C40.3643564,15.1920792 40.3643564,15.5247525 40.3643564,15.8574257 C40.3643564,16.190099 40.4752475,16.4118812 40.6970297,16.6336634 C40.9188119,16.8554455 41.1405941,16.8554455 41.4732673,16.8554455 C42.0277228,16.8554455 42.360396,16.6336634 42.6930693,16.190099 C42.9148515,15.7465347 43.2475248,15.1920792 43.4693069,14.4158416 L44.5782178,14.3049505 C44.1346535,16.190099 43.4693069,17.5207921 42.6930693,18.1861386 C41.9168317,18.8514851 41.1405941,19.2950495 40.2534653,19.4059406 C39.1445545,19.4059406 38.3683168,19.1841584 37.8138614,18.7405941 Z" id="Path"></path>
                            <path d="M44.4673267,17.9643564 C43.8019802,17.409901 43.3584158,16.3009901 43.2475248,14.970297 C43.1366337,13.750495 43.2475248,12.419802 43.6910891,10.9782178 C44.0237624,9.53663366 44.6891089,8.31683168 45.6871287,7.31881188 C46.5742574,6.32079208 47.7940594,5.65544554 49.1247525,5.54455446 C49.790099,5.43366337 50.3445545,5.54455446 50.6772277,5.76633663 C51.009901,5.98811881 51.2316832,6.32079208 51.2316832,6.65346535 L51.2316832,6.76435644 L52.0079208,0.776237624 L55.7782178,7.87928578e-15 L54.0039604,13.9722772 C54.0039604,14.1940594 53.8930693,14.5267327 54.0039604,14.7485149 C54.0039604,15.0811881 54.1148515,15.3029703 54.3366337,15.4138614 C54.5584158,15.5247525 54.780198,15.6356436 55.1128713,15.5247525 C55.5564356,15.5247525 56,15.1920792 56.3326733,14.8594059 C56.6653465,14.4158416 56.8871287,13.8613861 56.9980198,13.1960396 L58.1069307,13.0851485 C57.3306931,16.190099 55.7782178,17.8534653 53.3386139,18.0752475 C52.6732673,18.1861386 52.1188119,17.9643564 51.5643564,17.6316832 C51.1207921,17.2990099 50.7881188,16.7445545 50.6772277,16.0792079 C50.3445545,16.7445545 49.790099,17.409901 49.2356436,17.8534653 C48.6811881,18.2970297 47.9049505,18.629703 47.1287129,18.7405941 C45.9089109,18.8514851 45.1326733,18.629703 44.4673267,17.9643564 Z M49.5683168,15.5247525 C49.9009901,15.0811881 50.2336634,14.5267327 50.3445545,13.8613861 L50.3445545,13.750495 L51.1207921,7.87326733 C50.8990099,7.31881188 50.5663366,6.98613861 50.0118812,7.0970297 C49.3465347,7.20792079 48.7920792,7.65148515 48.2376238,8.42772277 C47.7940594,9.31485149 47.4613861,10.2019802 47.239604,11.4217822 C47.0178218,12.5306931 46.9069307,13.5287129 47.0178218,14.4158416 C47.1287129,15.3029703 47.239604,15.7465347 47.5722772,15.9683168 C47.7940594,16.190099 48.1267327,16.3009901 48.4594059,16.3009901 C48.7920792,16.190099 49.1247525,15.9683168 49.5683168,15.5247525 Z" id="Shape"></path>
                            <path d="M57.7742574,16.8554455 C57.1089109,16.3009901 56.6653465,15.1920792 56.5544554,13.8613861 C56.4435644,12.6415842 56.5544554,11.3108911 56.9980198,9.86930693 C57.3306931,8.42772277 57.9960396,7.20792079 58.9940594,6.20990099 C59.8811881,5.21188119 61.1009901,4.54653465 62.4316832,4.43564356 C63.0970297,4.32475248 63.6514851,4.43564356 63.9841584,4.65742574 C64.3168317,4.87920792 64.5386139,5.21188119 64.5386139,5.54455446 L64.5386139,5.76633663 L64.760396,4.43564356 L68.419802,4.1029703 L67.3108911,12.8633663 C67.3108911,13.0851485 67.2,13.4178218 67.3108911,13.639604 C67.4217822,14.4158416 67.7544554,14.7485149 68.419802,14.6376238 C68.8633663,14.6376238 69.3069307,14.3049505 69.639604,13.8613861 C69.9722772,13.4178218 70.1940594,12.7524752 70.3049505,12.0871287 L71.4138614,11.9762376 C70.970297,13.8613861 70.3049505,15.1920792 69.4178218,15.8574257 C68.5306931,16.6336634 67.6435644,16.9663366 66.7564356,17.0772277 C66.0910891,17.1881188 65.4257426,16.9663366 64.9821782,16.6336634 C64.5386139,16.3009901 64.2059406,15.7465347 64.0950495,14.970297 C63.6514851,15.7465347 63.2079208,16.3009901 62.5425743,16.7445545 C61.9881188,17.1881188 61.3227723,17.5207921 60.4356436,17.5207921 C59.3267327,17.7425743 58.439604,17.5207921 57.7742574,16.8554455 Z M62.8752475,14.4158416 C63.2079208,13.9722772 63.5405941,13.4178218 63.5405941,12.7524752 L64.3168317,6.87524752 C64.3168317,6.65346535 64.2059406,6.43168317 63.9841584,6.20990099 C63.7623762,5.98811881 63.5405941,5.87722772 63.2079208,5.98811881 C62.5425743,6.0990099 61.9881188,6.54257426 61.4336634,7.31881188 C60.990099,8.20594059 60.6574257,9.09306931 60.4356436,10.3128713 C60.2138614,11.4217822 60.1029703,12.419802 60.2138614,13.3069307 C60.3247525,14.1940594 60.4356436,14.6376238 60.7683168,14.8594059 C60.990099,15.0811881 61.3227723,15.1920792 61.6554455,15.1920792 C62.0990099,15.0811881 62.5425743,14.7485149 62.8752475,14.4158416 Z" id="Shape"></path>
                            <path d="M72.9663366,22.0673267 C72.3009901,21.6237624 71.9683168,20.9584158 71.8574257,20.1821782 C71.7465347,19.4059406 71.9683168,18.8514851 72.3009901,18.2970297 C72.6336634,17.7425743 73.0772277,17.409901 73.6316832,17.0772277 C74.1861386,16.7445545 74.9623762,16.4118812 75.960396,15.9683168 L76.0712871,14.8594059 C75.2950495,15.9683168 74.2970297,16.5227723 73.0772277,16.6336634 C72.3009901,16.7445545 71.6356436,16.5227723 71.0811881,16.0792079 C70.5267327,15.6356436 70.1940594,14.8594059 70.1940594,13.8613861 C70.1940594,13.4178218 70.1940594,12.8633663 70.3049505,12.1980198 L71.3029703,3.88118812 L74.9623762,3.54851485 L73.8534653,12.3089109 C73.8534653,12.5306931 73.8534653,12.7524752 73.8534653,12.9742574 C73.9643564,13.750495 74.1861386,14.0831683 74.7405941,14.0831683 C75.1841584,14.0831683 75.6277228,13.8613861 75.960396,13.4178218 C76.2930693,12.9742574 76.5148515,12.419802 76.6257426,11.7544554 L77.6237624,3.43762376 L81.2831683,3.1049505 L79.3980198,18.0752475 C79.1762376,19.7386139 78.7326733,20.9584158 77.8455446,21.6237624 C77.0693069,22.2891089 76.0712871,22.7326733 75.0732673,22.8435644 C74.2970297,22.7326733 73.5207921,22.5108911 72.9663366,22.0673267 Z M75.1841584,19.960396 C75.4059406,19.6277228 75.6277228,19.0732673 75.7386139,18.4079208 L75.960396,16.8554455 C75.0732673,17.1881188 74.4079208,17.6316832 73.9643564,18.0752475 C73.5207921,18.5188119 73.2990099,19.0732673 73.409901,19.7386139 C73.409901,19.960396 73.5207921,20.0712871 73.7425743,20.2930693 C73.9643564,20.4039604 74.1861386,20.5148515 74.5188119,20.5148515 C74.629703,20.4039604 74.8514851,20.2930693 75.1841584,19.960396 Z" id="Shape"></path>
                        </g>
                    </g>
                </g>
            </g>
        </g>
    </g>
</svg>