<?xml version="1.0" encoding="UTF-8"?>
<svg width="234px" height="130px" viewBox="0 0 234 130" version="1.1" xmlns="http://www.w3.org/2000/svg" xmlns:xlink="http://www.w3.org/1999/xlink">
    <title>newyork_lotto</title>
    <defs>
        <linearGradient x1="23.4565318%" y1="55.1304529%" x2="72.1011561%" y2="46.5358944%" id="linearGradient-1">
            <stop stop-color="#1B181C" offset="0%"></stop>
            <stop stop-color="#565054" offset="33.77%"></stop>
            <stop stop-color="#FFFFFF" offset="100%"></stop>
        </linearGradient>
        <linearGradient x1="32.526185%" y1="54.8482777%" x2="81.1707514%" y2="39.1020428%" id="linearGradient-2">
            <stop stop-color="#1B181C" offset="0%"></stop>
            <stop stop-color="#565054" offset="33.77%"></stop>
            <stop stop-color="#FFFFFF" offset="100%"></stop>
        </linearGradient>
    </defs>
    <g id="Bg" stroke="none" stroke-width="1" fill="none" fill-rule="evenodd">
        <g id="Logos" transform="translate(-362.000000, -258.000000)">
            <g id="newyork_lotto" transform="translate(362.000000, 258.000000)">
                <rect id="Rectangle" x="0" y="0" width="234" height="130" rx="2"></rect>
                <g id="Group" transform="translate(18.000000, 20.000000)" fill-rule="nonzero">
                    <path d="M197.35625,31.1675 L0.56875,31.1675 L0.56875,14.44625 C0.56875,6.48375 7.0525,-1.29318778e-13 15.015,-1.29318778e-13 L183.02375,-1.29318778e-13 C190.98625,-1.29318778e-13 197.47,6.48375 197.47,14.44625 L197.47,31.1675 L197.35625,31.1675 Z" id="Path" fill="#E41E54"></path>
                    <path d="M182.91,91 L14.90125,91 C6.93875,91 0.455,84.51625 0.455,76.55375 L0.455,33.8975 L197.243974,33.8975 L197.243974,76.55375 C197.35625,84.51625 190.8725,91 182.91,91 Z" id="Path" fill="#11448E"></path>
                    <g opacity="0.34" id="Path">
                        <path d="M179.61125,0 L18.31375,0 C8.53125,0 0.56875,7.9625 0.56875,17.745 L0.56875,31.1675 L197.35625,31.1675 L197.35625,17.745 C197.35625,7.9625 189.39375,0 179.61125,0 Z" fill="url(#linearGradient-1)"></path>
                        <path d="M0.56875,73.255 C0.56875,83.0375 8.53125,91 18.31375,91 L179.61125,91 C189.39375,91 197.35625,83.0375 197.35625,73.255 L197.35625,33.8975 L0.56875,33.8975 L0.56875,73.255 L0.56875,73.255 Z" fill="url(#linearGradient-2)"></path>
                    </g>
                    <g transform="translate(15.925000, 43.225000)" fill="#FFFFFF">
                        <polygon id="Path" points="6.02875 31.1675 17.0625 31.1675 17.0625 36.6275 0.34125 36.6275 0.34125 0.79625 6.02875 0.79625"></polygon>
                        <path d="M55.62375,22.86375 C55.62375,27.18625 54.6,30.7125 52.66625,33.215 C50.7325,35.7175 48.11625,37.0825 44.93125,37.0825 C41.74625,37.0825 39.13,35.83125 37.0825,33.215 C35.14875,30.7125 34.125,27.18625 34.125,22.86375 L34.125,14.3325 C34.125,10.01 35.14875,6.5975 37.0825,3.98125 C39.01625,1.365 41.6325,0.11375 44.8175,0.11375 C48.0025,0.11375 50.61875,1.365 52.66625,3.98125 C54.6,6.5975 55.62375,10.01 55.62375,14.3325 L55.62375,22.86375 Z M49.93625,14.3325 C49.93625,11.6025 49.48125,9.44125 48.57125,7.9625 C47.66125,6.48375 46.41,5.6875 44.8175,5.6875 C43.225,5.6875 41.97375,6.48375 41.06375,7.9625 C40.2675,9.44125 39.8125,11.6025 39.8125,14.3325 L39.8125,22.86375 C39.8125,25.7075 40.2675,27.755 41.06375,29.3475 C41.97375,30.82625 43.11125,31.6225 44.8175,31.6225 C46.41,31.6225 47.66125,30.82625 48.57125,29.3475 C49.48125,27.86875 49.8225,25.7075 49.8225,22.86375 L49.8225,14.3325 L49.93625,14.3325 Z" id="Shape"></path>
                        <polygon id="Path" points="91.56875 6.1425 84.63 6.1425 84.63 36.51375 78.9425 36.51375 78.9425 6.1425 72.1175 6.1425 72.1175 0.6825 91.56875 0.6825"></polygon>
                        <polygon id="Path" points="128.42375 6.1425 121.485 6.1425 121.485 36.51375 115.7975 36.51375 115.7975 6.1425 108.9725 6.1425 108.9725 0.6825 128.42375 0.6825"></polygon>
                        <path d="M166.3025,22.86375 C166.3025,27.18625 165.27875,30.7125 163.345,33.215 C161.41125,35.7175 158.795,37.0825 155.61,37.0825 C152.425,37.0825 149.80875,35.83125 147.76125,33.215 C145.8275,30.7125 144.80375,27.18625 144.80375,22.86375 L144.80375,14.3325 C144.80375,10.01 145.8275,6.5975 147.76125,3.98125 C149.695,1.365 152.31125,0.11375 155.49625,0.11375 C158.68125,0.11375 161.2975,1.365 163.345,3.98125 C165.27875,6.5975 166.3025,10.01 166.3025,14.3325 L166.3025,22.86375 Z M160.615,14.3325 C160.615,11.6025 160.16,9.44125 159.25,7.9625 C158.34,6.48375 157.08875,5.6875 155.49625,5.6875 C153.90375,5.6875 152.6525,6.48375 151.7425,7.9625 C150.94625,9.44125 150.49125,11.6025 150.49125,14.3325 L150.49125,22.86375 C150.49125,25.7075 150.94625,27.755 151.7425,29.3475 C152.6525,30.82625 153.79,31.6225 155.49625,31.6225 C157.08875,31.6225 158.34,30.82625 159.25,29.3475 C160.16,27.86875 160.50125,25.7075 160.50125,22.86375 L160.50125,14.3325 L160.615,14.3325 Z" id="Shape"></path>
                    </g>
                    <g transform="translate(15.925000, 4.550000)" fill="#FFFFFF">
                        <polygon id="Path" points="12.62625 21.27125 9.3275 21.27125 3.98125 8.4175 3.8675 8.4175 3.8675 21.27125 0.56875 21.27125 0.56875 1.25125 3.8675 1.25125 9.21375 14.105 9.3275 14.105 9.3275 1.365 12.62625 1.365"></polygon>
                        <polygon id="Path" points="32.5325 12.39875 27.3 12.39875 27.3 18.2 33.55625 18.2 33.55625 21.27125 24.00125 21.27125 24.00125 1.25125 33.4425 1.25125 33.4425 4.3225 27.3 4.3225 27.3 9.44125 32.5325 9.44125 32.5325 12.39875"></polygon>
                        <polygon id="Path" points="56.42 13.99125 56.42 13.99125 58.24 1.25125 61.6525 1.25125 58.24 21.27125 55.055 21.27125 52.66625 9.3275 52.5525 9.3275 50.16375 21.27125 46.97875 21.27125 43.68 1.25125 47.0925 1.25125 48.79875 13.8775 48.9125 13.8775 51.30125 1.25125 53.9175 1.25125"></polygon>
                        <polygon id="Path" points="91.455 10.01 91.455 10.01 94.4125 1.25125 97.93875 1.25125 93.0475 14.105 93.0475 21.27125 89.74875 21.27125 89.74875 13.8775 84.8575 1.25125 88.38375 1.25125"></polygon>
                        <path d="M119.77875,13.65 C119.77875,16.03875 119.21,17.9725 118.0725,19.45125 C116.935,20.81625 115.45625,21.6125 113.63625,21.6125 C111.81625,21.6125 110.22375,20.93 109.2,19.45125 C108.0625,18.08625 107.49375,16.1525 107.49375,13.65 L107.49375,8.8725 C107.49375,6.48375 108.0625,4.55 109.2,3.07125 C110.3375,1.5925 111.81625,0.91 113.63625,0.91 C115.45625,0.91 117.04875,1.5925 118.18625,3.07125 C119.32375,4.55 119.8925,6.48375 119.8925,8.8725 L119.8925,13.65 L119.77875,13.65 Z M116.59375,8.8725 C116.59375,7.28 116.36625,6.1425 115.7975,5.2325 C115.3425,4.43625 114.54625,3.98125 113.63625,3.98125 C112.72625,3.98125 111.93,4.43625 111.475,5.2325 C111.02,6.02875 110.7925,7.28 110.7925,8.8725 L110.7925,13.65 C110.7925,15.2425 111.02,16.38 111.475,17.29 C111.93,18.08625 112.72625,18.54125 113.63625,18.54125 C114.54625,18.54125 115.3425,18.08625 115.7975,17.29 C116.2525,16.49375 116.59375,15.2425 116.59375,13.65 L116.59375,8.8725 Z" id="Shape"></path>
                        <path d="M134.33875,13.195 L134.33875,21.27125 L131.04,21.27125 L131.04,1.25125 L136.15875,1.25125 C137.865,1.25125 139.11625,1.82 140.14,2.84375 C141.05,3.8675 141.61875,5.34625 141.61875,7.16625 C141.61875,8.19 141.39125,9.1 141.05,9.89625 C140.595,10.6925 140.02625,11.26125 139.23,11.71625 C140.14,12.0575 140.70875,12.62625 141.16375,13.4225 C141.505,14.21875 141.7325,15.2425 141.7325,16.49375 L141.7325,17.9725 C141.7325,18.54125 141.7325,19.11 141.84625,19.7925 C141.96,20.36125 142.1875,20.81625 142.415,21.1575 L142.415,21.49875 L139.0025,21.49875 C138.775,21.1575 138.5475,20.7025 138.43375,20.02 C138.32,19.3375 138.32,18.655 138.32,17.9725 L138.32,16.6075 C138.32,15.58375 138.0925,14.7875 137.75125,14.21875 C137.41,13.65 136.84125,13.4225 136.15875,13.4225 L134.33875,13.4225 L134.33875,13.195 Z M134.33875,10.2375 L136.15875,10.2375 C136.84125,10.2375 137.41,10.01 137.75125,9.44125 C138.0925,8.98625 138.32,8.19 138.32,7.28 C138.32,6.37 138.0925,5.57375 137.75125,5.005 C137.41,4.43625 136.84125,4.20875 136.15875,4.20875 L134.33875,4.20875 L134.33875,10.2375 Z" id="Shape"></path>
                        <polygon id="Path" points="157.43 12.9675 156.2925 12.9675 156.2925 21.27125 152.99375 21.27125 152.99375 1.25125 156.2925 1.25125 156.2925 9.555 157.2025 9.555 160.50125 1.25125 164.59625 1.25125 159.9325 10.35125 164.9375 21.27125 160.72875 21.27125"></polygon>
                    </g>
                </g>
            </g>
        </g>
    </g>
</svg>