<?xml version="1.0" encoding="UTF-8"?>
<svg width="234px" height="130px" viewBox="0 0 234 130" version="1.1" xmlns="http://www.w3.org/2000/svg" xmlns:xlink="http://www.w3.org/1999/xlink">
    <title>oz_lotto</title>
    <defs>
        <circle id="path-1" cx="42.65625" cy="42.65625" r="42.65625"></circle>
        <filter x="-64.7%" y="-64.7%" width="229.5%" height="229.5%" filterUnits="objectBoundingBox" id="filter-3">
            <feGaussianBlur stdDeviation="15" in="SourceGraphic"></feGaussianBlur>
        </filter>
    </defs>
    <g id="Bg" stroke="none" stroke-width="1" fill="none" fill-rule="evenodd">
        <g id="Logos" transform="translate(-668.000000, -56.000000)">
            <g id="oz_lotto" transform="translate(668.000000, 56.000000)">
                <rect id="Rectangle" x="0" y="0" width="234" height="130" rx="2"></rect>
                <g id="logo-oz" transform="translate(13.000000, 20.000000)">
                    <path d="M128.679688,34.125 C135.354566,34.125 140.765625,39.5360585 140.765625,46.2109375 C140.765625,52.8858165 135.354566,58.296875 128.679688,58.296875 C122.004809,58.296875 116.59375,52.8858165 116.59375,46.2109375 C116.59375,39.5360585 122.004809,34.125 128.679688,34.125 Z M195.507812,34.125 C202.182691,34.125 207.59375,39.5360585 207.59375,46.2109375 C207.59375,52.8858165 202.182691,58.296875 195.507812,58.296875 C188.832934,58.296875 183.421875,52.8858165 183.421875,46.2109375 C183.421875,39.5360585 188.832934,34.125 195.507812,34.125 Z M108.0625,34.125 L108.0625,51.1875 L116.59375,51.1875 L116.59375,56.875 L102.375,56.875 L102.375,34.125 L108.0625,34.125 Z M160.671875,34.125 L160.671875,39.8125 L153.5625,39.8125 L153.5625,56.875 L147.875,56.875 L147.875,39.8125 L140.765625,39.8125 L140.765625,34.125 L160.671875,34.125 Z M182,34.125 L182,39.8125 L174.890625,39.8125 L174.890625,56.875 L169.203125,56.875 L169.203125,39.8125 L162.09375,39.8125 L162.09375,34.125 L182,34.125 Z M128.679688,39.8125 C125.145928,39.8125 122.28125,42.677178 122.28125,46.2109375 C122.28125,49.744697 125.145928,52.609375 128.679688,52.609375 C132.213447,52.609375 135.078125,49.744697 135.078125,46.2109375 C135.078125,42.677178 132.213447,39.8125 128.679688,39.8125 Z M195.507812,39.8125 C191.974053,39.8125 189.109375,42.677178 189.109375,46.2109375 C189.109375,49.744697 191.974053,52.609375 195.507812,52.609375 C199.041572,52.609375 201.90625,49.744697 201.90625,46.2109375 C201.90625,42.677178 199.041572,39.8125 195.507812,39.8125 Z" id="Shape" fill="#158D32"></path>
                    <g id="oval">
                        <circle id="Oval" fill="#158D32" cx="45.5" cy="45.5" r="45.5"></circle>
                        <g id="Oval" transform="translate(1.421875, 1.421875)">
                            <mask id="mask-2" fill="white">
                                <use xlink:href="#path-1"></use>
                            </mask>
                            <use id="Mask" fill="#FED618" xlink:href="#path-1"></use>
                            <circle fill="#FFFCC8" filter="url(#filter-3)" mask="url(#mask-2)" cx="41.0763889" cy="42.65625" r="34.7569444"></circle>
                        </g>
                        <path d="M66.029518,14.21875 C71.301506,22.5075097 73.9375,33.3865068 73.9375,46.8557413 C73.9375,71.7220203 48.6319575,81.046875 48.6319575,81.046875 C45.6636747,70.4404815 40.6797638,63.1404233 33.6802248,59.1467002 C38.8004997,56.5748374 42.3055719,51.3404396 42.3055719,45.3015988 C42.3055719,36.7183071 35.2245236,29.7601744 26.4896078,29.7601744 C17.7546921,29.7601744 10.6736438,36.7183071 10.6736438,45.3015988 C10.6736438,49.3102364 12.2181277,52.9644022 14.7542511,55.7208481 C12.6443538,55.9126168 10.4438174,56.2536336 8.15336063,56.7421513 C6.67035658,54.2955911 5.84840304,50.4820736 5.6875,45.3015988 C5.84840304,31.8323643 14.2695618,21.475209 30.9509762,14.2301329 C35.5220199,22.5133035 40.8884815,26.653889 47.0503611,26.6518895 C53.2122407,26.64989 59.5386263,22.5055102 66.029518,14.21875 Z M69.1927108,29.7601744 L45.4687647,29.7601744 L45.4687647,37.5308866 L57.3307377,37.5308866 L43.8871683,53.072311 L43.8871683,60.8430233 L69.1927108,60.8430233 L69.1927108,53.072311 L56.3896879,53.072311 L69.1927108,37.5308866 L69.1927108,29.7601744 Z M26.4896078,37.5308866 C30.8570657,37.5308866 34.3975899,41.009953 34.3975899,45.3015988 C34.3975899,49.5932447 30.8570657,53.072311 26.4896078,53.072311 C22.12215,53.072311 18.5816258,49.5932447 18.5816258,45.3015988 C18.5816258,41.009953 22.12215,37.5308866 26.4896078,37.5308866 Z" id="Combined-Shape" fill="#199340"></path>
                    </g>
                </g>
            </g>
        </g>
    </g>
</svg>