<?xml version="1.0" encoding="UTF-8"?>
<svg width="234px" height="130px" viewBox="0 0 234 130" version="1.1" xmlns="http://www.w3.org/2000/svg" xmlns:xlink="http://www.w3.org/1999/xlink">
    <title>pick6_newjersey</title>
    <defs>
        <linearGradient x1="49.9340858%" y1="13.3181586%" x2="49.9340858%" y2="65.5401535%" id="linearGradient-1">
            <stop stop-color="#104583" offset="0%"></stop>
            <stop stop-color="#86D0F0" offset="50.81%"></stop>
            <stop stop-color="#05488A" offset="100%"></stop>
        </linearGradient>
        <linearGradient x1="49.8323124%" y1="32.7066158%" x2="49.8323124%" y2="58.6847328%" id="linearGradient-2">
            <stop stop-color="#104583" offset="0%"></stop>
            <stop stop-color="#86D0F0" offset="50.81%"></stop>
            <stop stop-color="#05488A" offset="100%"></stop>
        </linearGradient>
        <linearGradient x1="49.982218%" y1="-5.40745814%" x2="49.982218%" y2="77.8914764%" id="linearGradient-3">
            <stop stop-color="#FFFFFF" offset="0%"></stop>
            <stop stop-color="#F8E928" offset="100%"></stop>
        </linearGradient>
        <linearGradient x1="49.6748597%" y1="9.53059126%" x2="49.6748597%" y2="62.0210797%" id="linearGradient-4">
            <stop stop-color="#104583" offset="0%"></stop>
            <stop stop-color="#86D0F0" offset="50.81%"></stop>
            <stop stop-color="#05488A" offset="100%"></stop>
        </linearGradient>
    </defs>
    <g id="Bg" stroke="none" stroke-width="1" fill="none" fill-rule="evenodd">
        <g id="Logos" transform="translate(-668.000000, -460.000000)">
            <g id="pick6_newjersey" transform="translate(668.000000, 460.000000)">
                <rect id="Rectangle" x="0" y="0" width="234" height="130" rx="2"></rect>
                <g id="Group" transform="translate(13.000000, 24.000000)" fill-rule="nonzero">
                    <path d="M72.0771631,60.9248227 L64.8487943,47.0876596 C64.7455319,46.8811348 64.7455319,46.6746099 64.8487943,46.4680851 L71.8706383,32.2178723 C72.0771631,31.8048227 71.7673759,31.2885106 71.2510638,31.2885106 L58.24,31.2885106 C57.8269504,31.2885106 57.6204255,30.9787234 57.6204255,30.6689362 L57.6204255,24.6797163 C57.6204255,24.2666667 57.3106383,24.0601418 57.0008511,24.0601418 L45.5387234,24.0601418 C45.1256738,24.0601418 44.9191489,24.3699291 44.9191489,24.6797163 L44.9191489,31.9080851 C44.9191489,32.4243972 44.4028369,32.7341844 43.8865248,32.5276596 C42.2343262,31.5982979 40.3756028,31.0819858 38.413617,31.0819858 C35.6255319,31.0819858 33.2504965,32.0113475 31.2885106,33.8700709 L31.2885106,32.9407092 C31.5982979,32.0113475 31.7015603,31.0819858 31.7015603,30.0493617 C31.7015603,27.9841135 31.1852482,26.2286525 30.0493617,24.6797163 C28.7069504,22.8209929 26.848227,21.8916312 24.7829787,21.8916312 C22.7177305,21.8916312 20.8590071,22.9242553 19.5165957,24.6797163 C19.1035461,25.2992908 18.6904965,25.9188652 18.4839716,26.6417021 C18.3807092,27.0547518 17.8643972,27.1580142 17.5546099,26.9514894 C15.9024113,26.0221277 14.0436879,25.5058156 11.9784397,25.5058156 L0.722836879,25.5058156 C0.309787234,25.5058156 0.103262411,25.8156028 0.103262411,26.1253901 L0.103262411,61.2346099 C0.103262411,61.6476596 0.413049645,61.8541844 0.722836879,61.8541844 L12.1849645,61.8541844 C12.5980142,61.8541844 12.804539,61.5443972 12.804539,61.2346099 L12.804539,51.5279433 C12.804539,51.218156 13.1143262,50.9083688 13.4241135,50.9083688 C14.8697872,50.701844 16.2121986,50.2887943 17.4513475,49.6692199 C17.7611348,49.462695 18.070922,49.2561702 18.3807092,49.0496454 L18.3807092,61.2346099 C18.3807092,61.6476596 18.6904965,61.8541844 19.0002837,61.8541844 L30.4624113,61.8541844 C30.875461,61.8541844 31.0819858,61.5443972 31.0819858,61.2346099 L31.0819858,60.8215603 C31.0819858,60.3052482 31.7015603,59.995461 32.1146099,60.3052482 C33.8700709,61.5443972 35.9353191,62.267234 38.2070922,62.267234 C40.169078,62.267234 42.0278014,61.750922 43.68,60.7182979 C44.0930496,60.4085106 44.7126241,60.7182979 44.7126241,61.2346099 L44.7126241,61.2346099 C44.7126241,61.6476596 45.0224113,61.8541844 45.3321986,61.8541844 L71.3543262,61.8541844 C71.9739007,61.8541844 72.3869504,61.3378723 72.0771631,60.9248227 Z" id="Path" fill="url(#linearGradient-1)"></path>
                    <path d="M97.5829787,20.2394326 C90.1480851,20.2394326 86.3273759,25.9188652 86.2241135,37.1744681 C87.8763121,35.3157447 90.1480851,33.9733333 92.9361702,33.0439716 C95.8275177,32.1146099 98.6156028,31.7015603 101.50695,31.7015603 C108.32227,31.7015603 113.795177,33.5602837 117.925674,37.2777305 C122.05617,40.9951773 124.224681,46.1582979 124.224681,52.8703546 C124.224681,59.5824113 121.952908,64.9520567 117.512624,68.8760284 C113.07234,72.8 106.050496,76.6207092 98.409078,76.6207092 C88.4958865,76.6207092 82.093617,72.1804255 77.5500709,66.8107801 C73.0065248,61.4411348 69.289078,53.0768794 69.289078,41.6147518 C69.289078,19.0002837 79.7185816,7.02184397 97.7895035,7.02184397 C105.224397,7.02184397 111.007092,9.50014184 115.034326,13.0110638 C119.06156,16.6252482 121.436596,21.0655319 122.262695,26.3319149 L106.050496,26.3319149 C105.121135,22.3046809 102.33305,20.2394326 97.5829787,20.2394326 Z M107.289645,53.4899291 C107.289645,50.9083688 106.463546,48.7398582 104.811348,46.9843972 C103.159149,45.2289362 100.784113,44.2995745 97.5829787,44.2995745 C94.381844,44.2995745 92.0068085,45.1256738 90.1480851,46.6746099 C88.3926241,48.2235461 87.4632624,50.3920567 87.4632624,53.1801418 C87.4632624,55.968227 88.4958865,58.1367376 90.4578723,59.7889362 C92.4198582,61.4411348 94.898156,62.267234 97.892766,62.267234 C100.887376,62.267234 103.159149,61.4411348 104.811348,59.7889362 C106.463546,58.1367376 107.289645,56.0714894 107.289645,53.4899291 Z" id="Shape" fill="#F8E928"></path>
                    <path d="M97.892766,0.722836879 C106.257021,0.722836879 113.588652,3.30439716 119.47461,8.46751773 C124.63773,13.0110638 127.735603,18.7937589 128.664965,25.609078 L128.664965,25.609078 L129.078014,28.7069504 C129.387801,30.7721986 127.735603,32.630922 125.670355,32.630922 L125.670355,32.630922 L122.262695,32.630922 C127.838865,37.4842553 130.62695,44.2995745 130.62695,52.8703546 C130.62695,61.4411348 127.63234,68.3597163 121.746383,73.5228369 C116.06695,78.4794326 108.528794,81.8870922 99.3384397,81.8870922 C87.5665248,81.8870922 78.6859574,77.5500709 72.9032624,70.8380142 C66.6042553,63.506383 63.1965957,53.0768794 63.1965957,41.5114894 C63.1965957,28.8102128 66.1912057,18.8970213 72.0771631,11.7719149 C78.1696454,4.5435461 87.0502128,0.722836879 97.892766,0.722836879 Z M97.892766,6.91858156 C79.821844,6.91858156 69.3923404,18.8970213 69.289078,41.5114894 C69.289078,52.973617 73.0065248,61.3378723 77.5500709,66.7075177 C82.093617,72.0771631 89.3219858,75.5880851 99.2351773,75.5880851 C106.979858,75.5880851 113.07234,72.6967376 117.512624,68.772766 C121.952908,64.8487943 124.224681,59.4791489 124.224681,52.7670922 C124.224681,46.0550355 122.05617,40.8919149 117.925674,37.1744681 C113.795177,33.4570213 108.32227,31.5982979 101.50695,31.5982979 C98.6156028,31.5982979 95.8275177,32.0113475 92.9361702,32.9407092 C90.1480851,33.8700709 87.8763121,35.2124823 86.2241135,37.0712057 C86.3273759,25.8156028 90.1480851,20.1361702 97.5829787,20.1361702 C102.33305,20.1361702 105.224397,22.2014184 106.153759,26.2286525 L106.153759,26.2286525 L122.365957,26.2286525 C121.539858,20.9622695 119.164823,16.5219858 115.137589,12.9078014 C111.110355,9.39687943 105.32766,6.91858156 97.892766,6.91858156 Z M97.6862411,44.2995745 C100.887376,44.2995745 103.262411,45.2289362 104.91461,46.9843972 C106.566809,48.7398582 107.392908,50.9083688 107.392908,53.4899291 C107.392908,56.0714894 106.566809,58.1367376 104.91461,59.7889362 C103.262411,61.4411348 100.990638,62.267234 97.9960284,62.267234 C95.0014184,62.267234 92.5231206,61.4411348 90.5611348,59.7889362 C88.5991489,58.1367376 87.5665248,55.968227 87.5665248,53.1801418 C87.5665248,50.3920567 88.4958865,48.2235461 90.2513475,46.6746099 C92.1100709,45.1256738 94.4851064,44.2995745 97.6862411,44.2995745 Z M97.4597872,49.2834043 C96.1681206,49.2834043 95.2097872,49.6512203 94.4597872,50.3408755 C93.7514539,51.0305307 93.3764539,51.9960479 93.3764539,53.2374272 C93.3764539,54.4788066 93.7931206,55.4443238 94.5847872,56.179956 C95.3764539,56.9155882 96.3764539,57.2834043 97.5847872,57.2834043 C98.7931206,57.2834043 99.7097872,56.9155882 100.376454,56.179956 C101.043121,55.4443238 101.376454,54.5247836 101.376454,53.3753583 C101.376454,52.225933 101.043121,51.2604157 100.376454,50.4788066 C99.7097872,49.6971974 98.7514539,49.2834043 97.4597872,49.2834043 Z" id="Shape" fill="url(#linearGradient-2)"></path>
                    <path d="M114.827801,12.9078014 C110.387518,8.98382979 104.604823,7.02184397 97.892766,7.02184397 C79.821844,7.02184397 69.8053901,19.1035461 69.8053901,41.0984397 C69.8053901,51.1148936 72.6967376,59.8921986 77.8598582,66.0879433 C82.3001418,71.2510638 89.5285106,74.8652482 99.2351773,74.8652482 C106.773333,74.8652482 112.762553,71.9739007 117.202837,68.1531915 C121.539858,64.3324823 123.811631,59.0660993 123.811631,52.457305 C123.811631,45.951773 121.746383,40.7886525 117.719149,37.1744681 L117.719149,37.1744681 C113.691915,33.5602837 108.219007,31.7015603 101.50695,31.7015603 C98.7188652,31.7015603 95.8275177,32.1146099 93.0394326,33.0439716 C90.2513475,33.8700709 88.0828369,35.2124823 86.5339007,37.0712057 L85.7078014,38.0005674 L85.7078014,36.7614184 C85.8110638,25.2992908 89.7350355,19.4133333 97.4797163,19.4133333 C102.33305,19.4133333 105.32766,21.4785816 106.360284,25.5058156 L121.746383,25.5058156 C121.023546,20.4459574 118.648511,16.2121986 114.827801,12.9078014 Z M97.4797163,40.4788652 C104.398298,40.4788652 109.974468,46.0550355 109.974468,52.973617 C109.974468,59.8921986 104.398298,65.4683688 97.4797163,65.4683688 C90.5611348,65.4683688 84.9849645,59.8921986 84.9849645,52.973617 C84.9849645,46.0550355 90.5611348,40.4788652 97.4797163,40.4788652 Z" id="Shape" fill="url(#linearGradient-3)"></path>
                    <g transform="translate(3.097872, 24.782979)" fill="#F6E83A">
                        <path d="M8.77730496,4.23375887 L0.413049645,4.23375887 L0.413049645,33.5602837 L6.09248227,33.5602837 L6.09248227,22.6144681 L8.77730496,22.6144681 C10.2229787,22.6144681 11.4621277,22.3046809 12.5980142,21.6851064 C13.7339007,21.0655319 14.56,20.2394326 15.0763121,19.3100709 C16.1089362,17.4513475 16.6252482,15.4893617 16.6252482,13.4241135 C16.6252482,10.8425532 15.9024113,8.67404255 14.56,6.91858156 C13.2175887,5.16312057 11.2556028,4.23375887 8.77730496,4.23375887 Z M10.3262411,15.4893617 C10.0164539,16.0056738 9.50014184,16.2121986 8.88056738,16.2121986 L6.19574468,16.2121986 L6.19574468,10.532766 L8.88056738,10.532766 C9.50014184,10.532766 10.0164539,10.8425532 10.3262411,11.3588652 C10.7392908,11.8751773 10.8425532,12.5980142 10.8425532,13.4241135 C10.8425532,14.2502128 10.6360284,14.9730496 10.3262411,15.4893617 Z" id="Shape"></path>
                        <rect id="Rectangle" x="18.7937589" y="10.0164539" width="5.67943262" height="23.5438298"></rect>
                        <path d="M21.6851064,0.619574468 C20.7557447,0.619574468 20.0329078,1.03262411 19.3100709,1.96198582 C18.6904965,2.89134752 18.3807092,3.92397163 18.3807092,5.26638298 C18.3807092,6.50553191 18.6904965,7.64141844 19.3100709,8.57078014 C19.9296454,9.50014184 20.7557447,9.91319149 21.6851064,9.91319149 C22.6144681,9.91319149 23.337305,9.50014184 24.0601418,8.57078014 C24.6797163,7.64141844 24.9895035,6.60879433 24.9895035,5.26638298 C24.9895035,4.02723404 24.6797163,2.89134752 24.0601418,1.96198582 C23.337305,1.03262411 22.6144681,0.619574468 21.6851064,0.619574468 Z" id="Path"></path>
                        <path d="M37.2777305,25.092766 C37.0712057,25.7123404 36.7614184,26.2286525 36.5548936,26.4351773 C36.2451064,26.6417021 35.8320567,26.7449645 35.3157447,26.7449645 C34.4896454,26.7449645 33.8700709,26.3319149 33.4570213,25.4025532 C33.0439716,24.4731915 32.7341844,23.2340426 32.7341844,21.6851064 C32.7341844,20.1361702 32.9407092,18.8970213 33.4570213,17.9676596 C33.8700709,17.1415603 34.5929078,16.6252482 35.4190071,16.6252482 C36.3483688,16.6252482 36.9679433,17.1415603 37.2777305,18.2774468 L37.3809929,18.587234 L43.4734752,18.587234 L43.3702128,17.8643972 C42.9571631,15.1795745 41.924539,13.2175887 40.4788652,11.7719149 C39.0331915,10.3262411 37.2777305,9.60340426 35.3157447,9.60340426 C32.8374468,9.60340426 30.7721986,10.7392908 29.2232624,12.9078014 C27.6743262,15.0763121 26.848227,17.9676596 26.848227,21.581844 C26.848227,25.1960284 27.6743262,28.0873759 29.2232624,30.3591489 C30.7721986,32.5276596 32.8374468,33.6635461 35.3157447,33.6635461 C37.2777305,33.6635461 39.0331915,32.9407092 40.4788652,31.391773 C41.924539,29.9460993 42.8539007,27.8808511 43.3702128,25.2992908 L43.4734752,24.5764539 L37.3809929,24.5764539 L37.2777305,25.092766 Z" id="Path"></path>
                        <polygon id="Path" points="55.8649645 21.9948936 63.0933333 10.0164539 55.3486525 10.0164539 51.0116312 18.2774468 51.0116312 2.6848227 45.3321986 2.6848227 45.3321986 33.5602837 51.0116312 33.5602837 51.0116312 25.609078 55.4519149 33.5602837 63.0933333 33.5602837"></polygon>
                    </g>
                    <path d="M198.986667,48.6365957 L205.905248,24.5764539 C206.008511,24.0601418 205.698723,23.5438298 205.182411,23.5438298 L195.26922,23.5438298 C194.85617,23.5438298 194.546383,23.853617 194.546383,24.1634043 L194.030071,26.5384397 C193.823546,27.364539 192.68766,27.364539 192.481135,26.5384397 L191.86156,24.1634043 C191.758298,23.853617 191.448511,23.5438298 191.138723,23.5438298 L181.948369,23.5438298 C181.638582,23.5438298 181.225532,23.7503546 181.225532,24.1634043 L180.29617,27.9841135 C180.089645,28.8102128 178.953759,28.8102128 178.747234,27.9841135 L177.817872,24.1634043 C177.71461,23.853617 177.404823,23.5438298 177.095035,23.5438298 L171.518865,23.5438298 L171.518865,23.4405674 L154.790355,23.4405674 L152.621844,23.4405674 L144.773901,23.4405674 C144.360851,23.4405674 143.947801,23.7503546 143.947801,24.2666667 L143.947801,28.5004255 C143.947801,29.3265248 142.915177,29.6363121 142.502128,28.9134752 L139.094468,23.853617 C138.991206,23.6470922 138.681418,23.5438298 138.474894,23.5438298 L130.110638,23.5438298 C129.697589,23.5438298 129.284539,23.853617 129.284539,24.3699291 L129.284539,50.1855319 C129.284539,50.5985816 129.594326,51.0116312 130.110638,51.0116312 L131.143262,51.0116312 C131.556312,51.0116312 131.969362,51.3214184 131.969362,51.8377305 L131.969362,54.3160284 C131.969362,54.729078 131.659574,55.1421277 131.143262,55.1421277 L128.251915,55.1421277 C127.838865,55.1421277 127.425816,55.4519149 127.425816,55.968227 L127.425816,57.5171631 C127.425816,59.995461 128.974752,62.3704965 131.349787,63.1965957 C132.175887,63.506383 133.105248,63.6096454 134.137872,63.6096454 C135.790071,63.6096454 137.339007,63.1965957 138.474894,62.3704965 C138.578156,62.267234 138.784681,62.1639716 138.887943,62.0607092 C139.404255,61.6476596 140.127092,62.0607092 140.127092,62.6802837 L140.127092,62.6802837 C140.127092,63.0933333 140.436879,63.506383 140.953191,63.506383 L151.795745,63.506383 L152.931631,63.506383 L169.866667,63.506383 L169.763404,63.4031206 C170.382979,63.506383 171.105816,63.6096454 171.828652,63.6096454 C173.687376,63.6096454 175.236312,63.1965957 176.475461,62.3704965 C176.991773,62.0607092 177.404823,61.750922 177.71461,61.3378723 L177.71461,62.6802837 C177.71461,63.0933333 178.024397,63.506383 178.540709,63.506383 L189.69305,63.506383 C190.106099,63.506383 190.519149,63.1965957 190.519149,62.6802837 L190.519149,58.9628369 C190.519149,58.24 191.551773,57.9302128 191.964823,58.5497872 L192.068085,58.7563121 C192.171348,58.8595745 192.171348,59.0660993 192.171348,59.1693617 L192.171348,62.6802837 C192.171348,63.0933333 192.481135,63.506383 192.997447,63.506383 L200.225816,63.506383 C200.638865,63.506383 201.051915,63.1965957 201.051915,62.6802837 L201.051915,59.1693617 C201.051915,58.9628369 201.051915,58.8595745 201.155177,58.7563121 L206.628085,51.0116312 C207.041135,50.4953191 206.628085,49.7724823 206.008511,49.7724823 L200.019291,49.7724823 C199.193191,49.6692199 198.780142,49.1529078 198.986667,48.6365957 Z" id="Path" fill="url(#linearGradient-4)"></path>
                    <g transform="translate(131.143262, 25.815603)" fill="#F6E83A" id="Path">
                        <polygon points="15.2828369 0.413049645 20.7557447 0.413049645 20.7557447 22.4079433 15.2828369 22.4079433 6.09248227 8.57078014 6.09248227 22.4079433 0.619574468 22.4079433 0.619574468 0.413049645 6.09248227 0.413049645 15.2828369 14.2502128"></polygon>
                        <polygon points="37.5875177 0.413049645 37.5875177 4.44028369 29.4297872 4.44028369 29.4297872 9.19035461 36.5548936 9.19035461 36.5548936 13.2175887 29.4297872 13.2175887 29.4297872 18.2774468 37.5875177 18.2774468 37.5875177 22.3046809 23.9568794 22.3046809 23.9568794 0.309787234 37.5875177 0.309787234"></polygon>
                        <polygon points="65.5716312 0.413049645 71.4575887 0.413049645 65.1585816 22.4079433 58.8595745 22.4079433 54.9356028 8.46751773 51.0116312 22.4079433 44.7126241 22.4079433 38.3103546 0.413049645 44.1963121 0.413049645 48.1202837 16.2121986 52.1475177 0.413049645 58.3432624 0.413049645 62.1639716 16.0056738"></polygon>
                    </g>
                    <g transform="translate(129.078014, 51.631206)" fill="#F6E83A">
                        <path d="M5.26638298,6.29900709 C5.26638298,6.50553191 5.16312057,6.60879433 5.16312057,6.71205674 C4.95659574,6.81531915 4.64680851,6.81531915 4.44028369,6.71205674 C4.33702128,6.60879433 4.23375887,6.50553191 4.23375887,6.29900709 L4.23375887,5.98921986 L0.722836879,5.98921986 L0.722836879,6.29900709 C0.722836879,7.22836879 1.13588652,7.95120567 1.8587234,8.36425532 C2.58156028,8.88056738 3.6141844,9.0870922 4.75007092,9.0870922 C5.88595745,9.0870922 6.91858156,8.88056738 7.64141844,8.36425532 C8.36425532,7.84794326 8.77730496,7.12510638 8.77730496,6.29900709 L8.77730496,0.722836879 L5.26638298,0.722836879 L5.26638298,6.29900709 L5.26638298,6.29900709 Z" id="Path"></path>
                        <polygon id="Path" points="13.4241135 9.0870922 20.8590071 9.0870922 20.8590071 7.02184397 16.9350355 7.02184397 16.9350355 5.88595745 20.4459574 5.88595745 20.4459574 3.82070922 16.9350355 3.82070922 16.9350355 2.78808511 20.8590071 2.78808511 20.8590071 0.722836879 13.4241135 0.722836879"></polygon>
                        <path d="M33.5602837,4.85333333 C33.9733333,4.33702128 34.1798582,3.92397163 34.1798582,3.40765957 C34.1798582,2.6848227 33.7668085,2.06524823 33.0439716,1.44567376 C32.2178723,0.929361702 31.1852482,0.619574468 29.8428369,0.619574468 L25.092766,0.619574468 L25.092766,8.98382979 L28.6036879,8.98382979 L28.6036879,6.50553191 L30.6689362,8.98382979 L34.7994326,8.98382979 L32.0113475,5.67943262 C32.7341844,5.57617021 33.2504965,5.26638298 33.5602837,4.85333333 Z M30.6689362,3.40765957 C30.6689362,3.6141844 30.5656738,3.71744681 30.4624113,3.82070922 C30.3591489,3.92397163 30.1526241,4.02723404 29.8428369,4.02723404 L28.7069504,4.02723404 L28.7069504,2.78808511 L29.8428369,2.78808511 C30.1526241,2.78808511 30.3591489,2.89134752 30.4624113,2.99460993 C30.5656738,3.09787234 30.6689362,3.20113475 30.6689362,3.40765957 Z" id="Shape"></path>
                        <path d="M45.7452482,4.64680851 C45.435461,4.44028369 45.0224113,4.33702128 44.6093617,4.23375887 C44.1963121,4.13049645 43.7832624,4.02723404 43.3702128,3.92397163 C42.9571631,3.82070922 42.6473759,3.82070922 42.3375887,3.71744681 C42.1310638,3.6141844 41.924539,3.6141844 41.7180142,3.51092199 C41.6147518,3.40765957 41.5114894,3.40765957 41.5114894,3.20113475 C41.5114894,2.99460993 41.6147518,2.99460993 41.6147518,2.89134752 C41.8212766,2.78808511 42.3375887,2.6848227 42.6473759,2.89134752 C42.7506383,2.99460993 42.8539007,3.09787234 42.8539007,3.30439716 L42.8539007,3.6141844 L46.5713475,3.6141844 L46.5713475,3.30439716 C46.5713475,2.37503546 46.0550355,1.65219858 45.2289362,1.23914894 C44.4028369,0.826099291 43.3702128,0.619574468 42.1310638,0.619574468 C40.8919149,0.619574468 39.8592908,0.826099291 39.0331915,1.34241135 C38.2070922,1.8587234 37.7940426,2.47829787 37.7940426,3.30439716 C37.7940426,3.71744681 37.897305,4.13049645 38.1038298,4.44028369 C38.3103546,4.75007092 38.6201418,4.95659574 39.0331915,5.16312057 C39.3429787,5.26638298 39.7560284,5.4729078 40.169078,5.57617021 C40.5821277,5.67943262 40.9951773,5.78269504 41.408227,5.88595745 C41.8212766,5.98921986 42.1310638,5.98921986 42.4408511,6.09248227 C42.6473759,6.19574468 42.8539007,6.19574468 43.0604255,6.29900709 C43.1636879,6.4022695 43.2669504,6.50553191 43.2669504,6.60879433 C43.2669504,6.71205674 43.1636879,6.81531915 43.0604255,6.91858156 C42.9571631,7.02184397 42.7506383,7.02184397 42.4408511,7.02184397 C41.924539,7.02184397 41.6147518,6.91858156 41.5114894,6.4022695 L41.5114894,6.09248227 L37.897305,6.09248227 L37.897305,6.4022695 C37.897305,7.22836879 38.3103546,7.95120567 39.1364539,8.46751773 C39.9625532,8.88056738 40.9951773,9.19035461 42.3375887,9.19035461 C43.68,9.19035461 44.7126241,8.88056738 45.5387234,8.36425532 C46.3648227,7.84794326 46.7778723,7.22836879 46.7778723,6.4022695 C46.7778723,5.98921986 46.6746099,5.57617021 46.4680851,5.26638298 C46.3648227,5.05985816 46.0550355,4.75007092 45.7452482,4.64680851 Z" id="Path"></path>
                        <polygon id="Path" points="51.0116312 9.0870922 58.4465248 9.0870922 58.4465248 7.02184397 54.5225532 7.02184397 54.5225532 5.88595745 58.0334752 5.88595745 58.0334752 3.82070922 54.5225532 3.82070922 54.5225532 2.78808511 58.4465248 2.78808511 58.4465248 0.722836879 51.0116312 0.722836879"></polygon>
                        <polygon id="Path" points="68.9792908 0.722836879 67.2238298 3.71744681 65.4683688 0.722836879 61.4411348 0.722836879 65.4683688 6.4022695 65.4683688 9.0870922 68.9792908 9.0870922 68.9792908 6.4022695 73.0065248 0.722836879"></polygon>
                    </g>
                </g>
            </g>
        </g>
    </g>
</svg>