<?xml version="1.0" encoding="UTF-8"?>
<svg width="234px" height="130px" viewBox="0 0 234 130" version="1.1" xmlns="http://www.w3.org/2000/svg" xmlns:xlink="http://www.w3.org/1999/xlink">
    <title>africa_powerball</title>
    <defs>
        <circle id="path-1" cx="21.56375" cy="21.56375" r="21.56375"></circle>
    </defs>
    <g id="Bg" stroke="none" stroke-width="1" fill="none" fill-rule="evenodd">
        <g id="Logos" transform="translate(-56.000000, -1268.000000)">
            <g id="africa_powerball" transform="translate(56.000000, 1268.000000)">
                <rect id="Rectangle" x="0" y="0" width="234" height="130" rx="2"></rect>
                <g id="Group" transform="translate(7.000000, 37.000000)">
                    <path d="M194.259,0 L26.741,0 C11.934,0 0,12.597 0,28.067 L0,28.067 C0,43.537 11.934,56.134 26.741,56.134 L194.259,56.134 C209.066,56.134 221,43.537 221,28.067 L221,28.067 C221,12.597 209.066,0 194.259,0 Z M217.464,28.067 C217.464,41.548 206.5245,52.377 192.933,52.377 L28.1775,52.377 C14.586,52.377 3.6465,41.4375 3.6465,28.067 L3.6465,28.067 C3.6465,14.586 14.586,3.757 28.1775,3.757 L192.933,3.757 C206.414,3.757 217.464,14.586 217.464,28.067 L217.464,28.067 Z" id="Shape" fill="#020203" fill-rule="nonzero"></path>
                    <g transform="translate(60.125000, 16.250000)" fill="#020203" fill-rule="nonzero">
                        <path d="M14.9175,9.282 C14.9175,13.1495 11.6025,16.133 7.1825,16.133 L6.7405,16.133 C5.6355,16.133 4.641,17.017 4.641,18.2325 L4.641,20.774 C4.641,21.879 3.757,22.8735 2.5415,22.8735 L2.0995,22.8735 C0.9945,22.8735 -3.14059889e-14,21.9895 -3.14059889e-14,20.774 L-3.14059889e-14,4.42 C-3.14059889e-14,3.315 0.884,2.3205 2.0995,2.3205 L7.072,2.3205 C11.713,2.431 14.9175,5.4145 14.9175,9.282 Z M4.641,8.5085 L4.641,10.166 C4.641,11.271 5.525,12.2655 6.7405,12.2655 L7.1825,12.2655 C9.282,12.2655 10.387,11.05 10.387,9.3925 C10.387,7.735 9.1715,6.5195 7.1825,6.5195 L6.7405,6.5195 C5.6355,6.409 4.641,7.4035 4.641,8.5085 Z" id="Shape"></path>
                        <path d="M25.415,9.282 C25.415,10.0555 24.973,10.608 24.31,10.829 C22.542,11.3815 21.5475,12.9285 21.5475,14.9175 C21.5475,17.3485 22.984,19.227 25.9675,19.227 C28.1775,19.227 29.5035,18.0115 29.5035,16.6855 C29.5035,15.47 28.8405,15.028 27.404,15.028 C27.2935,15.028 27.183,15.028 27.183,15.028 C26.1885,15.028 25.415,14.365 25.415,13.3705 L25.415,12.597 C25.415,11.713 26.078,11.05 26.8515,10.9395 C27.2935,10.9395 27.7355,10.829 28.3985,10.829 C31.7135,10.829 34.1445,12.9285 34.1445,16.4645 C34.1445,20.2215 30.8295,23.3155 26.078,23.3155 C20.6635,23.3155 17.017,19.669 17.017,14.807 C17.017,10.829 19.669,7.6245 23.426,6.7405 C24.4205,6.5195 25.415,7.293 25.415,8.398 L25.415,9.282 Z" id="Path"></path>
                        <path d="M37.128,7.072 L39.8905,7.072 C40.3325,7.072 40.7745,7.4035 40.885,7.8455 L41.6585,11.271 C41.8795,12.2655 43.316,12.376 43.6475,11.271 L44.642,7.735 C44.7525,7.293 45.1945,6.9615 45.6365,6.9615 L49.1725,6.9615 C49.6145,6.9615 50.0565,7.293 50.167,7.735 L51.1615,11.271 C51.493,12.2655 52.9295,12.2655 53.1505,11.271 L53.924,7.8455 C54.0345,7.4035 54.4765,7.072 54.9185,7.072 L57.5705,7.072 C58.2335,7.072 58.6755,7.735 58.565,8.2875 L55.1395,22.1 C55.029,22.542 54.587,22.8735 54.145,22.8735 L50.7195,22.8735 C50.2775,22.8735 49.8355,22.542 49.725,22.1 L48.178,16.6855 C47.8465,15.691 46.5205,15.691 46.189,16.6855 L44.7525,22.1 C44.642,22.542 44.2,22.8735 43.758,22.8735 L40.5535,22.8735 C40.1115,22.8735 39.6695,22.542 39.559,22.1 L36.1335,8.2875 C35.9125,7.6245 36.465,7.072 37.128,7.072 Z" id="Path"></path>
                        <path d="M74.919,17.901 L74.919,17.901 C75.2505,17.901 75.4715,18.122 75.4715,18.4535 L75.4715,21.7685 C75.4715,21.9895 75.361,22.2105 75.14,22.2105 C73.7035,22.763 71.4935,23.3155 69.394,23.3155 C63.648,23.3155 60.0015,20.111 60.0015,14.9175 C60.0015,10.0555 63.5375,6.5195 68.289,6.5195 C73.151,6.5195 76.466,10.0555 76.1345,14.807 C76.1345,15.028 75.9135,15.249 75.6925,15.249 L66.079,17.238 C65.637,17.3485 65.5265,17.901 65.858,18.122 C66.742,18.785 67.9575,19.1165 69.5045,19.1165 C71.383,19.1165 73.593,18.564 74.698,17.901 C74.8085,18.0115 74.8085,17.901 74.919,17.901 Z M65.3055,13.923 L71.0515,12.7075 C71.383,12.597 71.604,12.2655 71.383,11.934 C70.8305,10.9395 69.7255,10.387 68.3995,10.387 C66.521,10.387 65.195,11.492 64.753,13.26 C64.532,13.5915 64.8635,13.923 65.3055,13.923 Z" id="Shape"></path>
                        <path d="M88.179,10.2765 C88.179,10.4975 87.958,10.7185 87.737,10.7185 L87.737,10.7185 C85.4165,10.7185 84.201,12.0445 84.201,14.0335 L84.201,22.321 C84.201,22.6525 83.98,22.8735 83.6485,22.8735 L80.223,22.8735 C79.8915,22.8735 79.6705,22.6525 79.6705,22.321 L79.6705,7.6245 C79.6705,7.293 79.8915,7.072 80.223,7.072 L83.6485,7.072 C83.98,7.072 84.201,7.293 84.201,7.6245 L84.201,7.6245 C84.201,8.177 84.864,8.398 85.1955,8.0665 C85.8585,7.4035 86.632,6.851 87.516,6.7405 C87.8475,6.63 88.179,6.9615 88.179,7.293 L88.179,10.2765 Z" id="Path"></path>
                        <path d="M99.008,2.431 C102.765,2.431 105.7485,4.42 105.7485,7.514 C105.7485,8.7295 105.417,9.724 104.975,10.4975 C104.4225,11.3815 104.4225,12.4865 105.196,13.1495 C106.1905,14.0335 106.743,15.249 106.743,16.796 C106.743,20.553 103.649,22.8735 99.229,22.8735 L93.262,22.8735 C92.157,22.8735 91.1625,21.9895 91.1625,20.774 L91.1625,4.42 C91.1625,3.315 92.0465,2.3205 93.262,2.3205 L99.008,2.3205 L99.008,2.431 Z M95.8035,8.5085 L95.8035,8.5085 C95.8035,9.6135 96.6875,10.608 97.903,10.608 L98.4555,10.608 C100.0025,10.608 101.218,9.8345 101.218,8.5085 C101.218,7.072 100.2235,6.5195 98.4555,6.5195 L97.903,6.5195 C96.6875,6.409 95.8035,7.293 95.8035,8.5085 Z M95.8035,16.2435 L95.8035,16.9065 C95.8035,18.0115 96.6875,19.006 97.903,19.006 L98.6765,19.006 C100.8865,19.006 102.2125,18.122 102.2125,16.6855 C102.2125,15.249 101.218,14.2545 98.4555,14.2545 L97.903,14.2545 C96.6875,14.144 95.8035,15.1385 95.8035,16.2435 Z" id="Shape"></path>
                        <path d="M125.307,22.984 L121.8815,22.984 C121.55,22.984 121.329,22.763 121.329,22.4315 L121.329,22.4315 C121.329,21.9895 120.7765,21.658 120.445,21.9895 C119.34,22.984 117.9035,23.426 116.246,23.426 C111.826,23.426 108.732,19.89 108.732,14.9175 C108.732,10.0555 111.826,6.5195 116.246,6.5195 C117.9035,6.5195 119.34,7.072 120.445,7.956 C120.7765,8.2875 121.329,8.0665 121.329,7.514 L121.329,7.514 C121.329,7.1825 121.55,6.9615 121.8815,6.9615 L125.307,6.9615 C125.6385,6.9615 125.8595,7.1825 125.8595,7.514 L125.8595,22.321 C125.8595,22.6525 125.528,22.984 125.307,22.984 Z M121.2185,16.0225 L121.2185,14.0335 C121.2185,12.0445 119.561,10.7185 117.2405,10.7185 C114.92,10.7185 113.2625,12.376 113.2625,14.9175 C113.2625,17.5695 114.8095,19.227 117.2405,19.227 C119.561,19.227 121.108,17.901 121.2185,16.0225 Z" id="Shape"></path>
                        <path d="M134.6995,3.2045 L134.6995,20.6635 C134.6995,21.879 133.705,22.984 132.379,22.984 L132.379,22.984 C131.1635,22.984 130.0585,21.9895 130.0585,20.6635 L130.0585,3.2045 C130.0585,1.989 131.053,0.884 132.379,0.884 L132.379,0.884 C133.705,0.884 134.6995,1.989 134.6995,3.2045 Z" id="Path"></path>
                        <path d="M143.5395,3.2045 L143.5395,20.6635 C143.5395,21.879 142.545,22.984 141.219,22.984 L141.219,22.984 C140.0035,22.984 138.8985,21.9895 138.8985,20.6635 L138.8985,3.2045 C138.8985,1.989 139.893,0.884 141.219,0.884 L141.219,0.884 C142.545,0.884 143.5395,1.989 143.5395,3.2045 Z" id="Path"></path>
                    </g>
                    <g transform="translate(7.085000, 6.500000)">
                        <mask id="mask-2" fill="white">
                            <use xlink:href="#path-1"></use>
                        </mask>
                        <use id="Mask" fill="#D8D8D8" xlink:href="#path-1"></use>
                        <g mask="url(#mask-2)" fill-rule="nonzero" id="Path">
                            <g transform="translate(-4.875000, -1.625000)">
                                <polygon fill="#00784A" points="35.49 18.4275 8.53125 0.455 0.455 5.915 25.935 22.86375 0.56875 39.92625 8.30375 45.2725 35.49 27.3 67.795 27.3 67.795 18.4275"></polygon>
                                <polygon fill="#FAB725" points="0.455 5.80125 26.04875 22.86375 0.455 39.92625"></polygon>
                                <polygon fill="#020203" points="0.455 9.7825 20.02 22.86375 0.455 35.945"></polygon>
                                <polygon fill="#FFFFFF" points="8.53125 0.455 35.49 18.4275 67.795 18.4275 67.795 15.35625 36.51375 15.35625 14.105 0.455"></polygon>
                                <polygon fill="#FFFFFF" points="8.53125 45.2725 35.49 27.3 67.795 27.3 67.795 30.37125 36.51375 30.37125 14.105 45.2725"></polygon>
                                <polygon fill="#E03D31" points="14.105 0.455 36.51375 15.35625 67.795 15.35625 67.795 0.455"></polygon>
                                <polygon fill="#273371" points="14.105 45.2725 36.51375 30.37125 67.795 30.37125 67.795 45.2725"></polygon>
                            </g>
                        </g>
                    </g>
                </g>
            </g>
        </g>
    </g>
</svg>