<?xml version="1.0" encoding="UTF-8"?>
<svg width="234px" height="130px" viewBox="0 0 234 130" version="1.1" xmlns="http://www.w3.org/2000/svg" xmlns:xlink="http://www.w3.org/1999/xlink">
    <title>saturday_lotto</title>
    <defs>
        <radialGradient cx="43.8212759%" cy="39.1769192%" fx="43.8212759%" fy="39.1769192%" r="67.2803675%" id="radialGradient-1">
            <stop stop-color="#AADAF5" offset="0%"></stop>
            <stop stop-color="#23B2E5" offset="59.97%"></stop>
            <stop stop-color="#0090CE" offset="82.16%"></stop>
            <stop stop-color="#C6DBF3" offset="100%"></stop>
        </radialGradient>
        <radialGradient cx="43.6760413%" cy="39.1769192%" fx="43.6760413%" fy="39.1769192%" r="67.2803675%" id="radialGradient-2">
            <stop stop-color="#F3A8C8" offset="0%"></stop>
            <stop stop-color="#DE0D7F" offset="59.97%"></stop>
            <stop stop-color="#C80064" offset="82.16%"></stop>
            <stop stop-color="#F2C6D3" offset="100%"></stop>
        </radialGradient>
    </defs>
    <g id="Bg" stroke="none" stroke-width="1" fill="none" fill-rule="evenodd">
        <g id="Logos" transform="translate(-1280.000000, -1066.000000)">
            <g id="saturday_lotto" transform="translate(1280.000000, 1066.000000)">
                <rect id="Rectangle" x="0" y="0" width="234" height="130" rx="2"></rect>
                <g id="Group" transform="translate(22.000000, 21.000000)" fill-rule="nonzero">
                    <circle id="Oval" fill="url(#radialGradient-1)" cx="171.980247" cy="71.1604938" r="16.8395062"></circle>
                    <circle id="Oval" fill="url(#radialGradient-2)" cx="57.037037" cy="71.1604938" r="16.8395062"></circle>
                    <g transform="translate(8.691358, 0.000000)" fill="#D20F19">
                        <path d="M5.75802469,25.5308642 C4.01975309,24.8790123 2.71604938,23.9012346 1.84691358,22.8148148 C0.977777778,21.7283951 0.543209877,20.4246914 0.434567901,19.0123457 C0.434567901,18.7950617 0.543209877,18.5777778 0.651851852,18.4691358 C0.760493827,18.3604938 0.977777778,18.2518519 1.19506173,18.2518519 L7.9308642,18.2518519 C8.25679012,18.2518519 8.47407407,18.2518519 8.69135802,18.3604938 C8.90864198,18.4691358 9.12592593,18.5777778 9.45185185,18.7950617 C10.1037037,19.3382716 10.9728395,19.5555556 12.0592593,19.5555556 C12.8197531,19.5555556 13.4716049,19.4469136 14.0148148,19.3382716 C14.5580247,19.2296296 14.7753086,18.9037037 14.7753086,18.5777778 C14.7753086,18.1432099 14.4493827,17.817284 13.7975309,17.6 C13.145679,17.382716 11.9506173,17.1654321 10.2123457,16.9481481 C4.12839506,16.1876543 1.08641975,13.5802469 1.08641975,9.12592593 C1.08641975,7.4962963 1.52098765,6.19259259 2.49876543,4.88888889 C3.36790123,3.69382716 4.67160494,2.71604938 6.30123457,1.95555556 C7.9308642,1.3037037 9.77777778,0.977777778 11.9506173,0.977777778 C14.1234568,0.977777778 16.0790123,1.3037037 17.817284,2.06419753 C19.4469136,2.82469136 20.7506173,3.80246914 21.6197531,4.88888889 C22.4888889,6.08395062 23.0320988,7.17037037 23.0320988,8.25679012 C23.0320988,8.47407407 22.9234568,8.69135802 22.8148148,8.8 C22.7061728,8.90864198 22.4888889,9.01728395 22.2716049,9.01728395 L15.2098765,9.01728395 C14.8839506,9.01728395 14.6666667,9.01728395 14.4493827,8.90864198 C14.2320988,8.8 14.0148148,8.69135802 13.7975309,8.47407407 C13.254321,8.03950617 12.7111111,7.82222222 11.9506173,7.82222222 C10.8641975,7.82222222 10.2123457,8.14814815 10.2123457,8.8 C10.2123457,9.12592593 10.5382716,9.45185185 11.0814815,9.6691358 C11.6246914,9.88641975 12.7111111,10.1037037 14.1234568,10.3209877 C16.5135802,10.6469136 18.3604938,11.0814815 19.7728395,11.7333333 C21.1851852,12.3851852 22.2716049,13.145679 22.9234568,14.2320988 C23.5753086,15.2098765 23.9012346,16.5135802 23.9012346,18.1432099 C23.9012346,19.7728395 23.3580247,21.2938272 22.3802469,22.4888889 C21.4024691,23.7925926 19.9901235,24.7703704 18.1432099,25.4222222 C16.4049383,26.0740741 14.3407407,26.4 12.1679012,26.4 C9.56049383,26.508642 7.4962963,26.182716 5.75802469,25.5308642 Z" id="Path"></path>
                        <path d="M28.3555556,25.7481481 C27.2691358,25.2049383 26.508642,24.5530864 25.9654321,23.6839506 C25.4222222,22.8148148 25.0962963,21.837037 25.0962963,20.8592593 C25.0962963,17.708642 27.7037037,15.6444444 32.8098765,14.7753086 L36.6123457,14.1234568 L36.6123457,14.1234568 C36.6123457,13.4716049 36.5037037,12.9283951 36.3950617,12.7111111 C36.2864198,12.4938272 35.9604938,12.3851852 35.5259259,12.3851852 C35.308642,12.3851852 35.091358,12.3851852 34.8740741,12.4938272 C34.6567901,12.6024691 34.4395062,12.7111111 34.2222222,12.9283951 C34.0049383,13.145679 33.7876543,13.254321 33.6790123,13.362963 C33.5703704,13.4716049 33.3530864,13.4716049 33.0271605,13.4716049 L32.9185185,13.4716049 L27.0518519,13.4716049 C26.8345679,13.4716049 26.617284,13.362963 26.508642,13.254321 C26.4,13.145679 26.291358,12.9283951 26.291358,12.7111111 C26.291358,12.0592593 26.617284,11.2987654 27.2691358,10.4296296 C27.9209877,9.56049383 29.0074074,8.90864198 30.4197531,8.25679012 C31.8320988,7.60493827 33.5703704,7.38765432 35.6345679,7.38765432 C38.7851852,7.38765432 41.1753086,8.03950617 42.6962963,9.34320988 C44.217284,10.6469136 45.0864198,12.6024691 45.0864198,14.9925926 L45.0864198,25.0962963 C45.0864198,25.3135802 44.9777778,25.5308642 44.7604938,25.7481481 C44.5432099,25.9654321 44.3259259,26.0740741 44.108642,26.0740741 L37.9160494,26.0740741 C37.6987654,26.0740741 37.4814815,25.9654321 37.2641975,25.7481481 C37.0469136,25.5308642 36.9382716,25.3135802 36.9382716,25.0962963 L36.9382716,24.1185185 C36.3950617,24.8790123 35.7432099,25.4222222 34.8740741,25.7481481 C34.0049383,26.182716 33.0271605,26.4 31.9407407,26.4 C30.637037,26.508642 29.4419753,26.291358 28.3555556,25.7481481 Z M36.0691358,20.6419753 C36.5037037,20.2074074 36.7209877,19.5555556 36.7209877,18.5777778 L36.7209877,18.5777778 L34.6567901,19.0123457 C33.5703704,19.2296296 33.1358025,19.6641975 33.1358025,20.3160494 C33.1358025,20.6419753 33.2444444,20.8592593 33.4617284,21.0765432 C33.6790123,21.2938272 34.0049383,21.4024691 34.4395062,21.4024691 C35.091358,21.2938272 35.6345679,21.0765432 36.0691358,20.6419753 Z" id="Shape"></path>
                        <path d="M52.8,24.4444444 C51.2790123,23.2493827 50.5185185,21.2938272 50.5185185,18.5777778 L50.5185185,14.0148148 L47.6938272,14.0148148 C47.4765432,14.0148148 47.2592593,13.9061728 47.0419753,13.6888889 C46.8246914,13.4716049 46.7160494,13.254321 46.7160494,13.037037 L46.7160494,8.8 C46.7160494,8.58271605 46.8246914,8.3654321 47.0419753,8.14814815 C47.2592593,7.9308642 47.4765432,7.82222222 47.6938272,7.82222222 L50.5185185,7.82222222 L50.5185185,2.06419753 C50.5185185,1.84691358 50.6271605,1.62962963 50.8444444,1.41234568 C51.0617284,1.19506173 51.2790123,1.08641975 51.4962963,1.08641975 L57.6888889,1.08641975 C57.9061728,1.08641975 58.1234568,1.19506173 58.3407407,1.41234568 C58.5580247,1.62962963 58.6666667,1.84691358 58.6666667,2.06419753 L58.6666667,7.82222222 L63.1209877,7.82222222 C63.3382716,7.82222222 63.5555556,7.9308642 63.7728395,8.14814815 C63.9901235,8.3654321 64.0987654,8.58271605 64.0987654,8.8 L64.0987654,13.037037 C64.0987654,13.254321 63.9901235,13.4716049 63.7728395,13.6888889 C63.5555556,13.9061728 63.3382716,14.0148148 63.1209877,14.0148148 L58.6666667,14.0148148 L58.6666667,17.9259259 C58.6666667,19.1209877 59.2098765,19.6641975 60.1876543,19.6641975 L63.4469136,19.6641975 C63.6641975,19.6641975 63.8814815,19.7728395 64.0987654,19.9901235 C64.3160494,20.2074074 64.4246914,20.4246914 64.4246914,20.6419753 L64.4246914,25.3135802 C64.4246914,25.5308642 64.3160494,25.7481481 64.0987654,25.9654321 C63.8814815,26.182716 63.6641975,26.291358 63.4469136,26.291358 L59.4271605,26.291358 C56.4938272,26.182716 54.3209877,25.6395062 52.8,24.4444444 Z" id="Path"></path>
                        <path d="M69.9654321,25.6395062 C68.8790123,25.0962963 68.1185185,24.2271605 67.4666667,22.9234568 C66.8148148,21.7283951 66.4888889,20.2074074 66.4888889,18.4691358 L66.4888889,8.69135802 C66.4888889,8.47407407 66.5975309,8.25679012 66.8148148,8.03950617 C67.0320988,7.82222222 67.2493827,7.71358025 67.4666667,7.71358025 L74.2024691,7.71358025 C74.4197531,7.71358025 74.637037,7.82222222 74.854321,8.03950617 C75.0716049,8.25679012 75.1802469,8.47407407 75.1802469,8.69135802 L75.1802469,18.2518519 C75.1802469,18.9037037 75.2888889,19.3382716 75.6148148,19.6641975 C75.9407407,19.9901235 76.3753086,20.2074074 76.9185185,20.2074074 C77.4617284,20.2074074 77.8962963,19.9901235 78.2222222,19.6641975 C78.5481481,19.3382716 78.6567901,18.7950617 78.6567901,18.2518519 L78.6567901,8.69135802 C78.6567901,8.47407407 78.7654321,8.25679012 78.982716,8.03950617 C79.2,7.82222222 79.417284,7.71358025 79.6345679,7.71358025 L86.3703704,7.71358025 C86.5876543,7.71358025 86.8049383,7.82222222 87.0222222,8.03950617 C87.2395062,8.25679012 87.3481481,8.47407407 87.3481481,8.69135802 L87.3481481,25.2049383 C87.3481481,25.4222222 87.2395062,25.6395062 87.0222222,25.8567901 C86.8049383,26.0740741 86.5876543,26.182716 86.3703704,26.182716 L80.1777778,26.182716 C79.9604938,26.182716 79.7432099,26.0740741 79.5259259,25.8567901 C79.308642,25.6395062 79.2,25.4222222 79.2,25.2049383 L79.2,24.0098765 C78.6567901,24.8790123 77.8962963,25.4222222 76.8098765,25.8567901 C75.8320988,26.291358 74.637037,26.508642 73.3333333,26.508642 C72.1382716,26.508642 70.9432099,26.291358 69.9654321,25.6395062 Z" id="Path"></path>
                        <path d="M90.8246914,25.8567901 C90.6074074,25.6395062 90.4987654,25.4222222 90.4987654,25.2049383 L90.4987654,8.8 C90.4987654,8.58271605 90.6074074,8.3654321 90.8246914,8.14814815 C91.0419753,7.9308642 91.2592593,7.82222222 91.4765432,7.82222222 L97.6691358,7.82222222 C97.8864198,7.82222222 98.1037037,7.9308642 98.3209877,8.14814815 C98.5382716,8.3654321 98.6469136,8.58271605 98.6469136,8.8 L98.6469136,9.99506173 C99.4074074,9.34320988 100.276543,8.8 101.254321,8.3654321 C102.232099,7.9308642 103.209877,7.82222222 104.187654,7.82222222 L105.925926,7.82222222 C106.14321,7.82222222 106.360494,7.9308642 106.577778,8.14814815 C106.795062,8.3654321 106.903704,8.58271605 106.903704,8.8 L106.903704,14.3407407 C106.903704,14.5580247 106.795062,14.7753086 106.577778,14.9925926 C106.360494,15.2098765 106.14321,15.3185185 105.925926,15.3185185 L101.362963,15.3185185 C99.9506173,15.3185185 99.1901235,16.0790123 99.1901235,17.491358 L99.1901235,25.4222222 C99.1901235,25.6395062 99.0814815,25.8567901 98.8641975,26.0740741 C98.6469136,26.291358 98.4296296,26.4 98.2123457,26.4 L91.4765432,26.4 C91.2592593,26.182716 90.9333333,26.0740741 90.8246914,25.8567901 Z" id="Path"></path>
                        <path d="M110.597531,24.5530864 C109.293827,23.2493827 108.533333,21.1851852 108.424691,18.3604938 L108.424691,16.9481481 L108.424691,15.5358025 C108.533333,12.9283951 109.293827,10.8641975 110.597531,9.45185185 C112.009877,8.03950617 113.748148,7.38765432 115.920988,7.38765432 C117.876543,7.38765432 119.397531,7.9308642 120.592593,9.01728395 L120.592593,1.95555556 C120.592593,1.7382716 120.701235,1.52098765 120.918519,1.3037037 C121.135802,1.08641975 121.353086,0.977777778 121.57037,0.977777778 L128.088889,0.977777778 C128.306173,0.977777778 128.523457,1.08641975 128.740741,1.3037037 C128.958025,1.52098765 129.066667,1.7382716 129.066667,1.95555556 L129.066667,25.0962963 C129.066667,25.3135802 128.958025,25.5308642 128.740741,25.7481481 C128.523457,25.9654321 128.306173,26.0740741 128.088889,26.0740741 L122.11358,26.0740741 C121.896296,26.0740741 121.679012,25.9654321 121.461728,25.7481481 C121.244444,25.5308642 121.135802,25.3135802 121.135802,25.0962963 L121.135802,24.2271605 C119.940741,25.6395062 118.093827,26.4 115.920988,26.4 C113.639506,26.508642 111.901235,25.8567901 110.597531,24.5530864 Z M120.049383,19.6641975 C120.266667,19.3382716 120.483951,18.7950617 120.483951,18.1432099 C120.483951,17.491358 120.592593,17.0567901 120.592593,16.8395062 C120.592593,16.6222222 120.592593,16.1876543 120.483951,15.5358025 C120.483951,14.9925926 120.266667,14.5580247 120.049383,14.2320988 C119.723457,13.9061728 119.397531,13.7975309 118.745679,13.7975309 C118.093827,13.7975309 117.659259,14.0148148 117.441975,14.3407407 C117.224691,14.6666667 117.007407,15.2098765 117.007407,15.8617284 C117.007407,16.0790123 117.007407,16.5135802 117.007407,17.0567901 C117.007407,17.6 117.007407,18.0345679 117.007407,18.2518519 C117.116049,19.0123457 117.224691,19.4469136 117.441975,19.7728395 C117.659259,20.0987654 118.093827,20.3160494 118.745679,20.3160494 C119.397531,20.3160494 119.832099,19.9901235 120.049383,19.6641975 Z" id="Shape"></path>
                        <path d="M134.498765,25.7481481 C133.412346,25.2049383 132.651852,24.5530864 132.108642,23.6839506 C131.565432,22.8148148 131.239506,21.837037 131.239506,20.8592593 C131.239506,17.708642 133.846914,15.6444444 138.953086,14.7753086 L142.755556,14.1234568 L142.755556,14.1234568 C142.755556,13.4716049 142.646914,12.9283951 142.538272,12.7111111 C142.42963,12.4938272 142.103704,12.3851852 141.669136,12.3851852 C141.451852,12.3851852 141.234568,12.3851852 141.017284,12.4938272 C140.8,12.6024691 140.582716,12.7111111 140.365432,12.9283951 C140.148148,13.145679 139.930864,13.254321 139.822222,13.362963 C139.71358,13.4716049 139.496296,13.4716049 139.17037,13.4716049 L139.061728,13.4716049 L133.195062,13.4716049 C132.977778,13.4716049 132.760494,13.362963 132.651852,13.254321 C132.54321,13.145679 132.434568,12.9283951 132.434568,12.7111111 C132.434568,12.0592593 132.760494,11.2987654 133.412346,10.4296296 C134.064198,9.56049383 135.150617,8.90864198 136.562963,8.25679012 C137.975309,7.60493827 139.71358,7.38765432 141.777778,7.38765432 C144.928395,7.38765432 147.318519,8.03950617 148.839506,9.34320988 C150.469136,10.6469136 151.22963,12.6024691 151.22963,14.9925926 L151.22963,25.0962963 C151.22963,25.3135802 151.120988,25.5308642 150.903704,25.7481481 C150.68642,25.9654321 150.469136,26.0740741 150.251852,26.0740741 L144.059259,26.0740741 C143.841975,26.0740741 143.624691,25.9654321 143.407407,25.7481481 C143.190123,25.5308642 143.081481,25.3135802 143.081481,25.0962963 L143.081481,24.1185185 C142.538272,24.8790123 141.88642,25.4222222 141.017284,25.7481481 C140.148148,26.182716 139.17037,26.4 138.083951,26.4 C136.671605,26.508642 135.585185,26.291358 134.498765,25.7481481 Z M142.103704,20.6419753 C142.538272,20.2074074 142.755556,19.5555556 142.755556,18.5777778 L142.755556,18.5777778 L140.691358,19.0123457 C139.604938,19.2296296 139.17037,19.6641975 139.17037,20.3160494 C139.17037,20.6419753 139.279012,20.8592593 139.496296,21.0765432 C139.71358,21.2938272 140.039506,21.4024691 140.474074,21.4024691 C141.234568,21.2938272 141.777778,21.0765432 142.103704,20.6419753 Z" id="Shape"></path>
                        <path d="M156.444444,32.7012346 C156.335802,32.5925926 156.22716,32.3753086 156.22716,32.1580247 C156.22716,32.1580247 156.22716,32.0493827 156.22716,32.0493827 C156.22716,31.9407407 156.22716,31.9407407 156.22716,31.8320988 L159.051852,25.0962963 L152.207407,9.01728395 C152.207407,8.90864198 152.207407,8.90864198 152.207407,8.8 C152.207407,8.58271605 152.316049,8.3654321 152.533333,8.14814815 C152.750617,7.9308642 152.859259,7.9308642 153.076543,7.9308642 L159.051852,7.9308642 C159.595062,7.9308642 159.920988,8.25679012 160.138272,8.8 L163.071605,16.8395062 L166.11358,8.8 C166.330864,8.25679012 166.765432,7.9308642 167.308642,7.9308642 L173.175309,7.9308642 C173.392593,7.9308642 173.609877,8.03950617 173.718519,8.14814815 C173.935802,8.25679012 173.935802,8.47407407 173.935802,8.69135802 C173.935802,8.8 173.935802,8.90864198 173.935802,9.01728395 L164.049383,32.0493827 C163.832099,32.5925926 163.397531,32.9185185 162.854321,32.9185185 L157.096296,32.9185185 C156.77037,32.9185185 156.661728,32.8098765 156.444444,32.7012346 Z" id="Path"></path>
                    </g>
                    <path d="M0.760493827,86.2617284 C0.434567901,85.9358025 0.217283951,85.5012346 0.217283951,85.0666667 L0.217283951,43.0222222 C0.217283951,42.5876543 0.434567901,42.1530864 0.760493827,41.8271605 C1.08641975,41.5012346 1.52098765,41.2839506 1.95555556,41.2839506 L14.9925926,41.2839506 C15.4271605,41.2839506 15.8617284,41.5012346 16.1876543,41.8271605 C16.5135802,42.1530864 16.7308642,42.5876543 16.7308642,43.0222222 L16.7308642,73.4419753 L34.7654321,73.4419753 C35.2,73.4419753 35.6345679,73.6592593 35.9604938,73.9851852 C36.2864198,74.3111111 36.5037037,74.745679 36.5037037,75.1802469 L36.5037037,84.9580247 C36.5037037,85.3925926 36.2864198,85.8271605 35.9604938,86.1530864 C35.6345679,86.4790123 35.2,86.6962963 34.7654321,86.6962963 L1.95555556,86.6962963 C1.52098765,86.8049383 1.08641975,86.5876543 0.760493827,86.2617284 Z" id="Path" fill="#2E3384"></path>
                    <path d="M91.0419753,83.545679 C88.217284,81.3728395 86.6962963,77.7876543 86.6962963,72.7901235 L86.6962963,64.3160494 L81.5901235,64.3160494 C81.1555556,64.3160494 80.7209877,64.0987654 80.3950617,63.7728395 C80.0691358,63.4469136 79.8518519,63.0123457 79.8518519,62.5777778 L79.8518519,54.7555556 C79.8518519,54.3209877 80.0691358,53.8864198 80.3950617,53.5604938 C80.7209877,53.2345679 81.1555556,53.017284 81.5901235,53.017284 L86.6962963,53.017284 L86.6962963,42.3703704 C86.6962963,41.9358025 86.9135802,41.5012346 87.2395062,41.1753086 C87.5654321,40.8493827 88,40.6320988 88.4345679,40.6320988 L99.8419753,40.6320988 C100.276543,40.6320988 100.711111,40.8493827 101.037037,41.1753086 C101.362963,41.5012346 101.580247,41.9358025 101.580247,42.3703704 L101.580247,53.017284 L109.728395,53.017284 C110.162963,53.017284 110.597531,53.2345679 110.923457,53.5604938 C111.249383,53.8864198 111.466667,54.3209877 111.466667,54.7555556 L111.466667,62.5777778 C111.466667,63.0123457 111.249383,63.4469136 110.923457,63.7728395 C110.597531,64.0987654 110.162963,64.3160494 109.728395,64.3160494 L101.580247,64.3160494 L101.580247,71.4864198 C101.580247,73.6592593 102.558025,74.745679 104.404938,74.745679 L110.271605,74.745679 C110.706173,74.745679 111.140741,74.962963 111.466667,75.2888889 C111.792593,75.6148148 112.009877,76.0493827 112.009877,76.4839506 L112.009877,84.9580247 C112.009877,85.3925926 111.792593,85.8271605 111.466667,86.1530864 C111.140741,86.4790123 110.706173,86.6962963 110.271605,86.6962963 L102.883951,86.6962963 C97.8864198,86.8049383 93.8666667,85.7185185 91.0419753,83.545679 Z" id="Path" fill="#2E3384"></path>
                    <path d="M125.590123,83.545679 C122.765432,81.3728395 121.244444,77.7876543 121.244444,72.7901235 L121.244444,64.3160494 L116.138272,64.3160494 C115.703704,64.3160494 115.269136,64.0987654 114.94321,63.7728395 C114.617284,63.4469136 114.4,63.0123457 114.4,62.5777778 L114.4,54.7555556 C114.4,54.3209877 114.617284,53.8864198 114.94321,53.5604938 C115.269136,53.2345679 115.703704,53.017284 116.138272,53.017284 L121.244444,53.017284 L121.244444,42.3703704 C121.244444,41.9358025 121.461728,41.5012346 121.787654,41.1753086 C122.11358,40.8493827 122.548148,40.6320988 122.982716,40.6320988 L134.390123,40.6320988 C134.824691,40.6320988 135.259259,40.8493827 135.585185,41.1753086 C135.911111,41.5012346 136.128395,41.9358025 136.128395,42.3703704 L136.128395,53.017284 L144.276543,53.017284 C144.711111,53.017284 145.145679,53.2345679 145.471605,53.5604938 C145.797531,53.8864198 146.014815,54.3209877 146.014815,54.7555556 L146.014815,62.5777778 C146.014815,63.0123457 145.797531,63.4469136 145.471605,63.7728395 C145.145679,64.0987654 144.711111,64.3160494 144.276543,64.3160494 L136.128395,64.3160494 L136.128395,71.4864198 C136.128395,73.6592593 137.106173,74.745679 138.953086,74.745679 L144.819753,74.745679 C145.254321,74.745679 145.688889,74.962963 146.014815,75.2888889 C146.340741,75.6148148 146.558025,76.0493827 146.558025,76.4839506 L146.558025,84.9580247 C146.558025,85.3925926 146.340741,85.8271605 146.014815,86.1530864 C145.688889,86.4790123 145.254321,86.6962963 144.819753,86.6962963 L137.432099,86.6962963 C132.434568,86.8049383 128.523457,85.7185185 125.590123,83.545679 Z" id="Path" fill="#2E3384"></path>
                </g>
            </g>
        </g>
    </g>
</svg>