<?xml version="1.0" encoding="UTF-8"?>
<svg width="234px" height="130px" viewBox="0 0 234 130" version="1.1" xmlns="http://www.w3.org/2000/svg" xmlns:xlink="http://www.w3.org/1999/xlink">
    <title>super_enalotto</title>
    <defs>
        <linearGradient x1="49.3877279%" y1="124.999013%" x2="49.3877279%" y2="26.2243421%" id="linearGradient-1">
            <stop stop-color="#029C6C" offset="0%"></stop>
            <stop stop-color="#69B459" offset="100%"></stop>
        </linearGradient>
        <linearGradient x1="50.1956098%" y1="133.630942%" x2="50.1956098%" y2="-1.02152466%" id="linearGradient-2">
            <stop stop-color="#029C6C" offset="0%"></stop>
            <stop stop-color="#69B459" offset="100%"></stop>
        </linearGradient>
        <linearGradient x1="49.8435897%" y1="94.9990625%" x2="49.8435897%" y2="1.163125%" id="linearGradient-3">
            <stop stop-color="#029C6C" offset="0%"></stop>
            <stop stop-color="#69B459" offset="100%"></stop>
        </linearGradient>
        <linearGradient x1="49.9957265%" y1="133.770614%" x2="49.9957265%" y2="2.07105263%" id="linearGradient-4">
            <stop stop-color="#029C6C" offset="0%"></stop>
            <stop stop-color="#69B459" offset="100%"></stop>
        </linearGradient>
        <linearGradient x1="49.8054358%" y1="136.935586%" x2="49.8054358%" y2="1.67657658%" id="linearGradient-5">
            <stop stop-color="#029C6C" offset="0%"></stop>
            <stop stop-color="#69B459" offset="100%"></stop>
        </linearGradient>
        <linearGradient x1="50.2096774%" y1="108.792784%" x2="50.2096774%" y2="28.8738832%" id="linearGradient-6">
            <stop stop-color="#F59D08" offset="0%"></stop>
            <stop stop-color="#FEEB17" offset="100%"></stop>
        </linearGradient>
        <linearGradient x1="49.7131707%" y1="110.1287%" x2="49.7131707%" y2="5.83991031%" id="linearGradient-7">
            <stop stop-color="#F59D08" offset="0%"></stop>
            <stop stop-color="#FEEB17" offset="100%"></stop>
        </linearGradient>
        <linearGradient x1="50.4794872%" y1="107.243231%" x2="50.4794872%" y2="5.68689956%" id="linearGradient-8">
            <stop stop-color="#F59D08" offset="0%"></stop>
            <stop stop-color="#FEEB17" offset="100%"></stop>
        </linearGradient>
        <linearGradient x1="50.3087719%" y1="107.381373%" x2="50.3087719%" y2="31.3800654%" id="linearGradient-9">
            <stop stop-color="#F59D08" offset="0%"></stop>
            <stop stop-color="#FEEB17" offset="100%"></stop>
        </linearGradient>
        <linearGradient x1="50.2570248%" y1="107.713596%" x2="50.2570248%" y2="5.71184211%" id="linearGradient-10">
            <stop stop-color="#F59D08" offset="0%"></stop>
            <stop stop-color="#FEEB17" offset="100%"></stop>
        </linearGradient>
        <linearGradient x1="48.9096552%" y1="106.230777%" x2="48.9096552%" y2="23.8372772%" id="linearGradient-11">
            <stop stop-color="#F59D08" offset="0%"></stop>
            <stop stop-color="#FEEB17" offset="100%"></stop>
        </linearGradient>
        <linearGradient x1="48.6917241%" y1="106.230777%" x2="48.6917241%" y2="23.8372772%" id="linearGradient-12">
            <stop stop-color="#F59D08" offset="0%"></stop>
            <stop stop-color="#FEEB17" offset="100%"></stop>
        </linearGradient>
        <linearGradient x1="50.0599174%" y1="107.713596%" x2="50.0599174%" y2="5.71184211%" id="linearGradient-13">
            <stop stop-color="#F59D08" offset="0%"></stop>
            <stop stop-color="#FEEB17" offset="100%"></stop>
        </linearGradient>
    </defs>
    <g id="Bg" stroke="none" stroke-width="1" fill="none" fill-rule="evenodd">
        <g id="Logos" transform="translate(-1280.000000, -56.000000)">
            <g id="super_enalotto" transform="translate(1280.000000, 56.000000)">
                <rect id="Rectangle" x="0" y="0" width="234" height="130" rx="2"></rect>
                <g id="Group" transform="translate(18.000000, 20.000000)" fill-rule="nonzero">
                    <g transform="translate(29.575000, 0.000000)" fill="#186E31" id="Shape">
                        <path d="M13.4225,38.10625 C11.26125,38.10625 9.1,37.765 7.0525,36.96875 C5.005,36.28625 3.185,35.14875 1.5925,33.8975 C-0.11375,32.41875 -0.2275,30.37125 1.25125,28.55125 L1.25125,28.55125 L2.16125,27.5275 C3.64,25.82125 5.57375,25.7075 7.5075,27.0725 C9.44125,28.55125 11.375,29.3475 13.30875,29.3475 C14.67375,29.3475 15.6975,29.00625 16.6075,28.4375 C17.29,27.9825 17.63125,27.3 17.63125,26.50375 C17.63125,25.7075 17.29,25.025 16.6075,24.45625 C16.03875,24.00125 14.7875,23.205 11.83,22.63625 C8.19,21.84 5.34625,20.475 3.4125,18.655 C1.365,16.72125 0.34125,14.21875 0.34125,11.26125 C0.34125,7.9625 1.5925,5.2325 3.98125,3.07125 C6.37,1.02375 9.44125,-1.29318778e-13 13.08125,-1.29318778e-13 C16.94875,-1.29318778e-13 20.36125,1.02375 23.31875,3.07125 C24.57,3.98125 24.7975,4.89125 24.91125,5.6875 C25.025,6.5975 24.68375,7.62125 24.00125,8.4175 L23.205,9.555 C21.84,11.375 19.90625,11.6025 17.9725,10.2375 C16.38,9.21375 14.90125,8.645 13.4225,8.645 C12.39875,8.645 11.6025,8.8725 10.92,9.3275 C10.35125,9.66875 10.12375,10.12375 10.12375,10.6925 C10.12375,11.48875 10.465,12.0575 11.1475,12.62625 C11.71625,13.08125 12.9675,13.76375 15.58375,14.3325 C19.565,15.2425 22.5225,16.72125 24.45625,18.655 C26.50375,20.7025 27.5275,23.31875 27.5275,26.39 C27.5275,29.8025 26.27625,32.64625 23.66,34.92125 C21.04375,37.0825 17.63125,38.10625 13.4225,38.10625 Z M3.4125,30.37125 C2.73,31.1675 2.9575,31.395 3.4125,31.73625 C4.66375,32.87375 6.25625,33.67 7.9625,34.3525 C9.66875,34.92125 11.48875,35.2625 13.4225,35.2625 C16.94875,35.2625 19.67875,34.46625 21.6125,32.76 C23.54625,31.1675 24.45625,29.00625 24.45625,26.39 C24.45625,24.00125 23.77375,22.18125 22.295,20.58875 C20.7025,18.99625 18.2,17.85875 14.7875,17.0625 C12.17125,16.49375 10.35125,15.6975 9.21375,14.7875 C7.84875,13.76375 7.16625,12.285 7.16625,10.6925 C7.16625,9.21375 7.84875,7.9625 9.1,7.0525 C10.2375,6.25625 11.6025,5.80125 13.30875,5.80125 C15.35625,5.80125 17.40375,6.48375 19.45125,7.84875 C20.2475,8.4175 20.475,8.19 20.93,7.735 L21.84,6.5975 C22.0675,6.25625 22.18125,6.02875 22.18125,5.80125 C22.18125,5.6875 22.0675,5.46 21.72625,5.2325 C19.3375,3.52625 16.38,2.61625 13.08125,2.61625 C10.12375,2.61625 7.735,3.4125 5.80125,5.005 C3.98125,6.5975 3.07125,8.53125 3.07125,11.03375 C3.07125,13.195 3.75375,15.015 5.34625,16.49375 C6.93875,17.9725 9.3275,19.11 12.39875,19.7925 C15.2425,20.36125 17.17625,21.1575 18.4275,22.18125 C19.7925,23.31875 20.475,24.7975 20.475,26.39 C20.475,28.09625 19.67875,29.575 18.31375,30.59875 C17.0625,31.50875 15.35625,31.96375 13.4225,31.96375 C10.92,31.96375 8.30375,30.94 5.915,29.12 C5.11875,28.55125 4.89125,28.665 4.43625,29.12 L3.4125,30.37125 Z"></path>
                        <path d="M40.60875,38.10625 C37.31,38.10625 34.46625,36.96875 32.305,34.8075 C30.14375,32.64625 29.12,29.8025 29.12,26.39 L29.12,13.195 C29.12,12.0575 29.46125,11.1475 30.14375,10.465 C30.82625,9.7825 31.73625,9.44125 32.87375,9.44125 L34.8075,9.44125 C35.945,9.44125 36.855,9.7825 37.5375,10.465 C38.22,11.1475 38.56125,12.0575 38.56125,13.195 L38.56125,25.7075 C38.56125,26.73125 38.9025,27.64125 39.585,28.32375 C40.2675,29.00625 41.06375,29.3475 42.20125,29.3475 C42.9975,29.3475 43.68,29.12 44.47625,28.55125 C45.15875,28.09625 45.84125,27.5275 46.29625,26.845 L46.29625,13.195 C46.29625,12.0575 46.6375,11.1475 47.32,10.465 C48.0025,9.7825 48.9125,9.44125 50.05,9.44125 L51.98375,9.44125 C53.12125,9.44125 54.03125,9.7825 54.71375,10.465 C55.39625,11.1475 55.7375,12.0575 55.7375,13.195 L55.7375,33.67 C55.7375,34.8075 55.39625,35.7175 54.71375,36.4 C54.03125,37.0825 53.12125,37.42375 51.98375,37.42375 L50.05,37.42375 C48.9125,37.42375 48.0025,37.0825 47.32,36.4 C47.20625,36.28625 46.97875,36.05875 46.865,35.945 C46.29625,36.4 45.7275,36.74125 45.045,36.96875 C43.68,37.765 42.0875,38.10625 40.60875,38.10625 Z M32.87375,12.285 C32.5325,12.285 32.19125,12.39875 32.0775,12.5125 C31.96375,12.62625 31.85,12.9675 31.85,13.30875 L31.85,26.50375 C31.85,29.23375 32.64625,31.28125 34.23875,32.9875 C35.83125,34.58 37.87875,35.37625 40.495,35.37625 C41.6325,35.37625 42.77,35.14875 43.79375,34.58 C44.8175,34.01125 45.7275,33.32875 46.52375,32.5325 L49.02625,29.575 L49.02625,33.78375 C49.02625,34.125 49.14,34.46625 49.25375,34.58 C49.3675,34.69375 49.70875,34.8075 50.05,34.8075 L51.98375,34.8075 C52.325,34.8075 52.66625,34.69375 52.78,34.58 C52.89375,34.46625 53.0075,34.125 53.0075,33.78375 L53.0075,13.30875 C53.0075,12.9675 52.89375,12.62625 52.78,12.5125 C52.66625,12.39875 52.325,12.285 51.98375,12.285 L50.05,12.285 C49.70875,12.285 49.3675,12.39875 49.25375,12.5125 C49.14,12.62625 49.02625,12.9675 49.02625,13.30875 L49.02625,27.755 L48.79875,28.09625 C48.11625,29.23375 47.20625,30.14375 45.955,30.94 C44.70375,31.73625 43.4525,32.19125 42.0875,32.19125 C40.15375,32.19125 38.675,31.50875 37.42375,30.37125 C36.28625,29.12 35.7175,27.64125 35.7175,25.82125 L35.7175,13.30875 C35.7175,12.9675 35.60375,12.62625 35.49,12.5125 C35.37625,12.39875 35.035,12.285 34.69375,12.285 L32.87375,12.285 L32.87375,12.285 Z"></path>
                        <path d="M65.065,48.79875 L63.245,48.79875 C62.1075,48.79875 61.1975,48.4575 60.515,47.775 C59.8325,47.0925 59.49125,46.1825 59.49125,45.045 L59.49125,13.195 C59.49125,12.0575 59.8325,11.1475 60.515,10.465 C61.1975,9.7825 62.1075,9.44125 63.245,9.44125 L65.065,9.44125 C66.2025,9.44125 67.1125,9.7825 67.795,10.465 C67.90875,10.57875 68.0225,10.80625 68.13625,10.92 C70.18375,9.555 72.5725,8.8725 75.3025,8.8725 C77.91875,8.8725 80.3075,9.555 82.46875,10.92 C84.63,12.285 86.33625,13.99125 87.47375,16.26625 C88.61125,18.4275 89.29375,20.93 89.29375,23.54625 C89.29375,26.1625 88.725,28.55125 87.47375,30.82625 C86.33625,33.10125 84.63,34.8075 82.46875,36.1725 C80.3075,37.5375 77.91875,38.22 75.3025,38.22 C72.8,38.22 70.63875,37.65125 68.705,36.51375 L68.705,45.15875 C68.705,46.29625 68.36375,47.20625 67.68125,47.88875 C67.1125,48.4575 66.2025,48.79875 65.065,48.79875 Z M63.13125,12.285 C62.79,12.285 62.44875,12.39875 62.335,12.5125 C62.22125,12.62625 62.1075,12.9675 62.1075,13.30875 L62.1075,45.15875 C62.1075,45.5 62.22125,45.84125 62.335,45.955 C62.44875,46.06875 62.79,46.1825 63.13125,46.1825 L64.95125,46.1825 C65.17875,46.1825 65.52,46.1825 65.7475,45.955 C65.86125,45.84125 65.975,45.5 65.975,45.15875 L65.975,30.37125 L68.36375,32.64625 C70.18375,34.46625 72.5725,35.37625 75.41625,35.37625 C77.5775,35.37625 79.3975,34.8075 81.10375,33.78375 C82.81,32.76 84.175,31.28125 85.085,29.46125 C85.995,27.64125 86.56375,25.7075 86.56375,23.54625 C86.56375,21.385 86.10875,19.45125 85.085,17.63125 C84.175,15.81125 82.81,14.44625 81.10375,13.30875 C79.3975,12.285 77.46375,11.71625 75.41625,11.71625 C72.5725,11.71625 70.2975,12.62625 68.36375,14.44625 L65.975,16.72125 L65.975,13.195 C65.975,12.85375 65.86125,12.5125 65.7475,12.39875 C65.52,12.17125 65.17875,12.17125 64.95125,12.17125 L63.13125,12.17125 L63.13125,12.285 Z M73.9375,32.19125 C72.23125,32.19125 70.63875,31.73625 69.27375,30.82625 C67.90875,29.91625 66.77125,28.77875 66.08875,27.3 L65.975,26.95875 L65.975,19.7925 L66.08875,19.45125 C66.77125,17.9725 67.795,16.835 69.27375,15.925 C70.63875,15.015 72.23125,14.67375 73.9375,14.67375 C76.32625,14.67375 78.4875,15.47 80.08,17.17625 C81.78625,18.8825 82.5825,20.93 82.5825,23.31875 C82.5825,25.7075 81.78625,27.86875 80.08,29.46125 C78.4875,31.395 76.44,32.19125 73.9375,32.19125 Z M68.81875,26.39 C69.27375,27.3 69.95625,27.9825 70.7525,28.4375 C71.6625,29.00625 72.8,29.3475 73.9375,29.3475 C75.64375,29.3475 77.00875,28.77875 78.14625,27.64125 C79.28375,26.50375 79.8525,25.13875 79.8525,23.4325 C79.8525,21.72625 79.28375,20.36125 78.14625,19.22375 C77.00875,18.08625 75.64375,17.5175 73.9375,17.5175 C72.8,17.5175 71.6625,17.85875 70.7525,18.4275 C69.8425,18.99625 69.27375,19.67875 68.81875,20.475 L68.81875,26.39 Z"></path>
                        <path d="M104.8775,38.10625 C102.71625,38.10625 100.66875,37.765 98.735,36.96875 C96.80125,36.28625 95.20875,35.2625 93.84375,33.8975 C92.47875,32.64625 91.455,31.05375 90.7725,29.3475 C89.97625,27.64125 89.635,25.7075 89.635,23.77375 C89.635,21.84 89.97625,19.90625 90.7725,18.2 C91.56875,16.49375 92.5925,14.90125 93.84375,13.65 C95.20875,12.39875 96.6875,11.375 98.5075,10.57875 C100.3275,9.7825 102.26125,9.44125 104.30875,9.44125 C107.03875,9.44125 109.4275,10.12375 111.7025,11.26125 C113.86375,12.5125 115.57,14.21875 116.82125,16.26625 C118.0725,18.31375 118.64125,20.7025 118.64125,23.205 L118.64125,23.4325 C118.64125,24.91125 117.95875,25.7075 117.39,26.1625 C116.7075,26.73125 115.7975,27.0725 114.77375,27.0725 L99.4175,27.0725 C99.75875,27.755 100.21375,28.32375 100.7825,28.77875 C101.80625,29.68875 103.0575,30.03 104.65,30.03 C106.35625,30.03 107.835,29.575 109.2,28.665 C111.02,27.41375 112.84,27.5275 114.205,28.8925 L114.8875,29.575 C115.68375,30.37125 116.13875,31.28125 116.13875,32.305 C116.13875,32.9875 115.91125,34.01125 114.77375,35.035 C112.1575,37.0825 108.745,38.10625 104.8775,38.10625 Z M104.53625,12.285 C102.83,12.285 101.2375,12.62625 99.75875,13.195 C98.28,13.76375 97.02875,14.67375 95.89125,15.6975 C94.8675,16.72125 93.9575,17.9725 93.38875,19.3375 C92.82,20.7025 92.47875,22.295 92.47875,23.8875 C92.47875,25.48 92.82,26.95875 93.38875,28.4375 C93.9575,29.8025 94.8675,31.05375 95.89125,32.0775 C96.915,33.10125 98.28,33.8975 99.75875,34.46625 C101.35125,35.035 103.0575,35.37625 104.8775,35.37625 C108.0625,35.37625 110.90625,34.46625 113.18125,32.76 C113.40875,32.64625 113.5225,32.41875 113.5225,32.305 C113.5225,32.0775 113.40875,31.85 113.0675,31.6225 L112.385,30.94 C112.04375,30.59875 111.7025,30.485 110.90625,30.94 C109.08625,32.19125 107.03875,32.87375 104.76375,32.87375 C102.6025,32.87375 100.66875,32.19125 99.19,30.94 C97.5975,29.68875 96.6875,27.9825 96.34625,25.935 L96.11875,24.3425 L115.00125,24.3425 C115.3425,24.3425 115.68375,24.22875 115.91125,24.115 C115.91125,24.115 116.13875,24.00125 116.13875,23.54625 L116.13875,23.31875 C116.13875,21.27125 115.68375,19.45125 114.66,17.745 C113.75,16.03875 112.27125,14.67375 110.565,13.76375 C108.745,12.74 106.6975,12.285 104.53625,12.285 Z M112.49875,22.5225 L96.005,22.5225 L96.57375,20.7025 C97.1425,18.8825 98.0525,17.40375 99.53125,16.38 C101.01,15.2425 102.6025,14.7875 104.4225,14.7875 C106.35625,14.7875 107.94875,15.35625 109.31375,16.49375 C110.67875,17.63125 111.58875,19.11 112.04375,20.81625 L112.49875,22.5225 Z M100.1,19.67875 L108.63125,19.67875 C108.40375,19.22375 108.0625,18.8825 107.6075,18.54125 C106.6975,17.85875 105.67375,17.5175 104.4225,17.5175 C103.17125,17.5175 102.1475,17.85875 101.12375,18.54125 C100.7825,18.8825 100.44125,19.22375 100.1,19.67875 Z"></path>
                        <path d="M127.1725,37.5375 L125.23875,37.5375 C124.10125,37.5375 123.19125,37.19625 122.50875,36.51375 C121.82625,35.83125 121.485,34.92125 121.485,33.78375 L121.485,13.30875 C121.485,12.17125 121.82625,11.26125 122.50875,10.57875 C123.19125,9.89625 124.10125,9.555 125.23875,9.555 L127.1725,9.555 C128.31,9.555 129.22,9.89625 129.9025,10.57875 C130.01625,10.6925 130.24375,10.92 130.3575,11.1475 C132.06375,9.66875 134.11125,8.98625 136.2725,8.98625 L136.5,8.98625 C137.97875,9.1 138.775,9.7825 139.23,10.465 C139.685,11.26125 139.9125,12.17125 139.79875,13.195 L139.685,14.44625 C139.57125,15.925 138.88875,16.72125 138.32,17.0625 C137.6375,17.5175 136.7275,17.745 135.59,17.745 L135.47625,17.745 C134.56625,17.745 133.77,17.9725 132.97375,18.54125 C132.1775,19.11 131.495,19.7925 131.04,20.81625 L131.04,33.8975 C131.04,35.035 130.69875,35.945 130.01625,36.6275 C129.22,37.19625 128.31,37.5375 127.1725,37.5375 Z M125.23875,12.285 C124.8975,12.285 124.55625,12.39875 124.4425,12.5125 C124.32875,12.62625 124.215,12.9675 124.215,13.30875 L124.215,33.78375 C124.215,34.125 124.32875,34.46625 124.4425,34.58 C124.55625,34.69375 124.8975,34.8075 125.23875,34.8075 L127.1725,34.8075 C127.4,34.8075 127.74125,34.8075 127.96875,34.58 C128.0825,34.46625 128.19625,34.125 128.19625,33.78375 L128.19625,20.02 L128.31,19.67875 C129.10625,18.2 130.13,17.0625 131.2675,16.1525 C132.51875,15.2425 133.88375,14.7875 135.3625,14.7875 L135.59,14.7875 C136.2725,14.7875 136.61375,14.67375 136.7275,14.67375 C136.7275,14.67375 136.84125,14.44625 136.84125,14.105 L136.955,12.85375 C136.955,12.39875 136.955,12.0575 136.84125,11.83 C136.84125,11.71625 136.7275,11.71625 136.5,11.71625 L136.2725,11.71625 C134.11125,11.71625 132.1775,12.74 130.69875,14.7875 L128.19625,18.2 L128.19625,13.30875 C128.19625,12.9675 128.0825,12.62625 127.96875,12.5125 C127.74125,12.285 127.4,12.285 127.1725,12.285 L125.23875,12.285 Z"></path>
                    </g>
                    <g transform="translate(0.000000, 51.187500)" fill="#EE8747" id="Shape">
                        <path d="M21.1575,39.24375 L4.43625,39.24375 C3.29875,39.24375 2.38875,38.9025 1.70625,38.22 C1.02375,37.5375 0.6825,36.6275 0.6825,35.49 L0.6825,6.1425 C0.6825,5.005 1.02375,4.095 1.70625,3.4125 C2.38875,2.73 3.29875,2.38875 4.43625,2.38875 L20.7025,2.38875 C21.84,2.38875 22.75,2.73 23.4325,3.4125 C24.115,4.095 24.45625,5.005 24.45625,6.1425 L24.45625,7.28 C24.45625,8.4175 24.115,9.3275 23.4325,10.01 C22.75,10.6925 21.84,11.03375 20.7025,11.03375 L10.35125,11.03375 L10.35125,16.38 L19.565,16.38 C20.7025,16.38 21.6125,16.72125 22.295,17.40375 C22.9775,18.08625 23.31875,18.99625 23.31875,20.13375 L23.31875,21.1575 C23.31875,22.295 22.9775,23.205 22.295,23.8875 C21.6125,24.57 20.7025,24.91125 19.565,24.91125 L10.35125,24.91125 L10.35125,30.485 L21.1575,30.485 C22.295,30.485 23.205,30.82625 23.8875,31.50875 C24.57,32.19125 24.91125,33.10125 24.91125,34.23875 L24.91125,35.37625 C24.91125,36.51375 24.57,37.42375 23.8875,38.10625 C23.205,38.9025 22.295,39.24375 21.1575,39.24375 Z M4.43625,5.11875 C4.095,5.11875 3.8675,5.2325 3.64,5.34625 C3.4125,5.57375 3.4125,5.915 3.4125,6.1425 L3.4125,35.49 C3.4125,35.7175 3.4125,36.05875 3.64,36.28625 C3.75375,36.4 3.98125,36.51375 4.43625,36.51375 L21.1575,36.51375 C21.49875,36.51375 21.72625,36.4 21.95375,36.28625 C22.18125,36.05875 22.18125,35.7175 22.18125,35.49 L22.18125,34.3525 C22.18125,34.125 22.18125,33.78375 21.95375,33.55625 C21.84,33.4425 21.6125,33.32875 21.1575,33.32875 L7.5075,33.32875 L7.5075,22.18125 L19.565,22.18125 C19.90625,22.18125 20.13375,22.0675 20.36125,21.95375 C20.475,21.84 20.58875,21.49875 20.58875,21.1575 L20.58875,20.13375 C20.58875,19.90625 20.58875,19.565 20.36125,19.3375 C20.2475,19.22375 20.02,19.11 19.565,19.11 L7.5075,19.11 L7.5075,8.19 L20.7025,8.19 C21.04375,8.19 21.27125,8.07625 21.49875,7.9625 C21.72625,7.735 21.72625,7.39375 21.72625,7.16625 L21.72625,6.02875 C21.72625,5.80125 21.72625,5.46 21.49875,5.2325 C21.385,5.11875 21.1575,5.005 20.7025,5.005 L4.43625,5.005 L4.43625,5.11875 Z"></path>
                        <path d="M50.39125,39.24375 L48.4575,39.24375 C47.32,39.24375 46.41,38.9025 45.7275,38.22 C45.045,37.5375 44.70375,36.6275 44.70375,35.49 L44.70375,22.9775 C44.70375,21.95375 44.3625,21.04375 43.68,20.36125 C42.9975,19.67875 42.20125,19.3375 41.06375,19.3375 C40.38125,19.3375 39.585,19.565 38.9025,20.13375 C38.22,20.58875 37.5375,21.1575 37.0825,21.84 L37.0825,35.49 C37.0825,36.6275 36.74125,37.5375 36.05875,38.22 C35.37625,38.9025 34.46625,39.24375 33.32875,39.24375 L31.395,39.24375 C30.2575,39.24375 29.3475,38.9025 28.665,38.22 C27.9825,37.5375 27.64125,36.6275 27.64125,35.49 L27.64125,15.015 C27.64125,13.8775 27.9825,12.9675 28.665,12.285 C29.3475,11.6025 30.2575,11.26125 31.395,11.26125 L33.32875,11.26125 C34.46625,11.26125 35.37625,11.6025 36.05875,12.285 C36.1725,12.39875 36.28625,12.62625 36.51375,12.74 C37.0825,12.285 37.65125,11.94375 38.22,11.71625 C39.69875,11.03375 41.1775,10.6925 42.65625,10.6925 C45.955,10.6925 48.685,11.83 50.84625,13.99125 C53.0075,16.1525 54.03125,18.99625 54.03125,22.40875 L54.03125,35.60375 C54.03125,36.74125 53.69,37.65125 53.0075,38.33375 C52.66625,38.675 51.87,39.24375 50.39125,39.24375 Z M41.1775,16.49375 C43.11125,16.49375 44.59,17.17625 45.84125,18.31375 C46.97875,19.565 47.5475,21.04375 47.5475,22.86375 L47.5475,35.37625 C47.5475,35.60375 47.5475,35.945 47.775,36.1725 C47.88875,36.28625 48.11625,36.4 48.57125,36.4 L50.505,36.4 C50.84625,36.4 51.07375,36.28625 51.30125,36.1725 C51.52875,35.945 51.52875,35.60375 51.52875,35.37625 L51.52875,22.18125 C51.52875,19.45125 50.7325,17.40375 49.14,15.6975 C47.5475,14.105 45.5,13.30875 42.9975,13.30875 C41.86,13.30875 40.83625,13.53625 39.69875,14.105 C38.675,14.67375 37.765,15.35625 36.96875,16.1525 L34.46625,19.11 L34.46625,14.7875 C34.46625,14.56 34.46625,14.21875 34.23875,13.99125 C34.125,13.8775 33.8975,13.76375 33.4425,13.76375 L31.50875,13.76375 C31.1675,13.76375 30.94,13.8775 30.7125,13.99125 C30.485,14.21875 30.485,14.56 30.485,14.7875 L30.485,35.2625 C30.485,35.49 30.485,35.83125 30.7125,36.05875 C30.82625,36.1725 31.05375,36.28625 31.50875,36.28625 L33.4425,36.28625 C33.78375,36.28625 34.01125,36.1725 34.23875,36.05875 C34.46625,35.83125 34.46625,35.49 34.46625,35.2625 L34.46625,20.81625 L34.69375,20.475 C35.37625,19.3375 36.28625,18.4275 37.42375,17.63125 C38.675,16.94875 39.92625,16.49375 41.1775,16.49375 Z"></path>
                        <path d="M69.50125,39.8125 C66.885,39.8125 64.49625,39.13 62.335,37.765 C60.17375,36.4 58.58125,34.69375 57.33,32.41875 C56.1925,30.2575 55.62375,27.755 55.62375,25.13875 C55.62375,22.5225 56.1925,20.13375 57.33,17.85875 C58.4675,15.58375 60.17375,13.8775 62.335,12.5125 C64.49625,11.1475 66.885,10.465 69.50125,10.465 C72.23125,10.465 74.62,11.1475 76.6675,12.5125 C76.78125,12.39875 76.895,12.17125 77.00875,12.0575 C77.69125,11.375 78.60125,11.03375 79.73875,11.03375 L81.55875,11.03375 C82.69625,11.03375 83.60625,11.375 84.28875,12.0575 C84.97125,12.74 85.3125,13.65 85.3125,14.7875 L85.3125,35.2625 C85.3125,36.4 84.97125,37.31 84.28875,37.9925 C83.60625,38.675 82.69625,39.01625 81.55875,39.01625 L79.73875,39.01625 C78.60125,39.01625 77.69125,38.675 77.00875,37.9925 C76.895,37.87875 76.78125,37.65125 76.6675,37.5375 C74.62,39.13 72.23125,39.8125 69.50125,39.8125 Z M69.50125,13.4225 C67.45375,13.4225 65.52,13.99125 63.81375,15.015 C62.1075,16.03875 60.7425,17.5175 59.8325,19.3375 C58.9225,21.1575 58.35375,23.09125 58.35375,25.2525 C58.35375,27.41375 58.80875,29.46125 59.8325,31.1675 C60.7425,32.9875 62.1075,34.3525 63.81375,35.49 C65.52,36.51375 67.34,37.0825 69.50125,37.0825 C72.345,37.0825 74.50625,36.1725 76.44,34.3525 L78.82875,31.96375 L78.82875,35.49 C78.82875,35.7175 78.82875,36.05875 79.05625,36.28625 C79.17,36.4 79.3975,36.51375 79.8525,36.51375 L81.6725,36.51375 C82.01375,36.51375 82.24125,36.4 82.46875,36.28625 C82.69625,36.05875 82.69625,35.7175 82.69625,35.49 L82.69625,15.015 C82.69625,14.7875 82.69625,14.44625 82.46875,14.21875 C82.355,14.105 82.1275,13.99125 81.6725,13.99125 L79.8525,13.99125 C79.51125,13.99125 79.28375,14.105 79.05625,14.21875 C78.9425,14.3325 78.82875,14.67375 78.82875,15.015 L78.82875,18.54125 L76.44,16.1525 C74.50625,14.21875 72.345,13.4225 69.50125,13.4225 Z M70.86625,33.8975 C68.4775,33.8975 66.43,33.10125 64.72375,31.395 C63.13125,29.68875 62.22125,27.64125 62.22125,25.2525 C62.22125,22.86375 63.0175,20.7025 64.72375,19.11 C66.31625,17.40375 68.4775,16.6075 70.86625,16.6075 C72.5725,16.6075 74.165,17.0625 75.53,17.9725 C76.895,18.8825 77.91875,20.02 78.715,21.49875 L78.82875,21.72625 L78.82875,28.8925 L78.715,29.12 C78.0325,30.59875 77.00875,31.73625 75.53,32.64625 C74.165,33.4425 72.5725,33.8975 70.86625,33.8975 Z M70.86625,19.3375 C69.16,19.3375 67.90875,19.90625 66.77125,21.04375 C65.63375,22.18125 65.065,23.54625 65.065,25.2525 C65.065,26.95875 65.63375,28.32375 66.77125,29.46125 C67.90875,30.59875 69.27375,31.1675 70.86625,31.1675 C72.00375,31.1675 73.0275,30.82625 74.05125,30.2575 C74.96125,29.68875 75.53,29.00625 75.985,28.21 L75.985,22.295 C75.53,21.385 74.8475,20.81625 74.05125,20.2475 C73.0275,19.565 72.00375,19.3375 70.86625,19.3375 Z"></path>
                        <path d="M94.64,39.24375 L92.70625,39.24375 C91.56875,39.24375 90.65875,38.9025 89.97625,38.22 C89.29375,37.5375 88.9525,36.6275 88.9525,35.49 L88.9525,4.66375 C88.9525,3.52625 89.29375,2.61625 89.97625,1.93375 C90.65875,1.25125 91.56875,0.91 92.70625,0.91 L94.64,0.91 C96.005,0.91 96.915,1.47875 97.37,1.93375 C98.0525,2.61625 98.39375,3.52625 98.39375,4.66375 L98.39375,35.49 C98.39375,36.6275 98.0525,37.5375 97.37,38.22 C96.915,38.675 96.11875,39.24375 94.64,39.24375 Z M92.82,3.64 C92.47875,3.64 92.25125,3.75375 92.02375,3.8675 C91.91,3.98125 91.79625,4.3225 91.79625,4.66375 L91.79625,35.49 C91.79625,35.7175 91.79625,36.05875 92.02375,36.28625 C92.1375,36.4 92.365,36.51375 92.82,36.51375 L94.75375,36.51375 C95.095,36.51375 95.3225,36.4 95.55,36.28625 C95.7775,36.05875 95.7775,35.7175 95.7775,35.49 L95.7775,4.66375 C95.7775,4.3225 95.66375,3.98125 95.55,3.8675 C95.43625,3.75375 95.20875,3.64 94.75375,3.64 L92.82,3.64 Z"></path>
                        <path d="M115.7975,39.8125 C111.475,39.8125 107.835,38.4475 104.99125,35.60375 L104.99125,35.60375 C102.03375,32.76 100.555,29.3475 100.555,25.2525 C100.555,21.1575 102.03375,17.63125 104.99125,14.90125 C107.94875,12.0575 111.58875,10.6925 115.7975,10.6925 C118.64125,10.6925 121.2575,11.375 123.5325,12.62625 C125.8075,13.8775 127.74125,15.6975 128.9925,17.9725 C130.3575,20.2475 130.92625,22.63625 130.92625,25.36625 C130.92625,28.09625 130.24375,30.485 128.9925,32.76 C127.6275,35.035 125.8075,36.74125 123.5325,38.10625 C121.2575,39.13 118.64125,39.8125 115.7975,39.8125 Z M106.925,33.55625 C109.31375,35.83125 112.27125,36.96875 115.7975,36.96875 C118.18625,36.96875 120.3475,36.4 122.1675,35.37625 C124.10125,34.3525 125.58,32.87375 126.60375,31.05375 C127.6275,29.23375 128.19625,27.3 128.19625,25.13875 C128.19625,22.9775 127.6275,20.93 126.60375,19.22375 C125.58,17.40375 124.10125,16.03875 122.1675,14.90125 C120.23375,13.8775 118.0725,13.30875 115.7975,13.30875 C112.1575,13.30875 109.31375,14.44625 106.925,16.72125 C104.53625,18.99625 103.39875,21.72625 103.39875,25.13875 C103.39875,28.55125 104.53625,31.28125 106.925,33.55625 L106.925,33.55625 Z M115.7975,33.8975 C113.40875,33.8975 111.36125,33.10125 109.655,31.395 C108.0625,29.68875 107.1525,27.64125 107.1525,25.2525 C107.1525,22.86375 107.94875,20.81625 109.655,19.11 C111.2475,17.40375 113.40875,16.6075 115.7975,16.6075 C118.18625,16.6075 120.23375,17.40375 121.94,19.11 C123.64625,20.81625 124.4425,22.86375 124.4425,25.2525 C124.4425,27.64125 123.64625,29.8025 121.94,31.395 C120.23375,32.9875 118.18625,33.8975 115.7975,33.8975 Z M115.7975,19.3375 C114.09125,19.3375 112.84,19.90625 111.7025,21.04375 C110.565,22.18125 109.99625,23.54625 109.99625,25.2525 C109.99625,26.95875 110.565,28.32375 111.7025,29.46125 C112.84,30.59875 114.205,31.1675 115.7975,31.1675 C117.50375,31.1675 118.86875,30.59875 119.8925,29.46125 C121.03,28.32375 121.59875,26.95875 121.59875,25.2525 C121.59875,23.54625 121.03,22.18125 119.8925,21.04375 C118.755,19.90625 117.50375,19.3375 115.7975,19.3375 Z"></path>
                        <path d="M144.69,39.8125 C137.6375,39.8125 133.9975,36.28625 133.9975,29.46125 L133.9975,19.7925 L133.88375,19.7925 C132.74625,19.7925 131.83625,19.45125 131.15375,18.76875 C130.47125,18.08625 130.13,17.17625 130.13,16.03875 L130.13,15.015 C130.13,13.8775 130.47125,12.9675 131.15375,12.285 C131.83625,11.6025 132.74625,11.26125 133.88375,11.26125 L133.9975,11.26125 L133.9975,8.19 C133.9975,5.915 135.3625,4.55 137.52375,4.3225 L139.4575,4.095 C140.70875,3.98125 141.61875,4.3225 142.415,5.005 C143.0975,5.6875 143.43875,6.5975 143.43875,7.84875 L143.43875,11.26125 L145.6,11.26125 C146.7375,11.26125 147.6475,11.6025 148.33,12.285 C149.0125,12.9675 149.35375,13.8775 149.35375,15.015 L149.35375,16.03875 C149.35375,17.17625 149.0125,18.08625 148.33,18.76875 C147.6475,19.45125 146.7375,19.7925 145.6,19.7925 L143.43875,19.7925 L143.43875,29.12 C143.43875,29.68875 143.5525,30.37125 143.89375,30.82625 C144.0075,30.94 144.4625,31.28125 145.8275,31.28125 C146.85125,31.28125 147.76125,31.6225 148.44375,32.19125 C149.12625,32.87375 149.58125,33.78375 149.58125,35.035 L149.58125,35.945 C149.58125,39.13 147.53375,39.69875 146.62375,39.8125 C146.055,39.8125 145.3725,39.8125 144.69,39.8125 Z M133.88375,13.99125 C133.5425,13.99125 133.315,14.105 133.0875,14.21875 C132.86,14.44625 132.86,14.7875 132.86,15.015 L132.86,16.03875 C132.86,16.26625 132.86,16.6075 133.0875,16.835 C133.20125,16.94875 133.42875,17.0625 133.88375,17.0625 L136.84125,17.0625 L136.84125,29.575 C136.84125,34.8075 139.34375,37.0825 144.80375,37.0825 C145.3725,37.0825 145.94125,37.0825 146.39625,36.96875 C146.62375,36.96875 146.85125,36.855 146.85125,35.945 L146.85125,35.035 C146.85125,34.69375 146.7375,34.3525 146.62375,34.3525 C146.51,34.3525 146.39625,34.125 145.8275,34.125 C144.12125,34.125 142.75625,33.67 141.96,32.87375 C141.05,32.0775 140.595,30.82625 140.595,29.23375 L140.595,17.17625 L145.48625,17.17625 C145.8275,17.17625 146.055,17.0625 146.2825,16.94875 C146.39625,16.835 146.51,16.49375 146.51,16.1525 L146.51,15.12875 C146.51,14.7875 146.39625,14.44625 146.2825,14.3325 C146.16875,14.21875 145.94125,14.105 145.48625,14.105 L140.595,14.105 L140.595,7.84875 C140.595,7.62125 140.595,7.28 140.3675,7.0525 C140.25375,6.93875 139.79875,6.93875 139.57125,6.93875 L137.6375,7.0525 C136.84125,7.16625 136.61375,7.39375 136.61375,8.19 L136.61375,13.99125 L133.88375,13.99125 L133.88375,13.99125 Z"></path>
                        <path d="M163.5725,39.8125 C156.52,39.8125 152.88,36.28625 152.88,29.46125 L152.88,19.7925 L152.76625,19.7925 C151.62875,19.7925 150.71875,19.45125 150.03625,18.76875 C149.35375,18.08625 149.0125,17.17625 149.0125,16.03875 L149.0125,15.015 C149.0125,13.8775 149.35375,12.9675 150.03625,12.285 C150.71875,11.6025 151.62875,11.26125 152.76625,11.26125 L152.88,11.26125 L152.88,8.19 C152.88,5.915 154.245,4.55 156.40625,4.3225 L158.34,4.095 C159.59125,3.98125 160.50125,4.3225 161.2975,5.005 C161.98,5.6875 162.32125,6.5975 162.32125,7.84875 L162.32125,11.26125 L164.4825,11.26125 C165.62,11.26125 166.53,11.6025 167.2125,12.285 C167.895,12.9675 168.23625,13.8775 168.23625,15.015 L168.23625,16.03875 C168.23625,17.17625 167.895,18.08625 167.2125,18.76875 C166.53,19.45125 165.62,19.7925 164.4825,19.7925 L162.32125,19.7925 L162.32125,29.12 C162.32125,29.68875 162.435,30.37125 162.77625,30.82625 C162.89,30.94 163.345,31.28125 164.71,31.28125 C165.73375,31.28125 166.64375,31.6225 167.32625,32.19125 C168.00875,32.87375 168.46375,33.78375 168.46375,35.035 L168.46375,35.945 C168.46375,39.13 166.41625,39.69875 165.50625,39.8125 C164.9375,39.8125 164.36875,39.8125 163.5725,39.8125 Z M152.76625,13.99125 C152.425,13.99125 152.1975,14.105 151.97,14.21875 C151.85625,14.44625 151.7425,14.7875 151.7425,15.015 L151.7425,16.03875 C151.7425,16.26625 151.7425,16.6075 151.97,16.835 C152.08375,16.94875 152.31125,17.0625 152.76625,17.0625 L155.72375,17.0625 L155.72375,29.575 C155.72375,34.8075 158.22625,37.0825 163.68625,37.0825 C164.255,37.0825 164.82375,37.0825 165.27875,36.96875 C165.50625,36.96875 165.73375,36.855 165.73375,35.945 L165.73375,35.035 C165.73375,34.69375 165.62,34.3525 165.50625,34.3525 C165.3925,34.23875 165.05125,34.125 164.71,34.125 C163.00375,34.125 161.63875,33.67 160.8425,32.87375 C159.9325,32.0775 159.4775,30.82625 159.4775,29.23375 L159.4775,17.17625 L164.36875,17.17625 C164.71,17.17625 164.9375,17.0625 165.165,16.94875 C165.3925,16.72125 165.3925,16.38 165.3925,16.1525 L165.3925,15.12875 C165.3925,14.90125 165.3925,14.56 165.165,14.3325 C165.05125,14.21875 164.82375,14.105 164.36875,14.105 L159.4775,14.105 L159.4775,7.84875 C159.4775,7.62125 159.4775,7.28 159.25,7.0525 C159.13625,6.93875 158.68125,6.93875 158.45375,6.93875 L156.52,7.0525 C155.72375,7.16625 155.49625,7.39375 155.49625,8.19 L155.49625,13.99125 L152.76625,13.99125 L152.76625,13.99125 Z"></path>
                        <path d="M182,39.8125 C177.6775,39.8125 174.0375,38.4475 171.19375,35.60375 L171.19375,35.60375 C168.23625,32.76 166.7575,29.3475 166.7575,25.2525 C166.7575,21.1575 168.23625,17.63125 171.19375,14.90125 C174.15125,12.0575 177.79125,10.6925 182,10.6925 C184.84375,10.6925 187.46,11.375 189.735,12.62625 C192.01,13.8775 193.94375,15.6975 195.195,17.9725 C196.56,20.2475 197.12875,22.63625 197.12875,25.36625 C197.12875,28.09625 196.44625,30.485 195.195,32.76 C193.83,35.035 192.01,36.74125 189.735,38.10625 C187.34625,39.13 184.84375,39.8125 182,39.8125 Z M173.1275,33.55625 C175.51625,35.83125 178.47375,36.96875 182,36.96875 C184.38875,36.96875 186.55,36.4 188.37,35.37625 C190.30375,34.3525 191.7825,32.87375 192.80625,31.05375 C193.83,29.23375 194.39875,27.3 194.39875,25.13875 C194.39875,22.9775 193.83,20.93 192.80625,19.22375 C191.7825,17.40375 190.30375,16.03875 188.37,14.90125 C186.43625,13.8775 184.275,13.30875 182,13.30875 C178.36,13.30875 175.51625,14.44625 173.1275,16.72125 C170.73875,18.99625 169.60125,21.72625 169.60125,25.13875 C169.4875,28.55125 170.73875,31.28125 173.1275,33.55625 L173.1275,33.55625 Z M182,33.8975 C179.61125,33.8975 177.56375,33.10125 175.8575,31.395 C174.265,29.68875 173.355,27.64125 173.355,25.2525 C173.355,22.86375 174.15125,20.81625 175.8575,19.11 C177.45,17.40375 179.61125,16.6075 182,16.6075 C184.38875,16.6075 186.43625,17.40375 188.1425,19.11 C189.735,20.81625 190.645,22.86375 190.645,25.2525 C190.645,27.64125 189.84875,29.8025 188.1425,31.395 C186.43625,32.9875 184.38875,33.8975 182,33.8975 Z M182,19.3375 C180.29375,19.3375 179.0425,19.90625 177.905,21.04375 C176.7675,22.18125 176.19875,23.54625 176.19875,25.2525 C176.19875,26.95875 176.7675,28.32375 177.905,29.46125 C179.0425,30.59875 180.4075,31.1675 182,31.1675 C183.70625,31.1675 185.07125,30.59875 186.095,29.46125 C187.2325,28.32375 187.80125,26.95875 187.80125,25.2525 C187.80125,23.54625 187.2325,22.18125 186.095,21.04375 C184.9575,19.90625 183.5925,19.3375 182,19.3375 Z"></path>
                    </g>
                    <g transform="translate(31.850000, 1.137500)">
                        <path d="M0.79625,28.4375 L1.70625,27.41375 C2.73,26.27625 3.75375,26.27625 5.005,27.18625 C7.16625,28.8925 9.3275,29.68875 11.6025,29.68875 C13.195,29.68875 14.56,29.3475 15.58375,28.55125 C16.6075,27.755 17.17625,26.845 17.17625,25.59375 C17.17625,24.3425 16.72125,23.31875 15.6975,22.5225 C14.67375,21.6125 12.9675,20.93 10.35125,20.475 C7.0525,19.7925 4.43625,18.54125 2.73,16.835 C1.02375,15.12875 0.11375,13.08125 0.11375,10.57875 C0.11375,7.735 1.1375,5.46 3.185,3.64 C5.2325,1.82 7.9625,0.91 11.26125,0.91 C14.7875,0.91 17.85875,1.82 20.58875,3.75375 C21.1575,4.20875 21.49875,4.66375 21.6125,5.2325 C21.6125,5.80125 21.49875,6.37 21.04375,6.93875 L20.2475,7.9625 C19.3375,9.1 18.31375,9.3275 16.94875,8.4175 C15.12875,7.16625 13.4225,6.5975 11.71625,6.5975 C10.35125,6.5975 9.3275,6.93875 8.4175,7.5075 C7.5075,8.19 7.16625,8.98625 7.16625,10.01 C7.16625,11.1475 7.62125,12.17125 8.645,12.9675 C9.66875,13.76375 11.26125,14.44625 13.53625,14.90125 C17.17625,15.6975 19.90625,17.0625 21.6125,18.76875 C23.31875,20.475 24.22875,22.75 24.22875,25.36625 C24.22875,28.32375 23.09125,30.82625 20.93,32.64625 C18.655,34.46625 15.6975,35.49 11.94375,35.49 C9.89625,35.49 7.9625,35.14875 6.1425,34.46625 C4.3225,33.78375 2.61625,32.87375 1.25125,31.6225 C-0.2275,30.7125 -0.34125,29.575 0.79625,28.4375 Z" id="Path" fill="url(#linearGradient-1)"></path>
                        <path d="M45.2725,12.5125 C45.2725,11.71625 45.5,11.1475 45.84125,10.80625 C46.29625,10.35125 46.865,10.2375 47.5475,10.2375 L49.48125,10.2375 C50.2775,10.2375 50.84625,10.465 51.1875,10.80625 C51.52875,11.1475 51.75625,11.83 51.75625,12.5125 L51.75625,32.64625 C51.75625,33.4425 51.52875,34.01125 51.1875,34.3525 C50.84625,34.69375 50.16375,34.92125 49.48125,34.92125 L47.5475,34.92125 C46.75125,34.92125 46.1825,34.69375 45.84125,34.3525 C45.38625,33.8975 45.2725,33.32875 45.2725,32.64625 L45.2725,32.305 C44.47625,33.32875 43.33875,34.125 42.20125,34.69375 C40.95,35.2625 39.69875,35.60375 38.33375,35.60375 C35.37625,35.60375 32.9875,34.69375 31.1675,32.76 C29.3475,30.94 28.4375,28.4375 28.4375,25.48 L28.4375,12.5125 C28.4375,11.71625 28.665,11.1475 29.00625,10.80625 C29.3475,10.465 30.03,10.2375 30.7125,10.2375 L32.64625,10.2375 C33.4425,10.2375 34.01125,10.465 34.3525,10.80625 C34.69375,11.1475 34.92125,11.83 34.92125,12.5125 L34.92125,24.7975 C34.92125,26.1625 35.37625,27.41375 36.28625,28.32375 C37.19625,29.23375 38.33375,29.68875 39.8125,29.68875 C40.83625,29.68875 41.86,29.3475 42.77,28.665 C43.79375,27.9825 44.59,27.18625 45.15875,26.27625 L45.15875,12.5125 L45.2725,12.5125 Z" id="Path" fill="url(#linearGradient-2)"></path>
                        <path d="M72.5725,9.555 C74.8475,9.555 77.00875,10.12375 78.9425,11.26125 C80.87625,12.39875 82.355,13.99125 83.37875,16.03875 C84.4025,18.08625 84.97125,20.13375 84.97125,22.5225 C84.97125,24.91125 84.4025,27.0725 83.37875,29.00625 C82.355,30.94 80.87625,32.5325 78.9425,33.78375 C77.00875,34.92125 74.96125,35.49 72.5725,35.49 C69.3875,35.49 66.77125,34.46625 64.72375,32.41875 L64.72375,43.68 C64.72375,44.47625 64.49625,45.045 64.155,45.38625 C63.7,45.84125 63.13125,45.955 62.44875,45.955 L60.62875,45.955 C59.8325,45.955 59.26375,45.7275 58.9225,45.38625 C58.4675,44.93125 58.35375,44.3625 58.35375,43.68 L58.35375,12.5125 C58.35375,11.71625 58.58125,11.1475 58.9225,10.80625 C59.3775,10.35125 59.94625,10.2375 60.62875,10.2375 L62.44875,10.2375 C63.245,10.2375 63.81375,10.465 64.155,10.80625 C64.49625,11.1475 64.72375,11.83 64.72375,12.5125 L64.72375,12.62625 C66.885,10.57875 69.50125,9.555 72.5725,9.555 Z M71.2075,29.68875 C73.255,29.68875 74.96125,29.00625 76.32625,27.64125 C77.69125,26.27625 78.37375,24.57 78.37375,22.5225 C78.37375,20.475 77.69125,18.76875 76.32625,17.40375 C74.96125,16.03875 73.255,15.35625 71.2075,15.35625 C69.8425,15.35625 68.4775,15.6975 67.34,16.38 C66.2025,17.0625 65.2925,18.08625 64.72375,19.22375 L64.72375,25.59375 C65.2925,26.845 66.2025,27.755 67.34,28.4375 C68.4775,29.3475 69.8425,29.68875 71.2075,29.68875 Z" id="Shape" fill="url(#linearGradient-3)"></path>
                        <path d="M94.75375,24.45625 C95.095,26.1625 95.89125,27.5275 97.1425,28.665 C98.5075,29.68875 100.1,30.2575 101.92,30.2575 C103.85375,30.2575 105.67375,29.68875 107.26625,28.55125 C108.5175,27.755 109.54125,27.755 110.565,28.665 L111.13375,29.23375 C111.7025,29.8025 112.04375,30.37125 112.04375,30.94 C112.04375,31.50875 111.7025,32.0775 111.13375,32.5325 C108.63125,34.46625 105.56,35.37625 101.92,35.37625 C99.8725,35.37625 98.0525,35.035 96.34625,34.3525 C94.64,33.67 93.16125,32.76 91.91,31.6225 C90.65875,30.485 89.74875,29.12 89.06625,27.5275 C88.38375,25.935 88.0425,24.22875 88.0425,22.40875 C88.0425,20.58875 88.38375,18.8825 89.06625,17.29 C89.74875,15.6975 90.65875,14.3325 91.91,13.195 C93.0475,12.0575 94.52625,11.1475 96.2325,10.465 C97.93875,9.7825 99.645,9.44125 101.57875,9.44125 C104.08125,9.44125 106.2425,10.01 108.29,11.1475 C110.3375,12.285 111.81625,13.76375 112.95375,15.6975 C114.09125,17.63125 114.66,19.67875 114.66,21.95375 L114.66,22.18125 C114.66,22.86375 114.4325,23.4325 113.9775,23.77375 C113.5225,24.115 112.95375,24.3425 112.1575,24.3425 L94.75375,24.3425 L94.75375,24.45625 Z M101.57875,14.7875 C99.98625,14.7875 98.62125,15.2425 97.48375,16.1525 C96.2325,17.0625 95.43625,18.31375 94.98125,19.7925 L107.835,19.7925 C107.49375,18.31375 106.6975,17.0625 105.56,16.1525 C104.4225,15.2425 103.17125,14.7875 101.57875,14.7875 Z" id="Shape" fill="url(#linearGradient-4)"></path>
                        <path d="M131.7225,15.35625 C130.585,15.35625 129.4475,15.6975 128.42375,16.38 C127.4,17.0625 126.60375,18.08625 125.92125,19.3375 L125.92125,32.5325 C125.92125,33.32875 125.69375,33.8975 125.3525,34.23875 C125.01125,34.58 124.32875,34.8075 123.64625,34.8075 L121.7125,34.8075 C120.91625,34.8075 120.3475,34.58 120.00625,34.23875 C119.665,33.8975 119.4375,33.215 119.4375,32.5325 L119.4375,12.5125 C119.4375,11.71625 119.665,11.1475 120.00625,10.80625 C120.3475,10.465 121.03,10.2375 121.7125,10.2375 L123.64625,10.2375 C124.4425,10.2375 125.01125,10.465 125.3525,10.80625 C125.69375,11.1475 125.92125,11.83 125.92125,12.5125 L125.92125,13.195 C127.74125,10.80625 129.9025,9.555 132.51875,9.555 L132.74625,9.555 C133.42875,9.555 133.88375,9.89625 134.225,10.35125 C134.56625,10.80625 134.68,11.48875 134.56625,12.17125 L134.4525,13.4225 C134.33875,14.21875 134.11125,14.67375 133.65625,15.015 C133.20125,15.35625 132.6325,15.47 131.7225,15.47 L131.7225,15.47 L131.7225,15.35625 Z" id="Path" fill="url(#linearGradient-5)"></path>
                    </g>
                    <g transform="translate(1.137500, 52.325000)">
                        <path d="M1.02375,4.3225 C1.02375,3.52625 1.25125,2.9575 1.5925,2.61625 C1.93375,2.275 2.61625,2.0475 3.29875,2.0475 L19.45125,2.0475 C20.2475,2.0475 20.81625,2.275 21.1575,2.61625 C21.49875,2.9575 21.72625,3.64 21.72625,4.3225 L21.72625,5.46 C21.72625,6.25625 21.49875,6.825 21.1575,7.16625 C20.81625,7.5075 20.13375,7.735 19.45125,7.735 L7.735,7.735 L7.735,15.6975 L18.31375,15.6975 C19.11,15.6975 19.67875,15.925 20.02,16.26625 C20.36125,16.6075 20.58875,17.29 20.58875,17.9725 L20.58875,18.99625 C20.58875,19.7925 20.36125,20.36125 20.02,20.7025 C19.565,21.1575 18.99625,21.27125 18.31375,21.27125 L7.735,21.27125 L7.735,29.46125 L19.90625,29.46125 C20.7025,29.46125 21.27125,29.68875 21.6125,30.03 C21.95375,30.37125 22.18125,31.05375 22.18125,31.73625 L22.18125,32.87375 C22.18125,33.67 21.95375,34.23875 21.6125,34.58 C21.27125,34.92125 20.58875,35.14875 19.90625,35.14875 L3.29875,35.14875 C2.5025,35.14875 1.93375,34.92125 1.5925,34.58 C1.25125,34.23875 1.02375,33.55625 1.02375,32.87375 L1.02375,4.3225 L1.02375,4.3225 Z" id="Path" fill="url(#linearGradient-6)"></path>
                        <path d="M34.58,33.215 C34.58,34.01125 34.3525,34.58 34.01125,34.92125 C33.67,35.2625 32.9875,35.49 32.305,35.49 L30.37125,35.49 C29.575,35.49 29.00625,35.2625 28.665,34.92125 C28.32375,34.58 28.09625,33.8975 28.09625,33.215 L28.09625,13.08125 C28.09625,12.285 28.32375,11.71625 28.665,11.375 C29.00625,11.03375 29.68875,10.80625 30.37125,10.80625 L32.305,10.80625 C33.10125,10.80625 33.67,11.03375 34.01125,11.375 C34.3525,11.71625 34.58,12.39875 34.58,13.08125 L34.58,13.4225 C35.37625,12.39875 36.51375,11.6025 37.65125,11.03375 C38.9025,10.465 40.15375,10.12375 41.51875,10.12375 C44.47625,10.12375 46.865,11.03375 48.685,12.9675 C50.505,14.7875 51.415,17.29 51.415,20.2475 L51.415,33.215 C51.415,34.01125 51.1875,34.58 50.84625,34.92125 C50.505,35.2625 49.8225,35.49 49.14,35.49 L47.20625,35.49 C46.41,35.49 45.84125,35.2625 45.5,34.92125 C45.15875,34.58 44.93125,33.8975 44.93125,33.215 L44.93125,20.93 C44.93125,19.565 44.47625,18.31375 43.56625,17.40375 C42.65625,16.49375 41.51875,16.03875 40.04,16.03875 C39.01625,16.03875 37.9925,16.38 37.0825,17.0625 C36.05875,17.745 35.2625,18.54125 34.69375,19.45125 L34.69375,33.215 L34.58,33.215 Z" id="Path" fill="url(#linearGradient-7)"></path>
                        <path d="M68.0225,10.12375 C71.2075,10.12375 73.82375,11.1475 75.87125,13.195 L75.87125,13.08125 C75.87125,12.285 76.09875,11.71625 76.44,11.375 C76.895,10.92 77.46375,10.80625 78.14625,10.80625 L79.96625,10.80625 C80.7625,10.80625 81.33125,11.03375 81.6725,11.375 C82.1275,11.83 82.24125,12.39875 82.24125,13.08125 L82.24125,33.215 C82.24125,34.01125 82.01375,34.58 81.6725,34.92125 C81.2175,35.37625 80.64875,35.49 79.96625,35.49 L78.14625,35.49 C77.35,35.49 76.78125,35.2625 76.44,34.92125 C75.985,34.46625 75.87125,33.8975 75.87125,33.215 L75.87125,33.10125 C73.82375,35.14875 71.2075,36.1725 68.0225,36.1725 C65.7475,36.1725 63.58625,35.60375 61.6525,34.46625 C59.71875,33.32875 58.24,31.73625 57.21625,29.68875 C56.1925,27.755 55.62375,25.59375 55.62375,23.205 C55.62375,20.81625 56.1925,18.655 57.21625,16.72125 C58.24,14.7875 59.71875,13.195 61.6525,11.94375 C63.58625,10.6925 65.7475,10.12375 68.0225,10.12375 Z M69.50125,30.2575 C70.86625,30.2575 72.23125,29.91625 73.36875,29.23375 C74.50625,28.55125 75.41625,27.5275 75.985,26.39 L75.985,20.02 C75.41625,18.76875 74.50625,17.85875 73.36875,17.17625 C72.23125,16.49375 70.86625,16.1525 69.50125,16.1525 C67.45375,16.1525 65.7475,16.835 64.3825,18.2 C63.0175,19.565 62.335,21.27125 62.335,23.31875 C62.335,25.36625 63.0175,27.0725 64.3825,28.4375 C65.7475,29.575 67.45375,30.2575 69.50125,30.2575 Z" id="Shape" fill="url(#linearGradient-8)"></path>
                        <path d="M88.9525,2.9575 C88.9525,2.16125 89.18,1.5925 89.52125,1.25125 C89.97625,0.79625 90.545,0.6825 91.2275,0.6825 L93.16125,0.6825 C93.9575,0.6825 94.52625,0.91 94.8675,1.25125 C95.3225,1.70625 95.43625,2.275 95.43625,2.9575 L95.43625,33.215 C95.43625,34.01125 95.20875,34.58 94.8675,34.92125 C94.52625,35.2625 93.84375,35.49 93.16125,35.49 L91.2275,35.49 C90.43125,35.49 89.8625,35.2625 89.52125,34.92125 C89.18,34.58 88.9525,33.8975 88.9525,33.215 L88.9525,2.9575 Z" id="Path" fill="url(#linearGradient-9)"></path>
                        <path d="M104.30875,32.305 C101.6925,29.8025 100.3275,26.73125 100.3275,23.09125 C100.3275,19.45125 101.6925,16.38 104.30875,13.8775 C106.925,11.375 110.22375,10.12375 114.09125,10.12375 C116.7075,10.12375 118.9825,10.6925 121.14375,11.83 C123.305,12.9675 124.8975,14.56 126.035,16.49375 C127.1725,18.4275 127.855,20.7025 127.855,23.09125 C127.855,25.48 127.28625,27.64125 126.035,29.68875 C124.8975,31.6225 123.19125,33.215 121.14375,34.3525 C118.9825,35.49 116.7075,36.05875 114.09125,36.05875 C110.22375,36.05875 106.925,34.8075 104.30875,32.305 Z M107.03875,23.09125 C107.03875,25.13875 107.72125,26.845 109.08625,28.21 C110.45125,29.575 112.1575,30.2575 114.205,30.2575 C116.2525,30.2575 117.95875,29.575 119.32375,28.21 C120.68875,26.845 121.37125,25.13875 121.37125,23.09125 C121.37125,21.04375 120.68875,19.3375 119.32375,17.9725 C117.95875,16.6075 116.2525,15.925 114.205,15.925 C112.1575,15.925 110.45125,16.6075 109.08625,17.9725 C107.72125,19.45125 107.03875,21.1575 107.03875,23.09125 Z" id="Shape" fill="url(#linearGradient-10)"></path>
                        <path d="M140.25375,26.95875 C140.25375,28.21 140.595,29.00625 141.16375,29.575 C141.7325,30.14375 142.75625,30.37125 144.12125,30.37125 C144.80375,30.37125 145.3725,30.59875 145.8275,30.94 C146.2825,31.28125 146.51,31.85 146.51,32.64625 L146.51,33.55625 C146.51,35.035 145.94125,35.83125 144.80375,35.945 C144.34875,36.05875 143.78,36.05875 143.0975,36.05875 C136.955,36.05875 133.77,33.10125 133.77,27.3 L133.77,16.38 L132.29125,16.38 C131.495,16.38 130.92625,16.1525 130.585,15.81125 C130.13,15.35625 130.01625,14.7875 130.01625,14.105 L130.01625,13.08125 C130.01625,12.285 130.24375,11.71625 130.585,11.375 C131.04,10.92 131.60875,10.80625 132.29125,10.80625 L133.77,10.80625 L133.77,6.48375 C133.77,5.005 134.56625,4.20875 136.045,4.095 L137.97875,3.98125 C138.775,3.8675 139.34375,4.095 139.79875,4.43625 C140.25375,4.7775 140.48125,5.46 140.48125,6.1425 L140.48125,10.80625 L144.0075,10.80625 C144.80375,10.80625 145.3725,11.03375 145.71375,11.375 C146.055,11.71625 146.2825,12.39875 146.2825,13.08125 L146.2825,14.105 C146.2825,14.90125 146.055,15.47 145.71375,15.81125 C145.3725,16.1525 144.69,16.38 144.0075,16.38 L140.48125,16.38 L140.48125,26.95875 L140.25375,26.95875 Z" id="Path" fill="url(#linearGradient-11)"></path>
                        <path d="M159.13625,26.95875 C159.13625,28.21 159.4775,29.00625 160.04625,29.575 C160.615,30.14375 161.63875,30.37125 163.00375,30.37125 C163.68625,30.37125 164.255,30.59875 164.71,30.94 C165.165,31.28125 165.3925,31.85 165.3925,32.64625 L165.3925,33.55625 C165.3925,35.035 164.82375,35.83125 163.68625,35.945 C163.23125,36.05875 162.6625,36.05875 161.98,36.05875 C155.8375,36.05875 152.6525,33.10125 152.6525,27.3 L152.6525,16.38 L151.17375,16.38 C150.3775,16.38 149.80875,16.1525 149.4675,15.81125 C149.0125,15.35625 148.89875,14.7875 148.89875,14.105 L148.89875,13.08125 C148.89875,12.285 149.12625,11.71625 149.4675,11.375 C149.9225,10.92 150.49125,10.80625 151.17375,10.80625 L152.6525,10.80625 L152.6525,6.48375 C152.6525,5.005 153.44875,4.20875 154.9275,4.095 L156.86125,3.98125 C157.6575,3.8675 158.22625,4.095 158.68125,4.43625 C159.13625,4.7775 159.36375,5.46 159.36375,6.1425 L159.36375,10.80625 L162.89,10.80625 C163.68625,10.80625 164.255,11.03375 164.59625,11.375 C164.9375,11.71625 165.165,12.39875 165.165,13.08125 L165.165,14.105 C165.165,14.90125 164.9375,15.47 164.59625,15.81125 C164.255,16.1525 163.5725,16.38 162.89,16.38 L159.36375,16.38 L159.36375,26.95875 L159.13625,26.95875 Z" id="Path" fill="url(#linearGradient-12)"></path>
                        <path d="M171.99,32.305 C169.37375,29.8025 168.00875,26.73125 168.00875,23.09125 C168.00875,19.45125 169.37375,16.38 171.99,13.8775 C174.60625,11.375 177.905,10.12375 181.7725,10.12375 C184.38875,10.12375 186.66375,10.6925 188.825,11.83 C190.98625,12.9675 192.57875,14.56 193.71625,16.49375 C194.85375,18.4275 195.53625,20.7025 195.53625,23.09125 C195.53625,25.48 194.9675,27.64125 193.71625,29.68875 C192.57875,31.6225 190.8725,33.215 188.825,34.3525 C186.66375,35.49 184.38875,36.05875 181.7725,36.05875 C177.905,36.05875 174.60625,34.8075 171.99,32.305 Z M174.60625,23.09125 C174.60625,25.13875 175.28875,26.845 176.65375,28.21 C178.01875,29.575 179.725,30.2575 181.7725,30.2575 C183.82,30.2575 185.52625,29.575 186.89125,28.21 C188.25625,26.845 188.93875,25.13875 188.93875,23.09125 C188.93875,21.04375 188.25625,19.3375 186.89125,17.9725 C185.52625,16.6075 183.82,15.925 181.7725,15.925 C179.725,15.925 178.01875,16.6075 176.65375,17.9725 C175.28875,19.45125 174.60625,21.1575 174.60625,23.09125 Z" id="Shape" fill="url(#linearGradient-13)"></path>
                    </g>
                    <path d="M82.5825,44.93125 L81.55875,44.24875 C80.42125,43.4525 78.9425,43.68 77.5775,44.47625 C76.895,44.93125 76.09875,45.2725 75.3025,45.5 C75.18875,45.5 75.18875,45.5 75.075,45.5 C69.72875,48.79875 63.245,49.48125 56.76125,45.38625 C58.12625,48.11625 60.17375,50.39125 62.90375,52.21125 C65.7475,54.03125 68.9325,55.055 72.23125,55.055 C75.53,55.055 78.715,54.145 81.78625,52.43875 C81.78625,52.43875 81.78625,52.43875 81.9,52.43875 C84.63,50.7325 84.97125,46.52375 82.5825,44.93125 Z" id="Path" fill="#E1161C"></path>
                </g>
            </g>
        </g>
    </g>
</svg>