<?xml version="1.0" encoding="UTF-8"?>
<svg width="234px" height="130px" viewBox="0 0 234 130" version="1.1" xmlns="http://www.w3.org/2000/svg" xmlns:xlink="http://www.w3.org/1999/xlink">
    <title>superlotto_plus</title>
    <defs>
        <linearGradient x1="161.808213%" y1="-62.2706897%" x2="297.880814%" y2="-200.448966%" id="linearGradient-1">
            <stop stop-color="#0099C4" offset="0%"></stop>
            <stop stop-color="#13ACE1" offset="100%"></stop>
        </linearGradient>
        <linearGradient x1="171.452759%" y1="-58.9874419%" x2="381.608187%" y2="-245.367442%" id="linearGradient-2">
            <stop stop-color="#0099C4" offset="0%"></stop>
            <stop stop-color="#13ACE1" offset="100%"></stop>
        </linearGradient>
        <linearGradient x1="85.1170447%" y1="-6.71858108%" x2="199.475408%" y2="-142.095608%" id="linearGradient-3">
            <stop stop-color="#0099C4" offset="0%"></stop>
            <stop stop-color="#13ACE1" offset="100%"></stop>
        </linearGradient>
        <linearGradient x1="64.1469587%" y1="40.4027523%" x2="276.049598%" y2="-143.412385%" id="linearGradient-4">
            <stop stop-color="#0099C4" offset="0%"></stop>
            <stop stop-color="#13ACE1" offset="100%"></stop>
        </linearGradient>
        <linearGradient x1="24.6530223%" y1="74.0046512%" x2="166.590458%" y2="-112.375349%" id="linearGradient-5">
            <stop stop-color="#0099C4" offset="0%"></stop>
            <stop stop-color="#13ACE1" offset="100%"></stop>
        </linearGradient>
        <linearGradient x1="-11.8488332%" y1="123.355282%" x2="107.332788%" y2="-17.7422535%" id="linearGradient-6">
            <stop stop-color="#0099C4" offset="0%"></stop>
            <stop stop-color="#13ACE1" offset="100%"></stop>
        </linearGradient>
        <linearGradient x1="-108.848068%" y1="184.572018%" x2="108.405648%" y2="0.756880734%" id="linearGradient-7">
            <stop stop-color="#0099C4" offset="0%"></stop>
            <stop stop-color="#13ACE1" offset="100%"></stop>
        </linearGradient>
        <linearGradient x1="-37.2592867%" y1="194.872491%" x2="54.1148098%" y2="45.9074349%" id="linearGradient-8">
            <stop stop-color="#0099C4" offset="0%"></stop>
            <stop stop-color="#13ACE1" offset="100%"></stop>
        </linearGradient>
        <linearGradient x1="-51.717978%" y1="218.467658%" x2="39.655916%" y2="69.5022305%" id="linearGradient-9">
            <stop stop-color="#0099C4" offset="0%"></stop>
            <stop stop-color="#13ACE1" offset="100%"></stop>
        </linearGradient>
        <linearGradient x1="-232.263901%" y1="289.187156%" x2="-15.0101146%" y2="105.372477%" id="linearGradient-10">
            <stop stop-color="#0099C4" offset="0%"></stop>
            <stop stop-color="#13ACE1" offset="100%"></stop>
        </linearGradient>
    </defs>
    <g id="Bg" stroke="none" stroke-width="1" fill="none" fill-rule="evenodd">
        <g id="Logos" transform="translate(-362.000000, -460.000000)">
            <g id="superlotto_plus" transform="translate(362.000000, 460.000000)">
                <rect id="Rectangle" x="0" y="0" width="234" height="130" rx="2"></rect>
                <g id="Group" transform="translate(13.000000, 40.000000)" fill-rule="nonzero">
                    <g>
                        <path d="M16.12,22.9894737 C16.12,21.9300509 15.704,21.0825127 14.976,20.5528014 C14.248,19.9171477 12.896,19.3874363 11.128,18.7517827 C9.256,18.116129 7.8,17.4804754 6.552,16.950764 C2.704,15.0438031 0.832,12.3952462 0.832,9.11103565 C0.832,7.41595925 1.352,5.9327674 2.288,4.6614601 C3.224,3.3901528 4.576,2.43667233 6.344,1.6950764 C8.112,0.953480475 10.088,0.63565365 12.272,0.63565365 C14.352,0.63565365 16.328,1.05942275 17.992,1.80101868 C19.656,2.5426146 21.008,3.70797963 21.944,5.0852292 C22.88,6.46247878 23.4,8.15755518 23.4,9.95857385 L16.328,9.95857385 C16.328,8.68726655 15.912,7.73378608 15.184,7.09813243 C14.456,6.46247878 13.416,6.03870968 12.168,6.03870968 C10.92,6.03870968 9.88,6.3565365 9.152,6.88624788 C8.424,7.41595925 8.008,8.15755518 8.008,9.11103565 C8.008,9.85263158 8.424,10.5942275 9.256,11.2298812 C10.088,11.8655348 11.544,12.5011885 13.52,13.1368421 C15.6,13.7724958 17.264,14.5140917 18.512,15.2556876 C21.736,17.1626486 23.296,19.7052632 23.296,22.9894737 C23.296,25.6380306 22.36,27.6509338 20.384,29.1341256 C18.408,30.6173175 15.808,31.3589134 12.376,31.3589134 C9.984,31.3589134 7.8,30.9351443 5.824,30.0876061 C3.848,29.2400679 2.392,27.9687606 1.456,26.4855688 C0.52,25.0023769 0,23.2013582 0,21.188455 L7.176,21.188455 C7.176,22.7775891 7.592,23.9429542 8.424,24.7904924 C9.256,25.5320883 10.608,25.9558574 12.376,25.9558574 C13.52,25.9558574 14.456,25.7439728 15.184,25.2142615 C15.808,24.6845501 16.12,23.9429542 16.12,22.9894737 Z" id="Path" fill="url(#linearGradient-1)"></path>
                        <path d="M39.728,28.6044143 C38.272,30.5113752 36.296,31.4648557 33.904,31.4648557 C31.512,31.4648557 29.64,30.7232598 28.392,29.3460102 C27.144,27.9687606 26.52,25.8499151 26.52,23.2013582 L26.52,8.68726655 L33.384,8.68726655 L33.384,23.2013582 C33.384,25.1083192 34.32,26.0617997 36.088,26.0617997 C37.648,26.0617997 38.792,25.5320883 39.416,24.3667233 L39.416,8.68726655 L46.28,8.68726655 L46.384,31.0410866 L39.936,31.0410866 L39.728,28.6044143 Z" id="Path" fill="url(#linearGradient-2)"></path>
                        <path d="M70.408,19.9171477 C70.408,23.4132428 69.68,26.1677419 68.12,28.1806452 C66.56,30.2994907 64.48,31.2529711 61.88,31.2529711 C59.904,31.2529711 58.24,30.5113752 56.888,29.0281834 L56.888,39.4105263 L50.024,39.4105263 L49.92,8.475382 L56.264,8.475382 L56.472,10.4882852 C57.824,8.79320883 59.488,8.0516129 61.672,8.0516129 C64.376,8.0516129 66.456,9.11103565 68.016,11.1239389 C69.472,13.1368421 70.304,15.9972835 70.304,19.4933786 L70.408,19.9171477 Z M63.544,19.4933786 C63.544,15.5735144 62.4,13.5606112 60.112,13.5606112 C58.448,13.5606112 57.408,14.1962649 56.888,15.3616299 L56.888,24.1548387 C57.512,25.426146 58.552,26.0617997 60.216,26.0617997 C62.4,26.0617997 63.544,24.1548387 63.544,20.3409168 L63.544,19.4933786 Z" id="Shape" fill="url(#linearGradient-3)"></path>
                        <path d="M84.032,31.3589134 C80.704,31.3589134 77.896,30.2994907 75.816,28.2865874 C73.736,26.2736842 72.696,23.6251273 72.696,20.3409168 L72.696,19.8112054 C72.696,17.4804754 73.112,15.4675722 73.944,13.7724958 C74.776,11.9714771 76.024,10.7001698 77.584,9.7466893 C79.144,8.79320883 81.016,8.26349745 83.304,8.26349745 C86.424,8.26349745 88.816,9.21697793 90.584,11.2298812 C92.352,13.1368421 93.288,15.8913413 93.288,19.3874363 L93.288,22.1419355 L79.664,22.1419355 C79.872,23.4132428 80.496,24.3667233 81.224,25.1083192 C82.056,25.8499151 83.096,26.1677419 84.448,26.1677419 C86.632,26.1677419 88.296,25.426146 89.544,23.8370119 L92.664,27.5449915 C91.832,28.7103565 90.584,29.663837 89.024,30.4054329 C87.568,31.0410866 85.904,31.3589134 84.032,31.3589134 Z M83.2,13.5606112 C81.224,13.5606112 79.976,14.9378608 79.664,17.5864177 L86.528,17.5864177 L86.528,17.0567063 C86.528,15.8913413 86.32,15.0438031 85.696,14.5140917 C85.176,13.878438 84.344,13.5606112 83.2,13.5606112 Z" id="Shape" fill="url(#linearGradient-4)"></path>
                        <path d="M109.304,14.9378608 L107.016,14.7259762 C104.832,14.7259762 103.48,15.4675722 102.856,16.7388795 L102.856,30.9351443 L95.992,30.9351443 L95.888,8.58132428 L102.336,8.58132428 L102.544,11.4417657 C103.688,9.21697793 105.248,8.15755518 107.328,8.15755518 C108.056,8.15755518 108.68,8.26349745 109.2,8.36943973 L109.304,14.9378608 Z" id="Path" fill="url(#linearGradient-5)"></path>
                        <polygon id="Path" fill="url(#linearGradient-6)" points="121.368 25.426146 133.744 25.426146 133.744 31.0410866 114.192 31.0410866 114.088 0.953480475 121.16 0.953480475"></polygon>
                        <path d="M135.616,19.5993209 C135.616,17.3745331 136.032,15.3616299 136.864,13.6665535 C137.696,11.9714771 138.944,10.5942275 140.504,9.64074703 C142.064,8.68726655 143.936,8.26349745 146.12,8.26349745 C149.448,8.26349745 152.048,9.3229202 153.92,11.3358234 C155.792,13.4546689 156.728,16.2091681 156.728,19.8112054 L156.728,20.02309 C156.728,23.5191851 155.792,26.2736842 153.92,28.2865874 C152.048,30.2994907 149.448,31.3589134 146.224,31.3589134 C143.104,31.3589134 140.608,30.4054329 138.736,28.498472 C136.864,26.591511 135.824,24.0488964 135.616,20.7646859 L135.616,19.5993209 Z M142.48,20.02309 C142.48,22.1419355 142.792,23.6251273 143.416,24.5786078 C144.04,25.5320883 144.976,26.0617997 146.224,26.0617997 C148.616,26.0617997 149.864,24.1548387 149.968,20.3409168 L149.968,19.5993209 C149.968,15.5735144 148.72,13.5606112 146.224,13.5606112 C143.936,13.5606112 142.688,15.2556876 142.48,18.7517827 L142.48,20.02309 Z" id="Shape" fill="url(#linearGradient-7)"></path>
                        <path d="M167.752,3.07232598 L167.752,8.58132428 L171.392,8.58132428 L171.392,13.4546689 L167.752,13.4546689 L167.752,23.7310696 C167.752,24.5786078 167.856,25.1083192 168.168,25.5320883 C168.48,25.8499151 169.104,26.0617997 169.936,26.0617997 C170.56,26.0617997 171.184,26.0617997 171.6,25.9558574 L171.6,30.9351443 C170.352,31.3589134 169.104,31.570798 167.752,31.570798 C165.36,31.570798 163.696,31.0410866 162.552,29.8757216 C161.408,28.7103565 160.888,27.0152801 160.888,24.6845501 L160.888,13.5606112 L158.08,13.5606112 L158.08,8.68726655 L160.888,8.68726655 L160.888,3.17826825 L167.752,3.17826825 L167.752,3.07232598 Z" id="Path" fill="url(#linearGradient-8)"></path>
                        <path d="M182,3.07232598 L182,8.58132428 L185.64,8.58132428 L185.64,13.4546689 L182,13.4546689 L182,23.7310696 C182,24.5786078 182.104,25.1083192 182.416,25.5320883 C182.728,25.8499151 183.352,26.0617997 184.184,26.0617997 C184.808,26.0617997 185.432,26.0617997 185.848,25.9558574 L185.848,30.9351443 C184.6,31.3589134 183.352,31.570798 182,31.570798 C179.608,31.570798 177.944,31.0410866 176.8,29.8757216 C175.656,28.7103565 175.136,27.0152801 175.136,24.6845501 L175.136,13.5606112 L172.328,13.5606112 L172.328,8.68726655 L175.136,8.68726655 L175.136,3.17826825 L182,3.17826825 L182,3.07232598 Z" id="Path" fill="url(#linearGradient-9)"></path>
                        <path d="M186.784,19.5993209 C186.784,17.3745331 187.2,15.3616299 188.032,13.6665535 C188.864,11.9714771 190.112,10.5942275 191.672,9.64074703 C193.232,8.68726655 195.104,8.26349745 197.288,8.26349745 C200.616,8.26349745 203.216,9.3229202 205.088,11.3358234 C206.96,13.4546689 207.896,16.2091681 207.896,19.8112054 L207.896,20.02309 C207.896,23.5191851 206.96,26.2736842 205.088,28.2865874 C203.216,30.2994907 200.616,31.3589134 197.392,31.3589134 C194.272,31.3589134 191.776,30.4054329 189.904,28.498472 C188.032,26.591511 186.992,24.0488964 186.784,20.7646859 L186.784,19.5993209 Z M193.648,20.02309 C193.648,22.1419355 193.96,23.6251273 194.584,24.5786078 C195.208,25.5320883 196.144,26.0617997 197.392,26.0617997 C199.784,26.0617997 201.032,24.1548387 201.136,20.3409168 L201.136,19.5993209 C201.136,15.5735144 199.888,13.5606112 197.392,13.5606112 C195.104,13.5606112 193.856,15.2556876 193.648,18.7517827 L193.648,20.02309 Z" id="Shape" fill="url(#linearGradient-10)"></path>
                    </g>
                    <g transform="translate(109.643411, 33.816774)" fill="#039DD7">
                        <path d="M4.8717608,10.6683871 L4.04252492,15.4993548 L0.932890365,15.4993548 L3.42059801,1.3083871 L8.60332226,1.3083871 C9.53621262,1.3083871 10.469103,1.50967742 11.0910299,1.91225806 C11.8166113,2.31483871 12.2312292,2.91870968 12.5421927,3.62322581 C12.8531561,4.32774194 12.8531561,5.23354839 12.7495017,6.13935484 C12.5421927,7.5483871 11.9202658,8.65548387 10.7800664,9.46064516 C9.74352159,10.2658065 8.39601329,10.6683871 6.84119601,10.6683871 L4.8717608,10.6683871 Z M5.39003322,7.95096774 L7.46312292,7.95096774 C8.08504983,7.95096774 8.49966777,7.74967742 8.91428571,7.44774194 C9.32890365,7.14580645 9.53621262,6.64258065 9.63986711,6.03870968 C9.74352159,5.33419355 9.63986711,4.83096774 9.43255814,4.4283871 C9.22524917,4.02580645 8.81063123,3.82451613 8.18870432,3.82451613 L6.11561462,3.82451613 L5.39003322,7.95096774 Z" id="Shape"></path>
                        <polygon id="Path" points="15.3408638 12.7819355 20.730897 12.7819355 20.3162791 15.3987097 11.8166113 15.3987097 14.3043189 1.20774194 17.4139535 1.20774194"></polygon>
                        <path d="M33.0657807,1.20774194 L31.407309,10.4670968 C31.2,11.4735484 30.8890365,12.48 30.3707641,13.1845161 C29.8524917,13.9896774 29.1269103,14.4929032 28.2976744,14.8954839 C27.4684385,15.2980645 26.5355482,15.4993548 25.4990033,15.4993548 C23.944186,15.4993548 22.8039867,15.0967742 22.0784053,14.1909677 C21.3528239,13.2851613 21.0418605,12.0774194 21.3528239,10.4670968 L23.0112957,1.10709677 L26.1209302,1.10709677 L24.4624585,10.5677419 C24.2551495,12.0774194 24.7734219,12.8825806 26.0172757,12.8825806 C26.6392027,12.8825806 27.1574751,12.6812903 27.572093,12.2787097 C27.986711,11.876129 28.1940199,11.2722581 28.4013289,10.3664516 L29.9561462,1.10709677 L33.0657807,1.10709677 L33.0657807,1.20774194 Z" id="Path"></path>
                        <path d="M38.8704319,11.6748387 C38.9740864,11.1716129 38.8704319,10.7690323 38.5594684,10.4670968 C38.248505,10.1651613 37.7302326,9.86322581 37.0046512,9.56129032 C36.2790698,9.25935484 35.6571429,8.95741935 35.1388704,8.65548387 C33.5840532,7.74967742 32.9621262,6.54193548 33.2730897,4.9316129 C33.3767442,4.12645161 33.6877076,3.42193548 34.2059801,2.81806452 C34.7242525,2.21419355 35.3461794,1.71096774 36.1754153,1.40903226 C37.0046512,1.10709677 37.833887,0.905806452 38.8704319,0.905806452 C39.8033223,0.905806452 40.6325581,1.10709677 41.254485,1.40903226 C41.876412,1.8116129 42.3946844,2.31483871 42.7056478,2.91870968 C43.0166113,3.62322581 43.0166113,4.32774194 42.9129568,5.23354839 L39.8033223,5.23354839 C39.9069767,4.62967742 39.8033223,4.22709677 39.5960133,3.92516129 C39.2850498,3.62322581 38.9740864,3.42193548 38.3521595,3.42193548 C37.833887,3.42193548 37.3156146,3.52258065 37.0046512,3.82451613 C36.5900332,4.12645161 36.3827243,4.4283871 36.3827243,4.83096774 C36.2790698,5.23354839 36.4863787,5.53548387 36.6936877,5.83741935 C37.0046512,6.13935484 37.5229236,6.44129032 38.3521595,6.74322581 C39.1813953,7.04516129 39.9069767,7.44774194 40.3215947,7.74967742 C41.5654485,8.65548387 42.0837209,9.86322581 41.7727575,11.3729032 C41.5654485,12.5806452 40.9435216,13.5870968 40.0106312,14.2916129 C39.0777409,14.996129 37.833887,15.3987097 36.3827243,15.3987097 C35.3461794,15.3987097 34.413289,15.1974194 33.6877076,14.7948387 C32.9621262,14.3922581 32.3401993,13.7883871 32.0292359,13.083871 C31.7182724,12.3793548 31.6146179,11.5741935 31.8219269,10.5677419 L34.9315615,10.5677419 C34.827907,11.3729032 34.9315615,11.876129 35.1388704,12.2787097 C35.4498339,12.6812903 35.9681063,12.7819355 36.7973422,12.7819355 C37.3156146,12.7819355 37.7302326,12.6812903 38.041196,12.3793548 C38.5594684,12.48 38.7667774,12.0774194 38.8704319,11.6748387 Z" id="Path"></path>
                    </g>
                </g>
            </g>
        </g>
    </g>
</svg>