<?xml version="1.0" encoding="UTF-8"?>
<svg width="234px" height="130px" viewBox="0 0 234 130" version="1.1" xmlns="http://www.w3.org/2000/svg" xmlns:xlink="http://www.w3.org/1999/xlink">
    <title>texas_lottery</title>
    <g id="Bg" stroke="none" stroke-width="1" fill="none" fill-rule="evenodd">
        <g id="Logos" transform="translate(-668.000000, -258.000000)">
            <g id="texas_lottery" transform="translate(668.000000, 258.000000)">
                <rect id="Rectangle" x="0" y="0" width="234" height="130" rx="2"></rect>
                <g id="Group" transform="translate(15.000000, 20.000000)" fill-rule="nonzero">
                    <g fill="#20325D" id="Path">
                        <path d="M5.61728395,2.35925926 C5.61728395,2.35925926 5.61728395,2.35925926 5.61728395,2.35925926 C5.61728395,2.35925926 5.50493827,2.35925926 5.61728395,2.35925926 Z"></path>
                        <path d="M38.9839506,2.80864198 C38.9839506,2.80864198 39.0962963,2.80864198 38.9839506,2.80864198 C39.0962963,2.80864198 39.0962963,2.80864198 38.9839506,2.80864198 Z"></path>
                        <path d="M201.323457,18.9864198 C201.323457,18.9864198 201.435802,18.9864198 201.323457,18.9864198 C201.435802,18.9864198 201.323457,18.9864198 201.323457,18.9864198 Z"></path>
                        <path d="M198.851852,4.15679012 C198.851852,4.2691358 198.851852,4.2691358 198.851852,4.15679012 C198.964198,4.2691358 198.851852,4.2691358 198.851852,4.15679012 Z"></path>
                        <path d="M198.065432,64.1493827 C198.065432,64.8234568 202.671605,56.5098765 203.008642,55.8358025 C200.2,57.1839506 201.77284,48.4209877 198.514815,49.5444444 C199.41358,48.645679 201.435802,42.2419753 200.98642,40.8938272 C200.087654,41.1185185 198.514815,34.0407407 198.964198,33.9283951 C201.435802,33.4790123 203.345679,25.7271605 202.222222,26.5135802 C202.671605,26.2888889 200.874074,19.5481481 201.211111,18.9864198 C200.424691,18.9864198 202.896296,11.3469136 199.750617,10.6728395 C203.233333,11.7962963 200.087654,5.50493827 198.739506,4.2691358 C199.188889,5.16790123 183.909877,2.24691358 184.134568,2.24691358 C182.78642,2.47160494 178.854321,3.03333333 174.922222,3.48271605 C173.124691,3.25802469 171.439506,3.25802469 171.551852,3.37037037 C171.551852,3.59506173 171.439506,3.70740741 171.32716,3.93209877 C169.304938,4.15679012 167.507407,4.38148148 166.271605,4.49382716 C164.811111,4.2691358 163.575309,3.93209877 163.462963,3.81975309 C164.024691,1.34814815 156.946914,3.81975309 155.823457,2.80864198 C155.935802,3.14567901 155.935802,3.37037037 155.823457,3.48271605 C151.441975,3.03333333 146.835802,2.58395062 146.274074,2.92098765 C147.397531,3.03333333 142.903704,3.48271605 138.07284,3.93209877 C135.938272,3.14567901 133.803704,2.35925926 133.803704,2.92098765 C134.365432,1.57283951 126.838272,4.2691358 126.501235,4.38148148 C126.501235,4.04444444 121.333333,3.14567901 119.535802,3.59506173 C115.828395,3.14567901 112.458025,2.80864198 112.458025,3.25802469 C111.896296,3.14567901 109.2,3.25802469 105.82963,3.48271605 C104.818519,2.80864198 104.032099,1.90987654 104.25679,0.898765432 C104.25679,1.46049383 97.291358,4.49382716 96.3925926,3.37037037 C96.3925926,3.37037037 96.3925926,3.70740741 96.3925926,4.15679012 C95.2691358,4.2691358 94.3703704,4.2691358 93.6962963,4.2691358 C93.808642,3.70740741 93.9209877,3.25802469 93.9209877,3.14567901 C93.4716049,2.24691358 84.8209877,1.68518519 85.045679,2.1345679 C85.045679,2.80864198 84.4839506,3.25802469 83.5851852,3.48271605 C80.2148148,3.14567901 77.1814815,2.6962963 77.4061728,2.35925926 C77.4061728,2.47160494 77.2938272,2.47160494 76.9567901,2.58395062 C76.7320988,0.786419753 70.3283951,3.14567901 69.317284,2.24691358 C70.5530864,4.38148148 61.9024691,3.03333333 62.0148148,4.04444444 C61.9024691,2.47160494 58.8691358,3.37037037 56.8469136,4.2691358 C55.7234568,4.15679012 53.4765432,3.93209877 51.0049383,3.81975309 C49.0950617,3.14567901 47.0728395,2.58395062 47.1851852,3.14567901 C47.4098765,2.47160494 45.9493827,2.80864198 44.2641975,3.37037037 C41.5679012,3.14567901 39.3209877,2.92098765 38.7592593,2.6962963 C38.0851852,2.80864198 31.6814815,3.81975309 27.0753086,4.38148148 C25.5024691,4.38148148 24.0419753,4.49382716 24.0419753,4.60617284 C24.0419753,4.60617284 24.0419753,4.71851852 24.0419753,4.71851852 C23.0308642,4.8308642 22.4691358,4.8308642 22.3567901,4.60617284 C21.9074074,4.71851852 20.6716049,4.71851852 19.2111111,4.60617284 C18.2,4.04444444 17.5259259,3.14567901 17.6382716,2.1345679 C17.6382716,2.35925926 16.1777778,3.25802469 14.4925926,3.93209877 C10.2234568,3.25802469 5.72962963,2.35925926 5.28024691,2.1345679 C4.38148148,2.58395062 3.48271605,11.1222222 3.93209877,10.8975309 C6.62839506,11.1222222 4.49382716,18.7617284 4.38148148,18.8740741 C1.90987654,18.2 4.38148148,25.3901235 3.25802469,26.4012346 C5.39259259,25.2777778 3.70740741,33.8160494 4.71851852,33.7037037 C2.35925926,33.8160494 5.28024691,40.4444444 5.72962963,40.7814815 C5.28024691,41.7925926 2.24691358,48.5333333 3.14567901,48.5333333 C1.79753086,47.8592593 4.49382716,55.4987654 4.49382716,55.8358025 C4.04444444,55.8358025 2.80864198,64.037037 4.38148148,63.4753086 C3.48271605,63.8123457 3.48271605,71.5641975 3.59506173,71.7888889 C5.84197531,71.9012346 3.81975309,78.6419753 1.01111111,78.0802469 C1.57283951,78.0802469 4.49382716,85.045679 3.37037037,85.9444444 C3.48271605,85.9444444 8.20123457,86.3938272 13.0320988,86.8432099 C15.5037037,87.517284 20.7839506,87.9666667 20.5592593,87.6296296 C20.5592593,87.517284 20.5592593,87.517284 20.5592593,87.4049383 C22.1320988,87.517284 23.2555556,87.6296296 23.3679012,87.517284 C22.3567901,87.517284 24.154321,87.1802469 26.8506173,86.7308642 C27.7493827,86.9555556 28.5358025,87.1802469 28.5358025,87.1802469 C27.8617284,89.6518519 35.0518519,87.2925926 36.062963,88.3037037 C34.9395062,86.1691358 43.4777778,87.854321 43.3654321,86.8432099 C43.4777778,88.8654321 48.4209877,86.9555556 49.9938272,86.1691358 C50.4432099,86.1691358 50.8925926,86.2814815 51.3419753,86.2814815 C53.4765432,87.1802469 58.1950617,89.2024691 58.1950617,88.4160494 C57.5209877,89.7641975 65.2728395,87.0679012 65.4975309,87.0679012 C65.4975309,87.2925926 67.6320988,87.7419753 69.654321,87.9666667 C69.5419753,88.191358 69.5419753,88.3037037 69.5419753,88.3037037 C70.1037037,89.2024691 82.1246914,89.7641975 81.7876543,89.3148148 C81.9,88.191358 83.5851852,87.854321 85.7197531,87.854321 C86.9555556,88.5283951 88.0790123,89.5395062 87.854321,90.662963 C87.854321,90.3259259 90.4382716,89.0901235 92.6851852,88.4160494 C92.7975309,88.4160494 92.9098765,88.4160494 92.9098765,88.5283951 C92.1234568,91.1123457 101.897531,88.3037037 103.47037,89.3148148 C101.785185,87.1802469 113.693827,88.5283951 113.581481,87.4049383 C113.806173,89.3148148 119.423457,87.6296296 122.007407,86.6185185 C124.366667,86.9555556 126.61358,87.1802469 127.961728,87.4049383 C130.882716,88.191358 134.028395,88.8654321 134.028395,88.3037037 C133.241975,89.7641975 143.690123,86.6185185 144.02716,86.5061728 C143.914815,86.9555556 155.48642,87.854321 154.587654,86.2814815 C154.812346,86.8432099 158.07037,86.9555556 161.103704,86.8432099 C162.788889,87.1802469 164.137037,87.517284 164.58642,87.7419753 C165.148148,87.4049383 168.74321,86.9555556 172.562963,86.5061728 C174.023457,87.0679012 175.034568,87.9666667 174.809877,88.9777778 C174.809877,88.4160494 184.359259,85.045679 185.595062,86.1691358 C185.595062,86.1691358 185.595062,85.9444444 185.595062,85.7197531 C190.538272,86.0567901 199.638272,86.3938272 198.62716,86.5061728 C200.312346,87.4049383 198.065432,78.3049383 199.638272,78.0802469 C197.279012,79.091358 201.211111,71.2271605 199.975309,71.7888889 C203.682716,72.3506173 199.076543,64.3740741 198.065432,64.1493827 Z"></path>
                    </g>
                    <path d="M38.4222222,21.008642 C38.0851852,20.5592593 37.8604938,20.1098765 37.5234568,19.5481481 C37.5234568,19.5481481 37.4111111,19.4358025 37.4111111,19.4358025 C37.4111111,19.4358025 37.2987654,19.4358025 37.2987654,19.4358025 C37.1864198,19.5481481 37.0740741,19.6604938 36.9617284,19.6604938 C36.737037,19.7728395 36.6246914,19.8851852 36.4,19.9975309 C36.4,19.9975309 36.2876543,20.1098765 36.2876543,20.1098765 C36.2876543,20.1098765 36.2876543,20.1098765 36.2876543,20.1098765 C36.1753086,19.9975309 36.1753086,19.8851852 36.062963,19.7728395 C36.062963,19.6604938 35.9506173,19.6604938 35.9506173,19.5481481 C35.8382716,19.3234568 35.7259259,19.0987654 35.6135802,18.9864198 C35.2765432,18.537037 35.0518519,18.0876543 34.6024691,17.6382716 C34.1530864,17.0765432 33.4790123,16.5148148 32.8049383,15.9530864 L32.5802469,15.8407407 C32.4679012,15.7283951 32.4679012,15.7283951 32.3555556,15.6160494 C32.2432099,15.5037037 32.0185185,15.391358 31.9061728,15.2790123 C31.3444444,14.8296296 30.782716,14.6049383 30.3333333,14.2679012 C29.7716049,13.9308642 29.2098765,13.9308642 28.6481481,13.8185185 L28.5358025,13.8185185 C27.9740741,13.7061728 27.3,13.8185185 26.8506173,13.9308642 C26.6259259,14.0432099 26.4012346,14.1555556 26.1765432,14.2679012 C26.1765432,14.2679012 26.0641975,14.3802469 26.0641975,14.3802469 C25.5024691,14.6049383 25.1654321,14.9419753 24.6037037,15.5037037 C24.491358,15.6160494 24.491358,15.6160494 24.3790123,15.7283951 C24.154321,15.8407407 24.0419753,16.0654321 23.817284,16.2901235 C23.7049383,16.4024691 23.5925926,16.6271605 23.5925926,16.7395062 C23.4802469,16.8518519 23.4802469,16.9641975 23.3679012,17.0765432 C23.2555556,17.1888889 23.2555556,17.3012346 23.1432099,17.3012346 C23.0308642,17.4135802 22.9185185,17.6382716 22.8061728,17.862963 C22.6938272,18.0876543 22.5814815,18.3123457 22.5814815,18.537037 C22.5814815,18.6493827 22.5814815,18.6493827 22.4691358,18.7617284 C22.2444444,19.4358025 22.2444444,19.9975309 22.1320988,20.5592593 L22.1320988,20.6716049 C22.1320988,20.8962963 22.1320988,21.1209877 22.1320988,21.345679 C22.2444444,21.9074074 22.4691358,22.3567901 22.9185185,22.9185185 L23.0308642,23.0308642 C23.3679012,23.4802469 23.7049383,23.9296296 24.2666667,24.2666667 C24.9407407,24.7160494 25.7271605,25.1654321 26.4012346,25.3901235 L26.7382716,25.5024691 C27.3,25.7271605 27.8617284,25.9518519 28.4234568,26.0641975 C28.5358025,26.0641975 28.7604938,26.1765432 28.8728395,26.1765432 C29.3222222,26.2888889 29.8839506,26.4012346 30.445679,26.5135802 C30.5580247,26.5135802 30.782716,26.5135802 30.8950617,26.5135802 C31.0074074,26.5135802 31.2320988,26.5135802 31.3444444,26.5135802 C31.3444444,26.5135802 31.4567901,26.5135802 31.4567901,26.5135802 C31.5691358,26.5135802 31.6814815,26.5135802 31.7938272,26.5135802 C31.9061728,26.5135802 31.9061728,26.5135802 32.0185185,26.5135802 C32.0185185,26.5135802 32.1308642,26.5135802 32.1308642,26.5135802 C32.1308642,26.5135802 32.1308642,26.5135802 32.1308642,26.5135802 C32.1308642,26.5135802 32.0185185,26.6259259 32.0185185,26.6259259 C31.9061728,26.8506173 31.9061728,27.0753086 31.9061728,27.1876543 C31.9061728,27.4123457 31.9061728,27.5246914 31.9061728,27.637037 C31.9061728,27.637037 31.9061728,27.7493827 31.9061728,27.7493827 C31.9061728,27.7493827 32.0185185,27.8617284 32.0185185,27.8617284 C32.5802469,27.8617284 33.1419753,27.8617284 33.7037037,27.8617284 C33.7037037,27.8617284 33.7037037,27.8617284 33.8160494,27.8617284 C33.8160494,27.8617284 33.9283951,27.8617284 33.9283951,27.7493827 C33.9283951,27.7493827 33.9283951,27.637037 33.9283951,27.637037 C33.9283951,27.637037 33.9283951,27.637037 34.0407407,27.5246914 C34.0407407,27.5246914 34.0407407,27.4123457 34.0407407,27.4123457 C34.0407407,27.4123457 34.0407407,27.3 34.0407407,27.3 C34.0407407,27.3 34.0407407,27.3 34.1530864,27.1876543 C34.1530864,27.0753086 34.1530864,26.962963 34.1530864,26.962963 C34.1530864,26.962963 34.1530864,26.962963 34.1530864,26.962963 C34.1530864,26.962963 34.1530864,26.962963 34.1530864,26.962963 C34.1530864,26.8506173 34.1530864,26.8506173 34.1530864,26.7382716 C34.1530864,26.7382716 34.1530864,26.7382716 34.1530864,26.7382716 C34.1530864,26.7382716 34.1530864,26.6259259 34.1530864,26.6259259 C34.1530864,26.6259259 34.1530864,26.6259259 34.1530864,26.5135802 C34.1530864,26.5135802 34.1530864,26.5135802 34.1530864,26.4012346 C34.1530864,26.4012346 34.1530864,26.2888889 34.1530864,26.2888889 C34.1530864,26.2888889 34.1530864,26.1765432 34.1530864,26.1765432 C34.1530864,26.1765432 34.1530864,26.1765432 34.2654321,26.0641975 C34.2654321,26.0641975 34.2654321,26.0641975 34.2654321,25.9518519 C34.2654321,25.9518519 34.2654321,25.8395062 34.2654321,25.8395062 C34.2654321,25.8395062 34.2654321,25.8395062 34.2654321,25.8395062 C34.3777778,25.7271605 34.3777778,25.6148148 34.3777778,25.5024691 C34.3777778,25.5024691 34.3777778,25.5024691 34.3777778,25.3901235 C34.3777778,25.3901235 34.3777778,25.2777778 34.3777778,25.2777778 C34.3777778,25.2777778 34.2654321,25.1654321 34.2654321,25.1654321 C32.917284,25.1654321 31.4567901,24.7160494 29.9962963,23.9296296 C28.7604938,23.2555556 27.4123457,22.4691358 27.1876543,21.5703704 C26.962963,20.8962963 26.8506173,20.3345679 26.962963,19.8851852 C26.962963,19.7728395 26.962963,19.6604938 27.0753086,19.6604938 C27.0753086,19.5481481 27.0753086,19.5481481 27.1876543,19.4358025 C27.1876543,19.3234568 27.1876543,19.3234568 27.1876543,19.3234568 C27.1876543,19.2111111 27.1876543,19.2111111 27.1876543,19.2111111 C27.3,18.9864198 27.4123457,18.7617284 27.637037,18.6493827 L27.7493827,18.537037 C27.7493827,18.537037 27.8617284,18.4246914 27.8617284,18.4246914 C27.9740741,18.3123457 27.9740741,18.3123457 28.0864198,18.2 C28.5358025,17.862963 29.2098765,17.6382716 29.6592593,17.6382716 C30.2209877,17.5259259 30.782716,17.7506173 31.5691358,18.0876543 C32.1308642,18.3123457 32.6925926,18.6493827 33.254321,19.0987654 C33.9283951,19.5481481 34.6024691,20.2222222 34.9395062,20.5592593 C35.3888889,21.1209877 35.8382716,21.682716 36.1753086,22.1320988 C36.1753086,22.1320988 36.2876543,22.2444444 36.2876543,22.2444444 C36.2876543,22.2444444 36.4,22.2444444 36.4,22.2444444 C36.5123457,22.1320988 36.6246914,22.0197531 36.737037,21.9074074 C36.737037,21.9074074 36.737037,21.9074074 36.737037,21.9074074 C36.737037,21.9074074 36.8493827,21.9074074 36.8493827,21.7950617 C36.8493827,21.7950617 36.9617284,21.682716 36.9617284,21.682716 C36.9617284,21.682716 37.0740741,21.5703704 37.0740741,21.5703704 C37.0740741,21.5703704 37.0740741,21.5703704 37.0740741,21.4580247 C37.0740741,21.4580247 37.1864198,21.4580247 37.1864198,21.4580247 C37.1864198,21.4580247 37.2987654,21.4580247 37.2987654,21.345679 C37.2987654,21.345679 37.4111111,21.2333333 37.4111111,21.2333333 C37.4111111,21.2333333 37.4111111,21.2333333 37.5234568,21.1209877 C37.5234568,21.1209877 37.6358025,21.1209877 37.6358025,21.008642 C37.6358025,21.008642 37.6358025,21.008642 37.6358025,21.008642 C37.6358025,21.008642 37.7481481,20.8962963 37.7481481,20.8962963 C37.7481481,20.8962963 37.7481481,20.8962963 37.7481481,20.8962963 L37.7481481,20.8962963 C37.7481481,20.8962963 37.8604938,20.8962963 37.8604938,20.7839506 C37.8604938,20.7839506 37.9728395,20.6716049 37.9728395,20.6716049 C37.9728395,20.6716049 38.0851852,20.6716049 38.0851852,20.5592593 C38.4222222,21.1209877 38.4222222,21.008642 38.4222222,21.008642 Z M35.8382716,20.6716049 L35.8382716,20.6716049 C35.8382716,20.7839506 35.8382716,20.7839506 35.8382716,20.7839506 C35.8382716,20.7839506 35.7259259,20.7839506 35.8382716,20.6716049 L35.8382716,20.6716049 C35.7259259,20.6716049 35.7259259,20.6716049 35.8382716,20.6716049 C35.7259259,20.6716049 35.7259259,20.6716049 35.8382716,20.6716049 Z M30.5580247,25.7271605 C30.5580247,25.7271605 30.5580247,25.6148148 30.5580247,25.7271605 C30.5580247,25.6148148 30.6703704,25.6148148 30.5580247,25.7271605 C30.6703704,25.6148148 30.6703704,25.6148148 30.6703704,25.7271605 C30.6703704,25.7271605 30.6703704,25.7271605 30.5580247,25.7271605 C30.5580247,25.7271605 30.5580247,25.7271605 30.5580247,25.7271605 Z M25.2777778,17.5259259 C25.3901235,17.5259259 25.5024691,17.4135802 25.5024691,17.5259259 C25.8395062,17.5259259 26.1765432,17.9753086 26.2888889,18.2 C26.2888889,18.4246914 26.2888889,18.537037 26.1765432,18.6493827 C25.9518519,18.8740741 25.5024691,18.9864198 25.2777778,18.8740741 C25.0530864,18.7617284 24.8283951,18.6493827 24.8283951,18.4246914 C24.8283951,18.2 24.8283951,17.862963 25.0530864,17.7506173 C25.1654321,17.5259259 25.2777778,17.5259259 25.2777778,17.5259259 Z M24.6037037,21.9074074 C24.491358,21.7950617 24.2666667,21.5703704 24.3790123,21.345679 C24.3790123,21.345679 24.3790123,21.2333333 24.491358,21.2333333 C24.6037037,21.1209877 24.7160494,21.1209877 24.8283951,21.008642 C24.8283951,21.008642 24.8283951,21.008642 24.8283951,21.008642 C25.1654321,21.008642 25.5024691,21.1209877 25.6148148,21.4580247 C25.7271605,21.682716 25.6148148,21.7950617 25.3901235,22.0197531 C25.1654321,22.1320988 24.8283951,22.0197531 24.6037037,21.9074074 Z M26.7382716,23.9296296 C26.7382716,23.817284 26.7382716,23.817284 26.8506173,23.7049383 L26.8506173,23.7049383 C26.8506173,23.7049383 26.962963,23.7049383 26.962963,23.5925926 C26.962963,23.5925926 26.962963,23.5925926 26.962963,23.5925926 C27.0753086,23.5925926 27.0753086,23.5925926 27.1876543,23.7049383 C27.3,23.817284 27.3,23.9296296 27.3,23.9296296 L27.4123457,24.0419753 L27.3,23.9296296 C27.1876543,24.154321 26.962963,24.154321 26.8506173,24.154321 C26.8506173,24.2666667 26.6259259,24.154321 26.7382716,23.9296296 Z M27.9740741,15.8407407 C28.0864198,15.7283951 28.1987654,15.6160494 28.3111111,15.6160494 C28.5358025,15.6160494 28.7604938,15.7283951 28.8728395,15.8407407 C28.9851852,15.9530864 28.9851852,16.0654321 28.9851852,16.2901235 C28.9851852,16.4024691 28.7604938,16.6271605 28.7604938,16.6271605 C28.6481481,16.7395062 28.3111111,16.6271605 28.0864198,16.4024691 C27.9740741,16.2901235 27.8617284,15.9530864 27.9740741,15.8407407 Z M31.1197531,16.6271605 L31.1197531,16.6271605 C31.1197531,16.5148148 31.1197531,16.5148148 31.1197531,16.6271605 C31.2320988,16.6271605 31.4567901,16.6271605 31.5691358,16.7395062 C31.5691358,16.7395062 31.5691358,16.7395062 31.5691358,16.7395062 C31.5691358,16.8518519 31.5691358,16.9641975 31.5691358,17.0765432 C31.5691358,17.1888889 31.4567901,17.1888889 31.3444444,17.1888889 C31.2320988,17.1888889 31.1197531,17.1888889 31.0074074,17.0765432 C31.0074074,16.8518519 31.0074074,16.6271605 31.1197531,16.6271605 Z M33.3666667,18.2 C33.254321,18.2 33.1419753,18.2 33.1419753,18.2 C33.1419753,18.2 33.1419753,18.2 33.1419753,18.0876543 L33.1419753,18.0876543 C33.1419753,18.0876543 33.1419753,18.0876543 33.1419753,18.0876543 C33.1419753,18.0876543 33.1419753,18.0876543 33.254321,18.0876543 C33.3666667,18.0876543 33.3666667,18.0876543 33.3666667,18.2 C33.3666667,18.2 33.3666667,18.2 33.3666667,18.2 Z M28.8728395,24.9407407 C28.9851852,24.9407407 28.9851852,25.0530864 28.9851852,25.0530864 C28.9851852,25.0530864 28.9851852,25.1654321 28.8728395,25.1654321 C28.8728395,25.1654321 28.8728395,25.1654321 28.7604938,25.1654321 C28.7604938,25.1654321 28.7604938,25.0530864 28.8728395,24.9407407 C28.7604938,24.9407407 28.7604938,24.9407407 28.8728395,24.9407407 Z" id="Shape" fill="#F0C06A"></path>
                    <path d="M185.482716,82.0123457 C185.932099,81.6753086 186.381481,81.3382716 186.830864,81.0012346 C186.830864,81.0012346 186.94321,80.8888889 186.94321,80.8888889 C186.94321,80.7765432 186.94321,80.7765432 186.830864,80.7765432 C186.718519,80.6641975 186.606173,80.5518519 186.493827,80.4395062 C186.381481,80.2148148 186.269136,80.1024691 186.044444,79.9901235 C186.044444,79.9901235 185.932099,79.8777778 185.932099,79.8777778 L185.932099,79.8777778 C186.044444,79.7654321 186.15679,79.6530864 186.269136,79.6530864 C186.381481,79.6530864 186.381481,79.5407407 186.381481,79.5407407 C186.606173,79.4283951 186.718519,79.2037037 186.94321,79.091358 C187.392593,78.754321 187.841975,78.417284 188.291358,77.9679012 C188.853086,77.4061728 189.302469,76.7320988 189.864198,76.0580247 L189.976543,75.8333333 C190.088889,75.7209877 190.088889,75.608642 190.201235,75.608642 C190.31358,75.4962963 190.425926,75.2716049 190.538272,75.1592593 C190.875309,74.5975309 191.212346,74.0358025 191.437037,73.4740741 C191.661728,72.9123457 191.774074,72.2382716 191.774074,71.7888889 L191.774074,71.6765432 C191.774074,71.1148148 191.774074,70.4407407 191.549383,69.991358 C191.437037,69.7666667 191.324691,69.5419753 191.212346,69.4296296 C191.212346,69.4296296 191.1,69.317284 191.1,69.317284 C190.762963,68.8679012 190.425926,68.4185185 189.864198,67.9691358 C189.751852,67.9691358 189.751852,67.8567901 189.639506,67.7444444 C189.414815,67.6320988 189.302469,67.4074074 189.077778,67.2950617 C188.965432,67.182716 188.740741,67.182716 188.628395,67.0703704 C188.516049,67.0703704 188.403704,66.9580247 188.291358,66.9580247 C188.179012,66.9580247 188.066667,66.845679 187.954321,66.845679 C187.841975,66.7333333 187.617284,66.6209877 187.392593,66.508642 C187.167901,66.3962963 186.94321,66.3962963 186.718519,66.2839506 C186.606173,66.2839506 186.606173,66.2839506 186.493827,66.2839506 C185.819753,66.1716049 185.258025,66.0592593 184.696296,66.1716049 L184.583951,66.1716049 C184.359259,66.1716049 184.134568,66.1716049 183.909877,66.2839506 C183.348148,66.3962963 182.898765,66.7333333 182.449383,67.182716 L182.337037,67.2950617 C181.887654,67.6320988 181.438272,67.9691358 181.21358,68.5308642 C180.764198,69.317284 180.42716,70.1037037 180.202469,70.7777778 L180.090123,71.1148148 C179.865432,71.7888889 179.753086,72.3506173 179.640741,72.9123457 C179.640741,73.0246914 179.528395,73.2493827 179.528395,73.3617284 C179.416049,73.8111111 179.303704,74.3728395 179.303704,74.9345679 C179.303704,75.0469136 179.303704,75.2716049 179.303704,75.3839506 C179.303704,75.4962963 179.303704,75.7209877 179.303704,75.8333333 C179.303704,75.8333333 179.303704,75.945679 179.303704,75.945679 C179.303704,76.0580247 179.303704,76.1703704 179.303704,76.282716 C179.303704,76.3950617 179.303704,76.3950617 179.303704,76.5074074 C179.303704,76.5074074 179.303704,76.6197531 179.303704,76.6197531 C179.303704,76.6197531 179.303704,76.6197531 179.303704,76.6197531 C179.303704,76.6197531 179.191358,76.6197531 179.191358,76.5074074 C178.966667,76.3950617 178.741975,76.5074074 178.62963,76.5074074 C178.404938,76.5074074 178.292593,76.5074074 178.180247,76.5074074 C178.180247,76.5074074 178.067901,76.5074074 178.067901,76.5074074 C178.067901,76.5074074 177.955556,76.6197531 178.067901,76.6197531 C178.180247,77.1814815 178.180247,77.7432099 178.180247,78.3049383 C178.180247,78.3049383 178.180247,78.3049383 178.180247,78.417284 C178.180247,78.417284 178.292593,78.5296296 178.292593,78.5296296 C178.292593,78.5296296 178.404938,78.5296296 178.404938,78.5296296 C178.404938,78.5296296 178.404938,78.5296296 178.517284,78.6419753 C178.517284,78.6419753 178.62963,78.6419753 178.62963,78.6419753 C178.62963,78.6419753 178.741975,78.6419753 178.741975,78.6419753 C178.741975,78.6419753 178.741975,78.6419753 178.854321,78.754321 C178.966667,78.754321 179.079012,78.754321 179.079012,78.754321 C179.079012,78.754321 179.079012,78.754321 179.079012,78.754321 C179.079012,78.754321 179.079012,78.754321 179.079012,78.754321 C179.191358,78.754321 179.191358,78.754321 179.303704,78.754321 C179.303704,78.754321 179.303704,78.754321 179.303704,78.754321 C179.303704,78.754321 179.416049,78.754321 179.416049,78.754321 C179.416049,78.754321 179.416049,78.754321 179.528395,78.754321 C179.528395,78.754321 179.528395,78.754321 179.640741,78.754321 C179.640741,78.754321 179.753086,78.754321 179.865432,78.754321 C179.865432,78.754321 179.977778,78.754321 179.977778,78.754321 C179.977778,78.754321 179.977778,78.754321 180.090123,78.8666667 C180.090123,78.8666667 180.090123,78.8666667 180.202469,78.8666667 C180.202469,78.8666667 180.314815,78.8666667 180.314815,78.8666667 C180.314815,78.8666667 180.314815,78.8666667 180.314815,78.8666667 C180.42716,78.9790123 180.539506,78.9790123 180.651852,78.9790123 C180.651852,78.9790123 180.651852,78.9790123 180.764198,78.9790123 C180.764198,78.9790123 180.876543,78.9790123 180.876543,78.9790123 C180.876543,78.9790123 180.988889,78.8666667 180.988889,78.8666667 C180.876543,77.5185185 181.21358,76.0580247 181.887654,74.5975309 C182.449383,73.2493827 183.123457,72.0135802 184.022222,71.5641975 C184.696296,71.2271605 185.258025,71.1148148 185.707407,71.2271605 C185.819753,71.2271605 185.932099,71.2271605 185.932099,71.3395062 C186.044444,71.3395062 186.044444,71.3395062 186.15679,71.4518519 C186.269136,71.4518519 186.269136,71.4518519 186.269136,71.4518519 C186.381481,71.4518519 186.381481,71.4518519 186.381481,71.4518519 C186.606173,71.5641975 186.830864,71.6765432 186.94321,71.7888889 L187.055556,71.9012346 C187.055556,71.9012346 187.167901,72.0135802 187.167901,72.0135802 C187.280247,72.1259259 187.392593,72.1259259 187.392593,72.2382716 C187.72963,72.6876543 187.954321,73.3617284 188.066667,73.8111111 C188.179012,74.3728395 188.066667,74.9345679 187.72963,75.7209877 C187.504938,76.282716 187.167901,76.8444444 186.830864,77.5185185 C186.381481,78.3049383 185.819753,78.8666667 185.482716,79.3160494 C185.033333,79.8777778 184.471605,80.3271605 184.022222,80.6641975 C184.022222,80.6641975 183.909877,80.7765432 183.909877,80.7765432 C183.909877,80.7765432 183.909877,80.8888889 183.909877,80.8888889 C184.022222,81.0012346 184.134568,81.1135802 184.246914,81.2259259 C184.246914,81.2259259 184.246914,81.2259259 184.246914,81.2259259 C184.246914,81.2259259 184.246914,81.3382716 184.359259,81.3382716 C184.359259,81.3382716 184.471605,81.4506173 184.471605,81.4506173 C184.471605,81.4506173 184.583951,81.562963 184.583951,81.562963 C184.583951,81.562963 184.583951,81.562963 184.696296,81.562963 C184.696296,81.562963 184.696296,81.6753086 184.696296,81.6753086 C184.696296,81.6753086 184.696296,81.7876543 184.808642,81.7876543 C184.808642,81.7876543 184.920988,81.9 184.920988,81.9 C184.920988,81.9 184.920988,81.9 185.033333,82.0123457 C185.033333,82.0123457 185.033333,82.1246914 185.145679,82.1246914 C185.145679,82.1246914 185.145679,82.1246914 185.145679,82.1246914 C185.145679,82.1246914 185.258025,82.237037 185.258025,82.237037 C185.258025,82.237037 185.258025,82.237037 185.258025,82.237037 L185.258025,82.237037 C185.258025,82.237037 185.258025,82.3493827 185.37037,82.3493827 C185.37037,82.3493827 185.482716,82.3493827 185.482716,82.4617284 C185.482716,82.4617284 185.482716,82.4617284 185.595062,82.5740741 C185.258025,82.0123457 185.37037,82.0123457 185.482716,82.0123457 Z M180.202469,74.4851852 C180.202469,74.4851852 180.202469,74.4851852 180.202469,74.4851852 C180.202469,74.4851852 180.202469,74.4851852 180.202469,74.4851852 C180.314815,74.5975309 180.314815,74.5975309 180.202469,74.5975309 C180.202469,74.5975309 180.090123,74.5975309 180.202469,74.4851852 C180.090123,74.4851852 180.202469,74.4851852 180.202469,74.4851852 Z M187.954321,68.6432099 C187.954321,68.7555556 188.066667,68.7555556 188.066667,68.8679012 C188.066667,69.2049383 187.617284,69.5419753 187.504938,69.654321 C187.280247,69.7666667 187.167901,69.654321 187.055556,69.5419753 C186.830864,69.317284 186.718519,68.8679012 186.718519,68.6432099 C186.830864,68.4185185 186.94321,68.1938272 187.167901,68.0814815 C187.392593,67.9691358 187.72963,68.0814815 187.954321,68.3061728 C187.954321,68.5308642 187.954321,68.5308642 187.954321,68.6432099 Z M183.57284,68.1938272 C183.685185,68.0814815 183.797531,67.8567901 184.134568,67.9691358 C184.134568,67.9691358 184.246914,67.9691358 184.246914,68.0814815 C184.359259,68.1938272 184.359259,68.3061728 184.471605,68.4185185 C184.471605,68.4185185 184.471605,68.4185185 184.471605,68.4185185 C184.583951,68.7555556 184.359259,69.2049383 184.134568,69.317284 C183.909877,69.4296296 183.797531,69.317284 183.57284,69.0925926 C183.348148,68.8679012 183.348148,68.4185185 183.57284,68.1938272 Z M181.662963,70.4407407 C181.775309,70.4407407 181.775309,70.4407407 181.887654,70.5530864 L181.887654,70.5530864 C181.887654,70.5530864 182,70.6654321 182,70.6654321 C182,70.6654321 182,70.6654321 182,70.6654321 C182,70.7777778 182,70.7777778 181.887654,70.8901235 C181.775309,71.0024691 181.662963,71.0024691 181.662963,71.0024691 L181.662963,71.1148148 L181.662963,71.0024691 C181.438272,70.8901235 181.325926,70.6654321 181.438272,70.5530864 C181.325926,70.5530864 181.438272,70.4407407 181.662963,70.4407407 Z M189.864198,71.1148148 C189.976543,71.1148148 190.088889,71.2271605 190.201235,71.4518519 C190.201235,71.6765432 190.201235,71.9012346 189.976543,72.1259259 C189.864198,72.2382716 189.751852,72.2382716 189.52716,72.2382716 C189.414815,72.2382716 189.190123,72.1259259 189.190123,72.0135802 C189.077778,71.9012346 189.190123,71.5641975 189.414815,71.3395062 C189.414815,71.2271605 189.639506,71.1148148 189.864198,71.1148148 Z M189.302469,74.3728395 L189.302469,74.3728395 C189.302469,74.3728395 189.302469,74.3728395 189.302469,74.3728395 C189.414815,74.4851852 189.302469,74.7098765 189.190123,74.8222222 C189.190123,74.8222222 189.190123,74.8222222 189.190123,74.8222222 C189.077778,74.8222222 188.965432,74.8222222 188.853086,74.8222222 C188.740741,74.8222222 188.740741,74.7098765 188.740741,74.7098765 C188.740741,74.5975309 188.740741,74.4851852 188.853086,74.3728395 C188.965432,74.2604938 189.190123,74.2604938 189.302469,74.3728395 Z M187.841975,76.7320988 C187.841975,76.6197531 187.841975,76.5074074 187.841975,76.5074074 C187.841975,76.5074074 187.841975,76.5074074 187.954321,76.5074074 L187.954321,76.5074074 C187.954321,76.5074074 187.954321,76.5074074 187.954321,76.5074074 C187.954321,76.5074074 187.954321,76.5074074 187.954321,76.5074074 C187.954321,76.7320988 187.841975,76.7320988 187.841975,76.7320988 C187.841975,76.7320988 187.841975,76.7320988 187.841975,76.7320988 Z M180.764198,72.6876543 C180.764198,72.8 180.764198,72.8 180.651852,72.8 C180.651852,72.8 180.539506,72.8 180.539506,72.8 C180.539506,72.8 180.539506,72.8 180.539506,72.6876543 C180.651852,72.6876543 180.651852,72.6876543 180.764198,72.6876543 C180.764198,72.6876543 180.764198,72.6876543 180.764198,72.6876543 Z" id="Shape" fill="#F0C06A"></path>
                    <g transform="translate(30.333333, 13.481481)" fill="#FEF3A2">
                        <g transform="translate(30.333333, 0.000000)">
                            <polygon id="Path" points="11.0098765 0.561728395 11.0098765 2.02222222 7.52716049 2.02222222 7.52716049 26.1765432 4.04444444 26.1765432 4.04444444 2.02222222 0.561728395 2.02222222 0.561728395 0.561728395"></polygon>
                            <polygon id="Path" points="26.962963 2.02222222 22.5814815 2.02222222 22.5814815 12.0209877 26.0641975 12.0209877 26.0641975 13.4814815 22.5814815 13.4814815 22.5814815 24.8283951 26.962963 24.8283951 26.962963 26.2888889 19.0987654 26.2888889 19.0987654 0.674074074 26.962963 0.674074074"></polygon>
                            <polygon id="Path" points="38.8716049 7.19012346 39.4333333 11.0098765 39.882716 7.19012346 40.3320988 0.561728395 43.8148148 0.561728395 41.2308642 13.3691358 43.8148148 26.1765432 40.3320988 26.1765432 39.0962963 19.5481481 38.5345679 15.7283951 38.0851852 19.5481481 37.2987654 26.1765432 34.3777778 26.1765432 36.9617284 13.3691358 34.3777778 0.561728395 37.9728395 0.561728395"></polygon>
                            <path d="M61.5654321,26.1765432 L58.082716,26.1765432 L57.6333333,19.9975309 L55.0493827,19.9975309 L54.6,26.1765432 L51.117284,26.1765432 L53.7012346,0.561728395 L58.8691358,0.561728395 L61.5654321,26.1765432 Z M57.1839506,12.9197531 L56.2851852,1.57283951 L55.3864198,12.9197531 L54.937037,18.6493827 L57.5209877,18.6493827 L57.1839506,12.9197531 Z" id="Shape"></path>
                            <path d="M75.7209877,19.8851852 C75.7209877,18.8740741 75.608642,17.9753086 75.3839506,17.1888889 C75.1592593,16.4024691 74.9345679,15.7283951 74.5975309,15.1666667 C74.2604938,14.6049383 73.9234568,14.1555556 73.4740741,13.7061728 C73.0246914,13.2567901 72.5753086,12.9197531 72.2382716,12.582716 C71.7888889,12.245679 71.4518519,11.7962963 71.0024691,11.4592593 C70.5530864,11.1222222 70.2160494,10.6728395 69.8790123,10.2234568 C69.5419753,9.77407407 69.317284,9.21234568 69.0925926,8.65061728 C68.8679012,8.08888889 68.7555556,7.30246914 68.7555556,6.51604938 L68.7555556,2.92098765 C68.7555556,2.6962963 68.8679012,2.35925926 68.9802469,2.1345679 C69.0925926,1.90987654 69.4296296,1.57283951 69.7666667,1.23580247 C70.1037037,1.01111111 70.6654321,0.786419753 71.3395062,0.561728395 C72.0135802,0.337037037 72.9123457,0.337037037 74.0358025,0.337037037 C75.1592593,0.337037037 76.0580247,0.449382716 76.7320988,0.561728395 C77.4061728,0.786419753 77.9679012,1.01111111 78.3049383,1.23580247 C78.6419753,1.46049383 78.9790123,1.79753086 79.091358,2.1345679 C79.2037037,2.47160494 79.3160494,2.6962963 79.3160494,2.92098765 L79.3160494,9.54938272 L75.8333333,9.54938272 L75.8333333,2.92098765 C75.8333333,2.6962963 75.8333333,2.47160494 75.7209877,2.35925926 C75.608642,2.24691358 75.4962963,2.1345679 75.3839506,2.02222222 C75.2716049,1.90987654 75.0469136,1.90987654 74.8222222,1.79753086 C74.5975309,1.79753086 74.3728395,1.79753086 74.1481481,1.79753086 C73.9234568,1.79753086 73.6987654,1.79753086 73.4740741,1.79753086 C73.2493827,1.79753086 73.137037,1.90987654 72.9123457,2.02222222 C72.8,2.1345679 72.5753086,2.24691358 72.5753086,2.35925926 C72.462963,2.47160494 72.462963,2.6962963 72.462963,2.92098765 L72.462963,5.84197531 C72.462963,6.9654321 72.6876543,7.86419753 73.0246914,8.65061728 C73.3617284,9.43703704 73.8111111,9.99876543 74.3728395,10.5604938 C74.9345679,11.1222222 75.3839506,11.6839506 75.945679,12.1333333 C76.5074074,12.582716 77.0691358,13.1444444 77.6308642,13.5938272 C78.1925926,14.1555556 78.6419753,14.717284 78.9790123,15.391358 C79.3160494,16.0654321 79.4283951,16.9641975 79.4283951,17.9753086 L79.4283951,23.817284 C79.4283951,23.9296296 79.4283951,24.154321 79.3160494,24.491358 C79.3160494,24.8283951 79.091358,25.1654321 78.754321,25.5024691 C78.417284,25.8395062 77.9679012,26.0641975 77.1814815,26.4012346 C76.5074074,26.6259259 75.4962963,26.7382716 74.1481481,26.7382716 C72.8,26.7382716 71.7888889,26.6259259 71.1148148,26.4012346 C70.4407407,26.1765432 69.8790123,25.8395062 69.5419753,25.5024691 C69.2049383,25.1654321 68.9802469,24.8283951 68.9802469,24.491358 C68.9802469,24.154321 68.8679012,23.9296296 68.8679012,23.817284 L68.8679012,15.2790123 L72.3506173,15.2790123 L72.3506173,23.817284 C72.3506173,23.9296296 72.3506173,24.0419753 72.3506173,24.2666667 C72.3506173,24.3790123 72.462963,24.6037037 72.5753086,24.7160494 C72.6876543,24.8283951 72.8,24.9407407 73.137037,25.0530864 C73.3617284,25.1654321 73.6987654,25.1654321 74.1481481,25.1654321 C74.5975309,25.1654321 74.9345679,25.1654321 75.1592593,25.0530864 C75.3839506,24.9407407 75.608642,24.8283951 75.7209877,24.7160494 C75.8333333,24.6037037 75.945679,24.3790123 75.945679,24.2666667 C75.945679,24.154321 75.945679,23.9296296 75.945679,23.817284 L75.945679,19.8851852 L75.7209877,19.8851852 Z" id="Path"></path>
                        </g>
                        <g transform="translate(0.000000, 23.592593)">
                            <polygon id="Path" points="5.50493827 0.224691358 5.50493827 37.9728395 10.8975309 37.9728395 10.8975309 40.2197531 0 40.2197531 0 0.224691358"></polygon>
                            <path d="M33.3666667,37.5234568 C33.3666667,37.6358025 33.3666667,37.9728395 33.254321,38.3098765 C33.1419753,38.6469136 32.917284,39.0962963 32.5802469,39.4333333 C32.2432099,39.7703704 31.5691358,40.1074074 30.782716,40.4444444 C29.9962963,40.7814815 28.7604938,40.8938272 27.1876543,40.8938272 C25.6148148,40.8938272 24.491358,40.7814815 23.5925926,40.4444444 C22.8061728,40.1074074 22.1320988,39.7703704 21.7950617,39.4333333 C21.4580247,39.0962963 21.2333333,38.6469136 21.1209877,38.3098765 C21.008642,37.9728395 21.008642,37.6358025 21.008642,37.5234568 L21.008642,12.6950617 C21.008642,12.582716 21.008642,12.4703704 21.008642,12.245679 C21.008642,12.0209877 21.1209877,11.7962963 21.2333333,11.5716049 C21.345679,11.3469136 21.5703704,11.1222222 21.7950617,10.8975309 C22.0197531,10.6728395 22.3567901,10.4481481 22.8061728,10.2234568 C23.2555556,9.99876543 23.817284,9.88641975 24.491358,9.77407407 C25.1654321,9.6617284 26.0641975,9.54938272 27.0753086,9.54938272 C28.0864198,9.54938272 28.9851852,9.6617284 29.6592593,9.77407407 C30.3333333,9.88641975 30.8950617,10.1111111 31.3444444,10.2234568 C31.7938272,10.4481481 32.1308642,10.6728395 32.3555556,10.8975309 C32.5802469,11.1222222 32.8049383,11.3469136 32.917284,11.5716049 C33.0296296,11.7962963 33.1419753,12.0209877 33.1419753,12.245679 C33.1419753,12.4703704 33.1419753,12.582716 33.1419753,12.6950617 L33.1419753,37.5234568 L33.3666667,37.5234568 Z M25.0530864,37.5234568 C25.0530864,37.6358025 25.0530864,37.8604938 25.0530864,37.9728395 C25.0530864,38.1975309 25.1654321,38.3098765 25.2777778,38.5345679 C25.3901235,38.7592593 25.6148148,38.8716049 25.8395062,38.9839506 C26.0641975,39.0962963 26.5135802,39.208642 27.0753086,39.208642 C27.637037,39.208642 27.9740741,39.0962963 28.3111111,38.9839506 C28.5358025,38.8716049 28.7604938,38.7592593 28.8728395,38.5345679 C28.9851852,38.3098765 29.0975309,38.1975309 29.0975309,37.9728395 C29.0975309,37.7481481 29.0975309,37.6358025 29.0975309,37.5234568 L29.0975309,12.6950617 C29.0975309,12.582716 29.0975309,12.3580247 29.0975309,12.245679 C29.0975309,12.1333333 28.9851852,11.908642 28.8728395,11.7962963 C28.7604938,11.6839506 28.5358025,11.5716049 28.3111111,11.4592593 C28.0864198,11.3469136 27.637037,11.3469136 27.0753086,11.3469136 C26.5135802,11.3469136 26.1765432,11.3469136 25.8395062,11.4592593 C25.6148148,11.5716049 25.3901235,11.6839506 25.2777778,11.7962963 C25.1654321,11.908642 25.0530864,12.1333333 25.0530864,12.245679 C25.0530864,12.3580247 25.0530864,12.582716 25.0530864,12.6950617 L25.0530864,37.5234568 Z" id="Shape"></path>
                            <polygon id="Path" points="55.3864198 9.88641975 55.3864198 11.5716049 51.2296296 11.5716049 51.2296296 40.3320988 47.0728395 40.3320988 47.0728395 11.5716049 42.9160494 11.5716049 42.9160494 9.88641975"></polygon>
                            <polygon id="Path" points="76.3950617 9.88641975 76.3950617 11.5716049 72.2382716 11.5716049 72.2382716 40.3320988 68.0814815 40.3320988 68.0814815 11.5716049 63.9246914 11.5716049 63.9246914 9.88641975"></polygon>
                            <polygon id="Path" points="95.3814815 11.5716049 90.2135802 11.5716049 90.2135802 23.3679012 94.3703704 23.3679012 94.3703704 25.0530864 90.2135802 25.0530864 90.2135802 38.5345679 95.3814815 38.5345679 95.3814815 40.2197531 86.0567901 40.2197531 86.0567901 9.77407407 95.3814815 9.77407407"></polygon>
                            <path d="M117.51358,22.2444444 C117.51358,23.1432099 117.288889,23.7049383 116.72716,24.0419753 C116.165432,24.3790123 115.491358,24.491358 114.367901,24.491358 C114.92963,24.491358 115.379012,24.6037037 115.716049,24.7160494 C116.053086,24.8283951 116.390123,25.0530864 116.72716,25.2777778 C117.064198,25.5024691 117.176543,25.7271605 117.288889,25.9518519 C117.401235,26.1765432 117.51358,26.5135802 117.51358,26.7382716 L117.51358,40.2197531 L113.35679,40.2197531 L113.35679,26.1765432 C113.35679,25.8395062 113.244444,25.7271605 113.019753,25.5024691 C112.795062,25.3901235 112.458025,25.2777778 112.120988,25.1654321 C111.783951,25.0530864 111.334568,25.0530864 110.77284,25.0530864 C110.323457,25.0530864 109.761728,25.0530864 109.312346,25.0530864 L109.312346,40.2197531 L105.155556,40.2197531 L105.155556,9.77407407 L109.312346,9.77407407 C110.323457,9.77407407 111.334568,9.77407407 112.345679,9.77407407 C113.35679,9.77407407 114.255556,9.88641975 115.041975,10.1111111 C115.828395,10.3358025 116.390123,10.5604938 116.951852,10.8975309 C117.401235,11.2345679 117.625926,11.7962963 117.625926,12.4703704 L117.625926,22.2444444 L117.51358,22.2444444 Z M113.35679,12.6950617 C113.35679,12.3580247 113.244444,12.245679 113.132099,12.0209877 C113.019753,11.908642 112.795062,11.7962963 112.458025,11.6839506 C112.120988,11.5716049 111.671605,11.5716049 111.222222,11.5716049 C110.660494,11.5716049 110.098765,11.5716049 109.312346,11.5716049 L109.312346,23.9296296 C109.874074,23.9296296 110.323457,23.9296296 110.77284,23.9296296 C111.222222,23.9296296 111.671605,23.9296296 112.120988,23.817284 C112.458025,23.7049383 112.795062,23.5925926 113.019753,23.4802469 C113.244444,23.3679012 113.35679,23.1432099 113.35679,22.8061728 L113.35679,12.6950617 Z" id="Shape"></path>
                            <polygon id="Path" points="134.253086 10.6728395 135.601235 21.008642 137.735802 10.6728395 138.297531 0.224691358 143.690123 0.224691358 138.297531 26.1765432 138.297531 40.2197531 132.904938 40.2197531 132.904938 26.1765432 127.512346 0.224691358 132.904938 0.224691358"></polygon>
                        </g>
                    </g>
                    <polygon id="Path" fill="#F0C06A" points="187.280247 53.8135802 190.201235 52.2407407 190.201235 59.5432099 188.066667 57.6333333"></polygon>
                    <polygon id="Path" fill="#F0C06A" points="15.7283951 27.5246914 18.6493827 26.0641975 23.1432099 29.6592593 16.5148148 31.3444444"></polygon>
                    <polygon id="Path" fill="#F0C06A" points="174.135802 17.5259259 176.495062 12.8074074 176.495062 18.537037 180.539506 20.4469136 174.135802 21.682716 174.135802 26.1765432 172.11358 21.9074074 167.95679 20.4469136 172.562963 19.5481481 169.417284 15.6160494"></polygon>
                    <polygon id="Path" fill="#F0C06A" points="20.8962963 71.1148148 23.4802469 73.6987654 19.6604938 73.3617284 17.4135802 77.4061728 16.9641975 73.2493827 12.245679 70.4407407 16.7395062 68.8679012 15.9530864 64.5987654 19.0987654 69.4296296 23.2555556 66.6209877"></polygon>
                    <polygon id="Path" fill="#F0C06A" points="185.595062 43.7024691 184.022222 42.017284 192.560494 34.0407407 190.088889 30.108642 187.167901 32.6925926 181.662963 25.5024691 190.201235 20.3345679 186.269136 14.2679012 188.291358 13.0320988 193.571605 21.008642 185.145679 26.1765432 187.504938 29.3222222 190.650617 26.5135802 195.593827 34.3777778"></polygon>
                    <polygon id="Path" fill="#F0C06A" points="49.8814815 37.8604938 47.2975309 32.5802469 51.6790123 26.1765432 47.7469136 21.7950617 49.5444444 20.2222222 54.7123457 25.9518519 49.9938272 32.6925926 52.0160494 36.8493827"></polygon>
                    <polygon id="Rectangle" fill="#F0C06A" transform="translate(88.337127, 73.158270) rotate(-54.820683) translate(-88.337127, -73.158270) " points="84.012098 72.5404091 92.6621551 72.5404091 92.6621551 73.7761316 84.012098 73.7761316"></polygon>
                    <polygon id="Rectangle" fill="#F0C06A" transform="translate(90.229157, 78.210253) rotate(-54.898608) translate(-90.229157, -78.210253) " points="86.8589339 77.5923791 93.5993801 77.5923791 93.5993801 78.8281276 86.8589339 78.8281276"></polygon>
                    <polygon id="Rectangle" fill="#F0C06A" transform="translate(151.374658, 23.270082) rotate(-54.852618) translate(-151.374658, -23.270082) " points="143.903432 22.6521609 158.845884 22.6521609 158.845884 23.8880028 143.903432 23.8880028"></polygon>
                    <polygon id="Rectangle" fill="#F0C06A" transform="translate(16.455901, 47.970981) rotate(-40.494408) translate(-16.455901, -47.970981) " points="15.8941497 40.4996927 17.0176518 40.4996927 17.0176518 55.4422702 15.8941497 55.4422702"></polygon>
                    <polygon id="Rectangle" fill="#F0C06A" transform="translate(14.492222, 53.753408) rotate(-40.494408) translate(-14.492222, -53.753408) " points="13.9304708 51.3940536 15.0539729 51.3940536 15.0539729 56.1127622 13.9304708 56.1127622"></polygon>
                    <polygon id="Rectangle" fill="#F0C06A" transform="translate(19.432118, 45.128731) rotate(-40.502485) translate(-19.432118, -45.128731) " points="18.8703727 42.7694031 19.9938623 42.7694031 19.9938623 47.4880594 18.8703727 47.4880594"></polygon>
                    <polygon id="Rectangle" fill="#F0C06A" transform="translate(153.594198, 26.035864) rotate(-54.898608) translate(-153.594198, -26.035864) " points="147.752478 25.4179897 159.435918 25.4179897 159.435918 26.6537382 147.752478 26.6537382"></polygon>
                </g>
            </g>
        </g>
    </g>
</svg>