<?xml version="1.0" encoding="UTF-8"?>
<svg width="234px" height="130px" viewBox="0 0 234 130" version="1.1" xmlns="http://www.w3.org/2000/svg" xmlns:xlink="http://www.w3.org/1999/xlink">
    <title>thunderball_lotto</title>
    <defs>
        <linearGradient x1="0%" y1="50%" x2="100%" y2="50%" id="linearGradient-1">
            <stop stop-color="#4680C1" offset="0%"></stop>
            <stop stop-color="#204D9C" offset="100%"></stop>
        </linearGradient>
    </defs>
    <g id="Bg" stroke="none" stroke-width="1" fill="none" fill-rule="evenodd">
        <g id="Logos" transform="translate(-362.000000, -1268.000000)">
            <g id="thunderball_lotto" transform="translate(362.000000, 1268.000000)">
                <rect id="Rectangle" x="0" y="0" width="234" height="130" rx="2"></rect>
                <g transform="translate(7.000000, 33.000000)" fill-rule="nonzero">
                    <path d="M130.814141,44.6464646 C128.470202,44.5348485 126.572727,46.3207071 126.461111,48.5530303 C126.349495,50.7853535 128.135354,52.7944444 130.367677,52.9060606 C132.6,53.0176768 134.609091,51.2318182 134.720707,48.9994949 C134.720707,48.8878788 134.720707,48.8878788 134.720707,48.7762626 C134.832323,46.6555556 133.269697,44.7580808 131.037374,44.5348485 C131.037374,44.6464646 130.925758,44.6464646 130.814141,44.6464646 Z M130.814141,40.8515152 C135.167172,40.9631313 138.738889,44.6464646 138.515657,48.9994949 C138.292424,53.3525253 134.720707,56.9242424 130.367677,56.7010101 C126.014646,56.5893939 122.554545,53.0176768 122.666162,48.6646465 C122.666162,44.4232323 126.349495,40.8515152 130.814141,40.8515152 L130.814141,40.8515152 Z M120.210606,53.1292929 C121.103535,53.0176768 121.884848,53.6873737 121.996465,54.580303 C121.996465,54.6919192 121.996465,54.6919192 121.996465,54.8035354 C121.996465,55.4732323 121.55,56.1429293 120.991919,56.4777778 C120.322222,56.8126263 119.540909,56.9242424 118.871212,56.9242424 C114.85303,56.9242424 112.732323,54.9151515 112.732323,51.2318182 L112.732323,44.7580808 L111.839394,44.7580808 C110.834848,44.869697 110.053535,44.0883838 109.941919,43.1954545 C109.830303,42.1909091 110.611616,41.409596 111.504545,41.2979798 C111.616162,41.2979798 111.727778,41.2979798 111.839394,41.2979798 L112.732323,41.2979798 L112.732323,39.0656566 C112.732323,37.9494949 113.625253,36.9449495 114.85303,36.9449495 C115.969192,36.9449495 116.973737,37.8378788 116.973737,39.0656566 L116.973737,39.0656566 L116.973737,41.1863636 L119.764141,41.1863636 C120.768687,41.0747475 121.55,41.8560606 121.661616,42.7489899 C121.773232,43.7535354 120.991919,44.5348485 120.09899,44.6464646 C119.987374,44.6464646 119.875758,44.6464646 119.764141,44.6464646 L116.973737,44.6464646 L116.973737,50.6737374 C116.973737,52.3479798 117.755051,53.0176768 119.764141,53.0176768 C119.875758,53.1292929 120.09899,53.1292929 120.210606,53.1292929 L120.210606,53.1292929 Z M107.486364,53.1292929 C108.379293,53.0176768 109.160606,53.6873737 109.272222,54.580303 C109.272222,54.6919192 109.272222,54.6919192 109.272222,54.8035354 C109.272222,55.4732323 108.825758,56.1429293 108.267677,56.4777778 C107.59798,56.8126263 106.816667,56.9242424 106.14697,56.9242424 C102.128788,56.9242424 100.008081,54.9151515 100.008081,51.2318182 L100.008081,44.7580808 L99.1151515,44.7580808 C98.1106061,44.869697 97.3292929,44.0883838 97.2176768,43.1954545 C97.1060606,42.1909091 97.8873737,41.409596 98.780303,41.2979798 C98.8919192,41.2979798 99.0035354,41.2979798 99.1151515,41.2979798 L100.008081,41.2979798 L100.008081,39.0656566 C100.008081,37.9494949 100.90101,36.9449495 102.128788,36.9449495 C103.244949,36.9449495 104.249495,37.8378788 104.249495,39.0656566 L104.249495,39.0656566 L104.249495,41.1863636 L107.039899,41.1863636 C108.044444,41.0747475 108.825758,41.8560606 108.937374,42.7489899 C109.04899,43.7535354 108.267677,44.5348485 107.374747,44.6464646 C107.263131,44.6464646 107.151515,44.6464646 107.039899,44.6464646 L104.249495,44.6464646 L104.249495,50.6737374 C104.249495,52.3479798 105.030808,53.0176768 107.039899,53.0176768 C107.151515,53.1292929 107.374747,53.1292929 107.486364,53.1292929 L107.486364,53.1292929 Z M88.6232323,44.6464646 C86.2792929,44.5348485 84.3818182,46.3207071 84.270202,48.5530303 C84.1585859,50.8969697 85.9444444,52.7944444 88.1767677,52.9060606 C90.5207071,53.0176768 92.4181818,51.2318182 92.529798,48.9994949 C92.529798,48.8878788 92.529798,48.8878788 92.529798,48.7762626 C92.6414141,46.5439394 90.9671717,44.6464646 88.6232323,44.6464646 C88.7348485,44.6464646 88.6232323,44.6464646 88.6232323,44.6464646 Z M88.6232323,40.8515152 C92.9762626,40.9631313 96.5479798,44.6464646 96.3247475,48.9994949 C96.1015152,53.3525253 92.529798,56.9242424 88.1767677,56.7010101 C83.8237374,56.5893939 80.3636364,53.0176768 80.4752525,48.6646465 C80.4752525,44.4232323 84.0469697,40.8515152 88.6232323,40.8515152 C88.5116162,40.8515152 88.6232323,40.8515152 88.6232323,40.8515152 Z M77.1267677,56.8126263 C76.0106061,56.8126263 75.0060606,55.919697 75.0060606,54.8035354 L75.0060606,54.6919192 L75.0060606,35.0474747 C75.0060606,33.9313131 75.8989899,32.9267677 77.1267677,32.9267677 C78.2429293,32.9267677 79.2474747,33.819697 79.2474747,35.0474747 L79.2474747,35.0474747 L79.2474747,54.6919192 C79.2474747,55.919697 78.3545455,56.8126263 77.1267677,56.8126263 L77.1267677,56.8126263 Z" id="SVGID_1_" fill="#000000"></path>
                    <path d="M218.09798,30.5828283 C216.981818,30.5828283 215.977273,29.689899 215.977273,28.5737374 L215.977273,28.4621212 L215.977273,8.81767677 C215.977273,7.70151515 216.870202,6.6969697 218.09798,6.6969697 C219.214141,6.6969697 220.218687,7.58989899 220.218687,8.81767677 L220.218687,28.4621212 C220.107071,29.5782828 219.214141,30.5828283 218.09798,30.5828283 L218.09798,30.5828283 Z M211.624242,30.5828283 C210.508081,30.5828283 209.503535,29.689899 209.503535,28.5737374 L209.503535,28.4621212 L209.503535,8.81767677 C209.391919,7.70151515 210.284848,6.6969697 211.40101,6.58535354 C212.517172,6.47373737 213.521717,7.36666667 213.633333,8.48282828 C213.633333,8.59444444 213.633333,8.70606061 213.633333,8.81767677 L213.633333,28.4621212 C213.744949,29.5782828 212.85202,30.5828283 211.624242,30.5828283 C211.735859,30.5828283 211.624242,30.5828283 211.624242,30.5828283 Z M200.016162,27.5691919 C201.690404,27.6808081 203.141414,26.4530303 203.25303,24.7787879 C203.25303,24.6671717 203.25303,24.6671717 203.25303,24.5555556 L203.25303,24.3323232 L199.904545,24.3323232 C198.565152,24.3323232 197.783838,24.890404 197.783838,25.8949495 C197.783838,26.8994949 198.676768,27.5691919 200.016162,27.5691919 Z M200.797475,14.6217172 C205.038889,14.6217172 207.382828,16.9656566 207.382828,21.2070707 L207.382828,28.5737374 C207.382828,29.689899 206.489899,30.5828283 205.373737,30.6944444 C204.369192,30.6944444 203.587879,30.0247475 203.364646,29.1318182 C202.136869,30.2479798 200.574242,30.8060606 198.9,30.8060606 C195.774747,30.8060606 193.542424,28.9085859 193.542424,26.229798 C193.542424,23.5510101 195.774747,21.7651515 199.346465,21.7651515 L203.25303,21.7651515 L203.25303,21.0954545 C203.364646,19.7560606 202.360101,18.5282828 200.909091,18.3050505 C200.685859,18.3050505 200.462626,18.3050505 200.239394,18.3050505 C199.123232,18.3050505 198.118687,18.7515152 197.337374,19.4212121 C197.002525,19.7560606 196.556061,19.8676768 196.109596,19.9792929 C195.216667,19.9792929 194.323737,19.309596 194.323737,18.3050505 C194.323737,17.6353535 194.658586,17.0772727 195.216667,16.6308081 C196.779293,15.179798 198.788384,14.510101 200.797475,14.6217172 Z M185.059596,26.7878788 C187.403535,26.6762626 189.189394,24.6671717 189.077778,22.3232323 C188.966162,20.2025253 187.291919,18.4166667 185.059596,18.3050505 C182.938889,18.3050505 181.15303,19.9792929 181.15303,22.2116162 C181.15303,22.3232323 181.15303,22.5464646 181.15303,22.6580808 C180.929798,24.7787879 182.492424,26.5646465 184.613131,26.7878788 C184.836364,26.7878788 184.94798,26.7878788 185.059596,26.7878788 Z M185.840909,14.6217172 C190.193939,14.6217172 193.319192,17.970202 193.319192,22.6580808 C193.319192,27.3459596 190.193939,30.6944444 185.840909,30.6944444 C184.055051,30.8060606 182.380808,30.0247475 181.15303,28.7969697 C181.15303,29.9131313 180.260101,30.6944444 179.143939,30.6944444 C178.027778,30.6944444 177.023232,29.8015152 177.023232,28.5737374 C177.023232,28.5737374 177.023232,28.5737374 177.023232,28.4621212 L177.023232,8.81767677 C177.023232,7.70151515 177.916162,6.6969697 179.032323,6.6969697 L179.143939,6.6969697 C180.260101,6.6969697 181.15303,7.58989899 181.264646,8.70606061 L181.264646,8.81767677 L181.264646,16.4075758 C182.492424,15.179798 184.166667,14.510101 185.840909,14.6217172 Z M174.790909,14.7333333 C175.795455,14.6217172 176.576768,15.4030303 176.688384,16.4075758 C176.688384,16.5191919 176.688384,16.5191919 176.688384,16.6308081 C176.688384,17.7469697 175.795455,18.639899 174.679293,18.639899 C172.670202,18.639899 171.107576,20.3141414 171.107576,22.2116162 C171.107576,22.3232323 171.107576,22.4348485 171.107576,22.5464646 L171.107576,28.3505051 C171.107576,29.4666667 170.326263,30.4712121 169.210101,30.4712121 L169.098485,30.4712121 C167.982323,30.4712121 166.977778,29.5782828 166.977778,28.4621212 L166.977778,28.3505051 L166.977778,16.7424242 C166.977778,15.6262626 167.870707,14.7333333 168.986869,14.6217172 L169.098485,14.6217172 C170.214646,14.6217172 170.99596,15.4030303 171.107576,16.5191919 C172.000505,15.4030303 173.339899,14.7333333 174.790909,14.7333333 Z M158.271717,17.970202 C156.485859,17.970202 154.923232,19.309596 154.588384,21.0954545 L161.508586,21.0954545 C161.508586,19.4212121 160.057576,17.970202 158.271717,17.970202 C158.494949,17.970202 158.383333,17.970202 158.271717,17.970202 L158.271717,17.970202 Z M158.383333,14.6217172 C162.289899,14.510101 165.526768,17.5237374 165.638384,21.3186869 C165.638384,21.430303 165.638384,21.6535354 165.638384,21.7651515 L165.638384,21.8767677 C165.638384,22.9929293 164.745455,23.9974747 163.629293,23.9974747 C163.517677,23.9974747 163.406061,23.9974747 163.406061,23.9974747 L154.7,23.9974747 C155.146465,25.8949495 157.043939,27.2343434 159.05303,27.0111111 C160.169192,27.0111111 161.285354,26.6762626 162.289899,26.1181818 C162.513131,25.8949495 162.84798,25.8949495 163.182828,25.8949495 C164.075758,25.8949495 164.857071,26.5646465 164.857071,27.4575758 C164.857071,27.4575758 164.857071,27.4575758 164.857071,27.5691919 C164.857071,28.2388889 164.410606,28.9085859 163.852525,29.2434343 C162.401515,30.1363636 160.727273,30.6944444 158.941414,30.6944444 C154.588384,30.9176768 150.793434,27.5691919 150.570202,23.1045455 C150.570202,22.9929293 150.570202,22.8813131 150.570202,22.6580808 C150.458586,18.3050505 153.807071,14.7333333 158.160101,14.6217172 C158.160101,14.6217172 158.271717,14.6217172 158.383333,14.6217172 L158.383333,14.6217172 Z M141.082828,26.7878788 C143.203535,26.7878788 144.989394,25.1136364 144.989394,22.9929293 C144.989394,22.8813131 144.989394,22.769697 144.989394,22.6580808 C145.212626,20.5373737 143.65,18.639899 141.529293,18.4166667 C141.417677,18.4166667 141.306061,18.4166667 141.194444,18.4166667 C138.850505,18.5282828 137.064646,20.5373737 137.176263,22.8813131 C137.287879,25.0020202 138.962121,26.7878788 141.082828,26.7878788 L141.082828,26.7878788 Z M146.998485,6.6969697 C148.114646,6.6969697 149.007576,7.58989899 149.119192,8.70606061 L149.119192,8.81767677 L149.119192,28.4621212 C149.119192,29.5782828 148.337879,30.4712121 147.221717,30.5828283 L147.110101,30.5828283 C145.993939,30.5828283 145.10101,29.689899 145.10101,28.6853535 C143.873232,30.0247475 142.19899,30.6944444 140.413131,30.5828283 C136.060101,30.5828283 133.046465,27.2343434 133.046465,22.5464646 C133.046465,17.8585859 136.171717,14.510101 140.413131,14.510101 C142.087374,14.3984848 143.761616,15.0681818 144.989394,16.2959596 L144.989394,8.70606061 C144.877778,7.70151515 145.770707,6.80858586 146.998485,6.6969697 L146.998485,6.6969697 L146.998485,6.6969697 Z M125.90303,14.6217172 C129.363131,14.6217172 131.707071,17.0772727 131.707071,20.7606061 L131.707071,28.4621212 C131.707071,29.5782828 130.925758,30.5828283 129.809596,30.5828283 L129.69798,30.5828283 C128.581818,30.5828283 127.577273,29.689899 127.577273,28.4621212 C127.577273,28.4621212 127.577273,28.4621212 127.577273,28.3505051 L127.577273,21.2070707 C127.688889,19.6444444 126.572727,18.4166667 125.010101,18.1934343 C124.898485,18.1934343 124.786869,18.1934343 124.675253,18.1934343 C123.112626,18.1934343 121.773232,19.4212121 121.773232,20.9838384 C121.773232,21.0954545 121.773232,21.0954545 121.773232,21.2070707 L121.773232,28.3505051 C121.773232,29.4666667 120.880303,30.4712121 119.764141,30.4712121 L119.652525,30.4712121 C118.536364,30.4712121 117.531818,29.5782828 117.531818,28.4621212 L117.531818,28.3505051 L117.531818,16.7424242 C117.531818,15.6262626 118.424747,14.6217172 119.540909,14.6217172 L119.652525,14.6217172 C120.545455,14.6217172 121.438384,15.2914141 121.661616,16.1843434 C122.889394,15.179798 124.340404,14.6217172 125.90303,14.6217172 L125.90303,14.6217172 Z M108.490909,30.5828283 C104.807576,30.8060606 101.570707,27.9040404 101.347475,24.1090909 C101.347475,23.8858586 101.347475,23.6626263 101.347475,23.4393939 L101.347475,16.7424242 C101.235859,15.6262626 102.128788,14.6217172 103.244949,14.510101 C104.361111,14.3984848 105.365657,15.2914141 105.477273,16.4075758 C105.477273,16.5191919 105.477273,16.6308081 105.477273,16.7424242 L105.477273,23.8858586 C105.477273,25.4484848 106.816667,26.7878788 108.379293,26.7878788 C109.941919,26.7878788 111.281313,25.4484848 111.281313,23.8858586 L111.281313,16.7424242 C111.281313,15.6262626 112.062626,14.7333333 113.178788,14.6217172 L113.290404,14.6217172 C114.406566,14.6217172 115.299495,15.5146465 115.411111,16.6308081 L115.411111,16.7424242 L115.411111,23.5510101 C115.634343,27.2343434 112.732323,30.4712121 109.04899,30.6944444 C108.937374,30.5828283 108.714141,30.5828283 108.490909,30.5828283 L108.490909,30.5828283 Z M93.8691919,14.6217172 C97.3292929,14.6217172 99.5616162,17.0772727 99.5616162,20.7606061 L99.5616162,28.4621212 C99.5616162,29.5782828 98.780303,30.5828283 97.6641414,30.5828283 L97.5525253,30.5828283 C96.4363636,30.5828283 95.4318182,29.689899 95.4318182,28.4621212 C95.4318182,28.4621212 95.4318182,28.4621212 95.4318182,28.3505051 L95.4318182,21.2070707 C95.5434343,19.7560606 94.4272727,18.4166667 92.9762626,18.3050505 C92.8646465,18.3050505 92.7530303,18.3050505 92.6414141,18.3050505 C91.0787879,18.1934343 89.7393939,19.4212121 89.7393939,20.9838384 C89.7393939,21.0954545 89.7393939,21.2070707 89.7393939,21.2070707 L89.7393939,28.3505051 C89.7393939,29.4666667 88.8464646,30.4712121 87.730303,30.4712121 L87.6186869,30.4712121 C86.5025253,30.4712121 85.4979798,29.5782828 85.4979798,28.4621212 L85.4979798,28.3505051 L85.4979798,8.81767677 C85.4979798,7.70151515 86.3909091,6.6969697 87.5070707,6.6969697 L87.6186869,6.6969697 C88.7348485,6.6969697 89.6277778,7.58989899 89.7393939,8.70606061 L89.7393939,8.81767677 L89.7393939,16.2959596 C90.7439394,15.179798 92.1949495,14.6217172 93.8691919,14.6217172 Z M82.8191919,26.8994949 C83.7121212,26.7878788 84.4934343,27.4575758 84.6050505,28.3505051 C84.6050505,28.4621212 84.6050505,28.4621212 84.6050505,28.5737374 C84.6050505,29.2434343 84.1585859,29.9131313 83.6005051,30.2479798 C82.9308081,30.5828283 82.1494949,30.6944444 81.479798,30.6944444 C77.4616162,30.6944444 75.3409091,28.6853535 75.3409091,25.0020202 L75.3409091,18.5282828 L74.4479798,18.5282828 C73.4434343,18.639899 72.6621212,17.8585859 72.5505051,16.9656566 C72.4388889,15.9611111 73.220202,15.179798 74.1131313,15.0681818 C74.2247475,15.0681818 74.3363636,15.0681818 74.4479798,15.0681818 L75.3409091,15.0681818 L75.3409091,12.9474747 C75.3409091,11.8313131 76.2338384,10.8267677 77.4616162,10.8267677 C78.5777778,10.8267677 79.5823232,11.719697 79.5823232,12.9474747 L79.5823232,12.9474747 L79.5823232,15.0681818 L82.3727273,15.0681818 C83.3772727,14.9565657 84.1585859,15.7378788 84.270202,16.6308081 C84.3818182,17.6353535 83.6005051,18.4166667 82.7075758,18.5282828 C82.5959596,18.5282828 82.4843434,18.5282828 82.3727273,18.5282828 L79.5823232,18.5282828 L79.5823232,24.5555556 C79.5823232,26.229798 80.3636364,26.8994949 82.3727273,26.8994949 L82.8191919,26.8994949 Z" id="SVGID_3_" fill="#000000"></path>
                    <path d="M39.8469697,8.59444444 L30.0247475,23.2161616 L42.7489899,23.2161616 L32.1454545,39.6237374 L40.2934343,39.6237374 L31.2525253,57.2590909 C29.8015152,57.4823232 28.2388889,57.5939394 26.7878788,57.5939394 C12.2777778,57.5939394 0.558080808,45.8742424 0.558080808,31.3641414 C0.558080808,16.8540404 12.2777778,5.13434343 26.7878788,5.13434343 C31.4757576,5.13434343 35.940404,6.36212121 39.8469697,8.59444444 L39.8469697,8.59444444 Z" id="SVGID_5_" fill="url(#linearGradient-1)"></path>
                    <g id="Group" transform="translate(29.020202, 0.000000)">
                        <polygon id="Path" fill="#000000" points="20.3141414 0.558080808 36.4984848 0.334848485 25.7833333 14.0636364 34.8242424 14.0636364 20.3141414 33.15 27.6808081 33.15 0.558080808 62.7282828 16.0727273 37.3914141 9.48737374 37.3914141 19.1979798 22.1 5.69242424 22.1"></polygon>
                        <polygon id="Path" fill="#D9302F" points="20.3141414 0.558080808 34.3777778 0.334848485 20.8722222 17.4121212 30.0247475 17.4121212 17.0772727 34.6010101 26.3414141 34.6010101 0.558080808 62.7282828 16.0727273 37.3914141 9.48737374 37.3914141 19.1979798 22.1 5.69242424 22.1"></polygon>
                    </g>
                    <ellipse id="SVGID_8_" fill="#FFFFFF" transform="translate(14.544367, 22.644865) rotate(-56.411639) translate(-14.544367, -22.644865) " cx="14.5443672" cy="22.6448655" rx="12.612117" ry="8.92893236"></ellipse>
                    <path d="M18.7515152,17.8585859 C19.309596,18.1934343 19.5328283,18.9747475 19.309596,19.5328283 C19.1979798,19.7560606 19.0863636,19.9792929 18.9747475,20.0909091 L10.0454545,28.3505051 C9.71060606,28.6853535 9.37575758,28.7969697 8.92929293,28.5737374 C8.37121212,28.2388889 8.1479798,27.4575758 8.48282828,26.7878788 C8.59444444,26.5646465 8.70606061,26.3414141 8.92929293,26.229798 L16.4075758,19.309596 L12.9474747,17.8585859 C12.3893939,17.6353535 12.1661616,16.9656566 12.3893939,16.4075758 L12.3893939,16.2959596 C12.5010101,15.7378788 13.1707071,15.4030303 13.7287879,15.5146465 L13.840404,15.5146465 L18.7515152,17.8585859 Z" id="SVGID_12_" fill="#000000"></path>
                    <g id="Group" opacity="0.2" transform="translate(32.368687, 22.323232)" fill="#FFFFFF">
                        <polygon id="Path" points="6.36212121 7.14343434 10.380303 0.892929293 3.12525253 0.892929293 1.00454545 7.14343434"></polygon>
                        <polygon id="Path" points="4.3530303 17.3005051 0.558080808 31.5873737 7.92474747 17.3005051"></polygon>
                    </g>
                    <path d="M6.80858586,37.1681818 C6.80858586,21.5419192 19.4212121,8.92929293 35.0474747,8.92929293 C35.6055556,8.92929293 36.0520202,8.92929293 36.610101,8.92929293 C33.7080808,7.70151515 30.4712121,7.03181818 27.1227273,7.03181818 C13.6171717,7.03181818 2.67878788,17.970202 2.67878788,31.4757576 C2.67878788,37.8378788 5.13434343,43.530303 9.04090909,47.8833333 C7.58989899,44.6464646 6.80858586,40.9631313 6.80858586,37.1681818 Z" id="Path" fill="#FFFFFF" opacity="0.2"></path>
                </g>
            </g>
        </g>
    </g>
</svg>