<?xml version="1.0" encoding="UTF-8"?>
<svg width="234px" height="130px" viewBox="0 0 234 130" version="1.1" xmlns="http://www.w3.org/2000/svg" xmlns:xlink="http://www.w3.org/1999/xlink">
    <title>tinka</title>
    <g id="Bg" stroke="none" stroke-width="1" fill="none" fill-rule="evenodd">
        <g id="Logos" transform="translate(-1280.000000, -864.000000)">
            <g id="tinka" transform="translate(1280.000000, 864.000000)">
                <rect id="Rectangle" x="0" y="0" width="234" height="130" rx="2"></rect>
                <g id="Group" transform="translate(13.000000, 15.000000)" fill-rule="nonzero">
                    <g transform="translate(0.000000, 22.554217)" fill="#05653D">
                        <polygon id="Path" points="6.01445783 52.1253012 13.4072289 16.0385542 0.501204819 16.0385542 2.88192771 4.26024096 41.4746988 4.26024096 39.0939759 16.0385542 26.4385542 16.0385542 19.0457831 52.1253012 6.01445783 52.1253012"></polygon>
                        <polygon id="Path" points="57.513253 52.1253012 67.6626506 2.25542169 93.8506024 29.4457831 98.9879518 4.13493976 111.518072 4.13493976 101.368675 54.0048193 75.1807229 27.0650602 70.0433735 52.2506024 57.513253 52.2506024"></polygon>
                        <polygon id="Path" points="109.638554 52.1253012 119.412048 4.26024096 132.443373 4.26024096 128.684337 22.6795181 147.73012 4.26024096 164.144578 4.26024096 141.590361 26.313253 154.99759 52.2506024 140.587952 52.2506024 131.566265 34.8337349 124.925301 41.3493976 122.66988 52.3759036 109.638554 52.3759036"></polygon>
                        <path d="M168.154217,52.1253012 L154.371084,52.1253012 L191.33494,1.00240964 L207.498795,52.1253012 L194.843373,52.1253012 L193.089157,45.860241 L172.539759,45.860241 L168.154217,52.1253012 Z M179.306024,35.8361446 L190.457831,35.8361446 L187.2,24.4337349 L179.306024,35.8361446 Z" id="Shape"></path>
                        <g transform="translate(36.337349, 3.759036)" id="Path">
                            <polygon points="20.4240964 12.2795181 22.8048193 0.501204819 9.77349398 0.501204819 7.39277108 12.2795181"></polygon>
                            <polygon points="6.39036145 17.1662651 0 48.3662651 13.0313253 48.3662651 19.4216867 17.1662651"></polygon>
                        </g>
                    </g>
                    <g transform="translate(63.903614, 0.000000)" id="Path">
                        <path d="M40.2216867,7.14216867 C51.4987952,7.14216867 61.773494,11.5277108 69.4168675,18.5445783 L79.1903614,18.5445783 C70.0433735,7.14216867 56.0096386,0 40.2216867,0 C24.4337349,0 10.4,7.26746988 1.25301205,18.5445783 L11.026506,18.5445783 C18.7951807,11.5277108 28.9445783,7.14216867 40.2216867,7.14216867 Z" fill="#E8D200"></path>
                        <path d="M39.7204819,93.0987952 C28.6939759,93.0987952 18.5445783,88.9638554 11.026506,82.0722892 L1.12771084,82.0722892 C10.2746988,93.2240964 24.1831325,100.240964 39.8457831,100.240964 C55.5084337,100.240964 69.2915663,93.0987952 78.5638554,82.0722892 L68.6650602,82.0722892 C60.7710843,88.8385542 50.746988,93.0987952 39.7204819,93.0987952 Z" fill="#E8D200"></path>
                        <path d="M40.2216867,13.9084337 C33.9566265,13.9084337 27.9421687,15.6626506 22.5542169,18.6698795 L57.7638554,18.6698795 C52.5012048,15.5373494 46.6120482,13.9084337 40.2216867,13.9084337 Z" fill="#CF191D"></path>
                        <path d="M39.7204819,86.7084337 C45.9855422,86.7084337 52,84.9542169 57.3879518,81.946988 L22.1783133,81.946988 C27.3156627,85.0795181 33.3301205,86.7084337 39.7204819,86.7084337 Z" fill="#CF191D"></path>
                    </g>
                </g>
            </g>
        </g>
    </g>
</svg>