<?xml version="1.0" encoding="UTF-8"?>
<svg width="234px" height="130px" viewBox="0 0 234 130" version="1.1" xmlns="http://www.w3.org/2000/svg" xmlns:xlink="http://www.w3.org/1999/xlink">
    <title>uk_lotto</title>
    <g id="Bg" stroke="none" stroke-width="1" fill="none" fill-rule="evenodd">
        <g id="Logos" transform="translate(-56.000000, -1470.000000)">
            <g id="uk_lotto" transform="translate(56.000000, 1470.000000)">
                <rect id="Rectangle" x="0" y="0" width="234" height="130" rx="2"></rect>
                <g id="Group-5" transform="translate(7.000000, 30.000000)" fill-rule="nonzero">
                    <path d="M29.1270142,21.8730616 C30.8204144,21.864635 32.266,23.2639333 32.266,24.973 L32.266,24.973 L32.266,56.576 C32.3765,58.4545 30.94,59.891 29.172,60.0015 L29.172,60.0015 L28.951,60.0015 C27.0725,60.0015 25.636,58.565 25.636,56.6865 L25.636,56.6865 L25.636,25.3045 C25.636,23.426 27.0725,21.879 28.951,21.879 L28.951,21.879 Z M141.132936,34.4701019 L141.44,34.476 C148.4015,34.697 153.9265,40.222 154.1475,47.1835 C153.9265,54.4765 147.9595,60.112 140.777,59.891 C133.8155,59.67 128.2905,54.0345 128.0695,47.1835 C128.2905,39.8905 134.2575,34.255 141.44,34.476 Z M207.985436,34.4701019 L208.2925,34.476 C215.254,34.697 220.779,40.222 221,47.1835 C220.779,54.4765 214.812,60.112 207.6295,59.891 C200.668,59.67 195.143,54.0345 194.922,47.1835 C195.143,39.8905 201.11,34.255 208.2925,34.476 Z M19.1165,34.476 C20.8845,34.476 22.4315,35.9125 22.4315,37.791 L22.4315,37.791 L22.4315,48.62 C22.4315,55.25 17.7905,59.891 11.271,59.891 C4.7515,59.891 2.58282284e-13,55.25 2.58282284e-13,48.62 L2.58282284e-13,48.62 L2.58282284e-13,37.791 C2.58282284e-13,35.9125 1.4365,34.476 3.315,34.476 C5.1935,34.476 6.63,35.9125 6.63,37.791 L6.63,37.791 L6.63,49.1725 C6.5195,51.6035 8.398,53.703 10.829,53.8135 L10.829,53.8135 L11.271,53.8135 C13.702,53.924 15.691,51.935 15.8015,49.504 L15.8015,49.504 L15.8015,37.791 C15.8015,35.9125 17.238,34.476 19.1165,34.476 Z M120.7765,21.879 C122.655,21.879 124.0915,23.426 124.0915,25.194 L124.0915,25.194 L124.0915,56.4655 C124.0915,58.344 122.655,59.7805 120.7765,59.7805 C118.898,59.7805 117.4615,58.344 117.4615,56.4655 L117.4615,56.4655 L117.4615,25.194 C117.4615,23.3155 118.898,21.879 120.7765,21.879 Z M180.557,28.3985 C182.4355,28.3985 183.872,29.835 183.872,31.7135 L183.872,31.7135 L183.872,35.0285 L188.292,35.0285 C189.839,35.0285 191.0545,36.244 191.0545,37.791 C191.0545,39.338 189.839,40.5535 188.292,40.5535 L188.292,40.5535 L183.872,40.5535 L183.872,50.167 C183.872,52.819 185.198,53.924 188.292,53.924 L188.292,53.924 L189.176,53.924 C190.6125,53.8135 191.9385,54.9185 192.049,56.134 L192.049,56.134 L192.049,56.355 C192.049,57.46 191.386,58.565 190.3915,59.007 C189.2865,59.449 188.1815,59.67 186.966,59.67 C180.6675,59.67 177.242,56.4655 177.242,50.4985 L177.242,50.4985 L177.242,40.3325 L175.916,40.3325 C174.7005,40.3325 173.5955,39.559 173.264,38.454 C172.9325,39.6695 171.8275,40.443 170.612,40.443 L170.612,40.443 L166.192,40.443 L166.192,50.0565 C166.192,52.7085 167.518,53.8135 170.612,53.8135 L170.612,53.8135 L171.496,53.8135 C172.9325,53.703 174.2585,54.808 174.369,56.2445 L174.369,56.2445 L174.369,56.4655 C174.369,57.5705 173.706,58.6755 172.7115,59.1175 C171.6065,59.5595 170.5015,59.7805 169.286,59.7805 C162.9875,59.7805 159.562,56.576 159.562,50.609 L159.562,50.609 L159.562,40.443 L158.236,40.443 C156.689,40.443 155.4735,39.2275 155.4735,37.6805 C155.4735,36.1335 156.689,34.918 158.236,34.918 L158.236,34.918 L159.562,34.918 L159.562,31.7135 C159.562,29.835 160.9985,28.3985 162.877,28.3985 C164.7555,28.3985 166.192,29.835 166.192,31.7135 L166.192,31.7135 L166.192,35.0285 L170.612,35.0285 C171.8275,35.0285 172.9325,35.802 173.264,36.907 C173.5955,35.6915 174.7005,34.918 175.916,34.918 L175.916,34.918 L177.242,34.918 L177.242,31.7135 C177.242,29.835 178.6785,28.3985 180.557,28.3985 Z M44.642,34.3655 C46.189,34.3655 47.6255,35.581 47.6255,37.2385 L47.6255,37.2385 L47.6255,37.349 C47.6255,38.233 47.1835,39.117 46.5205,39.6695 L46.5205,39.6695 L40.443,45.968 L47.294,54.6975 C47.736,55.25 48.0675,55.913 48.0675,56.6865 C48.178,58.2335 46.852,59.67 45.1945,59.67 L45.1945,59.67 L45.084,59.67 C44.0895,59.67 43.2055,59.228 42.653,58.4545 L42.653,58.4545 L34.3655,48.2885 C33.813,47.6255 33.4815,46.7415 33.371,45.8575 C33.4815,44.9735 33.9235,44.0895 34.5865,43.4265 L34.5865,43.4265 L42.3215,35.36 C42.874,34.697 43.758,34.3655 44.642,34.3655 Z M141.44,40.443 L141.219,40.443 C137.5725,40.443 134.9205,43.2055 134.9205,47.073 C134.6995,50.4985 137.462,53.482 140.8875,53.5925 C144.313,53.8135 147.2965,51.051 147.407,47.6255 C147.407,47.515 147.407,47.294 147.5175,47.073 C147.628,43.537 144.976,40.5535 141.44,40.443 L141.44,40.443 Z M208.2925,40.443 L208.0715,40.443 C204.425,40.443 201.773,43.2055 201.773,47.073 C201.552,50.4985 204.3145,53.482 207.74,53.5925 C211.1655,53.8135 214.149,51.051 214.2595,47.6255 C214.2595,47.515 214.2595,47.294 214.37,47.073 C214.4805,43.537 211.8285,40.5535 208.2925,40.443 L208.2925,40.443 Z" id="Combined-Shape" fill="#D22625"></path>
                    <path d="M84.5325,29.835 C85.8585,29.835 90.4995,31.7135 96.0245,34.8075 C102.6545,38.5645 105.859,42.653 105.859,48.9515 C105.5275,62.543 91.8255,69.394 83.759,69.394 C70.057,69.394 59.67,59.007 59.67,45.968 C59.67,38.5645 63.3165,30.8295 68.289,30.6085 C73.151,30.3875 76.687,43.316 76.687,45.4155 C76.687,48.178 75.0295,50.4985 72.8195,50.4985 C69.5045,50.4985 67.405,48.178 66.521,43.4265 C66.521,42.3215 66.079,41.6585 65.3055,41.6585 C64.532,41.6585 64.2005,42.3215 64.2005,43.4265 C64.8635,49.504 67.7365,52.598 72.5985,52.7085 C75.361,52.7085 77.792,51.051 78.7865,48.399 C79.4495,48.841 80.3335,49.1725 81.2175,49.1725 C83.538,49.1725 85.527,47.957 86.9635,45.526 C87.6265,45.968 88.4,46.2995 89.284,46.5205 C86.632,48.9515 85.085,52.4875 85.1955,56.134 L85.1955,56.134 L85.306,58.6755 C85.4165,59.3385 85.969,59.7805 86.632,59.7805 C87.074,59.7805 87.4055,59.449 87.516,58.565 C87.295,52.156 89.1735,48.2885 93.3725,46.9625 C95.1405,46.41 96.0245,46.189 96.356,46.0785 C95.914,46.189 94.809,46.41 94.809,45.747 C94.809,44.9735 94.146,44.5315 92.9305,44.5315 C85.4165,43.8685 81.2175,40.5535 80.3335,34.476 C80.002,30.94 81.4385,29.835 84.5325,29.835 Z M76.028797,27.0651065 L76.245,27.0725 C77.792,27.0725 79.2285,27.5145 80.444,28.3985 C73.593,34.1445 82.7645,44.2 84.3115,44.642 C82.3126778,47.3676667 80.9114832,46.8063812 79.6779564,46.2135543 L79.4793268,46.1176579 C79.2820311,46.0225133 79.0885333,45.9311667 78.897,45.8575 C78.455,38.896 76.1345,33.4815 71.9355,29.7245 C72.5985,28.067 74.3665,26.962 76.245,27.0725 Z M84.5325,2.9835 C91.1625,2.9835 97.019,14.144 101.9915,36.465 C98.124,33.15 93.5935,30.498 88.621,28.8405 C85.527,20.774 79.6705,12.7075 79.6705,8.84 C79.6705,6.0775 80.7755,2.9835 84.5325,2.9835 Z M83.6485,22.4315 L85.6375,27.7355 L83.317,27.0725 L83.6485,22.4315 Z M94.0355,-4.53859172e-14 C96.6875,-4.53859172e-14 99.1185,2.21 99.008,6.2985 C99.008,9.1715 98.4555,12.0445 97.461,14.6965 C95.472,8.7295 92.82,4.641 89.726,2.5415 C89.726,1.989 91.3835,-4.53859172e-14 94.0355,-4.53859172e-14 Z" id="Combined-Shape" fill="#3357A4"></path>
                </g>
            </g>
        </g>
    </g>
</svg>