<?xml version="1.0" encoding="UTF-8"?>
<svg width="234px" height="130px" viewBox="0 0 234 130" version="1.1" xmlns="http://www.w3.org/2000/svg" xmlns:xlink="http://www.w3.org/1999/xlink">
    <title>mega645</title>
    <defs>
        <radialGradient cx="66.733025%" cy="65.0176353%" fx="66.733025%" fy="65.0176353%" r="77.9191385%" id="radialGradient-1">
            <stop stop-color="#FF896D" offset="0%"></stop>
            <stop stop-color="#9B1413" offset="100%"></stop>
        </radialGradient>
        <radialGradient cx="49.6810345%" cy="49.8863636%" fx="49.6810345%" fy="49.8863636%" r="71.254128%" gradientTransform="translate(0.496810,0.498864),scale(0.948276,1.000000),rotate(0.091376),translate(-0.496810,-0.498864)" id="radialGradient-2">
            <stop stop-color="#73C4EF" offset="0%"></stop>
            <stop stop-color="#2474AF" offset="100%"></stop>
        </radialGradient>
        <radialGradient cx="49.7442029%" cy="49.9687023%" fx="49.7442029%" fy="49.9687023%" r="77.3392673%" gradientTransform="translate(0.497442,0.499687),scale(0.949275,1.000000),rotate(0.023186),translate(-0.497442,-0.499687)" id="radialGradient-3">
            <stop stop-color="#95C230" offset="0%"></stop>
            <stop stop-color="#2B9631" offset="100%"></stop>
        </radialGradient>
        <radialGradient cx="50%" cy="50%" fx="50%" fy="50%" r="63.1793193%" gradientTransform="translate(0.500000,0.500000),scale(0.954774,1.000000),translate(-0.500000,-0.500000)" id="radialGradient-4">
            <stop stop-color="#FAEA27" offset="0%"></stop>
            <stop stop-color="#F7A70A" offset="100%"></stop>
        </radialGradient>
        <radialGradient cx="49.9473485%" cy="49.9462151%" fx="49.9473485%" fy="49.9462151%" r="51.2474104%" gradientTransform="translate(0.499473,0.499462),scale(0.950758,1.000000),translate(-0.499473,-0.499462)" id="radialGradient-5">
            <stop stop-color="#F18825" offset="0%"></stop>
            <stop stop-color="#E94E1B" offset="100%"></stop>
        </radialGradient>
    </defs>
    <g id="Bg" stroke="none" stroke-width="1" fill="none" fill-rule="evenodd">
        <g id="Logos" transform="translate(-668.000000, -864.000000)">
            <g id="mega645" transform="translate(668.000000, 864.000000)">
                <rect id="Rectangle" x="0" y="0" width="234" height="130" rx="2"></rect>
                <g id="Group" transform="translate(7.000000, 19.000000)" fill-rule="nonzero">
                    <g transform="translate(0.000000, 32.229167)">
                        <g transform="translate(0.000000, 2.302083)" fill="#000000">
                            <polygon id="Path" points="0.575520833 43.0489583 9.09322917 0.920833333 26.1286458 23.3661458 53.7536458 0.3453125 45.1208333 43.0489583 34.7614583 43.0489583 38.4447917 24.9776042 24.2869792 37.0635417 14.7333333 24.0567708 10.9348958 43.0489583"></polygon>
                            <path d="M57.321875,17.95625 C60.6598958,14.6182292 64.6885417,12.8916667 69.6380208,12.8916667 C74.0119792,12.8916667 77.5802083,14.1578125 80.4578125,16.6901042 C83.2203125,19.2223958 84.6015625,22.3302083 84.6015625,26.24375 C84.6015625,27.7401042 84.25625,29.4666667 83.7958333,31.3083333 L62.9619792,31.3083333 L62.9619792,31.4234375 C62.9619792,33.4953125 65.609375,34.7614583 69.4078125,34.7614583 C72.2854167,34.7614583 74.7026042,33.9557292 76.5442708,32.459375 L81.49375,38.3296875 C77.6953125,41.8979167 73.0911458,43.7395833 67.4510417,43.7395833 C63.0770833,43.7395833 59.39375,42.4734375 56.63125,39.8260417 C53.86875,37.1786458 52.4875,33.840625 52.4875,29.8119792 C52.4875,25.2078125 54.0989583,21.2942708 57.321875,17.95625 Z M74.4723958,24.7473958 L74.4723958,24.7473958 C74.4723958,22.6755208 72.515625,21.1791667 69.6380208,21.1791667 C66.6453125,21.1791667 64.228125,22.790625 63.5375,24.7473958 L74.4723958,24.7473958 Z" id="Shape"></path>
                            <path d="M90.2416667,43.9697917 C92.8890625,46.0416667 95.7666667,47.0776042 98.8744792,47.0776042 C103.59375,47.0776042 106.471354,45.2359375 107.277083,41.5526042 L107.622396,40.05625 C106.126042,42.128125 103.478646,43.1640625 99.45,43.1640625 C95.996875,43.1640625 93.0041667,42.0130208 90.471875,39.5958333 C87.9395833,37.1786458 86.6734375,33.9557292 86.6734375,30.1572917 C86.6734375,25.553125 88.4,21.6395833 91.853125,18.3015625 C95.30625,14.9635417 99.1046875,13.3520833 103.478646,13.3520833 C107.852604,13.3520833 111.420833,14.7333333 112.111458,16.8052083 L112.802083,13.6973958 L123.391667,13.6973958 L117.866667,40.4015625 L117.291146,42.9338542 C117.176042,43.6244792 116.830729,44.4302083 116.370313,45.6963542 C115.909896,46.9625 115.449479,47.8833333 114.989063,48.6890625 C113.953125,50.3005208 111.996354,52.6026042 109.694271,53.86875 C107.392188,55.0197917 103.939063,56.0557292 99.9104167,56.0557292 C92.8890625,56.0557292 87.709375,54.4442708 84.25625,51.10625 L90.2416667,43.9697917 Z M103.248438,33.9557292 C105.205208,33.9557292 106.701563,33.3802083 107.967708,32.1140625 C109.348958,30.8479167 109.924479,29.4666667 109.924479,27.8552083 C109.924479,24.8625 107.507292,22.6755208 104.169271,22.6755208 C102.327604,22.6755208 100.716146,23.3661458 99.45,24.5171875 C98.06875,25.7833333 97.4932292,27.1645833 97.4932292,28.7760417 C97.4932292,31.8838542 99.9104167,33.9557292 103.248438,33.9557292 Z" id="Shape"></path>
                            <path d="M137.779687,24.4020833 C142.038542,23.9416667 143.419792,23.7114583 143.419792,22.5604167 C143.419792,21.6395833 142.038542,20.9489583 140.196875,20.9489583 C137.664583,20.9489583 135.017187,22.1 132.484896,24.4020833 L127.075,18.7619792 C130.528125,14.7333333 135.132292,12.6614583 140.8875,12.6614583 C149.059896,12.6614583 153.664062,15.884375 153.664062,21.7546875 C153.664062,22.790625 153.548958,23.5963542 153.433854,24.4020833 L151.9375,31.9989583 C151.822396,32.459375 151.822396,32.6895833 151.822396,33.0348958 C151.822396,33.9557292 152.282812,34.4161458 153.088542,34.4161458 C153.31875,34.4161458 153.433854,34.4161458 153.664062,34.3010417 L151.9375,42.7036458 C151.016667,43.1640625 149.980729,43.3942708 148.599479,43.3942708 C146.757812,43.3942708 145.491667,43.0489583 144.570833,42.5885417 C143.534896,42.0130208 142.844271,41.3223958 142.498958,40.2864583 C140.542187,42.5885417 137.434375,43.6244792 133.175521,43.6244792 C130.067708,43.6244792 127.420312,42.81875 125.463542,41.3223958 C123.506771,39.7109375 122.470833,37.7541667 122.470833,35.3369792 C122.125521,28.6609375 127.305208,25.4380208 137.779687,24.4020833 Z M135.822917,34.9916667 C139.391146,34.9916667 141.347917,33.7255208 141.923437,30.6177083 L142.038542,29.8119792 C141.693229,30.0421875 141.347917,30.1572917 140.8875,30.2723958 C139.966667,30.5026042 137.779687,30.7328125 136.628646,30.9630208 C134.096354,31.4234375 132.945312,32.2291667 132.945312,33.3802083 C132.945312,34.4161458 133.866146,34.9916667 135.822917,34.9916667 Z" id="Shape"></path>
                        </g>
                        <circle id="Oval" fill="url(#radialGradient-1)" cx="190.957812" cy="30.3875" r="29.4666667"></circle>
                        <path d="M186.583854,14.1578125 L186.583854,14.7333333 L180.483333,22.6755208 C186.814063,22.9057292 191.303125,27.3947917 191.303125,33.4953125 C191.303125,39.5958333 186.583854,44.2 180.138021,44.2 C173.692187,44.2 169.088021,39.5958333 169.088021,33.4953125 C169.088021,30.8479167 169.89375,28.5458333 171.390104,26.7041667 L180.94375,14.1578125 L186.583854,14.1578125 Z M174.152604,33.4953125 C174.152604,37.1786458 176.454687,39.8260417 180.253125,39.8260417 C184.051562,39.8260417 186.353646,37.1786458 186.353646,33.4953125 C186.353646,29.8119792 184.051562,27.1645833 180.253125,27.1645833 C176.454687,27.1645833 174.152604,29.9270833 174.152604,33.4953125 Z" id="Shape" fill="#FFFFFF"></path>
                        <g transform="translate(191.072917, 28.776042)" fill="#FFFFFF">
                            <path d="M0.3453125,12.6614583 L9.55364583,0.230208333 L10.0140625,0.230208333 L10.0140625,0.690625 L10.0140625,0.690625 L10.0140625,11.05 L11.740625,11.05 L11.740625,12.8916667 L10.0140625,12.8916667 L10.0140625,15.3088542 L7.9421875,15.3088542 L7.9421875,12.8916667 L0.3453125,12.8916667 L0.3453125,12.6614583 Z M7.9421875,11.05 L7.9421875,5.29479167 L3.7984375,11.05 L7.9421875,11.05 Z" id="Shape"></path>
                            <path d="M22.2151042,10.5895833 C22.2151042,13.6973958 20.028125,15.4239583 17.1505208,15.4239583 C15.4239583,15.4239583 14.1578125,14.9635417 13.0067708,14.1578125 L13.0067708,11.740625 L13.2369792,11.740625 C14.0427083,12.8916667 15.4239583,13.5822917 17.1505208,13.5822917 C19.1072917,13.5822917 20.1432292,12.3161458 20.1432292,10.5895833 C20.1432292,8.978125 19.2223958,7.71197917 16.9203125,7.71197917 C15.0786458,7.71197917 13.8125,8.17239583 13.8125,8.17239583 L13.8125,8.05729167 L15.5390625,0.690625 L21.9848958,0.690625 L21.9848958,2.53229167 L17.1505208,2.53229167 L16.3447917,5.8703125 C16.575,5.8703125 16.8052083,5.8703125 17.0354167,5.8703125 C20.3734375,5.8703125 22.2151042,7.596875 22.2151042,10.5895833 Z" id="Path"></path>
                        </g>
                    </g>
                    <polygon id="Path" fill="url(#radialGradient-2)" points="114.989062 26.5890625 116.715625 31.4234375 121.665104 31.4234375 117.751562 34.6463542 119.132812 39.2505208 114.989062 36.8333333 110.845312 39.2505208 112.111458 34.6463542 108.313021 31.4234375 113.147396 31.4234375"></polygon>
                    <polygon id="Path" fill="url(#radialGradient-3)" points="126.039062 9.78385417 128.110937 15.5390625 133.98125 15.5390625 129.377083 19.4526042 130.873437 24.8625 126.039062 21.9848958 121.089583 24.8625 122.585937 19.4526042 118.096875 15.5390625 123.852083 15.5390625"></polygon>
                    <polygon id="Path" fill="url(#radialGradient-4)" points="149.520312 12.7765625 152.628125 21.1791667 160.915625 21.1791667 154.354688 26.7041667 156.541667 34.6463542 149.520312 30.5026042 142.383854 34.6463542 144.570833 26.7041667 138.009896 21.1791667 146.297396 21.1791667"></polygon>
                    <polygon id="Path" fill="url(#radialGradient-5)" points="176.454687 0 180.598437 11.05 191.648437 11.05 182.900521 18.4166667 185.778125 28.8911458 176.454687 23.3661458 167.016146 28.8911458 170.008854 18.4166667 161.260937 11.05 172.310937 11.05"></polygon>
                </g>
            </g>
        </g>
    </g>
</svg>