<?xml version="1.0" encoding="UTF-8"?>
<svg width="234px" height="131px" viewBox="0 0 234 131" version="1.1" xmlns="http://www.w3.org/2000/svg" xmlns:xlink="http://www.w3.org/1999/xlink">
    <title>power655</title>
    <defs>
        <linearGradient x1="50%" y1="99.9205534%" x2="50%" y2="0%" id="linearGradient-1">
            <stop stop-color="#B73817" offset="0%"></stop>
            <stop stop-color="#E94D25" offset="100%"></stop>
        </linearGradient>
        <linearGradient x1="50.0001012%" y1="99.9742915%" x2="50.0001012%" y2="-0.0528340081%" id="linearGradient-2">
            <stop stop-color="#E77C37" offset="0%"></stop>
            <stop stop-color="#FDDA70" offset="100%"></stop>
        </linearGradient>
        <radialGradient cx="49.918942%" cy="49.9076165%" fx="49.918942%" fy="49.9076165%" r="121.941107%" gradientTransform="translate(0.499189,0.499076),scale(0.431741,1.000000),translate(-0.499189,-0.499076)" id="radialGradient-3">
            <stop stop-color="#E94D25" offset="0%"></stop>
            <stop stop-color="#CF421D" offset="100%"></stop>
        </radialGradient>
        <linearGradient x1="50%" y1="0.0796442688%" x2="50%" y2="100%" id="linearGradient-4">
            <stop stop-color="#B73817" offset="0%"></stop>
            <stop stop-color="#E94D25" offset="100%"></stop>
        </linearGradient>
        <linearGradient x1="50.0001012%" y1="0.0325910931%" x2="50.0001012%" y2="100.059717%" id="linearGradient-5">
            <stop stop-color="#E77C37" offset="0%"></stop>
            <stop stop-color="#FDDA70" offset="100%"></stop>
        </linearGradient>
        <linearGradient x1="0.153574822%" y1="50.1352201%" x2="100.1729%" y2="50.1352201%" id="linearGradient-6">
            <stop stop-color="#B73817" offset="0%"></stop>
            <stop stop-color="#E94D25" offset="100%"></stop>
        </linearGradient>
        <filter x="-3.4%" y="-13.8%" width="106.9%" height="127.7%" filterUnits="objectBoundingBox" id="filter-7">
            <feOffset dx="0" dy="1" in="SourceAlpha" result="shadowOffsetOuter1"></feOffset>
            <feGaussianBlur stdDeviation="1" in="shadowOffsetOuter1" result="shadowBlurOuter1"></feGaussianBlur>
            <feColorMatrix values="0 0 0 0 0   0 0 0 0 0   0 0 0 0 0  0 0 0 0.3 0" type="matrix" in="shadowBlurOuter1" result="shadowMatrixOuter1"></feColorMatrix>
            <feMerge>
                <feMergeNode in="shadowMatrixOuter1"></feMergeNode>
                <feMergeNode in="SourceGraphic"></feMergeNode>
            </feMerge>
        </filter>
        <linearGradient x1="49.965541%" y1="99.945977%" x2="49.965541%" y2="0.0534482759%" id="linearGradient-8">
            <stop stop-color="#B73817" offset="0%"></stop>
            <stop stop-color="#E94D25" offset="100%"></stop>
        </linearGradient>
        <linearGradient x1="50%" y1="99.9472561%" x2="50%" y2="0.0524390244%" id="linearGradient-9">
            <stop stop-color="#EA9F41" offset="0%"></stop>
            <stop stop-color="#E67A38" offset="50%"></stop>
            <stop stop-color="#EA8F3C" offset="52%"></stop>
            <stop stop-color="#F8B648" offset="100%"></stop>
        </linearGradient>
        <linearGradient x1="50.2964646%" y1="100.138931%" x2="50.2964646%" y2="0.132061069%" id="linearGradient-10">
            <stop stop-color="#B73817" offset="0%"></stop>
            <stop stop-color="#E94D25" offset="100%"></stop>
        </linearGradient>
        <linearGradient x1="49.8864865%" y1="100.138931%" x2="49.8864865%" y2="0.132061069%" id="linearGradient-11">
            <stop stop-color="#B73817" offset="0%"></stop>
            <stop stop-color="#E94D25" offset="100%"></stop>
        </linearGradient>
        <linearGradient x1="50.5386935%" y1="99.7572519%" x2="50.5386935%" y2="-0.249618321%" id="linearGradient-12">
            <stop stop-color="#B73817" offset="0%"></stop>
            <stop stop-color="#E94D25" offset="100%"></stop>
        </linearGradient>
        <linearGradient x1="49.5319249%" y1="98.9968971%" x2="49.5319249%" y2="-0.711377394%" id="linearGradient-13">
            <stop stop-color="#B73817" offset="0%"></stop>
            <stop stop-color="#E94D25" offset="100%"></stop>
        </linearGradient>
        <linearGradient x1="50.0730216%" y1="99.9384892%" x2="50.0730216%" y2="0.188848921%" id="linearGradient-14">
            <stop stop-color="#B73817" offset="0%"></stop>
            <stop stop-color="#E94D25" offset="100%"></stop>
        </linearGradient>
        <radialGradient cx="50.0730216%" cy="50.0636691%" fx="50.0730216%" fy="50.0636691%" r="56.1129496%" id="radialGradient-15">
            <stop stop-color="#E94D25" offset="0%"></stop>
            <stop stop-color="#CF421D" offset="70%"></stop>
            <stop stop-color="#7B2708" offset="100%"></stop>
        </radialGradient>
        <radialGradient cx="50.0730216%" cy="50.1276978%" fx="50.0730216%" fy="50.1276978%" r="49.8748201%" id="radialGradient-16">
            <stop stop-color="#FFFFFF" offset="0%"></stop>
            <stop stop-color="#FFFDFB" stop-opacity="0.87" offset="13%"></stop>
            <stop stop-color="#FEF4EF" stop-opacity="0.7378" offset="26.22%"></stop>
            <stop stop-color="#FDE7DA" stop-opacity="0.6044" offset="39.56%"></stop>
            <stop stop-color="#FBD3BE" stop-opacity="0.4704" offset="52.96%"></stop>
            <stop stop-color="#F8B898" stop-opacity="0.3357" offset="66.43%"></stop>
            <stop stop-color="#F3946C" stop-opacity="0.2004" offset="79.96%"></stop>
            <stop stop-color="#EC683C" stop-opacity="0.06731236" offset="93.27%"></stop>
            <stop stop-color="#E94D25" stop-opacity="0" offset="100%"></stop>
        </radialGradient>
        <linearGradient x1="50.1335526%" y1="100.262687%" x2="50.1335526%" y2="-0.339552239%" id="linearGradient-17">
            <stop stop-color="#F18529" offset="0%"></stop>
            <stop stop-color="#FFE28E" offset="100%"></stop>
        </linearGradient>
        <linearGradient x1="50.1335526%" y1="100.262687%" x2="50.1335526%" y2="-0.339552239%" id="linearGradient-18">
            <stop stop-color="#FFFFFF" stop-opacity="0" offset="0%"></stop>
            <stop stop-color="#FFFFFF" offset="100%"></stop>
        </linearGradient>
        <linearGradient x1="1.37037037%" y1="50.2980916%" x2="100.260847%" y2="50.2980916%" id="linearGradient-19">
            <stop stop-color="#B73817" offset="0%"></stop>
            <stop stop-color="#E94D25" offset="100%"></stop>
        </linearGradient>
        <linearGradient x1="-0.697315436%" y1="49.8650794%" x2="99.7785235%" y2="49.8650794%" id="linearGradient-20">
            <stop stop-color="#B73817" offset="0%"></stop>
            <stop stop-color="#E94D25" offset="100%"></stop>
        </linearGradient>
        <linearGradient x1="-0.200671141%" y1="49.8650794%" x2="100.275168%" y2="49.8650794%" id="linearGradient-21">
            <stop stop-color="#B73817" offset="0%"></stop>
            <stop stop-color="#E94D25" offset="100%"></stop>
        </linearGradient>
    </defs>
    <g id="Bg" stroke="none" stroke-width="1" fill="none" fill-rule="evenodd">
        <g id="Logos" transform="translate(-974.000000, -864.000000)">
            <g id="power655" transform="translate(974.000000, 864.000000)">
                <rect id="Rectangle" x="0" y="0" width="234" height="130" rx="2"></rect>
                <g id="Group" transform="translate(21.000000, 0.000000)" fill-rule="nonzero">
                    <g transform="translate(28.663194, 0.000000)" id="Path">
                        <g>
                            <path d="M132.08,65.78 C132.08,29.51 102.7,0 66.3,0 C29.9,0 0.52,29.38 0.52,65.78 L132.08,65.78 Z" fill="url(#linearGradient-1)"></path>
                            <g opacity="0.3" fill="#FFFFFF">
                                <path d="M132.08,65.78 C132.08,29.51 102.7,0 66.3,0 C29.9,0 0.52,29.38 0.52,65.78 L132.08,65.78 Z"></path>
                            </g>
                        </g>
                        <path d="M130.52,65.78 C130.52,30.29 101.79,1.56 66.3,1.56 C30.81,1.56 2.08,30.29 2.08,65.78 L130.52,65.78 Z" fill="url(#linearGradient-2)"></path>
                        <g transform="translate(27.300000, 23.400000)">
                            <path d="M77.22,33.15 C77.22,14.43 59.15,0.26 39.13,0.26 C19.11,0.26 1.04,14.56 1.04,33.15 L77.22,33.15 Z" fill="url(#radialGradient-3)"></path>
                            <g opacity="0.25" fill="#000000">
                                <path d="M77.22,33.15 C77.22,14.43 59.15,0.26 39.13,0.26 C19.11,0.26 1.04,14.56 1.04,33.15 L77.22,33.15 Z"></path>
                            </g>
                        </g>
                        <g transform="translate(0.000000, 63.700000)">
                            <path d="M132.08,0.52 C132.08,36.79 102.7,66.3 66.3,66.3 C29.9,66.3 0.52,36.92 0.52,0.52 L132.08,0.52 Z" fill="url(#linearGradient-4)"></path>
                            <g opacity="0.3" fill="#FFFFFF">
                                <path d="M132.08,0.52 C132.08,36.79 102.7,66.3 66.3,66.3 C29.9,66.3 0.52,36.92 0.52,0.52 L132.08,0.52 Z"></path>
                            </g>
                        </g>
                        <path d="M130.52,64.22 C130.52,99.71 101.79,128.44 66.3,128.44 C30.81,128.44 2.08,99.71 2.08,64.22 L130.52,64.22 Z" fill="url(#linearGradient-5)"></path>
                    </g>
                    <g transform="translate(31.263194, 1.300000)" fill="#FFFFFF" opacity="0.34">
                        <g transform="translate(9.100000, 9.100000)" id="Path">
                            <path d="M101.01,54.6 C101.01,28.99 80.21,8.19 54.6,8.19 C28.99,8.19 8.19,28.99 8.19,54.6 C8.19,69.03 14.69,81.9 24.96,90.35 C24.96,90.35 25.09,90.09 25.09,89.83 C25.22,89.57 25.35,89.31 25.35,89.31 C15.47,80.99 9.23,68.51 9.23,54.6 C9.23,29.64 29.51,9.36 54.47,9.36 C79.43,9.36 99.71,29.64 99.71,54.6 C99.71,67.47 94.25,79.17 85.67,87.36 C85.67,87.36 85.41,88.14 85.28,88.53 C85.15,88.92 84.63,89.83 84.63,89.83 C94.64,81.38 101.01,68.77 101.01,54.6 Z"></path>
                            <path d="M108.94,54.6 C108.94,23.79 83.2,-1.17 52,0.39 C24.18,1.69 1.69,24.31 0.39,52.13 C-0.52,72.15 9.36,89.83 24.7,99.97 C24.7,99.97 24.57,99.45 24.44,98.93 C24.31,98.41 24.44,98.15 24.44,98.15 C10.4,88.4 1.3,72.02 1.69,53.43 C2.34,25.09 25.61,1.95 53.95,1.56 C83.59,1.17 107.77,25.09 107.77,54.6 C107.77,74.23 96.85,91.52 80.86,100.75 C80.86,100.75 80.99,100.88 80.99,101.4 C80.99,101.66 80.99,102.18 80.99,102.18 C97.76,92.82 108.94,75.14 108.94,54.6 Z"></path>
                        </g>
                        <path d="M63.83,0.26 C28.73,0.26 0.39,28.73 0.39,63.7 C0.39,98.67 28.86,127.14 63.83,127.14 C98.93,127.14 127.27,98.67 127.27,63.7 C127.27,28.73 98.8,0.26 63.83,0.26 Z M63.83,126.1 C29.38,126.1 1.43,98.15 1.43,63.7 C1.43,29.25 29.38,1.3 63.83,1.3 C98.28,1.3 126.23,29.25 126.23,63.7 C126.23,98.15 98.28,126.1 63.83,126.1 Z" id="Shape"></path>
                    </g>
                    <path d="M108.483194,81.38 C108.483194,81.64 108.353194,81.9 107.963194,82.42 L79.8831944,120.51 C79.3631944,121.29 78.9731944,121.68 78.7131944,121.68 C78.4531944,121.68 77.9331944,121.42 77.8031944,121.16 C77.5431944,120.9 78.0631944,120.38 78.1931944,120.12 C78.3231944,119.99 78.3231944,119.99 78.7131944,119.34 L106.793194,81.38 C107.313194,80.73 107.573194,80.34 107.833194,80.34 C108.093194,80.34 107.573194,80.47 107.963194,80.73 C108.353194,80.99 108.483194,81.25 108.483194,81.38 Z" id="Path" stroke="#000000" stroke-width="1.2581" fill="url(#linearGradient-6)"></path>
                    <path d="M108.483194,81.38 C108.483194,81.64 108.353194,81.9 107.963194,82.42 L79.8831944,120.51 C79.3631944,121.29 78.9731944,121.68 78.7131944,121.68 C78.4531944,121.68 77.9331944,121.42 77.8031944,121.16 C77.5431944,120.9 78.0631944,120.38 78.1931944,120.12 C78.3231944,119.99 78.3231944,119.99 78.7131944,119.34 L106.793194,81.38 C107.313194,80.73 107.573194,80.34 107.833194,80.34 C108.093194,80.34 107.573194,80.47 107.963194,80.73 C108.353194,80.99 108.483194,81.25 108.483194,81.38 Z" id="Path" stroke="#FFFFFF" stroke-width="0.4194" fill="url(#linearGradient-6)"></path>
                    <g transform="translate(0.000000, 42.331250)">
                        <g filter="url(#filter-7)" transform="translate(0.063194, 0.568750)">
                            <path d="M186.03,45.24 L2.6,45.24 C1.17,45.24 0,44.07 0,42.64 L0,2.6 C0,1.17 1.17,0 2.6,0 L186.03,0 C187.46,0 188.63,1.17 188.63,2.6 L188.63,42.64 C188.5,44.07 187.33,45.24 186.03,45.24 Z" id="Path" fill="url(#linearGradient-8)"></path>
                            <path d="M185.580576,43.2046875 L3.32567402,43.2046875 C2.67846201,43.2046875 2.03125,42.7025724 2.03125,41.9493998 L2.03125,3.28653773 C2.03125,2.65889386 2.54901961,2.03125 3.32567402,2.03125 L185.580576,2.03125 C186.227788,2.03125 186.875,2.53336509 186.875,3.28653773 L186.875,41.9493998 C186.875,42.5770436 186.227788,43.2046875 185.580576,43.2046875 Z" id="Path" fill="url(#linearGradient-9)"></path>
                            <g transform="translate(6.500000, 3.900000)">
                                <path d="M23.27,21.06 C21.32,22.75 18.46,23.53 14.69,23.53 L7.54,23.53 L7.54,35.75 L0.52,35.75 L0.52,1.69 L15.21,1.69 C18.59,1.69 21.32,2.6 23.27,4.29 C25.22,6.11 26.26,8.71 26.26,12.48 C26.26,16.51 25.35,19.37 23.27,21.06 Z M17.94,8.84 C17.03,8.06 15.73,7.67 14.17,7.67 L7.8,7.67 L7.8,17.68 L14.17,17.68 C15.73,17.68 17.03,17.29 17.94,16.51 C18.85,15.73 19.24,14.43 19.24,12.61 C19.24,10.79 18.85,9.49 17.94,8.84 Z" id="Shape" stroke="#000000" stroke-width="2.0835" fill="url(#linearGradient-10)"></path>
                                <path d="M23.27,21.06 C21.32,22.75 18.46,23.53 14.69,23.53 L7.54,23.53 L7.54,35.75 L0.52,35.75 L0.52,1.69 L15.21,1.69 C18.59,1.69 21.32,2.6 23.27,4.29 C25.22,6.11 26.26,8.71 26.26,12.48 C26.26,16.51 25.35,19.37 23.27,21.06 Z M17.94,8.84 C17.03,8.06 15.73,7.67 14.17,7.67 L7.8,7.67 L7.8,17.68 L14.17,17.68 C15.73,17.68 17.03,17.29 17.94,16.51 C18.85,15.73 19.24,14.43 19.24,12.61 C19.24,10.79 18.85,9.49 17.94,8.84 Z" id="Shape" stroke="#FFFFFF" stroke-width="0.6945" fill="url(#linearGradient-10)"></path>
                                <polygon id="Path" stroke="#000000" stroke-width="2.0835" fill="url(#linearGradient-11)" points="76.7 1.69 82.16 26.65 86.97 1.69 94.51 1.69 99.58 26.65 105.17 1.69 112.45 1.69 102.83 35.75 96.07 35.75 90.74 9.23 85.41 35.75 78.78 35.75 69.16 1.69"></polygon>
                                <polygon id="Path" stroke="#FFFFFF" stroke-width="0.6945" fill="url(#linearGradient-11)" points="76.7 1.69 82.16 26.65 86.97 1.69 94.51 1.69 99.58 26.65 105.17 1.69 112.45 1.69 102.83 35.75 96.07 35.75 90.74 9.23 85.41 35.75 78.78 35.75 69.16 1.69"></polygon>
                                <polygon id="Path" stroke="#000000" stroke-width="2.0835" fill="url(#linearGradient-12)" points="141.83 7.8 123.76 7.8 123.76 15.08 140.27 15.08 140.27 21.06 123.76 21.06 123.76 29.77 142.61 29.77 142.61 35.88 116.74 35.88 116.74 1.82 141.7 1.82 141.7 7.8"></polygon>
                                <polygon id="Path" stroke="#FFFFFF" stroke-width="0.6945" fill="url(#linearGradient-12)" points="141.83 7.8 123.76 7.8 123.76 15.08 140.27 15.08 140.27 21.06 123.76 21.06 123.76 29.77 142.61 29.77 142.61 35.88 116.74 35.88 116.74 1.82 141.7 1.82 141.7 7.8"></polygon>
                                <path d="M170.04,2.6 C171.34,3.12 172.38,3.9 173.29,4.94 C174.07,5.85 174.59,6.76 174.98,7.8 C175.37,8.84 175.63,10.01 175.63,11.44 C175.63,13 175.24,14.69 174.46,16.25 C173.68,17.81 172.25,18.98 170.43,19.63 C171.99,20.28 173.16,21.19 173.81,22.36 C174.46,23.53 174.85,25.35 174.85,27.69 L174.85,30.03 C174.85,31.59 174.85,32.63 174.98,33.15 C175.11,34.06 175.63,34.71 176.28,35.1 L176.28,36.01 L168.48,36.01 C168.22,35.23 168.09,34.71 167.96,34.19 C167.83,33.28 167.7,32.24 167.7,31.2 L167.7,28.08 C167.7,25.87 167.31,24.44 166.53,23.79 C165.75,23.01 164.45,22.75 162.5,22.75 L155.61,22.75 L155.61,36.14 L148.59,36.14 L148.59,2.08 L164.84,2.08 C167.05,1.82 168.87,2.08 170.04,2.6 Z M155.35,7.67 L155.35,16.77 L163.02,16.77 C164.58,16.77 165.62,16.64 166.4,16.25 C167.7,15.6 168.48,14.3 168.48,12.35 C168.48,10.27 167.83,8.84 166.53,8.19 C165.75,7.8 164.71,7.54 163.28,7.54 L155.35,7.54 L155.35,7.67 Z" id="Shape" stroke="#000000" stroke-width="2.0835" fill="url(#linearGradient-13)"></path>
                                <path d="M170.04,2.6 C171.34,3.12 172.38,3.9 173.29,4.94 C174.07,5.85 174.59,6.76 174.98,7.8 C175.37,8.84 175.63,10.01 175.63,11.44 C175.63,13 175.24,14.69 174.46,16.25 C173.68,17.81 172.25,18.98 170.43,19.63 C171.99,20.28 173.16,21.19 173.81,22.36 C174.46,23.53 174.85,25.35 174.85,27.69 L174.85,30.03 C174.85,31.59 174.85,32.63 174.98,33.15 C175.11,34.06 175.63,34.71 176.28,35.1 L176.28,36.01 L168.48,36.01 C168.22,35.23 168.09,34.71 167.96,34.19 C167.83,33.28 167.7,32.24 167.7,31.2 L167.7,28.08 C167.7,25.87 167.31,24.44 166.53,23.79 C165.75,23.01 164.45,22.75 162.5,22.75 L155.61,22.75 L155.61,36.14 L148.59,36.14 L148.59,2.08 L164.84,2.08 C167.05,1.82 168.87,2.08 170.04,2.6 Z M155.35,7.67 L155.35,16.77 L163.02,16.77 C164.58,16.77 165.62,16.64 166.4,16.25 C167.7,15.6 168.48,14.3 168.48,12.35 C168.48,10.27 167.83,8.84 166.53,8.19 C165.75,7.8 164.71,7.54 163.28,7.54 L155.35,7.54 L155.35,7.67 Z" id="Shape" stroke="#FFFFFF" stroke-width="0.6945" fill="url(#linearGradient-13)"></path>
                                <circle id="Oval" stroke="#000000" stroke-width="2.0835" fill="url(#linearGradient-14)" cx="48.75" cy="18.72" r="18.07"></circle>
                                <circle id="Oval" stroke="#FFFFFF" stroke-width="0.6945" fill="url(#radialGradient-15)" cx="48.75" cy="18.72" r="18.07"></circle>
                                <circle id="Oval" fill="url(#radialGradient-16)" cx="48.75" cy="18.72" r="18.07"></circle>
                                <polygon id="Path" fill="#FFFFFF" points="48.75 6.89 51.48 15.08 60.84 15.08 53.43 20.8 56.81 29.51 48.75 23.53 40.82 29.51 43.81 20.8 36.66 15.08 46.15 15.08"></polygon>
                                <g transform="translate(37.700000, 9.100000)" id="Path">
                                    <polygon fill="url(#linearGradient-17)" points="11.05 0.39 13.13 6.76 20.93 6.63 14.69 11.31 17.29 17.81 11.05 13.13 4.94 17.81 7.28 11.31 1.17 6.76 8.97 6.76"></polygon>
                                    <polygon fill="url(#linearGradient-18)" points="11.05 0.39 13.13 6.76 20.93 6.63 14.69 11.31 17.29 17.81 11.05 13.13 4.94 17.81 7.28 11.31 1.17 6.76 8.97 6.76"></polygon>
                                </g>
                            </g>
                        </g>
                    </g>
                    <g transform="translate(65.063194, 80.600000)" stroke="#000000" stroke-width="1.2581">
                        <path d="M24.83,3.9 C24.83,4.68 24.57,5.2 24.18,5.72 C23.79,6.24 23.27,6.5 22.62,6.5 C22.1,6.5 21.58,6.37 21.19,5.98 C20.8,5.59 20.54,5.2 20.54,4.81 C20.54,4.55 20.67,4.16 21.06,3.77 C21.32,3.38 21.45,3.12 21.45,2.73 C21.45,1.95 20.93,1.56 19.76,1.56 C17.94,1.56 15.99,2.86 13.65,5.59 C11.96,7.54 10.27,10.66 8.19,14.82 C9.88,13.52 11.7,13 13.78,13 C15.73,13 17.29,13.65 18.33,14.82 C19.37,15.99 19.89,17.81 19.89,19.89 C19.89,23.79 18.59,27.3 15.99,30.29 C13.39,33.28 10.4,34.71 7.02,34.71 C4.94,34.71 3.38,33.93 2.08,32.5 C0.91,30.94 0.26,28.99 0.26,26.39 C0.26,23.01 1.17,19.37 3.12,15.47 C5.07,11.57 7.67,8.06 10.79,5.07 C13.91,2.08 16.9,0.65 20.02,0.65 C21.45,0.65 22.49,0.91 23.27,1.56 C24.44,2.21 24.83,2.99 24.83,3.9 Z M16.12,19.63 C16.12,18.2 15.86,16.9 15.34,15.86 C14.82,14.82 13.91,14.3 12.61,14.3 C10.14,14.3 8.19,15.6 6.89,18.33 C6.11,19.76 5.46,21.84 4.81,24.31 C4.16,26.78 3.9,28.73 3.9,30.16 C3.9,31.2 4.29,32.11 4.94,32.89 C5.59,33.67 6.5,33.93 7.41,33.93 C9.75,33.93 11.83,31.98 13.78,28.21 C15.34,24.7 16.12,21.84 16.12,19.63 Z" id="Shape" fill="url(#linearGradient-19)"></path>
                        <g transform="translate(24.700000, 16.900000)" id="Path">
                            <path d="M19.37,1.3 C19.37,1.56 19.11,1.95 18.72,2.73 C18.33,3.38 17.81,4.03 17.55,4.29 C17.03,4.68 16.38,4.94 15.47,4.94 C14.56,4.94 13.39,4.81 11.7,4.55 C11.18,4.42 10.27,4.29 9.1,4.16 L6.11,11.44 C7.54,10.53 8.97,10.01 10.4,10.01 C11.83,10.01 12.87,10.53 13.78,11.57 C14.69,12.61 15.08,13.91 15.08,15.6 C15.08,18.33 14.04,20.54 12.09,22.62 C10.14,24.57 7.67,25.61 4.94,25.61 C3.51,25.61 2.34,25.22 1.43,24.57 C0.52,23.79 0,22.88 0,21.84 C0,21.06 0.26,20.41 0.65,20.02 C1.04,19.5 1.56,19.24 2.08,19.24 C2.6,19.24 2.99,19.37 3.25,19.63 C3.64,19.89 3.77,20.28 3.77,20.67 C3.77,21.19 3.25,21.71 2.34,22.23 C2.08,22.36 1.82,22.62 1.82,22.88 C1.82,23.4 2.08,23.92 2.6,24.31 C3.12,24.7 3.9,24.83 4.81,24.83 C6.89,24.83 8.58,23.79 10.01,21.58 C11.31,19.63 11.83,17.68 11.83,15.47 C11.83,12.61 10.92,11.18 8.97,11.18 C7.41,11.18 6.11,12.09 4.94,14.04 C4.81,14.17 4.68,14.3 4.55,14.3 C4.29,14.3 4.03,14.17 4.03,13.91 C4.03,13.78 4.03,13.65 4.16,13.52 C5.59,10.4 7.15,6.5 8.97,1.82 C9.1,1.56 9.23,1.56 9.36,1.56 L16.25,2.21 C16.77,2.21 17.16,2.34 17.42,2.34 C17.81,2.34 18.2,2.08 18.46,1.69 C18.72,1.3 18.98,1.04 19.11,1.04 C19.24,1.04 19.37,1.17 19.37,1.3 Z" fill="url(#linearGradient-20)"></path>
                            <path d="M34.45,1.3 C34.45,1.56 34.19,1.95 33.8,2.73 C33.41,3.38 32.89,4.03 32.63,4.29 C32.11,4.68 31.46,4.94 30.55,4.94 C29.64,4.94 28.47,4.81 26.78,4.55 C26.26,4.42 25.35,4.29 24.18,4.16 L21.19,11.44 C22.62,10.53 24.05,10.01 25.48,10.01 C26.91,10.01 27.95,10.53 28.86,11.57 C29.77,12.61 30.16,13.91 30.16,15.6 C30.16,18.33 29.12,20.54 27.17,22.62 C25.22,24.57 22.75,25.61 20.02,25.61 C18.59,25.61 17.42,25.22 16.51,24.57 C15.6,23.79 15.08,22.88 15.08,21.84 C15.08,21.06 15.34,20.41 15.73,20.02 C16.12,19.5 16.64,19.24 17.16,19.24 C17.68,19.24 18.07,19.37 18.33,19.63 C18.72,19.89 18.85,20.28 18.85,20.67 C18.85,21.19 18.33,21.71 17.42,22.23 C17.16,22.36 16.9,22.62 16.9,22.88 C16.9,23.4 17.16,23.92 17.68,24.31 C18.2,24.7 18.98,24.83 19.89,24.83 C21.97,24.83 23.66,23.79 25.09,21.58 C26.39,19.63 26.91,17.68 26.91,15.47 C26.91,12.61 26,11.18 24.05,11.18 C22.49,11.18 21.19,12.09 20.02,14.04 C19.89,14.17 19.76,14.3 19.63,14.3 C19.37,14.3 19.11,14.17 19.11,13.91 C19.11,13.78 19.11,13.65 19.24,13.52 C20.67,10.4 22.23,6.5 24.05,1.82 C24.18,1.56 24.31,1.56 24.44,1.56 L31.33,2.21 C31.85,2.21 32.24,2.34 32.5,2.34 C32.89,2.34 33.28,2.08 33.54,1.69 C33.8,1.3 34.06,1.04 34.19,1.04 C34.45,1.04 34.45,1.17 34.45,1.3 Z" fill="url(#linearGradient-21)"></path>
                        </g>
                    </g>
                    <g transform="translate(65.063194, 80.600000)" stroke="#FFFFFF" stroke-width="0.4194">
                        <path d="M24.83,3.9 C24.83,4.68 24.57,5.2 24.18,5.72 C23.79,6.24 23.27,6.5 22.62,6.5 C22.1,6.5 21.58,6.37 21.19,5.98 C20.8,5.59 20.54,5.2 20.54,4.81 C20.54,4.55 20.67,4.16 21.06,3.77 C21.32,3.38 21.45,3.12 21.45,2.73 C21.45,1.95 20.93,1.56 19.76,1.56 C17.94,1.56 15.99,2.86 13.65,5.59 C11.96,7.54 10.27,10.66 8.19,14.82 C9.88,13.52 11.7,13 13.78,13 C15.73,13 17.29,13.65 18.33,14.82 C19.37,15.99 19.89,17.81 19.89,19.89 C19.89,23.79 18.59,27.3 15.99,30.29 C13.39,33.28 10.4,34.71 7.02,34.71 C4.94,34.71 3.38,33.93 2.08,32.5 C0.91,30.94 0.26,28.99 0.26,26.39 C0.26,23.01 1.17,19.37 3.12,15.47 C5.07,11.57 7.67,8.06 10.79,5.07 C13.91,2.08 16.9,0.65 20.02,0.65 C21.45,0.65 22.49,0.91 23.27,1.56 C24.44,2.21 24.83,2.99 24.83,3.9 Z M16.12,19.63 C16.12,18.2 15.86,16.9 15.34,15.86 C14.82,14.82 13.91,14.3 12.61,14.3 C10.14,14.3 8.19,15.6 6.89,18.33 C6.11,19.76 5.46,21.84 4.81,24.31 C4.16,26.78 3.9,28.73 3.9,30.16 C3.9,31.2 4.29,32.11 4.94,32.89 C5.59,33.67 6.5,33.93 7.41,33.93 C9.75,33.93 11.83,31.98 13.78,28.21 C15.34,24.7 16.12,21.84 16.12,19.63 Z" id="Shape" fill="url(#linearGradient-19)"></path>
                        <g transform="translate(24.700000, 16.900000)" id="Path">
                            <path d="M19.37,1.3 C19.37,1.56 19.11,1.95 18.72,2.73 C18.33,3.38 17.81,4.03 17.55,4.29 C17.03,4.68 16.38,4.94 15.47,4.94 C14.56,4.94 13.39,4.81 11.7,4.55 C11.18,4.42 10.27,4.29 9.1,4.16 L6.11,11.44 C7.54,10.53 8.97,10.01 10.4,10.01 C11.83,10.01 12.87,10.53 13.78,11.57 C14.69,12.61 15.08,13.91 15.08,15.6 C15.08,18.33 14.04,20.54 12.09,22.62 C10.14,24.57 7.67,25.61 4.94,25.61 C3.51,25.61 2.34,25.22 1.43,24.57 C0.52,23.79 0,22.88 0,21.84 C0,21.06 0.26,20.41 0.65,20.02 C1.04,19.5 1.56,19.24 2.08,19.24 C2.6,19.24 2.99,19.37 3.25,19.63 C3.64,19.89 3.77,20.28 3.77,20.67 C3.77,21.19 3.25,21.71 2.34,22.23 C2.08,22.36 1.82,22.62 1.82,22.88 C1.82,23.4 2.08,23.92 2.6,24.31 C3.12,24.7 3.9,24.83 4.81,24.83 C6.89,24.83 8.58,23.79 10.01,21.58 C11.31,19.63 11.83,17.68 11.83,15.47 C11.83,12.61 10.92,11.18 8.97,11.18 C7.41,11.18 6.11,12.09 4.94,14.04 C4.81,14.17 4.68,14.3 4.55,14.3 C4.29,14.3 4.03,14.17 4.03,13.91 C4.03,13.78 4.03,13.65 4.16,13.52 C5.59,10.4 7.15,6.5 8.97,1.82 C9.1,1.56 9.23,1.56 9.36,1.56 L16.25,2.21 C16.77,2.21 17.16,2.34 17.42,2.34 C17.81,2.34 18.2,2.08 18.46,1.69 C18.72,1.3 18.98,1.04 19.11,1.04 C19.24,1.04 19.37,1.17 19.37,1.3 Z" fill="url(#linearGradient-20)"></path>
                            <path d="M34.45,1.3 C34.45,1.56 34.19,1.95 33.8,2.73 C33.41,3.38 32.89,4.03 32.63,4.29 C32.11,4.68 31.46,4.94 30.55,4.94 C29.64,4.94 28.47,4.81 26.78,4.55 C26.26,4.42 25.35,4.29 24.18,4.16 L21.19,11.44 C22.62,10.53 24.05,10.01 25.48,10.01 C26.91,10.01 27.95,10.53 28.86,11.57 C29.77,12.61 30.16,13.91 30.16,15.6 C30.16,18.33 29.12,20.54 27.17,22.62 C25.22,24.57 22.75,25.61 20.02,25.61 C18.59,25.61 17.42,25.22 16.51,24.57 C15.6,23.79 15.08,22.88 15.08,21.84 C15.08,21.06 15.34,20.41 15.73,20.02 C16.12,19.5 16.64,19.24 17.16,19.24 C17.68,19.24 18.07,19.37 18.33,19.63 C18.72,19.89 18.85,20.28 18.85,20.67 C18.85,21.19 18.33,21.71 17.42,22.23 C17.16,22.36 16.9,22.62 16.9,22.88 C16.9,23.4 17.16,23.92 17.68,24.31 C18.2,24.7 18.98,24.83 19.89,24.83 C21.97,24.83 23.66,23.79 25.09,21.58 C26.39,19.63 26.91,17.68 26.91,15.47 C26.91,12.61 26,11.18 24.05,11.18 C22.49,11.18 21.19,12.09 20.02,14.04 C19.89,14.17 19.76,14.3 19.63,14.3 C19.37,14.3 19.11,14.17 19.11,13.91 C19.11,13.78 19.11,13.65 19.24,13.52 C20.67,10.4 22.23,6.5 24.05,1.82 C24.18,1.56 24.31,1.56 24.44,1.56 L31.33,2.21 C31.85,2.21 32.24,2.34 32.5,2.34 C32.89,2.34 33.28,2.08 33.54,1.69 C33.8,1.3 34.06,1.04 34.19,1.04 C34.45,1.04 34.45,1.17 34.45,1.3 Z" fill="url(#linearGradient-21)"></path>
                        </g>
                    </g>
                </g>
            </g>
        </g>
    </g>
</svg>